<?xml version="1.0" encoding="UTF-8" standalone="no"?><svg xmlns="http://www.w3.org/2000/svg" xmlns:xlink="http://www.w3.org/1999/xlink" contentScriptType="application/ecmascript" contentStyleType="text/css" height="1776px" preserveAspectRatio="none" style="width:1783px;height:1776px;" version="1.1" viewBox="0 0 1783 1776" width="1783px" zoomAndPan="magnify"><defs><filter height="300%" id="f1nnpy4qm0v0hk" width="300%" x="-1" y="-1"><feGaussianBlur result="blurOut" stdDeviation="2.0"/><feColorMatrix in="blurOut" result="blurOut2" type="matrix" values="0 0 0 0 0 0 0 0 0 0 0 0 0 0 0 0 0 0 .4 0"/><feOffset dx="4.0" dy="4.0" in="blurOut2" result="blurOut3"/><feBlend in="SourceGraphic" in2="blurOut3" mode="normal"/></filter></defs><g><text fill="#000000" font-family="sans-serif" font-size="18" lengthAdjust="spacingAndGlyphs" textLength="384" x="698.5" y="26.708">TSG Flooring Corp - editOrder() Sequence</text><line style="stroke: #A80036; stroke-width: 1.0; stroke-dasharray: 5.0,5.0;" x1="34" x2="34" y1="73.25" y2="1728.2891"/><line style="stroke: #A80036; stroke-width: 1.0; stroke-dasharray: 5.0,5.0;" x1="339.5" x2="339.5" y1="73.25" y2="1728.2891"/><line style="stroke: #A80036; stroke-width: 1.0; stroke-dasharray: 5.0,5.0;" x1="686.5" x2="686.5" y1="73.25" y2="1728.2891"/><line style="stroke: #A80036; stroke-width: 1.0; stroke-dasharray: 5.0,5.0;" x1="1452.5" x2="1452.5" y1="73.25" y2="1728.2891"/><line style="stroke: #A80036; stroke-width: 1.0; stroke-dasharray: 5.0,5.0;" x1="1567" x2="1567" y1="73.25" y2="1728.2891"/><line style="stroke: #A80036; stroke-width: 1.0; stroke-dasharray: 5.0,5.0;" x1="1671" x2="1671" y1="73.25" y2="1728.2891"/><rect fill="#FEFECE" filter="url(#f1nnpy4qm0v0hk)" height="30.2969" style="stroke: #A80036; stroke-width: 1.5;" width="48" x="8" y="37.9531"/><text fill="#000000" font-family="sans-serif" font-size="14" lengthAdjust="spacingAndGlyphs" textLength="34" x="15" y="57.9482">View</text><rect fill="#FEFECE" filter="url(#f1nnpy4qm0v0hk)" height="30.2969" style="stroke: #A80036; stroke-width: 1.5;" width="48" x="8" y="1727.2891"/><text fill="#000000" font-family="sans-serif" font-size="14" lengthAdjust="spacingAndGlyphs" textLength="34" x="15" y="1747.2842">View</text><rect fill="#FEFECE" filter="url(#f1nnpy4qm0v0hk)" height="30.2969" style="stroke: #A80036; stroke-width: 1.5;" width="87" x="294.5" y="37.9531"/><text fill="#000000" font-family="sans-serif" font-size="14" lengthAdjust="spacingAndGlyphs" textLength="73" x="301.5" y="57.9482">Controller</text><rect fill="#FEFECE" filter="url(#f1nnpy4qm0v0hk)" height="30.2969" style="stroke: #A80036; stroke-width: 1.5;" width="87" x="294.5" y="1727.2891"/><text fill="#000000" font-family="sans-serif" font-size="14" lengthAdjust="spacingAndGlyphs" textLength="73" x="301.5" y="1747.2842">Controller</text><rect fill="#FEFECE" filter="url(#f1nnpy4qm0v0hk)" height="30.2969" style="stroke: #A80036; stroke-width: 1.5;" width="67" x="651.5" y="37.9531"/><text fill="#000000" font-family="sans-serif" font-size="14" lengthAdjust="spacingAndGlyphs" textLength="53" x="658.5" y="57.9482">Service</text><rect fill="#FEFECE" filter="url(#f1nnpy4qm0v0hk)" height="30.2969" style="stroke: #A80036; stroke-width: 1.5;" width="67" x="651.5" y="1727.2891"/><text fill="#000000" font-family="sans-serif" font-size="14" lengthAdjust="spacingAndGlyphs" textLength="53" x="658.5" y="1747.2842">Service</text><rect fill="#FEFECE" filter="url(#f1nnpy4qm0v0hk)" height="30.2969" style="stroke: #A80036; stroke-width: 1.5;" width="83" x="1409.5" y="37.9531"/><text fill="#000000" font-family="sans-serif" font-size="14" lengthAdjust="spacingAndGlyphs" textLength="69" x="1416.5" y="57.9482">OrderDao</text><rect fill="#FEFECE" filter="url(#f1nnpy4qm0v0hk)" height="30.2969" style="stroke: #A80036; stroke-width: 1.5;" width="83" x="1409.5" y="1727.2891"/><text fill="#000000" font-family="sans-serif" font-size="14" lengthAdjust="spacingAndGlyphs" textLength="69" x="1416.5" y="1747.2842">OrderDao</text><rect fill="#FEFECE" filter="url(#f1nnpy4qm0v0hk)" height="30.2969" style="stroke: #A80036; stroke-width: 1.5;" width="82" x="1524" y="37.9531"/><text fill="#000000" font-family="sans-serif" font-size="14" lengthAdjust="spacingAndGlyphs" textLength="68" x="1531" y="57.9482">StateDao</text><rect fill="#FEFECE" filter="url(#f1nnpy4qm0v0hk)" height="30.2969" style="stroke: #A80036; stroke-width: 1.5;" width="82" x="1524" y="1727.2891"/><text fill="#000000" font-family="sans-serif" font-size="14" lengthAdjust="spacingAndGlyphs" textLength="68" x="1531" y="1747.2842">StateDao</text><rect fill="#FEFECE" filter="url(#f1nnpy4qm0v0hk)" height="30.2969" style="stroke: #A80036; stroke-width: 1.5;" width="98" x="1620" y="37.9531"/><text fill="#000000" font-family="sans-serif" font-size="14" lengthAdjust="spacingAndGlyphs" textLength="84" x="1627" y="57.9482">ProductDao</text><rect fill="#FEFECE" filter="url(#f1nnpy4qm0v0hk)" height="30.2969" style="stroke: #A80036; stroke-width: 1.5;" width="98" x="1620" y="1727.2891"/><text fill="#000000" font-family="sans-serif" font-size="14" lengthAdjust="spacingAndGlyphs" textLength="84" x="1627" y="1747.2842">ProductDao</text><polygon fill="#A80036" points="45,100.3828,35,104.3828,45,108.3828,41,104.3828" style="stroke: #A80036; stroke-width: 1.0;"/><line style="stroke: #A80036; stroke-width: 1.0;" x1="39" x2="339" y1="104.3828" y2="104.3828"/><text fill="#000000" font-family="sans-serif" font-size="13" lengthAdjust="spacingAndGlyphs" textLength="160" x="51" y="99.3169">displayEditOrderBanner()</text><polygon fill="#A80036" points="328,129.5156,338,133.5156,328,137.5156,332,133.5156" style="stroke: #A80036; stroke-width: 1.0;"/><line style="stroke: #A80036; stroke-width: 1.0; stroke-dasharray: 2.0,2.0;" x1="34" x2="334" y1="133.5156" y2="133.5156"/><text fill="#000000" font-family="sans-serif" font-size="13" lengthAdjust="spacingAndGlyphs" textLength="27" x="41" y="128.4497">void</text><polygon fill="#A80036" points="45,158.6484,35,162.6484,45,166.6484,41,162.6484" style="stroke: #A80036; stroke-width: 1.0;"/><line style="stroke: #A80036; stroke-width: 1.0;" x1="39" x2="339" y1="162.6484" y2="162.6484"/><text fill="#000000" font-family="sans-serif" font-size="13" lengthAdjust="spacingAndGlyphs" textLength="136" x="51" y="157.5825">getSingleOrderDate()</text><polygon fill="#A80036" points="328,187.7813,338,191.7813,328,195.7813,332,191.7813" style="stroke: #A80036; stroke-width: 1.0;"/><line style="stroke: #A80036; stroke-width: 1.0; stroke-dasharray: 2.0,2.0;" x1="34" x2="334" y1="191.7813" y2="191.7813"/><text fill="#000000" font-family="sans-serif" font-size="13" lengthAdjust="spacingAndGlyphs" textLength="64" x="41" y="186.7153">LocalDate</text><polygon fill="#A80036" points="45,216.9141,35,220.9141,45,224.9141,41,220.9141" style="stroke: #A80036; stroke-width: 1.0;"/><line style="stroke: #A80036; stroke-width: 1.0;" x1="39" x2="339" y1="220.9141" y2="220.9141"/><text fill="#000000" font-family="sans-serif" font-size="13" lengthAdjust="spacingAndGlyphs" textLength="97" x="51" y="215.8481">getOrderNum()</text><polygon fill="#A80036" points="328,246.0469,338,250.0469,328,254.0469,332,250.0469" style="stroke: #A80036; stroke-width: 1.0;"/><line style="stroke: #A80036; stroke-width: 1.0; stroke-dasharray: 2.0,2.0;" x1="34" x2="334" y1="250.0469" y2="250.0469"/><text fill="#000000" font-family="sans-serif" font-size="13" lengthAdjust="spacingAndGlyphs" textLength="16" x="41" y="244.981">int</text><polygon fill="#A80036" points="675,275.1797,685,279.1797,675,283.1797,679,279.1797" style="stroke: #A80036; stroke-width: 1.0;"/><line style="stroke: #A80036; stroke-width: 1.0;" x1="340" x2="681" y1="279.1797" y2="279.1797"/><text fill="#000000" font-family="sans-serif" font-size="13" lengthAdjust="spacingAndGlyphs" textLength="155" x="347" y="274.1138">getOrder(LocalDate, int)</text><polygon fill="#A80036" points="1441,304.3125,1451,308.3125,1441,312.3125,1445,308.3125" style="stroke: #A80036; stroke-width: 1.0;"/><line style="stroke: #A80036; stroke-width: 1.0;" x1="687" x2="1447" y1="308.3125" y2="308.3125"/><text fill="#000000" font-family="sans-serif" font-size="13" lengthAdjust="spacingAndGlyphs" textLength="155" x="694" y="303.2466">getOrder(LocalDate, int)</text><polygon fill="#A80036" points="698,333.4453,688,337.4453,698,341.4453,694,337.4453" style="stroke: #A80036; stroke-width: 1.0;"/><line style="stroke: #A80036; stroke-width: 1.0; stroke-dasharray: 2.0,2.0;" x1="692" x2="1452" y1="337.4453" y2="337.4453"/><text fill="#000000" font-family="sans-serif" font-size="13" lengthAdjust="spacingAndGlyphs" textLength="36" x="704" y="332.3794">Order</text><polygon fill="#A80036" points="351,362.5781,341,366.5781,351,370.5781,347,366.5781" style="stroke: #A80036; stroke-width: 1.0;"/><line style="stroke: #A80036; stroke-width: 1.0; stroke-dasharray: 2.0,2.0;" x1="345" x2="686" y1="366.5781" y2="366.5781"/><text fill="#000000" font-family="sans-serif" font-size="13" lengthAdjust="spacingAndGlyphs" textLength="36" x="357" y="361.5122">Order</text><polygon fill="#A80036" points="45,391.7109,35,395.7109,45,399.7109,41,395.7109" style="stroke: #A80036; stroke-width: 1.0;"/><line style="stroke: #A80036; stroke-width: 1.0;" x1="39" x2="339" y1="395.7109" y2="395.7109"/><text fill="#000000" font-family="sans-serif" font-size="13" lengthAdjust="spacingAndGlyphs" textLength="203" x="51" y="390.645">inputEditCustomerName(Order)</text><polygon fill="#A80036" points="328,420.8438,338,424.8438,328,428.8438,332,424.8438" style="stroke: #A80036; stroke-width: 1.0;"/><line style="stroke: #A80036; stroke-width: 1.0; stroke-dasharray: 2.0,2.0;" x1="34" x2="334" y1="424.8438" y2="424.8438"/><text fill="#000000" font-family="sans-serif" font-size="13" lengthAdjust="spacingAndGlyphs" textLength="37" x="41" y="419.7778">String</text><polygon fill="#A80036" points="675,449.9766,685,453.9766,675,457.9766,679,453.9766" style="stroke: #A80036; stroke-width: 1.0;"/><line style="stroke: #A80036; stroke-width: 1.0;" x1="340" x2="681" y1="453.9766" y2="453.9766"/><text fill="#000000" font-family="sans-serif" font-size="13" lengthAdjust="spacingAndGlyphs" textLength="161" x="347" y="448.9106">getValidStatesList(Order)</text><polygon fill="#A80036" points="1555,479.1094,1565,483.1094,1555,487.1094,1559,483.1094" style="stroke: #A80036; stroke-width: 1.0;"/><line style="stroke: #A80036; stroke-width: 1.0;" x1="687" x2="1561" y1="483.1094" y2="483.1094"/><text fill="#000000" font-family="sans-serif" font-size="13" lengthAdjust="spacingAndGlyphs" textLength="103" x="694" y="478.0435">getValidStates()</text><line style="stroke: #A80036; stroke-width: 1.0; stroke-dasharray: 2.0,2.0;" x1="1567" x2="1609" y1="512.2422" y2="512.2422"/><line style="stroke: #A80036; stroke-width: 1.0; stroke-dasharray: 2.0,2.0;" x1="1609" x2="1609" y1="512.2422" y2="525.2422"/><line style="stroke: #A80036; stroke-width: 1.0; stroke-dasharray: 2.0,2.0;" x1="1568" x2="1609" y1="525.2422" y2="525.2422"/><polygon fill="#A80036" points="1578,521.2422,1568,525.2422,1578,529.2422,1574,525.2422" style="stroke: #A80036; stroke-width: 1.0;"/><text fill="#000000" font-family="sans-serif" font-size="13" lengthAdjust="spacingAndGlyphs" textLength="78" x="1574" y="507.1763">loadStates()</text><polygon fill="#A80036" points="698,550.375,688,554.375,698,558.375,694,554.375" style="stroke: #A80036; stroke-width: 1.0;"/><line style="stroke: #A80036; stroke-width: 1.0; stroke-dasharray: 2.0,2.0;" x1="692" x2="1566" y1="554.375" y2="554.375"/><text fill="#000000" font-family="sans-serif" font-size="13" lengthAdjust="spacingAndGlyphs" textLength="76" x="704" y="549.3091">List&lt;State&gt;</text><polygon fill="#A80036" points="351,579.5078,341,583.5078,351,587.5078,347,583.5078" style="stroke: #A80036; stroke-width: 1.0;"/><line style="stroke: #A80036; stroke-width: 1.0; stroke-dasharray: 2.0,2.0;" x1="345" x2="686" y1="583.5078" y2="583.5078"/><text fill="#000000" font-family="sans-serif" font-size="13" lengthAdjust="spacingAndGlyphs" textLength="76" x="357" y="578.4419">List&lt;State&gt;</text><polygon fill="#A80036" points="45,608.6406,35,612.6406,45,616.6406,41,612.6406" style="stroke: #A80036; stroke-width: 1.0;"/><line style="stroke: #A80036; stroke-width: 1.0;" x1="39" x2="339" y1="612.6406" y2="612.6406"/><text fill="#000000" font-family="sans-serif" font-size="13" lengthAdjust="spacingAndGlyphs" textLength="220" x="51" y="607.5747">inputEditState(Order, List&lt;State&gt;)</text><polygon fill="#A80036" points="328,637.7734,338,641.7734,328,645.7734,332,641.7734" style="stroke: #A80036; stroke-width: 1.0;"/><line style="stroke: #A80036; stroke-width: 1.0; stroke-dasharray: 2.0,2.0;" x1="34" x2="334" y1="641.7734" y2="641.7734"/><text fill="#000000" font-family="sans-serif" font-size="13" lengthAdjust="spacingAndGlyphs" textLength="37" x="41" y="636.7075">String</text><polygon fill="#A80036" points="675,666.9063,685,670.9063,675,674.9063,679,670.9063" style="stroke: #A80036; stroke-width: 1.0;"/><line style="stroke: #A80036; stroke-width: 1.0;" x1="340" x2="681" y1="670.9063" y2="670.9063"/><text fill="#000000" font-family="sans-serif" font-size="13" lengthAdjust="spacingAndGlyphs" textLength="132" x="347" y="665.8403">validateState(String)</text><polygon fill="#A80036" points="1555,696.0391,1565,700.0391,1555,704.0391,1559,700.0391" style="stroke: #A80036; stroke-width: 1.0;"/><line style="stroke: #A80036; stroke-width: 1.0;" x1="687" x2="1561" y1="700.0391" y2="700.0391"/><text fill="#000000" font-family="sans-serif" font-size="13" lengthAdjust="spacingAndGlyphs" textLength="139" x="694" y="694.9731">readStateByID(String)</text><polygon fill="#A80036" points="698,725.1719,688,729.1719,698,733.1719,694,729.1719" style="stroke: #A80036; stroke-width: 1.0;"/><line style="stroke: #A80036; stroke-width: 1.0; stroke-dasharray: 2.0,2.0;" x1="692" x2="1566" y1="729.1719" y2="729.1719"/><text fill="#000000" font-family="sans-serif" font-size="13" lengthAdjust="spacingAndGlyphs" textLength="34" x="704" y="724.106">State</text><polygon fill="#A80036" points="351,754.3047,341,758.3047,351,762.3047,347,758.3047" style="stroke: #A80036; stroke-width: 1.0;"/><line style="stroke: #A80036; stroke-width: 1.0; stroke-dasharray: 2.0,2.0;" x1="345" x2="686" y1="758.3047" y2="758.3047"/><text fill="#000000" font-family="sans-serif" font-size="13" lengthAdjust="spacingAndGlyphs" textLength="34" x="357" y="753.2388">State</text><polygon fill="#A80036" points="675,783.4375,685,787.4375,675,791.4375,679,787.4375" style="stroke: #A80036; stroke-width: 1.0;"/><line style="stroke: #A80036; stroke-width: 1.0;" x1="340" x2="681" y1="787.4375" y2="787.4375"/><text fill="#000000" font-family="sans-serif" font-size="13" lengthAdjust="spacingAndGlyphs" textLength="140" x="347" y="782.3716">getValidProductsList()</text><polygon fill="#A80036" points="1659,812.5703,1669,816.5703,1659,820.5703,1663,816.5703" style="stroke: #A80036; stroke-width: 1.0;"/><line style="stroke: #A80036; stroke-width: 1.0;" x1="687" x2="1665" y1="816.5703" y2="816.5703"/><text fill="#000000" font-family="sans-serif" font-size="13" lengthAdjust="spacingAndGlyphs" textLength="118" x="694" y="811.5044">getValidProducts()</text><line style="stroke: #A80036; stroke-width: 1.0; stroke-dasharray: 2.0,2.0;" x1="1671" x2="1713" y1="845.7031" y2="845.7031"/><line style="stroke: #A80036; stroke-width: 1.0; stroke-dasharray: 2.0,2.0;" x1="1713" x2="1713" y1="845.7031" y2="858.7031"/><line style="stroke: #A80036; stroke-width: 1.0; stroke-dasharray: 2.0,2.0;" x1="1672" x2="1713" y1="858.7031" y2="858.7031"/><polygon fill="#A80036" points="1682,854.7031,1672,858.7031,1682,862.7031,1678,858.7031" style="stroke: #A80036; stroke-width: 1.0;"/><text fill="#000000" font-family="sans-serif" font-size="13" lengthAdjust="spacingAndGlyphs" textLength="93" x="1678" y="840.6372">loadProducts()</text><polygon fill="#A80036" points="698,883.8359,688,887.8359,698,891.8359,694,887.8359" style="stroke: #A80036; stroke-width: 1.0;"/><line style="stroke: #A80036; stroke-width: 1.0; stroke-dasharray: 2.0,2.0;" x1="692" x2="1670" y1="887.8359" y2="887.8359"/><text fill="#000000" font-family="sans-serif" font-size="13" lengthAdjust="spacingAndGlyphs" textLength="91" x="704" y="882.77">List&lt;Product&gt;</text><polygon fill="#A80036" points="351,912.9688,341,916.9688,351,920.9688,347,916.9688" style="stroke: #A80036; stroke-width: 1.0;"/><line style="stroke: #A80036; stroke-width: 1.0; stroke-dasharray: 2.0,2.0;" x1="345" x2="686" y1="916.9688" y2="916.9688"/><text fill="#000000" font-family="sans-serif" font-size="13" lengthAdjust="spacingAndGlyphs" textLength="91" x="357" y="911.9028">List&lt;Product&gt;</text><polygon fill="#A80036" points="45,942.1016,35,946.1016,45,950.1016,41,946.1016" style="stroke: #A80036; stroke-width: 1.0;"/><line style="stroke: #A80036; stroke-width: 1.0;" x1="39" x2="339" y1="946.1016" y2="946.1016"/><text fill="#000000" font-family="sans-serif" font-size="13" lengthAdjust="spacingAndGlyphs" textLength="282" x="51" y="941.0356">inputEditProductType(Order, List&lt;Product&gt;)</text><polygon fill="#A80036" points="328,971.2344,338,975.2344,328,979.2344,332,975.2344" style="stroke: #A80036; stroke-width: 1.0;"/><line style="stroke: #A80036; stroke-width: 1.0; stroke-dasharray: 2.0,2.0;" x1="34" x2="334" y1="975.2344" y2="975.2344"/><text fill="#000000" font-family="sans-serif" font-size="13" lengthAdjust="spacingAndGlyphs" textLength="37" x="41" y="970.1685">String</text><polygon fill="#A80036" points="675,1000.3672,685,1004.3672,675,1008.3672,679,1004.3672" style="stroke: #A80036; stroke-width: 1.0;"/><line style="stroke: #A80036; stroke-width: 1.0;" x1="340" x2="681" y1="1004.3672" y2="1004.3672"/><text fill="#000000" font-family="sans-serif" font-size="13" lengthAdjust="spacingAndGlyphs" textLength="278" x="347" y="999.3013">validateProductType(String, List&lt;Product&gt;)</text><polygon fill="#A80036" points="1659,1029.5,1669,1033.5,1659,1037.5,1663,1033.5" style="stroke: #A80036; stroke-width: 1.0;"/><line style="stroke: #A80036; stroke-width: 1.0;" x1="687" x2="1665" y1="1033.5" y2="1033.5"/><text fill="#000000" font-family="sans-serif" font-size="13" lengthAdjust="spacingAndGlyphs" textLength="154" x="694" y="1028.4341">readProductByID(String)</text><polygon fill="#A80036" points="698,1058.6328,688,1062.6328,698,1066.6328,694,1062.6328" style="stroke: #A80036; stroke-width: 1.0;"/><line style="stroke: #A80036; stroke-width: 1.0; stroke-dasharray: 2.0,2.0;" x1="692" x2="1670" y1="1062.6328" y2="1062.6328"/><text fill="#000000" font-family="sans-serif" font-size="13" lengthAdjust="spacingAndGlyphs" textLength="49" x="704" y="1057.5669">Product</text><polygon fill="#A80036" points="351,1087.7656,341,1091.7656,351,1095.7656,347,1091.7656" style="stroke: #A80036; stroke-width: 1.0;"/><line style="stroke: #A80036; stroke-width: 1.0; stroke-dasharray: 2.0,2.0;" x1="345" x2="686" y1="1091.7656" y2="1091.7656"/><text fill="#000000" font-family="sans-serif" font-size="13" lengthAdjust="spacingAndGlyphs" textLength="49" x="357" y="1086.6997">Product</text><polygon fill="#A80036" points="45,1116.8984,35,1120.8984,45,1124.8984,41,1120.8984" style="stroke: #A80036; stroke-width: 1.0;"/><line style="stroke: #A80036; stroke-width: 1.0;" x1="39" x2="339" y1="1120.8984" y2="1120.8984"/><text fill="#000000" font-family="sans-serif" font-size="13" lengthAdjust="spacingAndGlyphs" textLength="132" x="51" y="1115.8325">inputEditArea(Order)</text><polygon fill="#A80036" points="328,1146.0313,338,1150.0313,328,1154.0313,332,1150.0313" style="stroke: #A80036; stroke-width: 1.0;"/><line style="stroke: #A80036; stroke-width: 1.0; stroke-dasharray: 2.0,2.0;" x1="34" x2="334" y1="1150.0313" y2="1150.0313"/><text fill="#000000" font-family="sans-serif" font-size="13" lengthAdjust="spacingAndGlyphs" textLength="71" x="41" y="1144.9653">BigDecimal</text><line style="stroke: #A80036; stroke-width: 1.0; stroke-dasharray: 2.0,2.0;" x1="340" x2="382" y1="1179.1641" y2="1179.1641"/><line style="stroke: #A80036; stroke-width: 1.0; stroke-dasharray: 2.0,2.0;" x1="382" x2="382" y1="1179.1641" y2="1192.1641"/><line style="stroke: #A80036; stroke-width: 1.0; stroke-dasharray: 2.0,2.0;" x1="341" x2="382" y1="1192.1641" y2="1192.1641"/><polygon fill="#A80036" points="351,1188.1641,341,1192.1641,351,1196.1641,347,1192.1641" style="stroke: #A80036; stroke-width: 1.0;"/><text fill="#000000" font-family="sans-serif" font-size="13" lengthAdjust="spacingAndGlyphs" textLength="333" x="347" y="1174.0981">Order(LocalDate, String, State, Product, BigDecimal)</text><polygon fill="#A80036" points="675,1217.2969,685,1221.2969,675,1225.2969,679,1221.2969" style="stroke: #A80036; stroke-width: 1.0;"/><line style="stroke: #A80036; stroke-width: 1.0; stroke-dasharray: 2.0,2.0;" x1="340" x2="681" y1="1221.2969" y2="1221.2969"/><text fill="#000000" font-family="sans-serif" font-size="13" lengthAdjust="spacingAndGlyphs" textLength="133" x="347" y="1216.231">validateOrder(Order)</text><line style="stroke: #A80036; stroke-width: 1.0; stroke-dasharray: 2.0,2.0;" x1="687" x2="729" y1="1250.4297" y2="1250.4297"/><line style="stroke: #A80036; stroke-width: 1.0; stroke-dasharray: 2.0,2.0;" x1="729" x2="729" y1="1250.4297" y2="1263.4297"/><line style="stroke: #A80036; stroke-width: 1.0; stroke-dasharray: 2.0,2.0;" x1="688" x2="729" y1="1263.4297" y2="1263.4297"/><polygon fill="#A80036" points="698,1259.4297,688,1263.4297,698,1267.4297,694,1263.4297" style="stroke: #A80036; stroke-width: 1.0;"/><text fill="#000000" font-family="sans-serif" font-size="13" lengthAdjust="spacingAndGlyphs" textLength="143" x="694" y="1245.3638">calcOrderCosts(Order)</text><line style="stroke: #A80036; stroke-width: 1.0; stroke-dasharray: 2.0,2.0;" x1="687" x2="729" y1="1292.5625" y2="1292.5625"/><line style="stroke: #A80036; stroke-width: 1.0; stroke-dasharray: 2.0,2.0;" x1="729" x2="729" y1="1292.5625" y2="1305.5625"/><line style="stroke: #A80036; stroke-width: 1.0; stroke-dasharray: 2.0,2.0;" x1="688" x2="729" y1="1305.5625" y2="1305.5625"/><polygon fill="#A80036" points="698,1301.5625,688,1305.5625,698,1309.5625,694,1305.5625" style="stroke: #A80036; stroke-width: 1.0;"/><text fill="#000000" font-family="sans-serif" font-size="13" lengthAdjust="spacingAndGlyphs" textLength="752" x="694" y="1287.4966">Order(LocalDate, int, String, State, Product, BigDecimal, BigDecimal, BigDecimal, BigDecimal, BigDecimal, BigDecimal)</text><polygon fill="#A80036" points="351,1330.6953,341,1334.6953,351,1338.6953,347,1334.6953" style="stroke: #A80036; stroke-width: 1.0;"/><line style="stroke: #A80036; stroke-width: 1.0; stroke-dasharray: 2.0,2.0;" x1="345" x2="686" y1="1334.6953" y2="1334.6953"/><text fill="#000000" font-family="sans-serif" font-size="13" lengthAdjust="spacingAndGlyphs" textLength="36" x="357" y="1329.6294">Order</text><polygon fill="#A80036" points="45,1359.8281,35,1363.8281,45,1367.8281,41,1363.8281" style="stroke: #A80036; stroke-width: 1.0;"/><line style="stroke: #A80036; stroke-width: 1.0;" x1="39" x2="339" y1="1363.8281" y2="1363.8281"/><text fill="#000000" font-family="sans-serif" font-size="13" lengthAdjust="spacingAndGlyphs" textLength="155" x="51" y="1358.7622">confirmOrderEdit(Order)</text><polygon fill="#A80036" points="328,1388.9609,338,1392.9609,328,1396.9609,332,1392.9609" style="stroke: #A80036; stroke-width: 1.0;"/><line style="stroke: #A80036; stroke-width: 1.0; stroke-dasharray: 2.0,2.0;" x1="34" x2="334" y1="1392.9609" y2="1392.9609"/><text fill="#000000" font-family="sans-serif" font-size="13" lengthAdjust="spacingAndGlyphs" textLength="51" x="41" y="1387.895">boolean</text><polygon fill="#A80036" points="675,1418.0938,685,1422.0938,675,1426.0938,679,1422.0938" style="stroke: #A80036; stroke-width: 1.0;"/><line style="stroke: #A80036; stroke-width: 1.0; stroke-dasharray: 2.0,2.0;" x1="340" x2="681" y1="1422.0938" y2="1422.0938"/><text fill="#000000" font-family="sans-serif" font-size="13" lengthAdjust="spacingAndGlyphs" textLength="36" x="347" y="1417.0278">Order</text><polygon fill="#A80036" points="1441,1447.2266,1451,1451.2266,1441,1455.2266,1445,1451.2266" style="stroke: #A80036; stroke-width: 1.0;"/><line style="stroke: #A80036; stroke-width: 1.0;" x1="687" x2="1447" y1="1451.2266" y2="1451.2266"/><text fill="#000000" font-family="sans-serif" font-size="13" lengthAdjust="spacingAndGlyphs" textLength="150" x="694" y="1446.1606">editOrder(Order, Order)</text><line style="stroke: #A80036; stroke-width: 1.0; stroke-dasharray: 2.0,2.0;" x1="1453" x2="1495" y1="1480.3594" y2="1480.3594"/><line style="stroke: #A80036; stroke-width: 1.0; stroke-dasharray: 2.0,2.0;" x1="1495" x2="1495" y1="1480.3594" y2="1493.3594"/><line style="stroke: #A80036; stroke-width: 1.0; stroke-dasharray: 2.0,2.0;" x1="1454" x2="1495" y1="1493.3594" y2="1493.3594"/><polygon fill="#A80036" points="1464,1489.3594,1454,1493.3594,1464,1497.3594,1460,1493.3594" style="stroke: #A80036; stroke-width: 1.0;"/><text fill="#000000" font-family="sans-serif" font-size="13" lengthAdjust="spacingAndGlyphs" textLength="95" x="1460" y="1475.2935">loadAllOrders()</text><line style="stroke: #A80036; stroke-width: 1.0; stroke-dasharray: 2.0,2.0;" x1="1453" x2="1495" y1="1522.4922" y2="1522.4922"/><line style="stroke: #A80036; stroke-width: 1.0; stroke-dasharray: 2.0,2.0;" x1="1495" x2="1495" y1="1522.4922" y2="1535.4922"/><line style="stroke: #A80036; stroke-width: 1.0; stroke-dasharray: 2.0,2.0;" x1="1454" x2="1495" y1="1535.4922" y2="1535.4922"/><polygon fill="#A80036" points="1464,1531.4922,1454,1535.4922,1464,1539.4922,1460,1535.4922" style="stroke: #A80036; stroke-width: 1.0;"/><text fill="#000000" font-family="sans-serif" font-size="13" lengthAdjust="spacingAndGlyphs" textLength="100" x="1460" y="1517.4263">writeAllOrders()</text><polygon fill="#A80036" points="698,1560.625,688,1564.625,698,1568.625,694,1564.625" style="stroke: #A80036; stroke-width: 1.0;"/><line style="stroke: #A80036; stroke-width: 1.0; stroke-dasharray: 2.0,2.0;" x1="692" x2="1452" y1="1564.625" y2="1564.625"/><text fill="#000000" font-family="sans-serif" font-size="13" lengthAdjust="spacingAndGlyphs" textLength="36" x="704" y="1559.5591">Order</text><polygon fill="#A80036" points="351,1589.7578,341,1593.7578,351,1597.7578,347,1593.7578" style="stroke: #A80036; stroke-width: 1.0;"/><line style="stroke: #A80036; stroke-width: 1.0; stroke-dasharray: 2.0,2.0;" x1="345" x2="686" y1="1593.7578" y2="1593.7578"/><text fill="#000000" font-family="sans-serif" font-size="13" lengthAdjust="spacingAndGlyphs" textLength="36" x="357" y="1588.6919">Order</text><polygon fill="#A80036" points="45,1618.8906,35,1622.8906,45,1626.8906,41,1622.8906" style="stroke: #A80036; stroke-width: 1.0;"/><line style="stroke: #A80036; stroke-width: 1.0;" x1="39" x2="339" y1="1622.8906" y2="1622.8906"/><text fill="#000000" font-family="sans-serif" font-size="13" lengthAdjust="spacingAndGlyphs" textLength="151" x="51" y="1617.8247">displayOrderInfo(Order)</text><polygon fill="#A80036" points="328,1648.0234,338,1652.0234,328,1656.0234,332,1652.0234" style="stroke: #A80036; stroke-width: 1.0;"/><line style="stroke: #A80036; stroke-width: 1.0; stroke-dasharray: 2.0,2.0;" x1="34" x2="334" y1="1652.0234" y2="1652.0234"/><text fill="#000000" font-family="sans-serif" font-size="13" lengthAdjust="spacingAndGlyphs" textLength="27" x="41" y="1646.9575">void</text><polygon fill="#A80036" points="45,1677.1563,35,1681.1563,45,1685.1563,41,1681.1563" style="stroke: #A80036; stroke-width: 1.0;"/><line style="stroke: #A80036; stroke-width: 1.0;" x1="39" x2="339" y1="1681.1563" y2="1681.1563"/><text fill="#000000" font-family="sans-serif" font-size="13" lengthAdjust="spacingAndGlyphs" textLength="212" x="51" y="1676.0903">displayEditOrderSuccessBanner()</text><polygon fill="#A80036" points="328,1706.2891,338,1710.2891,328,1714.2891,332,1710.2891" style="stroke: #A80036; stroke-width: 1.0;"/><line style="stroke: #A80036; stroke-width: 1.0; stroke-dasharray: 2.0,2.0;" x1="34" x2="334" y1="1710.2891" y2="1710.2891"/><text fill="#000000" font-family="sans-serif" font-size="13" lengthAdjust="spacingAndGlyphs" textLength="27" x="41" y="1705.2231">void</text><!--MD5=[cc079d04f25b656eb89826385a4a175b]
@startuml
title TSG Flooring Corp - editOrder() Sequence

View <- Controller : displayEditOrderBanner()
View - -> Controller : void
'all \n user entries must  be copied over

'need to get order first
View <- Controller : getSingleOrderDate()
View - -> Controller : LocalDate
View <- Controller : getOrderNum()
View - -> Controller : int

Controller -> Service : getOrder(LocalDate, int)
Service -> OrderDao : getOrder(LocalDate, int)
OrderDao - -> Service : Order
Service - -> Controller : Order

View <- Controller : inputEditCustomerName(Order)
View - -> Controller : String

Controller -> Service : getValidStatesList(Order)
Service -> StateDao : getValidStates()
StateDao - -> StateDao : loadStates()
StateDao - -> Service : List<State>
Service - -> Controller : List<State>
View <- Controller : inputEditState(Order, List<State>)
View - -> Controller : String
Controller -> Service : validateState(String)
Service -> StateDao : readStateByID(String)
StateDao - -> Service : State
Service - -> Controller : State

Controller -> Service : getValidProductsList()
Service -> ProductDao : getValidProducts()
ProductDao - -> ProductDao : loadProducts()
ProductDao - -> Service : List<Product>
Service - -> Controller : List<Product>
View <- Controller : inputEditProductType(Order, List<Product>)
View - -> Controller : String
Controller -> Service : validateProductType(String, List<Product>)
Service -> ProductDao : readProductByID(String)
ProductDao - -> Service : Product
Service - -> Controller : Product

View <- Controller : inputEditArea(Order)
View - -> Controller : BigDecimal
Controller - -> Controller : Order(LocalDate, String, State, Product, BigDecimal)

Controller - -> Service : validateOrder(Order)
Service - -> Service : calcOrderCosts(Order)
Service - -> Service : Order(LocalDate, int, String, State, Product, BigDecimal, BigDecimal, BigDecimal, BigDecimal, BigDecimal, BigDecimal)
Service - -> Controller : Order

Controller -> View : confirmOrderEdit(Order)
View - -> Controller : boolean

Controller - -> Service : Order
Service -> OrderDao : editOrder(Order, Order)
OrderDao - -> OrderDao : loadAllOrders()
OrderDao - -> OrderDao : writeAllOrders()
OrderDao - -> Service : Order
Service - -> Controller : Order

'OrderDao -[#blue]-> AuditDao : writeAuditEntry()

Controller -> View : displayOrderInfo(Order)
View - -> Controller : void

Controller -> View : displayEditOrderSuccessBanner()
View - -> Controller : void
@enduml

@startuml
title TSG Flooring Corp - editOrder() Sequence

View <- Controller : displayEditOrderBanner()
View - -> Controller : void

View <- Controller : getSingleOrderDate()
View - -> Controller : LocalDate
View <- Controller : getOrderNum()
View - -> Controller : int

Controller -> Service : getOrder(LocalDate, int)
Service -> OrderDao : getOrder(LocalDate, int)
OrderDao - -> Service : Order
Service - -> Controller : Order

View <- Controller : inputEditCustomerName(Order)
View - -> Controller : String

Controller -> Service : getValidStatesList(Order)
Service -> StateDao : getValidStates()
StateDao - -> StateDao : loadStates()
StateDao - -> Service : List<State>
Service - -> Controller : List<State>
View <- Controller : inputEditState(Order, List<State>)
View - -> Controller : String
Controller -> Service : validateState(String)
Service -> StateDao : readStateByID(String)
StateDao - -> Service : State
Service - -> Controller : State

Controller -> Service : getValidProductsList()
Service -> ProductDao : getValidProducts()
ProductDao - -> ProductDao : loadProducts()
ProductDao - -> Service : List<Product>
Service - -> Controller : List<Product>
View <- Controller : inputEditProductType(Order, List<Product>)
View - -> Controller : String
Controller -> Service : validateProductType(String, List<Product>)
Service -> ProductDao : readProductByID(String)
ProductDao - -> Service : Product
Service - -> Controller : Product

View <- Controller : inputEditArea(Order)
View - -> Controller : BigDecimal
Controller - -> Controller : Order(LocalDate, String, State, Product, BigDecimal)

Controller - -> Service : validateOrder(Order)
Service - -> Service : calcOrderCosts(Order)
Service - -> Service : Order(LocalDate, int, String, State, Product, BigDecimal, BigDecimal, BigDecimal, BigDecimal, BigDecimal, BigDecimal)
Service - -> Controller : Order

Controller -> View : confirmOrderEdit(Order)
View - -> Controller : boolean

Controller - -> Service : Order
Service -> OrderDao : editOrder(Order, Order)
OrderDao - -> OrderDao : loadAllOrders()
OrderDao - -> OrderDao : writeAllOrders()
OrderDao - -> Service : Order
Service - -> Controller : Order


Controller -> View : displayOrderInfo(Order)
View - -> Controller : void

Controller -> View : displayEditOrderSuccessBanner()
View - -> Controller : void
@enduml

PlantUML version 1.2020.16beta3(Unknown compile time)
(GPL source distribution)
Java Runtime: Java(TM) SE Runtime Environment
JVM: Java HotSpot(TM) 64-Bit Server VM
Default Encoding: UTF-8
Language: en
Country: US
--></g></svg>