<?xml version="1.0" encoding="UTF-8" standalone="no"?><svg xmlns="http://www.w3.org/2000/svg" xmlns:xlink="http://www.w3.org/1999/xlink" contentScriptType="application/ecmascript" contentStyleType="text/css" height="1585px" preserveAspectRatio="none" style="width:1715px;height:1585px;" version="1.1" viewBox="0 0 1715 1585" width="1715px" zoomAndPan="magnify"><defs><filter height="300%" id="fp3a4jsgnutev" width="300%" x="-1" y="-1"><feGaussianBlur result="blurOut" stdDeviation="2.0"/><feColorMatrix in="blurOut" result="blurOut2" type="matrix" values="0 0 0 0 0 0 0 0 0 0 0 0 0 0 0 0 0 0 .4 0"/><feOffset dx="4.0" dy="4.0" in="blurOut2" result="blurOut3"/><feBlend in="SourceGraphic" in2="blurOut3" mode="normal"/></filter></defs><g><text fill="#000000" font-family="sans-serif" font-size="18" lengthAdjust="spacingAndGlyphs" textLength="382" x="665.5" y="26.708">TSG Flooring Corp - addOrder() Sequence</text><line style="stroke: #A80036; stroke-width: 1.0; stroke-dasharray: 5.0,5.0;" x1="34" x2="34" y1="73.25" y2="1537.3594"/><line style="stroke: #A80036; stroke-width: 1.0; stroke-dasharray: 5.0,5.0;" x1="271.5" x2="271.5" y1="73.25" y2="1537.3594"/><line style="stroke: #A80036; stroke-width: 1.0; stroke-dasharray: 5.0,5.0;" x1="618.5" x2="618.5" y1="73.25" y2="1537.3594"/><line style="stroke: #A80036; stroke-width: 1.0; stroke-dasharray: 5.0,5.0;" x1="1385" x2="1385" y1="73.25" y2="1537.3594"/><line style="stroke: #A80036; stroke-width: 1.0; stroke-dasharray: 5.0,5.0;" x1="1489" x2="1489" y1="73.25" y2="1537.3594"/><line style="stroke: #A80036; stroke-width: 1.0; stroke-dasharray: 5.0,5.0;" x1="1595.5" x2="1595.5" y1="73.25" y2="1537.3594"/><rect fill="#FEFECE" filter="url(#fp3a4jsgnutev)" height="30.2969" style="stroke: #A80036; stroke-width: 1.5;" width="48" x="8" y="37.9531"/><text fill="#000000" font-family="sans-serif" font-size="14" lengthAdjust="spacingAndGlyphs" textLength="34" x="15" y="57.9482">View</text><rect fill="#FEFECE" filter="url(#fp3a4jsgnutev)" height="30.2969" style="stroke: #A80036; stroke-width: 1.5;" width="48" x="8" y="1536.3594"/><text fill="#000000" font-family="sans-serif" font-size="14" lengthAdjust="spacingAndGlyphs" textLength="34" x="15" y="1556.3545">View</text><rect fill="#FEFECE" filter="url(#fp3a4jsgnutev)" height="30.2969" style="stroke: #A80036; stroke-width: 1.5;" width="87" x="226.5" y="37.9531"/><text fill="#000000" font-family="sans-serif" font-size="14" lengthAdjust="spacingAndGlyphs" textLength="73" x="233.5" y="57.9482">Controller</text><rect fill="#FEFECE" filter="url(#fp3a4jsgnutev)" height="30.2969" style="stroke: #A80036; stroke-width: 1.5;" width="87" x="226.5" y="1536.3594"/><text fill="#000000" font-family="sans-serif" font-size="14" lengthAdjust="spacingAndGlyphs" textLength="73" x="233.5" y="1556.3545">Controller</text><rect fill="#FEFECE" filter="url(#fp3a4jsgnutev)" height="30.2969" style="stroke: #A80036; stroke-width: 1.5;" width="67" x="583.5" y="37.9531"/><text fill="#000000" font-family="sans-serif" font-size="14" lengthAdjust="spacingAndGlyphs" textLength="53" x="590.5" y="57.9482">Service</text><rect fill="#FEFECE" filter="url(#fp3a4jsgnutev)" height="30.2969" style="stroke: #A80036; stroke-width: 1.5;" width="67" x="583.5" y="1536.3594"/><text fill="#000000" font-family="sans-serif" font-size="14" lengthAdjust="spacingAndGlyphs" textLength="53" x="590.5" y="1556.3545">Service</text><rect fill="#FEFECE" filter="url(#fp3a4jsgnutev)" height="30.2969" style="stroke: #A80036; stroke-width: 1.5;" width="82" x="1342" y="37.9531"/><text fill="#000000" font-family="sans-serif" font-size="14" lengthAdjust="spacingAndGlyphs" textLength="68" x="1349" y="57.9482">StateDao</text><rect fill="#FEFECE" filter="url(#fp3a4jsgnutev)" height="30.2969" style="stroke: #A80036; stroke-width: 1.5;" width="82" x="1342" y="1536.3594"/><text fill="#000000" font-family="sans-serif" font-size="14" lengthAdjust="spacingAndGlyphs" textLength="68" x="1349" y="1556.3545">StateDao</text><rect fill="#FEFECE" filter="url(#fp3a4jsgnutev)" height="30.2969" style="stroke: #A80036; stroke-width: 1.5;" width="98" x="1438" y="37.9531"/><text fill="#000000" font-family="sans-serif" font-size="14" lengthAdjust="spacingAndGlyphs" textLength="84" x="1445" y="57.9482">ProductDao</text><rect fill="#FEFECE" filter="url(#fp3a4jsgnutev)" height="30.2969" style="stroke: #A80036; stroke-width: 1.5;" width="98" x="1438" y="1536.3594"/><text fill="#000000" font-family="sans-serif" font-size="14" lengthAdjust="spacingAndGlyphs" textLength="84" x="1445" y="1556.3545">ProductDao</text><rect fill="#FEFECE" filter="url(#fp3a4jsgnutev)" height="30.2969" style="stroke: #A80036; stroke-width: 1.5;" width="83" x="1552.5" y="37.9531"/><text fill="#000000" font-family="sans-serif" font-size="14" lengthAdjust="spacingAndGlyphs" textLength="69" x="1559.5" y="57.9482">OrderDao</text><rect fill="#FEFECE" filter="url(#fp3a4jsgnutev)" height="30.2969" style="stroke: #A80036; stroke-width: 1.5;" width="83" x="1552.5" y="1536.3594"/><text fill="#000000" font-family="sans-serif" font-size="14" lengthAdjust="spacingAndGlyphs" textLength="69" x="1559.5" y="1556.3545">OrderDao</text><polygon fill="#A80036" points="45,100.3828,35,104.3828,45,108.3828,41,104.3828" style="stroke: #A80036; stroke-width: 1.0;"/><line style="stroke: #A80036; stroke-width: 1.0;" x1="39" x2="271" y1="104.3828" y2="104.3828"/><text fill="#000000" font-family="sans-serif" font-size="13" lengthAdjust="spacingAndGlyphs" textLength="161" x="51" y="99.3169">displayAddOrderBanner()</text><polygon fill="#A80036" points="260,129.5156,270,133.5156,260,137.5156,264,133.5156" style="stroke: #A80036; stroke-width: 1.0;"/><line style="stroke: #A80036; stroke-width: 1.0; stroke-dasharray: 2.0,2.0;" x1="34" x2="266" y1="133.5156" y2="133.5156"/><text fill="#000000" font-family="sans-serif" font-size="13" lengthAdjust="spacingAndGlyphs" textLength="27" x="41" y="128.4497">void</text><polygon fill="#A80036" points="45,158.6484,35,162.6484,45,166.6484,41,162.6484" style="stroke: #A80036; stroke-width: 1.0;"/><line style="stroke: #A80036; stroke-width: 1.0;" x1="39" x2="271" y1="162.6484" y2="162.6484"/><text fill="#000000" font-family="sans-serif" font-size="13" lengthAdjust="spacingAndGlyphs" textLength="109" x="51" y="157.5825">inputOrderDate()</text><polygon fill="#A80036" points="260,187.7813,270,191.7813,260,195.7813,264,191.7813" style="stroke: #A80036; stroke-width: 1.0;"/><line style="stroke: #A80036; stroke-width: 1.0; stroke-dasharray: 2.0,2.0;" x1="34" x2="266" y1="191.7813" y2="191.7813"/><text fill="#000000" font-family="sans-serif" font-size="13" lengthAdjust="spacingAndGlyphs" textLength="64" x="41" y="186.7153">LocalDate</text><polygon fill="#A80036" points="45,216.9141,35,220.9141,45,224.9141,41,220.9141" style="stroke: #A80036; stroke-width: 1.0;"/><line style="stroke: #A80036; stroke-width: 1.0;" x1="39" x2="271" y1="220.9141" y2="220.9141"/><text fill="#000000" font-family="sans-serif" font-size="13" lengthAdjust="spacingAndGlyphs" textLength="143" x="51" y="215.8481">inputCustomerName()</text><polygon fill="#A80036" points="260,246.0469,270,250.0469,260,254.0469,264,250.0469" style="stroke: #A80036; stroke-width: 1.0;"/><line style="stroke: #A80036; stroke-width: 1.0; stroke-dasharray: 2.0,2.0;" x1="34" x2="266" y1="250.0469" y2="250.0469"/><text fill="#000000" font-family="sans-serif" font-size="13" lengthAdjust="spacingAndGlyphs" textLength="37" x="41" y="244.981">String</text><polygon fill="#A80036" points="607,275.1797,617,279.1797,607,283.1797,611,279.1797" style="stroke: #A80036; stroke-width: 1.0;"/><line style="stroke: #A80036; stroke-width: 1.0;" x1="272" x2="613" y1="279.1797" y2="279.1797"/><text fill="#000000" font-family="sans-serif" font-size="13" lengthAdjust="spacingAndGlyphs" textLength="125" x="279" y="274.1138">getValidStatesList()</text><polygon fill="#A80036" points="1373,304.3125,1383,308.3125,1373,312.3125,1377,308.3125" style="stroke: #A80036; stroke-width: 1.0;"/><line style="stroke: #A80036; stroke-width: 1.0;" x1="619" x2="1379" y1="308.3125" y2="308.3125"/><text fill="#000000" font-family="sans-serif" font-size="13" lengthAdjust="spacingAndGlyphs" textLength="103" x="626" y="303.2466">getValidStates()</text><line style="stroke: #A80036; stroke-width: 1.0; stroke-dasharray: 2.0,2.0;" x1="1385" x2="1427" y1="337.4453" y2="337.4453"/><line style="stroke: #A80036; stroke-width: 1.0; stroke-dasharray: 2.0,2.0;" x1="1427" x2="1427" y1="337.4453" y2="350.4453"/><line style="stroke: #A80036; stroke-width: 1.0; stroke-dasharray: 2.0,2.0;" x1="1386" x2="1427" y1="350.4453" y2="350.4453"/><polygon fill="#A80036" points="1396,346.4453,1386,350.4453,1396,354.4453,1392,350.4453" style="stroke: #A80036; stroke-width: 1.0;"/><text fill="#000000" font-family="sans-serif" font-size="13" lengthAdjust="spacingAndGlyphs" textLength="78" x="1392" y="332.3794">loadStates()</text><polygon fill="#A80036" points="630,375.5781,620,379.5781,630,383.5781,626,379.5781" style="stroke: #A80036; stroke-width: 1.0;"/><line style="stroke: #A80036; stroke-width: 1.0; stroke-dasharray: 2.0,2.0;" x1="624" x2="1384" y1="379.5781" y2="379.5781"/><text fill="#000000" font-family="sans-serif" font-size="13" lengthAdjust="spacingAndGlyphs" textLength="76" x="636" y="374.5122">List&lt;State&gt;</text><polygon fill="#A80036" points="283,404.7109,273,408.7109,283,412.7109,279,408.7109" style="stroke: #A80036; stroke-width: 1.0;"/><line style="stroke: #A80036; stroke-width: 1.0; stroke-dasharray: 2.0,2.0;" x1="277" x2="618" y1="408.7109" y2="408.7109"/><text fill="#000000" font-family="sans-serif" font-size="13" lengthAdjust="spacingAndGlyphs" textLength="76" x="289" y="403.645">List&lt;State&gt;</text><polygon fill="#A80036" points="45,433.8438,35,437.8438,45,441.8438,41,437.8438" style="stroke: #A80036; stroke-width: 1.0;"/><line style="stroke: #A80036; stroke-width: 1.0;" x1="39" x2="271" y1="437.8438" y2="437.8438"/><text fill="#000000" font-family="sans-serif" font-size="13" lengthAdjust="spacingAndGlyphs" textLength="152" x="51" y="432.7778">inputState(List&lt;State&gt;)</text><polygon fill="#A80036" points="260,462.9766,270,466.9766,260,470.9766,264,466.9766" style="stroke: #A80036; stroke-width: 1.0;"/><line style="stroke: #A80036; stroke-width: 1.0; stroke-dasharray: 2.0,2.0;" x1="34" x2="266" y1="466.9766" y2="466.9766"/><text fill="#000000" font-family="sans-serif" font-size="13" lengthAdjust="spacingAndGlyphs" textLength="37" x="41" y="461.9106">String</text><polygon fill="#A80036" points="607,492.1094,617,496.1094,607,500.1094,611,496.1094" style="stroke: #A80036; stroke-width: 1.0;"/><line style="stroke: #A80036; stroke-width: 1.0;" x1="272" x2="613" y1="496.1094" y2="496.1094"/><text fill="#000000" font-family="sans-serif" font-size="13" lengthAdjust="spacingAndGlyphs" textLength="132" x="279" y="491.0435">validateState(String)</text><polygon fill="#A80036" points="1373,521.2422,1383,525.2422,1373,529.2422,1377,525.2422" style="stroke: #A80036; stroke-width: 1.0;"/><line style="stroke: #A80036; stroke-width: 1.0;" x1="619" x2="1379" y1="525.2422" y2="525.2422"/><text fill="#000000" font-family="sans-serif" font-size="13" lengthAdjust="spacingAndGlyphs" textLength="139" x="626" y="520.1763">readStateByID(String)</text><polygon fill="#A80036" points="630,550.375,620,554.375,630,558.375,626,554.375" style="stroke: #A80036; stroke-width: 1.0;"/><line style="stroke: #A80036; stroke-width: 1.0; stroke-dasharray: 2.0,2.0;" x1="624" x2="1384" y1="554.375" y2="554.375"/><text fill="#000000" font-family="sans-serif" font-size="13" lengthAdjust="spacingAndGlyphs" textLength="34" x="636" y="549.3091">State</text><polygon fill="#A80036" points="283,579.5078,273,583.5078,283,587.5078,279,583.5078" style="stroke: #A80036; stroke-width: 1.0;"/><line style="stroke: #A80036; stroke-width: 1.0; stroke-dasharray: 2.0,2.0;" x1="277" x2="618" y1="583.5078" y2="583.5078"/><text fill="#000000" font-family="sans-serif" font-size="13" lengthAdjust="spacingAndGlyphs" textLength="34" x="289" y="578.4419">State</text><polygon fill="#A80036" points="607,608.6406,617,612.6406,607,616.6406,611,612.6406" style="stroke: #A80036; stroke-width: 1.0;"/><line style="stroke: #A80036; stroke-width: 1.0;" x1="272" x2="613" y1="612.6406" y2="612.6406"/><text fill="#000000" font-family="sans-serif" font-size="13" lengthAdjust="spacingAndGlyphs" textLength="140" x="279" y="607.5747">getValidProductsList()</text><polygon fill="#A80036" points="1477,637.7734,1487,641.7734,1477,645.7734,1481,641.7734" style="stroke: #A80036; stroke-width: 1.0;"/><line style="stroke: #A80036; stroke-width: 1.0;" x1="619" x2="1483" y1="641.7734" y2="641.7734"/><text fill="#000000" font-family="sans-serif" font-size="13" lengthAdjust="spacingAndGlyphs" textLength="118" x="626" y="636.7075">getValidProducts()</text><line style="stroke: #A80036; stroke-width: 1.0; stroke-dasharray: 2.0,2.0;" x1="1489" x2="1531" y1="670.9063" y2="670.9063"/><line style="stroke: #A80036; stroke-width: 1.0; stroke-dasharray: 2.0,2.0;" x1="1531" x2="1531" y1="670.9063" y2="683.9063"/><line style="stroke: #A80036; stroke-width: 1.0; stroke-dasharray: 2.0,2.0;" x1="1490" x2="1531" y1="683.9063" y2="683.9063"/><polygon fill="#A80036" points="1500,679.9063,1490,683.9063,1500,687.9063,1496,683.9063" style="stroke: #A80036; stroke-width: 1.0;"/><text fill="#000000" font-family="sans-serif" font-size="13" lengthAdjust="spacingAndGlyphs" textLength="93" x="1496" y="665.8403">loadProducts()</text><polygon fill="#A80036" points="630,709.0391,620,713.0391,630,717.0391,626,713.0391" style="stroke: #A80036; stroke-width: 1.0;"/><line style="stroke: #A80036; stroke-width: 1.0; stroke-dasharray: 2.0,2.0;" x1="624" x2="1488" y1="713.0391" y2="713.0391"/><text fill="#000000" font-family="sans-serif" font-size="13" lengthAdjust="spacingAndGlyphs" textLength="91" x="636" y="707.9731">List&lt;Product&gt;</text><polygon fill="#A80036" points="283,738.1719,273,742.1719,283,746.1719,279,742.1719" style="stroke: #A80036; stroke-width: 1.0;"/><line style="stroke: #A80036; stroke-width: 1.0; stroke-dasharray: 2.0,2.0;" x1="277" x2="618" y1="742.1719" y2="742.1719"/><text fill="#000000" font-family="sans-serif" font-size="13" lengthAdjust="spacingAndGlyphs" textLength="91" x="289" y="737.106">List&lt;Product&gt;</text><polygon fill="#A80036" points="45,767.3047,35,771.3047,45,775.3047,41,771.3047" style="stroke: #A80036; stroke-width: 1.0;"/><line style="stroke: #A80036; stroke-width: 1.0;" x1="39" x2="271" y1="771.3047" y2="771.3047"/><text fill="#000000" font-family="sans-serif" font-size="13" lengthAdjust="spacingAndGlyphs" textLength="214" x="51" y="766.2388">inputProductType(List&lt;Product&gt;)</text><polygon fill="#A80036" points="260,796.4375,270,800.4375,260,804.4375,264,800.4375" style="stroke: #A80036; stroke-width: 1.0;"/><line style="stroke: #A80036; stroke-width: 1.0; stroke-dasharray: 2.0,2.0;" x1="34" x2="266" y1="800.4375" y2="800.4375"/><text fill="#000000" font-family="sans-serif" font-size="13" lengthAdjust="spacingAndGlyphs" textLength="37" x="41" y="795.3716">String</text><polygon fill="#A80036" points="607,825.5703,617,829.5703,607,833.5703,611,829.5703" style="stroke: #A80036; stroke-width: 1.0;"/><line style="stroke: #A80036; stroke-width: 1.0;" x1="272" x2="613" y1="829.5703" y2="829.5703"/><text fill="#000000" font-family="sans-serif" font-size="13" lengthAdjust="spacingAndGlyphs" textLength="179" x="279" y="824.5044">validateProductType(String)</text><polygon fill="#A80036" points="1477,854.7031,1487,858.7031,1477,862.7031,1481,858.7031" style="stroke: #A80036; stroke-width: 1.0;"/><line style="stroke: #A80036; stroke-width: 1.0;" x1="619" x2="1483" y1="858.7031" y2="858.7031"/><text fill="#000000" font-family="sans-serif" font-size="13" lengthAdjust="spacingAndGlyphs" textLength="154" x="626" y="853.6372">readProductByID(String)</text><polygon fill="#A80036" points="630,883.8359,620,887.8359,630,891.8359,626,887.8359" style="stroke: #A80036; stroke-width: 1.0;"/><line style="stroke: #A80036; stroke-width: 1.0; stroke-dasharray: 2.0,2.0;" x1="624" x2="1488" y1="887.8359" y2="887.8359"/><text fill="#000000" font-family="sans-serif" font-size="13" lengthAdjust="spacingAndGlyphs" textLength="49" x="636" y="882.77">Product</text><polygon fill="#A80036" points="283,912.9688,273,916.9688,283,920.9688,279,916.9688" style="stroke: #A80036; stroke-width: 1.0;"/><line style="stroke: #A80036; stroke-width: 1.0; stroke-dasharray: 2.0,2.0;" x1="277" x2="618" y1="916.9688" y2="916.9688"/><text fill="#000000" font-family="sans-serif" font-size="13" lengthAdjust="spacingAndGlyphs" textLength="49" x="289" y="911.9028">Product</text><polygon fill="#A80036" points="45,942.1016,35,946.1016,45,950.1016,41,946.1016" style="stroke: #A80036; stroke-width: 1.0;"/><line style="stroke: #A80036; stroke-width: 1.0;" x1="39" x2="271" y1="946.1016" y2="946.1016"/><text fill="#000000" font-family="sans-serif" font-size="13" lengthAdjust="spacingAndGlyphs" textLength="72" x="51" y="941.0356">inputArea()</text><polygon fill="#A80036" points="260,971.2344,270,975.2344,260,979.2344,264,975.2344" style="stroke: #A80036; stroke-width: 1.0;"/><line style="stroke: #A80036; stroke-width: 1.0; stroke-dasharray: 2.0,2.0;" x1="34" x2="266" y1="975.2344" y2="975.2344"/><text fill="#000000" font-family="sans-serif" font-size="13" lengthAdjust="spacingAndGlyphs" textLength="71" x="41" y="970.1685">BigDecimal</text><line style="stroke: #A80036; stroke-width: 1.0; stroke-dasharray: 2.0,2.0;" x1="272" x2="314" y1="1004.3672" y2="1004.3672"/><line style="stroke: #A80036; stroke-width: 1.0; stroke-dasharray: 2.0,2.0;" x1="314" x2="314" y1="1004.3672" y2="1017.3672"/><line style="stroke: #A80036; stroke-width: 1.0; stroke-dasharray: 2.0,2.0;" x1="273" x2="314" y1="1017.3672" y2="1017.3672"/><polygon fill="#A80036" points="283,1013.3672,273,1017.3672,283,1021.3672,279,1017.3672" style="stroke: #A80036; stroke-width: 1.0;"/><text fill="#000000" font-family="sans-serif" font-size="13" lengthAdjust="spacingAndGlyphs" textLength="333" x="279" y="999.3013">Order(LocalDate, String, State, Product, BigDecimal)</text><polygon fill="#A80036" points="607,1042.5,617,1046.5,607,1050.5,611,1046.5" style="stroke: #A80036; stroke-width: 1.0;"/><line style="stroke: #A80036; stroke-width: 1.0;" x1="272" x2="613" y1="1046.5" y2="1046.5"/><text fill="#000000" font-family="sans-serif" font-size="13" lengthAdjust="spacingAndGlyphs" textLength="133" x="279" y="1041.4341">validateOrder(Order)</text><line style="stroke: #A80036; stroke-width: 1.0; stroke-dasharray: 2.0,2.0;" x1="619" x2="661" y1="1075.6328" y2="1075.6328"/><line style="stroke: #A80036; stroke-width: 1.0; stroke-dasharray: 2.0,2.0;" x1="661" x2="661" y1="1075.6328" y2="1088.6328"/><line style="stroke: #A80036; stroke-width: 1.0; stroke-dasharray: 2.0,2.0;" x1="620" x2="661" y1="1088.6328" y2="1088.6328"/><polygon fill="#A80036" points="630,1084.6328,620,1088.6328,630,1092.6328,626,1088.6328" style="stroke: #A80036; stroke-width: 1.0;"/><text fill="#000000" font-family="sans-serif" font-size="13" lengthAdjust="spacingAndGlyphs" textLength="143" x="626" y="1070.5669">calcOrderCosts(Order)</text><line style="stroke: #A80036; stroke-width: 1.0; stroke-dasharray: 2.0,2.0;" x1="619" x2="661" y1="1117.7656" y2="1117.7656"/><line style="stroke: #A80036; stroke-width: 1.0; stroke-dasharray: 2.0,2.0;" x1="661" x2="661" y1="1117.7656" y2="1130.7656"/><line style="stroke: #A80036; stroke-width: 1.0; stroke-dasharray: 2.0,2.0;" x1="620" x2="661" y1="1130.7656" y2="1130.7656"/><polygon fill="#A80036" points="630,1126.7656,620,1130.7656,630,1134.7656,626,1130.7656" style="stroke: #A80036; stroke-width: 1.0;"/><text fill="#000000" font-family="sans-serif" font-size="13" lengthAdjust="spacingAndGlyphs" textLength="166" x="626" y="1112.6997">getHighestOrderNumber()</text><line style="stroke: #A80036; stroke-width: 1.0; stroke-dasharray: 2.0,2.0;" x1="619" x2="661" y1="1159.8984" y2="1159.8984"/><line style="stroke: #A80036; stroke-width: 1.0; stroke-dasharray: 2.0,2.0;" x1="661" x2="661" y1="1159.8984" y2="1172.8984"/><line style="stroke: #A80036; stroke-width: 1.0; stroke-dasharray: 2.0,2.0;" x1="620" x2="661" y1="1172.8984" y2="1172.8984"/><polygon fill="#A80036" points="630,1168.8984,620,1172.8984,630,1176.8984,626,1172.8984" style="stroke: #A80036; stroke-width: 1.0;"/><text fill="#000000" font-family="sans-serif" font-size="13" lengthAdjust="spacingAndGlyphs" textLength="752" x="626" y="1154.8325">Order(LocalDate, int, String, State, Product, BigDecimal, BigDecimal, BigDecimal, BigDecimal, BigDecimal, BigDecimal)</text><polygon fill="#A80036" points="283,1198.0313,273,1202.0313,283,1206.0313,279,1202.0313" style="stroke: #A80036; stroke-width: 1.0;"/><line style="stroke: #A80036; stroke-width: 1.0; stroke-dasharray: 2.0,2.0;" x1="277" x2="618" y1="1202.0313" y2="1202.0313"/><text fill="#000000" font-family="sans-serif" font-size="13" lengthAdjust="spacingAndGlyphs" textLength="36" x="289" y="1196.9653">Order</text><polygon fill="#A80036" points="45,1227.1641,35,1231.1641,45,1235.1641,41,1231.1641" style="stroke: #A80036; stroke-width: 1.0;"/><line style="stroke: #A80036; stroke-width: 1.0;" x1="39" x2="271" y1="1231.1641" y2="1231.1641"/><text fill="#000000" font-family="sans-serif" font-size="13" lengthAdjust="spacingAndGlyphs" textLength="159" x="51" y="1226.0981">confirmNewOrder(Order)</text><polygon fill="#A80036" points="260,1256.2969,270,1260.2969,260,1264.2969,264,1260.2969" style="stroke: #A80036; stroke-width: 1.0;"/><line style="stroke: #A80036; stroke-width: 1.0; stroke-dasharray: 2.0,2.0;" x1="34" x2="266" y1="1260.2969" y2="1260.2969"/><text fill="#000000" font-family="sans-serif" font-size="13" lengthAdjust="spacingAndGlyphs" textLength="51" x="41" y="1255.231">boolean</text><polygon fill="#A80036" points="607,1285.4297,617,1289.4297,607,1293.4297,611,1289.4297" style="stroke: #A80036; stroke-width: 1.0;"/><line style="stroke: #A80036; stroke-width: 1.0; stroke-dasharray: 2.0,2.0;" x1="272" x2="613" y1="1289.4297" y2="1289.4297"/><text fill="#000000" font-family="sans-serif" font-size="13" lengthAdjust="spacingAndGlyphs" textLength="36" x="279" y="1284.3638">Order</text><polygon fill="#A80036" points="1584,1314.5625,1594,1318.5625,1584,1322.5625,1588,1318.5625" style="stroke: #A80036; stroke-width: 1.0;"/><line style="stroke: #A80036; stroke-width: 1.0;" x1="619" x2="1590" y1="1318.5625" y2="1318.5625"/><text fill="#000000" font-family="sans-serif" font-size="13" lengthAdjust="spacingAndGlyphs" textLength="106" x="626" y="1313.4966">addOrder(Order)</text><line style="stroke: #A80036; stroke-width: 1.0; stroke-dasharray: 2.0,2.0;" x1="1596" x2="1638" y1="1347.6953" y2="1347.6953"/><line style="stroke: #A80036; stroke-width: 1.0; stroke-dasharray: 2.0,2.0;" x1="1638" x2="1638" y1="1347.6953" y2="1360.6953"/><line style="stroke: #A80036; stroke-width: 1.0; stroke-dasharray: 2.0,2.0;" x1="1597" x2="1638" y1="1360.6953" y2="1360.6953"/><polygon fill="#A80036" points="1607,1356.6953,1597,1360.6953,1607,1364.6953,1603,1360.6953" style="stroke: #A80036; stroke-width: 1.0;"/><text fill="#000000" font-family="sans-serif" font-size="13" lengthAdjust="spacingAndGlyphs" textLength="95" x="1603" y="1342.6294">loadAllOrders()</text><line style="stroke: #A80036; stroke-width: 1.0; stroke-dasharray: 2.0,2.0;" x1="1596" x2="1638" y1="1389.8281" y2="1389.8281"/><line style="stroke: #A80036; stroke-width: 1.0; stroke-dasharray: 2.0,2.0;" x1="1638" x2="1638" y1="1389.8281" y2="1402.8281"/><line style="stroke: #A80036; stroke-width: 1.0; stroke-dasharray: 2.0,2.0;" x1="1597" x2="1638" y1="1402.8281" y2="1402.8281"/><polygon fill="#A80036" points="1607,1398.8281,1597,1402.8281,1607,1406.8281,1603,1402.8281" style="stroke: #A80036; stroke-width: 1.0;"/><text fill="#000000" font-family="sans-serif" font-size="13" lengthAdjust="spacingAndGlyphs" textLength="100" x="1603" y="1384.7622">writeAllOrders()</text><polygon fill="#A80036" points="630,1427.9609,620,1431.9609,630,1435.9609,626,1431.9609" style="stroke: #A80036; stroke-width: 1.0;"/><line style="stroke: #A80036; stroke-width: 1.0; stroke-dasharray: 2.0,2.0;" x1="624" x2="1595" y1="1431.9609" y2="1431.9609"/><text fill="#000000" font-family="sans-serif" font-size="13" lengthAdjust="spacingAndGlyphs" textLength="36" x="636" y="1426.895">Order</text><polygon fill="#A80036" points="283,1457.0938,273,1461.0938,283,1465.0938,279,1461.0938" style="stroke: #A80036; stroke-width: 1.0;"/><line style="stroke: #A80036; stroke-width: 1.0; stroke-dasharray: 2.0,2.0;" x1="277" x2="618" y1="1461.0938" y2="1461.0938"/><text fill="#000000" font-family="sans-serif" font-size="13" lengthAdjust="spacingAndGlyphs" textLength="36" x="289" y="1456.0278">Order</text><polygon fill="#A80036" points="45,1486.2266,35,1490.2266,45,1494.2266,41,1490.2266" style="stroke: #A80036; stroke-width: 1.0;"/><line style="stroke: #A80036; stroke-width: 1.0;" x1="39" x2="271" y1="1490.2266" y2="1490.2266"/><text fill="#000000" font-family="sans-serif" font-size="13" lengthAdjust="spacingAndGlyphs" textLength="213" x="51" y="1485.1606">displayAddOrderSuccessBanner()</text><polygon fill="#A80036" points="260,1515.3594,270,1519.3594,260,1523.3594,264,1519.3594" style="stroke: #A80036; stroke-width: 1.0;"/><line style="stroke: #A80036; stroke-width: 1.0; stroke-dasharray: 2.0,2.0;" x1="34" x2="266" y1="1519.3594" y2="1519.3594"/><text fill="#000000" font-family="sans-serif" font-size="13" lengthAdjust="spacingAndGlyphs" textLength="27" x="41" y="1514.2935">void</text><!--MD5=[2f1b04b7dfeae767d9beeea6a2e55dd3]
@startuml
title TSG Flooring Corp - addOrder() Sequence

View <- Controller : displayAddOrderBanner()
View - -> Controller : void 

View <- Controller : inputOrderDate()
View - -> Controller : LocalDate
'ensure this is a future date

View <- Controller : inputCustomerName()
'validation done w regex
View - -> Controller : String

Controller -> Service : getValidStatesList()
Service -> StateDao : getValidStates()
StateDao - -> StateDao : loadStates()
StateDao - -> Service : List<State>
Service - -> Controller : List<State>
View <- Controller : inputState(List<State>)
View - -> Controller : String
Controller -> Service : validateState(String)
Service -> StateDao : readStateByID(String)
StateDao - -> Service : State
Service - -> Controller : State

Controller -> Service : getValidProductsList()
Service -> ProductDao : getValidProducts()
ProductDao - -> ProductDao : loadProducts()
ProductDao - -> Service : List<Product>
Service - -> Controller : List<Product>
View <- Controller : inputProductType(List<Product>)
View - -> Controller : String
Controller -> Service : validateProductType(String)
Service -> ProductDao : readProductByID(String)
ProductDao - -> Service : Product
Service - -> Controller : Product

View <- Controller : inputArea()
View - -> Controller : BigDecimal

Controller - -> Controller : Order(LocalDate, String, State, Product, BigDecimal)

Controller -> Service: validateOrder(Order)
Service - -> Service : calcOrderCosts(Order)
Service - -> Service : getHighestOrderNumber()
Service - -> Service : Order(LocalDate, int, String, State, Product, BigDecimal, BigDecimal, BigDecimal, BigDecimal, BigDecimal, BigDecimal)
Service - -> Controller : Order

Controller -> View : confirmNewOrder(Order)
View - -> Controller : boolean

Controller - -> Service : Order
Service -> OrderDao : addOrder(Order)
OrderDao - -> OrderDao : loadAllOrders()
OrderDao - -> OrderDao : writeAllOrders()
OrderDao - -> Service : Order
'write to backup file
Service - -> Controller : Order

'OrderDao -[#blue]-> AuditDao : writeAuditEntry()

Controller -> View : displayAddOrderSuccessBanner()
View - -> Controller : void
@enduml

@startuml
title TSG Flooring Corp - addOrder() Sequence

View <- Controller : displayAddOrderBanner()
View - -> Controller : void 

View <- Controller : inputOrderDate()
View - -> Controller : LocalDate

View <- Controller : inputCustomerName()
View - -> Controller : String

Controller -> Service : getValidStatesList()
Service -> StateDao : getValidStates()
StateDao - -> StateDao : loadStates()
StateDao - -> Service : List<State>
Service - -> Controller : List<State>
View <- Controller : inputState(List<State>)
View - -> Controller : String
Controller -> Service : validateState(String)
Service -> StateDao : readStateByID(String)
StateDao - -> Service : State
Service - -> Controller : State

Controller -> Service : getValidProductsList()
Service -> ProductDao : getValidProducts()
ProductDao - -> ProductDao : loadProducts()
ProductDao - -> Service : List<Product>
Service - -> Controller : List<Product>
View <- Controller : inputProductType(List<Product>)
View - -> Controller : String
Controller -> Service : validateProductType(String)
Service -> ProductDao : readProductByID(String)
ProductDao - -> Service : Product
Service - -> Controller : Product

View <- Controller : inputArea()
View - -> Controller : BigDecimal

Controller - -> Controller : Order(LocalDate, String, State, Product, BigDecimal)

Controller -> Service: validateOrder(Order)
Service - -> Service : calcOrderCosts(Order)
Service - -> Service : getHighestOrderNumber()
Service - -> Service : Order(LocalDate, int, String, State, Product, BigDecimal, BigDecimal, BigDecimal, BigDecimal, BigDecimal, BigDecimal)
Service - -> Controller : Order

Controller -> View : confirmNewOrder(Order)
View - -> Controller : boolean

Controller - -> Service : Order
Service -> OrderDao : addOrder(Order)
OrderDao - -> OrderDao : loadAllOrders()
OrderDao - -> OrderDao : writeAllOrders()
OrderDao - -> Service : Order
Service - -> Controller : Order


Controller -> View : displayAddOrderSuccessBanner()
View - -> Controller : void
@enduml

PlantUML version 1.2020.16beta3(Unknown compile time)
(GPL source distribution)
Java Runtime: Java(TM) SE Runtime Environment
JVM: Java HotSpot(TM) 64-Bit Server VM
Default Encoding: UTF-8
Language: en
Country: US
--></g></svg>