<?xml version="1.0" encoding="UTF-8" standalone="no"?><svg xmlns="http://www.w3.org/2000/svg" xmlns:xlink="http://www.w3.org/1999/xlink" contentScriptType="application/ecmascript" contentStyleType="text/css" height="517px" preserveAspectRatio="none" style="width:896px;height:517px;" version="1.1" viewBox="0 0 896 517" width="896px" zoomAndPan="magnify"><defs><filter height="300%" id="f1g3jf8w77yx0r" width="300%" x="-1" y="-1"><feGaussianBlur result="blurOut" stdDeviation="2.0"/><feColorMatrix in="blurOut" result="blurOut2" type="matrix" values="0 0 0 0 0 0 0 0 0 0 0 0 0 0 0 0 0 0 .4 0"/><feOffset dx="4.0" dy="4.0" in="blurOut2" result="blurOut3"/><feBlend in="SourceGraphic" in2="blurOut3" mode="normal"/></filter></defs><g><text fill="#000000" font-family="sans-serif" font-size="18" lengthAdjust="spacingAndGlyphs" textLength="424" x="235" y="26.708">TSG Flooring Corp - displayOrders() Sequence</text><line style="stroke: #A80036; stroke-width: 1.0; stroke-dasharray: 5.0,5.0;" x1="34" x2="34" y1="73.25" y2="468.8438"/><line style="stroke: #A80036; stroke-width: 1.0; stroke-dasharray: 5.0,5.0;" x1="304.5" x2="304.5" y1="73.25" y2="468.8438"/><line style="stroke: #A80036; stroke-width: 1.0; stroke-dasharray: 5.0,5.0;" x1="513.5" x2="513.5" y1="73.25" y2="468.8438"/><line style="stroke: #A80036; stroke-width: 1.0; stroke-dasharray: 5.0,5.0;" x1="722.5" x2="722.5" y1="73.25" y2="468.8438"/><rect fill="#FEFECE" filter="url(#f1g3jf8w77yx0r)" height="30.2969" style="stroke: #A80036; stroke-width: 1.5;" width="48" x="8" y="37.9531"/><text fill="#000000" font-family="sans-serif" font-size="14" lengthAdjust="spacingAndGlyphs" textLength="34" x="15" y="57.9482">View</text><rect fill="#FEFECE" filter="url(#f1g3jf8w77yx0r)" height="30.2969" style="stroke: #A80036; stroke-width: 1.5;" width="48" x="8" y="467.8438"/><text fill="#000000" font-family="sans-serif" font-size="14" lengthAdjust="spacingAndGlyphs" textLength="34" x="15" y="487.8389">View</text><rect fill="#FEFECE" filter="url(#f1g3jf8w77yx0r)" height="30.2969" style="stroke: #A80036; stroke-width: 1.5;" width="87" x="259.5" y="37.9531"/><text fill="#000000" font-family="sans-serif" font-size="14" lengthAdjust="spacingAndGlyphs" textLength="73" x="266.5" y="57.9482">Controller</text><rect fill="#FEFECE" filter="url(#f1g3jf8w77yx0r)" height="30.2969" style="stroke: #A80036; stroke-width: 1.5;" width="87" x="259.5" y="467.8438"/><text fill="#000000" font-family="sans-serif" font-size="14" lengthAdjust="spacingAndGlyphs" textLength="73" x="266.5" y="487.8389">Controller</text><rect fill="#FEFECE" filter="url(#f1g3jf8w77yx0r)" height="30.2969" style="stroke: #A80036; stroke-width: 1.5;" width="67" x="478.5" y="37.9531"/><text fill="#000000" font-family="sans-serif" font-size="14" lengthAdjust="spacingAndGlyphs" textLength="53" x="485.5" y="57.9482">Service</text><rect fill="#FEFECE" filter="url(#f1g3jf8w77yx0r)" height="30.2969" style="stroke: #A80036; stroke-width: 1.5;" width="67" x="478.5" y="467.8438"/><text fill="#000000" font-family="sans-serif" font-size="14" lengthAdjust="spacingAndGlyphs" textLength="53" x="485.5" y="487.8389">Service</text><rect fill="#FEFECE" filter="url(#f1g3jf8w77yx0r)" height="30.2969" style="stroke: #A80036; stroke-width: 1.5;" width="83" x="679.5" y="37.9531"/><text fill="#000000" font-family="sans-serif" font-size="14" lengthAdjust="spacingAndGlyphs" textLength="69" x="686.5" y="57.9482">OrderDao</text><rect fill="#FEFECE" filter="url(#f1g3jf8w77yx0r)" height="30.2969" style="stroke: #A80036; stroke-width: 1.5;" width="83" x="679.5" y="467.8438"/><text fill="#000000" font-family="sans-serif" font-size="14" lengthAdjust="spacingAndGlyphs" textLength="69" x="686.5" y="487.8389">OrderDao</text><polygon fill="#A80036" points="45,100.3828,35,104.3828,45,108.3828,41,104.3828" style="stroke: #A80036; stroke-width: 1.0;"/><line style="stroke: #A80036; stroke-width: 1.0;" x1="39" x2="304" y1="104.3828" y2="104.3828"/><text fill="#000000" font-family="sans-serif" font-size="13" lengthAdjust="spacingAndGlyphs" textLength="190" x="51" y="99.3169">displayDisplayOrdersBanner()</text><polygon fill="#A80036" points="293,129.5156,303,133.5156,293,137.5156,297,133.5156" style="stroke: #A80036; stroke-width: 1.0;"/><line style="stroke: #A80036; stroke-width: 1.0; stroke-dasharray: 2.0,2.0;" x1="34" x2="299" y1="133.5156" y2="133.5156"/><text fill="#000000" font-family="sans-serif" font-size="13" lengthAdjust="spacingAndGlyphs" textLength="27" x="41" y="128.4497">void</text><polygon fill="#A80036" points="45,158.6484,35,162.6484,45,166.6484,41,162.6484" style="stroke: #A80036; stroke-width: 1.0;"/><line style="stroke: #A80036; stroke-width: 1.0;" x1="39" x2="304" y1="162.6484" y2="162.6484"/><text fill="#000000" font-family="sans-serif" font-size="13" lengthAdjust="spacingAndGlyphs" textLength="105" x="51" y="157.5825">getOrdersDate()</text><polygon fill="#A80036" points="293,187.7813,303,191.7813,293,195.7813,297,191.7813" style="stroke: #A80036; stroke-width: 1.0;"/><line style="stroke: #A80036; stroke-width: 1.0; stroke-dasharray: 2.0,2.0;" x1="34" x2="299" y1="191.7813" y2="191.7813"/><text fill="#000000" font-family="sans-serif" font-size="13" lengthAdjust="spacingAndGlyphs" textLength="64" x="41" y="186.7153">LocalDate</text><polygon fill="#A80036" points="502,216.9141,512,220.9141,502,224.9141,506,220.9141" style="stroke: #A80036; stroke-width: 1.0;"/><line style="stroke: #A80036; stroke-width: 1.0;" x1="305" x2="508" y1="220.9141" y2="220.9141"/><text fill="#000000" font-family="sans-serif" font-size="13" lengthAdjust="spacingAndGlyphs" textLength="185" x="312" y="215.8481">getOrdersByDate(LocalDate)</text><polygon fill="#A80036" points="711,246.0469,721,250.0469,711,254.0469,715,250.0469" style="stroke: #A80036; stroke-width: 1.0;"/><line style="stroke: #A80036; stroke-width: 1.0;" x1="514" x2="717" y1="250.0469" y2="250.0469"/><text fill="#000000" font-family="sans-serif" font-size="13" lengthAdjust="spacingAndGlyphs" textLength="185" x="521" y="244.981">getOrdersByDate(LocalDate)</text><line style="stroke: #A80036; stroke-width: 1.0; stroke-dasharray: 2.0,2.0;" x1="723" x2="765" y1="279.1797" y2="279.1797"/><line style="stroke: #A80036; stroke-width: 1.0; stroke-dasharray: 2.0,2.0;" x1="765" x2="765" y1="279.1797" y2="292.1797"/><line style="stroke: #A80036; stroke-width: 1.0; stroke-dasharray: 2.0,2.0;" x1="724" x2="765" y1="292.1797" y2="292.1797"/><polygon fill="#A80036" points="734,288.1797,724,292.1797,734,296.1797,730,292.1797" style="stroke: #A80036; stroke-width: 1.0;"/><text fill="#000000" font-family="sans-serif" font-size="13" lengthAdjust="spacingAndGlyphs" textLength="95" x="730" y="274.1138">loadAllOrders()</text><line style="stroke: #A80036; stroke-width: 1.0; stroke-dasharray: 2.0,2.0;" x1="723" x2="765" y1="321.3125" y2="321.3125"/><line style="stroke: #A80036; stroke-width: 1.0; stroke-dasharray: 2.0,2.0;" x1="765" x2="765" y1="321.3125" y2="334.3125"/><line style="stroke: #A80036; stroke-width: 1.0; stroke-dasharray: 2.0,2.0;" x1="724" x2="765" y1="334.3125" y2="334.3125"/><polygon fill="#A80036" points="734,330.3125,724,334.3125,734,338.3125,730,334.3125" style="stroke: #A80036; stroke-width: 1.0;"/><text fill="#000000" font-family="sans-serif" font-size="13" lengthAdjust="spacingAndGlyphs" textLength="154" x="730" y="316.2466">unmarshallOrder(String)</text><polygon fill="#A80036" points="525,359.4453,515,363.4453,525,367.4453,521,363.4453" style="stroke: #A80036; stroke-width: 1.0;"/><line style="stroke: #A80036; stroke-width: 1.0; stroke-dasharray: 2.0,2.0;" x1="519" x2="722" y1="363.4453" y2="363.4453"/><text fill="#000000" font-family="sans-serif" font-size="13" lengthAdjust="spacingAndGlyphs" textLength="78" x="531" y="358.3794">List&lt;Order&gt;</text><polygon fill="#A80036" points="316,388.5781,306,392.5781,316,396.5781,312,392.5781" style="stroke: #A80036; stroke-width: 1.0;"/><line style="stroke: #A80036; stroke-width: 1.0; stroke-dasharray: 2.0,2.0;" x1="310" x2="513" y1="392.5781" y2="392.5781"/><text fill="#000000" font-family="sans-serif" font-size="13" lengthAdjust="spacingAndGlyphs" textLength="78" x="322" y="387.5122">List&lt;Order&gt;</text><polygon fill="#A80036" points="45,417.7109,35,421.7109,45,425.7109,41,421.7109" style="stroke: #A80036; stroke-width: 1.0;"/><line style="stroke: #A80036; stroke-width: 1.0;" x1="39" x2="304" y1="421.7109" y2="421.7109"/><text fill="#000000" font-family="sans-serif" font-size="13" lengthAdjust="spacingAndGlyphs" textLength="247" x="51" y="416.645">displayOrdersByDateInfo(List&lt;Order&gt;)</text><polygon fill="#A80036" points="293,446.8438,303,450.8438,293,454.8438,297,450.8438" style="stroke: #A80036; stroke-width: 1.0;"/><line style="stroke: #A80036; stroke-width: 1.0; stroke-dasharray: 2.0,2.0;" x1="34" x2="299" y1="450.8438" y2="450.8438"/><text fill="#000000" font-family="sans-serif" font-size="13" lengthAdjust="spacingAndGlyphs" textLength="27" x="41" y="445.7778">void</text><!--MD5=[1fb89bde0e2d73326f68f09290db282b]
@startuml
title TSG Flooring Corp - displayOrders() Sequence

View <- Controller : displayDisplayOrdersBanner()
View - -> Controller : void
View <- Controller : getOrdersDate()
View - -> Controller : LocalDate

Controller -> Service : getOrdersByDate(LocalDate)
Service -> OrderDao : getOrdersByDate(LocalDate)
OrderDao - -> OrderDao : loadAllOrders()
OrderDao - -> OrderDao : unmarshallOrder(String)
OrderDao - -> Service : List<Order>
Service - -> Controller : List<Order>

Controller -> View : displayOrdersByDateInfo(List<Order>)
View - -> Controller : void
@enduml

PlantUML version 1.2020.16beta3(Unknown compile time)
(GPL source distribution)
Java Runtime: Java(TM) SE Runtime Environment
JVM: Java HotSpot(TM) 64-Bit Server VM
Default Encoding: UTF-8
Language: en
Country: US
--></g></svg>