<?xml version="1.0" encoding="UTF-8" standalone="no"?><svg xmlns="http://www.w3.org/2000/svg" xmlns:xlink="http://www.w3.org/1999/xlink" contentScriptType="application/ecmascript" contentStyleType="text/css" height="1660px" preserveAspectRatio="none" style="width:1783px;height:1660px;" version="1.1" viewBox="0 0 1783 1660" width="1783px" zoomAndPan="magnify"><defs><filter height="300%" id="f13migjm2iji69" width="300%" x="-1" y="-1"><feGaussianBlur result="blurOut" stdDeviation="2.0"/><feColorMatrix in="blurOut" result="blurOut2" type="matrix" values="0 0 0 0 0 0 0 0 0 0 0 0 0 0 0 0 0 0 .4 0"/><feOffset dx="4.0" dy="4.0" in="blurOut2" result="blurOut3"/><feBlend in="SourceGraphic" in2="blurOut3" mode="normal"/></filter></defs><g><text fill="#000000" font-family="sans-serif" font-size="18" lengthAdjust="spacingAndGlyphs" textLength="384" x="698.5" y="26.708">TSG Flooring Corp - editOrder() Sequence</text><line style="stroke: #A80036; stroke-width: 1.0; stroke-dasharray: 5.0,5.0;" x1="34" x2="34" y1="73.25" y2="1611.7578"/><line style="stroke: #A80036; stroke-width: 1.0; stroke-dasharray: 5.0,5.0;" x1="339.5" x2="339.5" y1="73.25" y2="1611.7578"/><line style="stroke: #A80036; stroke-width: 1.0; stroke-dasharray: 5.0,5.0;" x1="686.5" x2="686.5" y1="73.25" y2="1611.7578"/><line style="stroke: #A80036; stroke-width: 1.0; stroke-dasharray: 5.0,5.0;" x1="1452.5" x2="1452.5" y1="73.25" y2="1611.7578"/><line style="stroke: #A80036; stroke-width: 1.0; stroke-dasharray: 5.0,5.0;" x1="1567" x2="1567" y1="73.25" y2="1611.7578"/><line style="stroke: #A80036; stroke-width: 1.0; stroke-dasharray: 5.0,5.0;" x1="1671" x2="1671" y1="73.25" y2="1611.7578"/><rect fill="#FEFECE" filter="url(#f13migjm2iji69)" height="30.2969" style="stroke: #A80036; stroke-width: 1.5;" width="48" x="8" y="37.9531"/><text fill="#000000" font-family="sans-serif" font-size="14" lengthAdjust="spacingAndGlyphs" textLength="34" x="15" y="57.9482">View</text><rect fill="#FEFECE" filter="url(#f13migjm2iji69)" height="30.2969" style="stroke: #A80036; stroke-width: 1.5;" width="48" x="8" y="1610.7578"/><text fill="#000000" font-family="sans-serif" font-size="14" lengthAdjust="spacingAndGlyphs" textLength="34" x="15" y="1630.7529">View</text><rect fill="#FEFECE" filter="url(#f13migjm2iji69)" height="30.2969" style="stroke: #A80036; stroke-width: 1.5;" width="87" x="294.5" y="37.9531"/><text fill="#000000" font-family="sans-serif" font-size="14" lengthAdjust="spacingAndGlyphs" textLength="73" x="301.5" y="57.9482">Controller</text><rect fill="#FEFECE" filter="url(#f13migjm2iji69)" height="30.2969" style="stroke: #A80036; stroke-width: 1.5;" width="87" x="294.5" y="1610.7578"/><text fill="#000000" font-family="sans-serif" font-size="14" lengthAdjust="spacingAndGlyphs" textLength="73" x="301.5" y="1630.7529">Controller</text><rect fill="#FEFECE" filter="url(#f13migjm2iji69)" height="30.2969" style="stroke: #A80036; stroke-width: 1.5;" width="67" x="651.5" y="37.9531"/><text fill="#000000" font-family="sans-serif" font-size="14" lengthAdjust="spacingAndGlyphs" textLength="53" x="658.5" y="57.9482">Service</text><rect fill="#FEFECE" filter="url(#f13migjm2iji69)" height="30.2969" style="stroke: #A80036; stroke-width: 1.5;" width="67" x="651.5" y="1610.7578"/><text fill="#000000" font-family="sans-serif" font-size="14" lengthAdjust="spacingAndGlyphs" textLength="53" x="658.5" y="1630.7529">Service</text><rect fill="#FEFECE" filter="url(#f13migjm2iji69)" height="30.2969" style="stroke: #A80036; stroke-width: 1.5;" width="83" x="1409.5" y="37.9531"/><text fill="#000000" font-family="sans-serif" font-size="14" lengthAdjust="spacingAndGlyphs" textLength="69" x="1416.5" y="57.9482">OrderDao</text><rect fill="#FEFECE" filter="url(#f13migjm2iji69)" height="30.2969" style="stroke: #A80036; stroke-width: 1.5;" width="83" x="1409.5" y="1610.7578"/><text fill="#000000" font-family="sans-serif" font-size="14" lengthAdjust="spacingAndGlyphs" textLength="69" x="1416.5" y="1630.7529">OrderDao</text><rect fill="#FEFECE" filter="url(#f13migjm2iji69)" height="30.2969" style="stroke: #A80036; stroke-width: 1.5;" width="82" x="1524" y="37.9531"/><text fill="#000000" font-family="sans-serif" font-size="14" lengthAdjust="spacingAndGlyphs" textLength="68" x="1531" y="57.9482">StateDao</text><rect fill="#FEFECE" filter="url(#f13migjm2iji69)" height="30.2969" style="stroke: #A80036; stroke-width: 1.5;" width="82" x="1524" y="1610.7578"/><text fill="#000000" font-family="sans-serif" font-size="14" lengthAdjust="spacingAndGlyphs" textLength="68" x="1531" y="1630.7529">StateDao</text><rect fill="#FEFECE" filter="url(#f13migjm2iji69)" height="30.2969" style="stroke: #A80036; stroke-width: 1.5;" width="98" x="1620" y="37.9531"/><text fill="#000000" font-family="sans-serif" font-size="14" lengthAdjust="spacingAndGlyphs" textLength="84" x="1627" y="57.9482">ProductDao</text><rect fill="#FEFECE" filter="url(#f13migjm2iji69)" height="30.2969" style="stroke: #A80036; stroke-width: 1.5;" width="98" x="1620" y="1610.7578"/><text fill="#000000" font-family="sans-serif" font-size="14" lengthAdjust="spacingAndGlyphs" textLength="84" x="1627" y="1630.7529">ProductDao</text><polygon fill="#A80036" points="45,100.3828,35,104.3828,45,108.3828,41,104.3828" style="stroke: #A80036; stroke-width: 1.0;"/><line style="stroke: #A80036; stroke-width: 1.0;" x1="39" x2="339" y1="104.3828" y2="104.3828"/><text fill="#000000" font-family="sans-serif" font-size="13" lengthAdjust="spacingAndGlyphs" textLength="160" x="51" y="99.3169">displayEditOrderBanner()</text><polygon fill="#A80036" points="328,129.5156,338,133.5156,328,137.5156,332,133.5156" style="stroke: #A80036; stroke-width: 1.0;"/><line style="stroke: #A80036; stroke-width: 1.0; stroke-dasharray: 2.0,2.0;" x1="34" x2="334" y1="133.5156" y2="133.5156"/><text fill="#000000" font-family="sans-serif" font-size="13" lengthAdjust="spacingAndGlyphs" textLength="27" x="41" y="128.4497">void</text><polygon fill="#A80036" points="45,158.6484,35,162.6484,45,166.6484,41,162.6484" style="stroke: #A80036; stroke-width: 1.0;"/><line style="stroke: #A80036; stroke-width: 1.0;" x1="39" x2="339" y1="162.6484" y2="162.6484"/><text fill="#000000" font-family="sans-serif" font-size="13" lengthAdjust="spacingAndGlyphs" textLength="136" x="51" y="157.5825">getSingleOrderDate()</text><polygon fill="#A80036" points="328,187.7813,338,191.7813,328,195.7813,332,191.7813" style="stroke: #A80036; stroke-width: 1.0;"/><line style="stroke: #A80036; stroke-width: 1.0; stroke-dasharray: 2.0,2.0;" x1="34" x2="334" y1="191.7813" y2="191.7813"/><text fill="#000000" font-family="sans-serif" font-size="13" lengthAdjust="spacingAndGlyphs" textLength="64" x="41" y="186.7153">LocalDate</text><polygon fill="#A80036" points="45,216.9141,35,220.9141,45,224.9141,41,220.9141" style="stroke: #A80036; stroke-width: 1.0;"/><line style="stroke: #A80036; stroke-width: 1.0;" x1="39" x2="339" y1="220.9141" y2="220.9141"/><text fill="#000000" font-family="sans-serif" font-size="13" lengthAdjust="spacingAndGlyphs" textLength="97" x="51" y="215.8481">getOrderNum()</text><polygon fill="#A80036" points="328,246.0469,338,250.0469,328,254.0469,332,250.0469" style="stroke: #A80036; stroke-width: 1.0;"/><line style="stroke: #A80036; stroke-width: 1.0; stroke-dasharray: 2.0,2.0;" x1="34" x2="334" y1="250.0469" y2="250.0469"/><text fill="#000000" font-family="sans-serif" font-size="13" lengthAdjust="spacingAndGlyphs" textLength="16" x="41" y="244.981">int</text><polygon fill="#A80036" points="675,275.1797,685,279.1797,675,283.1797,679,279.1797" style="stroke: #A80036; stroke-width: 1.0;"/><line style="stroke: #A80036; stroke-width: 1.0;" x1="340" x2="681" y1="279.1797" y2="279.1797"/><text fill="#000000" font-family="sans-serif" font-size="13" lengthAdjust="spacingAndGlyphs" textLength="155" x="347" y="274.1138">getOrder(LocalDate, int)</text><polygon fill="#A80036" points="1441,304.3125,1451,308.3125,1441,312.3125,1445,308.3125" style="stroke: #A80036; stroke-width: 1.0;"/><line style="stroke: #A80036; stroke-width: 1.0;" x1="687" x2="1447" y1="308.3125" y2="308.3125"/><text fill="#000000" font-family="sans-serif" font-size="13" lengthAdjust="spacingAndGlyphs" textLength="155" x="694" y="303.2466">getOrder(LocalDate, int)</text><polygon fill="#A80036" points="698,333.4453,688,337.4453,698,341.4453,694,337.4453" style="stroke: #A80036; stroke-width: 1.0;"/><line style="stroke: #A80036; stroke-width: 1.0; stroke-dasharray: 2.0,2.0;" x1="692" x2="1452" y1="337.4453" y2="337.4453"/><text fill="#000000" font-family="sans-serif" font-size="13" lengthAdjust="spacingAndGlyphs" textLength="36" x="704" y="332.3794">Order</text><polygon fill="#A80036" points="351,362.5781,341,366.5781,351,370.5781,347,366.5781" style="stroke: #A80036; stroke-width: 1.0;"/><line style="stroke: #A80036; stroke-width: 1.0; stroke-dasharray: 2.0,2.0;" x1="345" x2="686" y1="366.5781" y2="366.5781"/><text fill="#000000" font-family="sans-serif" font-size="13" lengthAdjust="spacingAndGlyphs" textLength="36" x="357" y="361.5122">Order</text><polygon fill="#A80036" points="45,391.7109,35,395.7109,45,399.7109,41,395.7109" style="stroke: #A80036; stroke-width: 1.0;"/><line style="stroke: #A80036; stroke-width: 1.0;" x1="39" x2="339" y1="395.7109" y2="395.7109"/><text fill="#000000" font-family="sans-serif" font-size="13" lengthAdjust="spacingAndGlyphs" textLength="203" x="51" y="390.645">inputEditCustomerName(Order)</text><polygon fill="#A80036" points="328,420.8438,338,424.8438,328,428.8438,332,424.8438" style="stroke: #A80036; stroke-width: 1.0;"/><line style="stroke: #A80036; stroke-width: 1.0; stroke-dasharray: 2.0,2.0;" x1="34" x2="334" y1="424.8438" y2="424.8438"/><text fill="#000000" font-family="sans-serif" font-size="13" lengthAdjust="spacingAndGlyphs" textLength="37" x="41" y="419.7778">String</text><polygon fill="#A80036" points="675,449.9766,685,453.9766,675,457.9766,679,453.9766" style="stroke: #A80036; stroke-width: 1.0;"/><line style="stroke: #A80036; stroke-width: 1.0;" x1="340" x2="681" y1="453.9766" y2="453.9766"/><text fill="#000000" font-family="sans-serif" font-size="13" lengthAdjust="spacingAndGlyphs" textLength="161" x="347" y="448.9106">getValidStatesList(Order)</text><polygon fill="#A80036" points="1555,479.1094,1565,483.1094,1555,487.1094,1559,483.1094" style="stroke: #A80036; stroke-width: 1.0;"/><line style="stroke: #A80036; stroke-width: 1.0;" x1="687" x2="1561" y1="483.1094" y2="483.1094"/><text fill="#000000" font-family="sans-serif" font-size="13" lengthAdjust="spacingAndGlyphs" textLength="103" x="694" y="478.0435">getValidStates()</text><line style="stroke: #A80036; stroke-width: 1.0; stroke-dasharray: 2.0,2.0;" x1="1567" x2="1609" y1="512.2422" y2="512.2422"/><line style="stroke: #A80036; stroke-width: 1.0; stroke-dasharray: 2.0,2.0;" x1="1609" x2="1609" y1="512.2422" y2="525.2422"/><line style="stroke: #A80036; stroke-width: 1.0; stroke-dasharray: 2.0,2.0;" x1="1568" x2="1609" y1="525.2422" y2="525.2422"/><polygon fill="#A80036" points="1578,521.2422,1568,525.2422,1578,529.2422,1574,525.2422" style="stroke: #A80036; stroke-width: 1.0;"/><text fill="#000000" font-family="sans-serif" font-size="13" lengthAdjust="spacingAndGlyphs" textLength="78" x="1574" y="507.1763">loadStates()</text><polygon fill="#A80036" points="698,550.375,688,554.375,698,558.375,694,554.375" style="stroke: #A80036; stroke-width: 1.0;"/><line style="stroke: #A80036; stroke-width: 1.0; stroke-dasharray: 2.0,2.0;" x1="692" x2="1566" y1="554.375" y2="554.375"/><text fill="#000000" font-family="sans-serif" font-size="13" lengthAdjust="spacingAndGlyphs" textLength="76" x="704" y="549.3091">List&lt;State&gt;</text><polygon fill="#A80036" points="351,579.5078,341,583.5078,351,587.5078,347,583.5078" style="stroke: #A80036; stroke-width: 1.0;"/><line style="stroke: #A80036; stroke-width: 1.0; stroke-dasharray: 2.0,2.0;" x1="345" x2="686" y1="583.5078" y2="583.5078"/><text fill="#000000" font-family="sans-serif" font-size="13" lengthAdjust="spacingAndGlyphs" textLength="76" x="357" y="578.4419">List&lt;State&gt;</text><polygon fill="#A80036" points="45,608.6406,35,612.6406,45,616.6406,41,612.6406" style="stroke: #A80036; stroke-width: 1.0;"/><line style="stroke: #A80036; stroke-width: 1.0;" x1="39" x2="339" y1="612.6406" y2="612.6406"/><text fill="#000000" font-family="sans-serif" font-size="13" lengthAdjust="spacingAndGlyphs" textLength="176" x="51" y="607.5747">inputEditState(List&lt;State&gt;)</text><polygon fill="#A80036" points="328,637.7734,338,641.7734,328,645.7734,332,641.7734" style="stroke: #A80036; stroke-width: 1.0;"/><line style="stroke: #A80036; stroke-width: 1.0; stroke-dasharray: 2.0,2.0;" x1="34" x2="334" y1="641.7734" y2="641.7734"/><text fill="#000000" font-family="sans-serif" font-size="13" lengthAdjust="spacingAndGlyphs" textLength="37" x="41" y="636.7075">String</text><polygon fill="#A80036" points="675,666.9063,685,670.9063,675,674.9063,679,670.9063" style="stroke: #A80036; stroke-width: 1.0;"/><line style="stroke: #A80036; stroke-width: 1.0;" x1="340" x2="681" y1="670.9063" y2="670.9063"/><text fill="#000000" font-family="sans-serif" font-size="13" lengthAdjust="spacingAndGlyphs" textLength="216" x="347" y="665.8403">validateState(String, List&lt;State&gt;)</text><polygon fill="#A80036" points="351,696.0391,341,700.0391,351,704.0391,347,700.0391" style="stroke: #A80036; stroke-width: 1.0;"/><line style="stroke: #A80036; stroke-width: 1.0; stroke-dasharray: 2.0,2.0;" x1="345" x2="686" y1="700.0391" y2="700.0391"/><text fill="#000000" font-family="sans-serif" font-size="13" lengthAdjust="spacingAndGlyphs" textLength="34" x="357" y="694.9731">State</text><polygon fill="#A80036" points="675,725.1719,685,729.1719,675,733.1719,679,729.1719" style="stroke: #A80036; stroke-width: 1.0;"/><line style="stroke: #A80036; stroke-width: 1.0;" x1="340" x2="681" y1="729.1719" y2="729.1719"/><text fill="#000000" font-family="sans-serif" font-size="13" lengthAdjust="spacingAndGlyphs" textLength="140" x="347" y="724.106">getValidProductsList()</text><polygon fill="#A80036" points="1659,754.3047,1669,758.3047,1659,762.3047,1663,758.3047" style="stroke: #A80036; stroke-width: 1.0;"/><line style="stroke: #A80036; stroke-width: 1.0;" x1="687" x2="1665" y1="758.3047" y2="758.3047"/><text fill="#000000" font-family="sans-serif" font-size="13" lengthAdjust="spacingAndGlyphs" textLength="118" x="694" y="753.2388">getValidProducts()</text><line style="stroke: #A80036; stroke-width: 1.0; stroke-dasharray: 2.0,2.0;" x1="1671" x2="1713" y1="787.4375" y2="787.4375"/><line style="stroke: #A80036; stroke-width: 1.0; stroke-dasharray: 2.0,2.0;" x1="1713" x2="1713" y1="787.4375" y2="800.4375"/><line style="stroke: #A80036; stroke-width: 1.0; stroke-dasharray: 2.0,2.0;" x1="1672" x2="1713" y1="800.4375" y2="800.4375"/><polygon fill="#A80036" points="1682,796.4375,1672,800.4375,1682,804.4375,1678,800.4375" style="stroke: #A80036; stroke-width: 1.0;"/><text fill="#000000" font-family="sans-serif" font-size="13" lengthAdjust="spacingAndGlyphs" textLength="93" x="1678" y="782.3716">loadProducts()</text><polygon fill="#A80036" points="698,825.5703,688,829.5703,698,833.5703,694,829.5703" style="stroke: #A80036; stroke-width: 1.0;"/><line style="stroke: #A80036; stroke-width: 1.0; stroke-dasharray: 2.0,2.0;" x1="692" x2="1670" y1="829.5703" y2="829.5703"/><text fill="#000000" font-family="sans-serif" font-size="13" lengthAdjust="spacingAndGlyphs" textLength="91" x="704" y="824.5044">List&lt;Product&gt;</text><polygon fill="#A80036" points="351,854.7031,341,858.7031,351,862.7031,347,858.7031" style="stroke: #A80036; stroke-width: 1.0;"/><line style="stroke: #A80036; stroke-width: 1.0; stroke-dasharray: 2.0,2.0;" x1="345" x2="686" y1="858.7031" y2="858.7031"/><text fill="#000000" font-family="sans-serif" font-size="13" lengthAdjust="spacingAndGlyphs" textLength="91" x="357" y="853.6372">List&lt;Product&gt;</text><polygon fill="#A80036" points="45,883.8359,35,887.8359,45,891.8359,41,887.8359" style="stroke: #A80036; stroke-width: 1.0;"/><line style="stroke: #A80036; stroke-width: 1.0;" x1="39" x2="339" y1="887.8359" y2="887.8359"/><text fill="#000000" font-family="sans-serif" font-size="13" lengthAdjust="spacingAndGlyphs" textLength="282" x="51" y="882.77">inputEditProductType(Order, List&lt;Product&gt;)</text><polygon fill="#A80036" points="328,912.9688,338,916.9688,328,920.9688,332,916.9688" style="stroke: #A80036; stroke-width: 1.0;"/><line style="stroke: #A80036; stroke-width: 1.0; stroke-dasharray: 2.0,2.0;" x1="34" x2="334" y1="916.9688" y2="916.9688"/><text fill="#000000" font-family="sans-serif" font-size="13" lengthAdjust="spacingAndGlyphs" textLength="37" x="41" y="911.9028">String</text><polygon fill="#A80036" points="675,942.1016,685,946.1016,675,950.1016,679,946.1016" style="stroke: #A80036; stroke-width: 1.0;"/><line style="stroke: #A80036; stroke-width: 1.0;" x1="340" x2="681" y1="946.1016" y2="946.1016"/><text fill="#000000" font-family="sans-serif" font-size="13" lengthAdjust="spacingAndGlyphs" textLength="278" x="347" y="941.0356">validateProductType(String, List&lt;Product&gt;)</text><polygon fill="#A80036" points="351,971.2344,341,975.2344,351,979.2344,347,975.2344" style="stroke: #A80036; stroke-width: 1.0;"/><line style="stroke: #A80036; stroke-width: 1.0; stroke-dasharray: 2.0,2.0;" x1="345" x2="686" y1="975.2344" y2="975.2344"/><text fill="#000000" font-family="sans-serif" font-size="13" lengthAdjust="spacingAndGlyphs" textLength="49" x="357" y="970.1685">Product</text><polygon fill="#A80036" points="45,1000.3672,35,1004.3672,45,1008.3672,41,1004.3672" style="stroke: #A80036; stroke-width: 1.0;"/><line style="stroke: #A80036; stroke-width: 1.0;" x1="39" x2="339" y1="1004.3672" y2="1004.3672"/><text fill="#000000" font-family="sans-serif" font-size="13" lengthAdjust="spacingAndGlyphs" textLength="132" x="51" y="999.3013">inputEditArea(Order)</text><polygon fill="#A80036" points="328,1029.5,338,1033.5,328,1037.5,332,1033.5" style="stroke: #A80036; stroke-width: 1.0;"/><line style="stroke: #A80036; stroke-width: 1.0; stroke-dasharray: 2.0,2.0;" x1="34" x2="334" y1="1033.5" y2="1033.5"/><text fill="#000000" font-family="sans-serif" font-size="13" lengthAdjust="spacingAndGlyphs" textLength="71" x="41" y="1028.4341">BigDecimal</text><line style="stroke: #A80036; stroke-width: 1.0; stroke-dasharray: 2.0,2.0;" x1="340" x2="382" y1="1062.6328" y2="1062.6328"/><line style="stroke: #A80036; stroke-width: 1.0; stroke-dasharray: 2.0,2.0;" x1="382" x2="382" y1="1062.6328" y2="1075.6328"/><line style="stroke: #A80036; stroke-width: 1.0; stroke-dasharray: 2.0,2.0;" x1="341" x2="382" y1="1075.6328" y2="1075.6328"/><polygon fill="#A80036" points="351,1071.6328,341,1075.6328,351,1079.6328,347,1075.6328" style="stroke: #A80036; stroke-width: 1.0;"/><text fill="#000000" font-family="sans-serif" font-size="13" lengthAdjust="spacingAndGlyphs" textLength="333" x="347" y="1057.5669">Order(LocalDate, String, State, Product, BigDecimal)</text><polygon fill="#A80036" points="675,1100.7656,685,1104.7656,675,1108.7656,679,1104.7656" style="stroke: #A80036; stroke-width: 1.0;"/><line style="stroke: #A80036; stroke-width: 1.0; stroke-dasharray: 2.0,2.0;" x1="340" x2="681" y1="1104.7656" y2="1104.7656"/><text fill="#000000" font-family="sans-serif" font-size="13" lengthAdjust="spacingAndGlyphs" textLength="133" x="347" y="1099.6997">validateOrder(Order)</text><line style="stroke: #A80036; stroke-width: 1.0; stroke-dasharray: 2.0,2.0;" x1="687" x2="729" y1="1133.8984" y2="1133.8984"/><line style="stroke: #A80036; stroke-width: 1.0; stroke-dasharray: 2.0,2.0;" x1="729" x2="729" y1="1133.8984" y2="1146.8984"/><line style="stroke: #A80036; stroke-width: 1.0; stroke-dasharray: 2.0,2.0;" x1="688" x2="729" y1="1146.8984" y2="1146.8984"/><polygon fill="#A80036" points="698,1142.8984,688,1146.8984,698,1150.8984,694,1146.8984" style="stroke: #A80036; stroke-width: 1.0;"/><text fill="#000000" font-family="sans-serif" font-size="13" lengthAdjust="spacingAndGlyphs" textLength="143" x="694" y="1128.8325">calcOrderCosts(Order)</text><line style="stroke: #A80036; stroke-width: 1.0; stroke-dasharray: 2.0,2.0;" x1="687" x2="729" y1="1176.0313" y2="1176.0313"/><line style="stroke: #A80036; stroke-width: 1.0; stroke-dasharray: 2.0,2.0;" x1="729" x2="729" y1="1176.0313" y2="1189.0313"/><line style="stroke: #A80036; stroke-width: 1.0; stroke-dasharray: 2.0,2.0;" x1="688" x2="729" y1="1189.0313" y2="1189.0313"/><polygon fill="#A80036" points="698,1185.0313,688,1189.0313,698,1193.0313,694,1189.0313" style="stroke: #A80036; stroke-width: 1.0;"/><text fill="#000000" font-family="sans-serif" font-size="13" lengthAdjust="spacingAndGlyphs" textLength="752" x="694" y="1170.9653">Order(LocalDate, int, String, State, Product, BigDecimal, BigDecimal, BigDecimal, BigDecimal, BigDecimal, BigDecimal)</text><polygon fill="#A80036" points="351,1214.1641,341,1218.1641,351,1222.1641,347,1218.1641" style="stroke: #A80036; stroke-width: 1.0;"/><line style="stroke: #A80036; stroke-width: 1.0; stroke-dasharray: 2.0,2.0;" x1="345" x2="686" y1="1218.1641" y2="1218.1641"/><text fill="#000000" font-family="sans-serif" font-size="13" lengthAdjust="spacingAndGlyphs" textLength="36" x="357" y="1213.0981">Order</text><polygon fill="#A80036" points="45,1243.2969,35,1247.2969,45,1251.2969,41,1247.2969" style="stroke: #A80036; stroke-width: 1.0;"/><line style="stroke: #A80036; stroke-width: 1.0;" x1="39" x2="339" y1="1247.2969" y2="1247.2969"/><text fill="#000000" font-family="sans-serif" font-size="13" lengthAdjust="spacingAndGlyphs" textLength="119" x="51" y="1242.231">confirmOrderEdit()</text><polygon fill="#A80036" points="328,1272.4297,338,1276.4297,328,1280.4297,332,1276.4297" style="stroke: #A80036; stroke-width: 1.0;"/><line style="stroke: #A80036; stroke-width: 1.0; stroke-dasharray: 2.0,2.0;" x1="34" x2="334" y1="1276.4297" y2="1276.4297"/><text fill="#000000" font-family="sans-serif" font-size="13" lengthAdjust="spacingAndGlyphs" textLength="51" x="41" y="1271.3638">boolean</text><polygon fill="#A80036" points="675,1301.5625,685,1305.5625,675,1309.5625,679,1305.5625" style="stroke: #A80036; stroke-width: 1.0;"/><line style="stroke: #A80036; stroke-width: 1.0; stroke-dasharray: 2.0,2.0;" x1="340" x2="681" y1="1305.5625" y2="1305.5625"/><text fill="#000000" font-family="sans-serif" font-size="13" lengthAdjust="spacingAndGlyphs" textLength="36" x="347" y="1300.4966">Order</text><polygon fill="#A80036" points="1441,1330.6953,1451,1334.6953,1441,1338.6953,1445,1334.6953" style="stroke: #A80036; stroke-width: 1.0;"/><line style="stroke: #A80036; stroke-width: 1.0;" x1="687" x2="1447" y1="1334.6953" y2="1334.6953"/><text fill="#000000" font-family="sans-serif" font-size="13" lengthAdjust="spacingAndGlyphs" textLength="150" x="694" y="1329.6294">editOrder(Order, Order)</text><line style="stroke: #A80036; stroke-width: 1.0; stroke-dasharray: 2.0,2.0;" x1="1453" x2="1495" y1="1363.8281" y2="1363.8281"/><line style="stroke: #A80036; stroke-width: 1.0; stroke-dasharray: 2.0,2.0;" x1="1495" x2="1495" y1="1363.8281" y2="1376.8281"/><line style="stroke: #A80036; stroke-width: 1.0; stroke-dasharray: 2.0,2.0;" x1="1454" x2="1495" y1="1376.8281" y2="1376.8281"/><polygon fill="#A80036" points="1464,1372.8281,1454,1376.8281,1464,1380.8281,1460,1376.8281" style="stroke: #A80036; stroke-width: 1.0;"/><text fill="#000000" font-family="sans-serif" font-size="13" lengthAdjust="spacingAndGlyphs" textLength="95" x="1460" y="1358.7622">loadAllOrders()</text><line style="stroke: #A80036; stroke-width: 1.0; stroke-dasharray: 2.0,2.0;" x1="1453" x2="1495" y1="1405.9609" y2="1405.9609"/><line style="stroke: #A80036; stroke-width: 1.0; stroke-dasharray: 2.0,2.0;" x1="1495" x2="1495" y1="1405.9609" y2="1418.9609"/><line style="stroke: #A80036; stroke-width: 1.0; stroke-dasharray: 2.0,2.0;" x1="1454" x2="1495" y1="1418.9609" y2="1418.9609"/><polygon fill="#A80036" points="1464,1414.9609,1454,1418.9609,1464,1422.9609,1460,1418.9609" style="stroke: #A80036; stroke-width: 1.0;"/><text fill="#000000" font-family="sans-serif" font-size="13" lengthAdjust="spacingAndGlyphs" textLength="100" x="1460" y="1400.895">writeAllOrders()</text><polygon fill="#A80036" points="698,1444.0938,688,1448.0938,698,1452.0938,694,1448.0938" style="stroke: #A80036; stroke-width: 1.0;"/><line style="stroke: #A80036; stroke-width: 1.0; stroke-dasharray: 2.0,2.0;" x1="692" x2="1452" y1="1448.0938" y2="1448.0938"/><text fill="#000000" font-family="sans-serif" font-size="13" lengthAdjust="spacingAndGlyphs" textLength="36" x="704" y="1443.0278">Order</text><polygon fill="#A80036" points="351,1473.2266,341,1477.2266,351,1481.2266,347,1477.2266" style="stroke: #A80036; stroke-width: 1.0;"/><line style="stroke: #A80036; stroke-width: 1.0; stroke-dasharray: 2.0,2.0;" x1="345" x2="686" y1="1477.2266" y2="1477.2266"/><text fill="#000000" font-family="sans-serif" font-size="13" lengthAdjust="spacingAndGlyphs" textLength="36" x="357" y="1472.1606">Order</text><polygon fill="#A80036" points="45,1502.3594,35,1506.3594,45,1510.3594,41,1506.3594" style="stroke: #A80036; stroke-width: 1.0;"/><line style="stroke: #A80036; stroke-width: 1.0;" x1="39" x2="339" y1="1506.3594" y2="1506.3594"/><text fill="#000000" font-family="sans-serif" font-size="13" lengthAdjust="spacingAndGlyphs" textLength="151" x="51" y="1501.2935">displayOrderInfo(Order)</text><polygon fill="#A80036" points="328,1531.4922,338,1535.4922,328,1539.4922,332,1535.4922" style="stroke: #A80036; stroke-width: 1.0;"/><line style="stroke: #A80036; stroke-width: 1.0; stroke-dasharray: 2.0,2.0;" x1="34" x2="334" y1="1535.4922" y2="1535.4922"/><text fill="#000000" font-family="sans-serif" font-size="13" lengthAdjust="spacingAndGlyphs" textLength="27" x="41" y="1530.4263">void</text><polygon fill="#A80036" points="45,1560.625,35,1564.625,45,1568.625,41,1564.625" style="stroke: #A80036; stroke-width: 1.0;"/><line style="stroke: #A80036; stroke-width: 1.0;" x1="39" x2="339" y1="1564.625" y2="1564.625"/><text fill="#000000" font-family="sans-serif" font-size="13" lengthAdjust="spacingAndGlyphs" textLength="212" x="51" y="1559.5591">displayEditOrderSuccessBanner()</text><polygon fill="#A80036" points="328,1589.7578,338,1593.7578,328,1597.7578,332,1593.7578" style="stroke: #A80036; stroke-width: 1.0;"/><line style="stroke: #A80036; stroke-width: 1.0; stroke-dasharray: 2.0,2.0;" x1="34" x2="334" y1="1593.7578" y2="1593.7578"/><text fill="#000000" font-family="sans-serif" font-size="13" lengthAdjust="spacingAndGlyphs" textLength="27" x="41" y="1588.6919">void</text><!--MD5=[2370e052770c2f00de4af35d29a40789]
@startuml
title TSG Flooring Corp - editOrder() Sequence

View <- Controller : displayEditOrderBanner()
View - -> Controller : void
'all \n user entries must  be copied over

'need to get order first
View <- Controller : getSingleOrderDate()
View - -> Controller : LocalDate
View <- Controller : getOrderNum()
View - -> Controller : int

Controller -> Service : getOrder(LocalDate, int)
Service -> OrderDao : getOrder(LocalDate, int)
OrderDao - -> Service : Order
Service - -> Controller : Order

View <- Controller : inputEditCustomerName(Order)
View - -> Controller : String

Controller -> Service : getValidStatesList(Order)
Service -> StateDao : getValidStates()
StateDao - -> StateDao : loadStates()
StateDao - -> Service : List<State>
Service - -> Controller : List<State>
View <- Controller : inputEditState(List<State>)
View - -> Controller : String
Controller -> Service : validateState(String, List<State>)
Service - -> Controller : State

Controller -> Service : getValidProductsList()
Service -> ProductDao : getValidProducts()
ProductDao - -> ProductDao : loadProducts()
ProductDao - -> Service : List<Product>
Service - -> Controller : List<Product>
View <- Controller : inputEditProductType(Order, List<Product>)
View - -> Controller : String
Controller -> Service : validateProductType(String, List<Product>)
Service - -> Controller : Product

View <- Controller : inputEditArea(Order)
View - -> Controller : BigDecimal
Controller - -> Controller : Order(LocalDate, String, State, Product, BigDecimal)

Controller - -> Service : validateOrder(Order)
Service - -> Service : calcOrderCosts(Order)
Service - -> Service : Order(LocalDate, int, String, State, Product, BigDecimal, BigDecimal, BigDecimal, BigDecimal, BigDecimal, BigDecimal)
Service - -> Controller : Order

Controller -> View : confirmOrderEdit()
View - -> Controller : boolean

Controller - -> Service : Order
Service -> OrderDao : editOrder(Order, Order)
OrderDao - -> OrderDao : loadAllOrders()
OrderDao - -> OrderDao : writeAllOrders()
OrderDao - -> Service : Order
Service - -> Controller : Order

'OrderDao -[#blue]-> AuditDao : writeAuditEntry()

Controller -> View : displayOrderInfo(Order)
View - -> Controller : void

Controller -> View : displayEditOrderSuccessBanner()
View - -> Controller : void
@enduml

@startuml
title TSG Flooring Corp - editOrder() Sequence

View <- Controller : displayEditOrderBanner()
View - -> Controller : void

View <- Controller : getSingleOrderDate()
View - -> Controller : LocalDate
View <- Controller : getOrderNum()
View - -> Controller : int

Controller -> Service : getOrder(LocalDate, int)
Service -> OrderDao : getOrder(LocalDate, int)
OrderDao - -> Service : Order
Service - -> Controller : Order

View <- Controller : inputEditCustomerName(Order)
View - -> Controller : String

Controller -> Service : getValidStatesList(Order)
Service -> StateDao : getValidStates()
StateDao - -> StateDao : loadStates()
StateDao - -> Service : List<State>
Service - -> Controller : List<State>
View <- Controller : inputEditState(List<State>)
View - -> Controller : String
Controller -> Service : validateState(String, List<State>)
Service - -> Controller : State

Controller -> Service : getValidProductsList()
Service -> ProductDao : getValidProducts()
ProductDao - -> ProductDao : loadProducts()
ProductDao - -> Service : List<Product>
Service - -> Controller : List<Product>
View <- Controller : inputEditProductType(Order, List<Product>)
View - -> Controller : String
Controller -> Service : validateProductType(String, List<Product>)
Service - -> Controller : Product

View <- Controller : inputEditArea(Order)
View - -> Controller : BigDecimal
Controller - -> Controller : Order(LocalDate, String, State, Product, BigDecimal)

Controller - -> Service : validateOrder(Order)
Service - -> Service : calcOrderCosts(Order)
Service - -> Service : Order(LocalDate, int, String, State, Product, BigDecimal, BigDecimal, BigDecimal, BigDecimal, BigDecimal, BigDecimal)
Service - -> Controller : Order

Controller -> View : confirmOrderEdit()
View - -> Controller : boolean

Controller - -> Service : Order
Service -> OrderDao : editOrder(Order, Order)
OrderDao - -> OrderDao : loadAllOrders()
OrderDao - -> OrderDao : writeAllOrders()
OrderDao - -> Service : Order
Service - -> Controller : Order


Controller -> View : displayOrderInfo(Order)
View - -> Controller : void

Controller -> View : displayEditOrderSuccessBanner()
View - -> Controller : void
@enduml

PlantUML version 1.2020.16beta3(Unknown compile time)
(GPL source distribution)
Java Runtime: Java(TM) SE Runtime Environment
JVM: Java HotSpot(TM) 64-Bit Server VM
Default Encoding: UTF-8
Language: en
Country: US
--></g></svg>