<?xml version="1.0" encoding="UTF-8" standalone="no"?><svg xmlns="http://www.w3.org/2000/svg" xmlns:xlink="http://www.w3.org/1999/xlink" contentScriptType="application/ecmascript" contentStyleType="text/css" height="488px" preserveAspectRatio="none" style="width:812px;height:488px;" version="1.1" viewBox="0 0 812 488" width="812px" zoomAndPan="magnify"><defs><filter height="300%" id="fsu84f029zicy" width="300%" x="-1" y="-1"><feGaussianBlur result="blurOut" stdDeviation="2.0"/><feColorMatrix in="blurOut" result="blurOut2" type="matrix" values="0 0 0 0 0 0 0 0 0 0 0 0 0 0 0 0 0 0 .4 0"/><feOffset dx="4.0" dy="4.0" in="blurOut2" result="blurOut3"/><feBlend in="SourceGraphic" in2="blurOut3" mode="normal"/></filter></defs><g><text fill="#000000" font-family="sans-serif" font-size="18" lengthAdjust="spacingAndGlyphs" textLength="411" x="197" y="26.708">TSG Flooring Corp - exportOrder() Sequence</text><line style="stroke: #A80036; stroke-width: 1.0; stroke-dasharray: 5.0,5.0;" x1="34" x2="34" y1="73.25" y2="439.7109"/><line style="stroke: #A80036; stroke-width: 1.0; stroke-dasharray: 5.0,5.0;" x1="287.5" x2="287.5" y1="73.25" y2="439.7109"/><line style="stroke: #A80036; stroke-width: 1.0; stroke-dasharray: 5.0,5.0;" x1="406.5" x2="406.5" y1="73.25" y2="439.7109"/><line style="stroke: #A80036; stroke-width: 1.0; stroke-dasharray: 5.0,5.0;" x1="604" x2="604" y1="73.25" y2="439.7109"/><line style="stroke: #A80036; stroke-width: 1.0; stroke-dasharray: 5.0,5.0;" x1="755" x2="755" y1="73.25" y2="439.7109"/><rect fill="#FEFECE" filter="url(#fsu84f029zicy)" height="30.2969" style="stroke: #A80036; stroke-width: 1.5;" width="48" x="8" y="37.9531"/><text fill="#000000" font-family="sans-serif" font-size="14" lengthAdjust="spacingAndGlyphs" textLength="34" x="15" y="57.9482">View</text><rect fill="#FEFECE" filter="url(#fsu84f029zicy)" height="30.2969" style="stroke: #A80036; stroke-width: 1.5;" width="48" x="8" y="438.7109"/><text fill="#000000" font-family="sans-serif" font-size="14" lengthAdjust="spacingAndGlyphs" textLength="34" x="15" y="458.7061">View</text><rect fill="#FEFECE" filter="url(#fsu84f029zicy)" height="30.2969" style="stroke: #A80036; stroke-width: 1.5;" width="87" x="242.5" y="37.9531"/><text fill="#000000" font-family="sans-serif" font-size="14" lengthAdjust="spacingAndGlyphs" textLength="73" x="249.5" y="57.9482">Controller</text><rect fill="#FEFECE" filter="url(#fsu84f029zicy)" height="30.2969" style="stroke: #A80036; stroke-width: 1.5;" width="87" x="242.5" y="438.7109"/><text fill="#000000" font-family="sans-serif" font-size="14" lengthAdjust="spacingAndGlyphs" textLength="73" x="249.5" y="458.7061">Controller</text><rect fill="#FEFECE" filter="url(#fsu84f029zicy)" height="30.2969" style="stroke: #A80036; stroke-width: 1.5;" width="67" x="371.5" y="37.9531"/><text fill="#000000" font-family="sans-serif" font-size="14" lengthAdjust="spacingAndGlyphs" textLength="53" x="378.5" y="57.9482">Service</text><rect fill="#FEFECE" filter="url(#fsu84f029zicy)" height="30.2969" style="stroke: #A80036; stroke-width: 1.5;" width="67" x="371.5" y="438.7109"/><text fill="#000000" font-family="sans-serif" font-size="14" lengthAdjust="spacingAndGlyphs" textLength="53" x="378.5" y="458.7061">Service</text><rect fill="#FEFECE" filter="url(#fsu84f029zicy)" height="30.2969" style="stroke: #A80036; stroke-width: 1.5;" width="116" x="544" y="37.9531"/><text fill="#000000" font-family="sans-serif" font-size="14" lengthAdjust="spacingAndGlyphs" textLength="102" x="551" y="57.9482">ExportFileDao</text><rect fill="#FEFECE" filter="url(#fsu84f029zicy)" height="30.2969" style="stroke: #A80036; stroke-width: 1.5;" width="116" x="544" y="438.7109"/><text fill="#000000" font-family="sans-serif" font-size="14" lengthAdjust="spacingAndGlyphs" textLength="102" x="551" y="458.7061">ExportFileDao</text><rect fill="#FEFECE" filter="url(#fsu84f029zicy)" height="30.2969" style="stroke: #A80036; stroke-width: 1.5;" width="80" x="713" y="37.9531"/><text fill="#000000" font-family="sans-serif" font-size="14" lengthAdjust="spacingAndGlyphs" textLength="66" x="720" y="57.9482">AuditDao</text><rect fill="#FEFECE" filter="url(#fsu84f029zicy)" height="30.2969" style="stroke: #A80036; stroke-width: 1.5;" width="80" x="713" y="438.7109"/><text fill="#000000" font-family="sans-serif" font-size="14" lengthAdjust="spacingAndGlyphs" textLength="66" x="720" y="458.7061">AuditDao</text><polygon fill="#A80036" points="45,100.3828,35,104.3828,45,108.3828,41,104.3828" style="stroke: #A80036; stroke-width: 1.0;"/><line style="stroke: #A80036; stroke-width: 1.0; stroke-dasharray: 2.0,2.0;" x1="39" x2="287" y1="104.3828" y2="104.3828"/><text fill="#000000" font-family="sans-serif" font-size="13" lengthAdjust="spacingAndGlyphs" textLength="178" x="51" y="99.3169">displayExportOrderBanner()</text><polygon fill="#A80036" points="276,129.5156,286,133.5156,276,137.5156,280,133.5156" style="stroke: #A80036; stroke-width: 1.0;"/><line style="stroke: #A80036; stroke-width: 1.0; stroke-dasharray: 2.0,2.0;" x1="34" x2="282" y1="133.5156" y2="133.5156"/><text fill="#000000" font-family="sans-serif" font-size="13" lengthAdjust="spacingAndGlyphs" textLength="27" x="41" y="128.4497">void</text><polygon fill="#A80036" points="395,158.6484,405,162.6484,395,166.6484,399,162.6484" style="stroke: #A80036; stroke-width: 1.0;"/><line style="stroke: #A80036; stroke-width: 1.0;" x1="288" x2="401" y1="162.6484" y2="162.6484"/><text fill="#000000" font-family="sans-serif" font-size="13" lengthAdjust="spacingAndGlyphs" textLength="95" x="295" y="157.5825">exportOrders()</text><line style="stroke: #A80036; stroke-width: 1.0;" x1="407" x2="449" y1="191.7813" y2="191.7813"/><line style="stroke: #A80036; stroke-width: 1.0;" x1="449" x2="449" y1="191.7813" y2="204.7813"/><line style="stroke: #A80036; stroke-width: 1.0;" x1="408" x2="449" y1="204.7813" y2="204.7813"/><polygon fill="#A80036" points="418,200.7813,408,204.7813,418,208.7813,414,204.7813" style="stroke: #A80036; stroke-width: 1.0;"/><text fill="#000000" font-family="sans-serif" font-size="13" lengthAdjust="spacingAndGlyphs" textLength="89" x="414" y="186.7153">getAllOrders()</text><polygon fill="#A80036" points="592,229.9141,602,233.9141,592,237.9141,596,233.9141" style="stroke: #A80036; stroke-width: 1.0;"/><line style="stroke: #A80036; stroke-width: 1.0;" x1="407" x2="598" y1="233.9141" y2="233.9141"/><text fill="#000000" font-family="sans-serif" font-size="13" lengthAdjust="spacingAndGlyphs" textLength="173" x="414" y="228.8481">exportOrders(List&lt;Order&gt;)</text><line style="stroke: #A80036; stroke-width: 1.0; stroke-dasharray: 2.0,2.0;" x1="604" x2="646" y1="263.0469" y2="263.0469"/><line style="stroke: #A80036; stroke-width: 1.0; stroke-dasharray: 2.0,2.0;" x1="646" x2="646" y1="263.0469" y2="276.0469"/><line style="stroke: #A80036; stroke-width: 1.0; stroke-dasharray: 2.0,2.0;" x1="605" x2="646" y1="276.0469" y2="276.0469"/><polygon fill="#A80036" points="615,272.0469,605,276.0469,615,280.0469,611,276.0469" style="stroke: #A80036; stroke-width: 1.0;"/><text fill="#000000" font-family="sans-serif" font-size="13" lengthAdjust="spacingAndGlyphs" textLength="137" x="611" y="257.981">marshallOrder(Order)</text><polygon fill="#A80036" points="418,301.1797,408,305.1797,418,309.1797,414,305.1797" style="stroke: #A80036; stroke-width: 1.0;"/><line style="stroke: #A80036; stroke-width: 1.0; stroke-dasharray: 2.0,2.0;" x1="412" x2="603" y1="305.1797" y2="305.1797"/><text fill="#000000" font-family="sans-serif" font-size="13" lengthAdjust="spacingAndGlyphs" textLength="27" x="424" y="300.1138">void</text><polygon fill="#0000FF" points="743,330.3125,753,334.3125,743,338.3125,747,334.3125" style="stroke: #0000FF; stroke-width: 1.0;"/><line style="stroke: #0000FF; stroke-width: 1.0; stroke-dasharray: 2.0,2.0;" x1="604" x2="749" y1="334.3125" y2="334.3125"/><text fill="#000000" font-family="sans-serif" font-size="13" lengthAdjust="spacingAndGlyphs" textLength="109" x="611" y="329.2466">writeAuditEntry()</text><polygon fill="#A80036" points="299,359.4453,289,363.4453,299,367.4453,295,363.4453" style="stroke: #A80036; stroke-width: 1.0;"/><line style="stroke: #A80036; stroke-width: 1.0; stroke-dasharray: 2.0,2.0;" x1="293" x2="406" y1="363.4453" y2="363.4453"/><text fill="#000000" font-family="sans-serif" font-size="13" lengthAdjust="spacingAndGlyphs" textLength="27" x="305" y="358.3794">void</text><polygon fill="#A80036" points="45,388.5781,35,392.5781,45,396.5781,41,392.5781" style="stroke: #A80036; stroke-width: 1.0;"/><line style="stroke: #A80036; stroke-width: 1.0;" x1="39" x2="287" y1="392.5781" y2="392.5781"/><text fill="#000000" font-family="sans-serif" font-size="13" lengthAdjust="spacingAndGlyphs" textLength="230" x="51" y="387.5122">displayExportOrderSuccessBanner()</text><polygon fill="#A80036" points="276,417.7109,286,421.7109,276,425.7109,280,421.7109" style="stroke: #A80036; stroke-width: 1.0;"/><line style="stroke: #A80036; stroke-width: 1.0; stroke-dasharray: 2.0,2.0;" x1="34" x2="282" y1="421.7109" y2="421.7109"/><text fill="#000000" font-family="sans-serif" font-size="13" lengthAdjust="spacingAndGlyphs" textLength="27" x="41" y="416.645">void</text><!--MD5=[2dc109c3017dcd5f7dbf87ae226d54f1]
@startuml
title TSG Flooring Corp - exportOrder() Sequence

View <- - Controller : displayExportOrderBanner()
View - -> Controller : void

Controller -> Service : exportOrders()
Service -> Service : getAllOrders()
Service -> ExportFileDao : exportOrders(List<Order>)
ExportFileDao - -> ExportFileDao : marshallOrder(Order)
ExportFileDao - -> Service : void
ExportFileDao -[#blue]-> AuditDao : writeAuditEntry()
Service - -> Controller : void

Controller -> View : displayExportOrderSuccessBanner()
View - -> Controller : void
@enduml

PlantUML version 1.2020.16beta1(Unknown compile time)
(GPL source distribution)
Java Runtime: Java(TM) SE Runtime Environment
JVM: Java HotSpot(TM) 64-Bit Server VM
Default Encoding: UTF-8
Language: en
Country: US
--></g></svg>