<?xml version="1.0" encoding="UTF-8" standalone="no"?><svg xmlns="http://www.w3.org/2000/svg" xmlns:xlink="http://www.w3.org/1999/xlink" contentScriptType="application/ecmascript" contentStyleType="text/css" height="1566px" preserveAspectRatio="none" style="width:1681px;height:1566px;" version="1.1" viewBox="0 0 1681 1566" width="1681px" zoomAndPan="magnify"><defs><filter height="300%" id="ftjzg909ru4g2" width="300%" x="-1" y="-1"><feGaussianBlur result="blurOut" stdDeviation="2.0"/><feColorMatrix in="blurOut" result="blurOut2" type="matrix" values="0 0 0 0 0 0 0 0 0 0 0 0 0 0 0 0 0 0 .4 0"/><feOffset dx="4.0" dy="4.0" in="blurOut2" result="blurOut3"/><feBlend in="SourceGraphic" in2="blurOut3" mode="normal"/></filter></defs><g><text fill="#000000" font-family="sans-serif" font-size="18" lengthAdjust="spacingAndGlyphs" textLength="382" x="646" y="26.708">TSG Flooring Corp - addOrder() Sequence</text><line style="stroke: #A80036; stroke-width: 1.0; stroke-dasharray: 5.0,5.0;" x1="34" x2="34" y1="73.25" y2="1518.0938"/><line style="stroke: #A80036; stroke-width: 1.0; stroke-dasharray: 5.0,5.0;" x1="270.5" x2="270.5" y1="73.25" y2="1518.0938"/><line style="stroke: #A80036; stroke-width: 1.0; stroke-dasharray: 5.0,5.0;" x1="617.5" x2="617.5" y1="73.25" y2="1518.0938"/><line style="stroke: #A80036; stroke-width: 1.0; stroke-dasharray: 5.0,5.0;" x1="1384" x2="1384" y1="73.25" y2="1518.0938"/><line style="stroke: #A80036; stroke-width: 1.0; stroke-dasharray: 5.0,5.0;" x1="1490.5" x2="1490.5" y1="73.25" y2="1518.0938"/><line style="stroke: #A80036; stroke-width: 1.0; stroke-dasharray: 5.0,5.0;" x1="1624" x2="1624" y1="73.25" y2="1518.0938"/><rect fill="#FEFECE" filter="url(#ftjzg909ru4g2)" height="30.2969" style="stroke: #A80036; stroke-width: 1.5;" width="48" x="8" y="37.9531"/><text fill="#000000" font-family="sans-serif" font-size="14" lengthAdjust="spacingAndGlyphs" textLength="34" x="15" y="57.9482">View</text><rect fill="#FEFECE" filter="url(#ftjzg909ru4g2)" height="30.2969" style="stroke: #A80036; stroke-width: 1.5;" width="48" x="8" y="1517.0938"/><text fill="#000000" font-family="sans-serif" font-size="14" lengthAdjust="spacingAndGlyphs" textLength="34" x="15" y="1537.0889">View</text><rect fill="#FEFECE" filter="url(#ftjzg909ru4g2)" height="30.2969" style="stroke: #A80036; stroke-width: 1.5;" width="87" x="225.5" y="37.9531"/><text fill="#000000" font-family="sans-serif" font-size="14" lengthAdjust="spacingAndGlyphs" textLength="73" x="232.5" y="57.9482">Controller</text><rect fill="#FEFECE" filter="url(#ftjzg909ru4g2)" height="30.2969" style="stroke: #A80036; stroke-width: 1.5;" width="87" x="225.5" y="1517.0938"/><text fill="#000000" font-family="sans-serif" font-size="14" lengthAdjust="spacingAndGlyphs" textLength="73" x="232.5" y="1537.0889">Controller</text><rect fill="#FEFECE" filter="url(#ftjzg909ru4g2)" height="30.2969" style="stroke: #A80036; stroke-width: 1.5;" width="67" x="582.5" y="37.9531"/><text fill="#000000" font-family="sans-serif" font-size="14" lengthAdjust="spacingAndGlyphs" textLength="53" x="589.5" y="57.9482">Service</text><rect fill="#FEFECE" filter="url(#ftjzg909ru4g2)" height="30.2969" style="stroke: #A80036; stroke-width: 1.5;" width="67" x="582.5" y="1517.0938"/><text fill="#000000" font-family="sans-serif" font-size="14" lengthAdjust="spacingAndGlyphs" textLength="53" x="589.5" y="1537.0889">Service</text><rect fill="#FEFECE" filter="url(#ftjzg909ru4g2)" height="30.2969" style="stroke: #A80036; stroke-width: 1.5;" width="82" x="1341" y="37.9531"/><text fill="#000000" font-family="sans-serif" font-size="14" lengthAdjust="spacingAndGlyphs" textLength="68" x="1348" y="57.9482">StateDao</text><rect fill="#FEFECE" filter="url(#ftjzg909ru4g2)" height="30.2969" style="stroke: #A80036; stroke-width: 1.5;" width="82" x="1341" y="1517.0938"/><text fill="#000000" font-family="sans-serif" font-size="14" lengthAdjust="spacingAndGlyphs" textLength="68" x="1348" y="1537.0889">StateDao</text><rect fill="#FEFECE" filter="url(#ftjzg909ru4g2)" height="30.2969" style="stroke: #A80036; stroke-width: 1.5;" width="83" x="1447.5" y="37.9531"/><text fill="#000000" font-family="sans-serif" font-size="14" lengthAdjust="spacingAndGlyphs" textLength="69" x="1454.5" y="57.9482">OrderDao</text><rect fill="#FEFECE" filter="url(#ftjzg909ru4g2)" height="30.2969" style="stroke: #A80036; stroke-width: 1.5;" width="83" x="1447.5" y="1517.0938"/><text fill="#000000" font-family="sans-serif" font-size="14" lengthAdjust="spacingAndGlyphs" textLength="69" x="1454.5" y="1537.0889">OrderDao</text><rect fill="#FEFECE" filter="url(#ftjzg909ru4g2)" height="30.2969" style="stroke: #A80036; stroke-width: 1.5;" width="80" x="1582" y="37.9531"/><text fill="#000000" font-family="sans-serif" font-size="14" lengthAdjust="spacingAndGlyphs" textLength="66" x="1589" y="57.9482">AuditDao</text><rect fill="#FEFECE" filter="url(#ftjzg909ru4g2)" height="30.2969" style="stroke: #A80036; stroke-width: 1.5;" width="80" x="1582" y="1517.0938"/><text fill="#000000" font-family="sans-serif" font-size="14" lengthAdjust="spacingAndGlyphs" textLength="66" x="1589" y="1537.0889">AuditDao</text><polygon fill="#A80036" points="45,100.3828,35,104.3828,45,108.3828,41,104.3828" style="stroke: #A80036; stroke-width: 1.0;"/><line style="stroke: #A80036; stroke-width: 1.0;" x1="39" x2="270" y1="104.3828" y2="104.3828"/><text fill="#000000" font-family="sans-serif" font-size="13" lengthAdjust="spacingAndGlyphs" textLength="161" x="51" y="99.3169">displayAddOrderBanner()</text><polygon fill="#A80036" points="259,129.5156,269,133.5156,259,137.5156,263,133.5156" style="stroke: #A80036; stroke-width: 1.0;"/><line style="stroke: #A80036; stroke-width: 1.0; stroke-dasharray: 2.0,2.0;" x1="34" x2="265" y1="133.5156" y2="133.5156"/><text fill="#000000" font-family="sans-serif" font-size="13" lengthAdjust="spacingAndGlyphs" textLength="27" x="41" y="128.4497">void</text><polygon fill="#A80036" points="45,158.6484,35,162.6484,45,166.6484,41,162.6484" style="stroke: #A80036; stroke-width: 1.0;"/><line style="stroke: #A80036; stroke-width: 1.0;" x1="39" x2="270" y1="162.6484" y2="162.6484"/><text fill="#000000" font-family="sans-serif" font-size="13" lengthAdjust="spacingAndGlyphs" textLength="109" x="51" y="157.5825">inputOrderDate()</text><polygon fill="#A80036" points="259,187.7813,269,191.7813,259,195.7813,263,191.7813" style="stroke: #A80036; stroke-width: 1.0;"/><line style="stroke: #A80036; stroke-width: 1.0; stroke-dasharray: 2.0,2.0;" x1="34" x2="265" y1="191.7813" y2="191.7813"/><text fill="#000000" font-family="sans-serif" font-size="13" lengthAdjust="spacingAndGlyphs" textLength="64" x="41" y="186.7153">LocalDate</text><polygon fill="#A80036" points="606,216.9141,616,220.9141,606,224.9141,610,220.9141" style="stroke: #A80036; stroke-width: 1.0;"/><line style="stroke: #A80036; stroke-width: 1.0;" x1="271" x2="612" y1="220.9141" y2="220.9141"/><text fill="#000000" font-family="sans-serif" font-size="13" lengthAdjust="spacingAndGlyphs" textLength="192" x="278" y="215.8481">validateOrderDate(LocalDate)</text><polygon fill="#A80036" points="282,246.0469,272,250.0469,282,254.0469,278,250.0469" style="stroke: #A80036; stroke-width: 1.0;"/><line style="stroke: #A80036; stroke-width: 1.0; stroke-dasharray: 2.0,2.0;" x1="276" x2="617" y1="250.0469" y2="250.0469"/><text fill="#000000" font-family="sans-serif" font-size="13" lengthAdjust="spacingAndGlyphs" textLength="64" x="288" y="244.981">LocalDate</text><polygon fill="#A80036" points="45,275.1797,35,279.1797,45,283.1797,41,279.1797" style="stroke: #A80036; stroke-width: 1.0;"/><line style="stroke: #A80036; stroke-width: 1.0;" x1="39" x2="270" y1="279.1797" y2="279.1797"/><text fill="#000000" font-family="sans-serif" font-size="13" lengthAdjust="spacingAndGlyphs" textLength="143" x="51" y="274.1138">inputCustomerName()</text><polygon fill="#A80036" points="259,304.3125,269,308.3125,259,312.3125,263,308.3125" style="stroke: #A80036; stroke-width: 1.0;"/><line style="stroke: #A80036; stroke-width: 1.0; stroke-dasharray: 2.0,2.0;" x1="34" x2="265" y1="308.3125" y2="308.3125"/><text fill="#000000" font-family="sans-serif" font-size="13" lengthAdjust="spacingAndGlyphs" textLength="37" x="41" y="303.2466">String</text><polygon fill="#A80036" points="606,333.4453,616,337.4453,606,341.4453,610,337.4453" style="stroke: #A80036; stroke-width: 1.0;"/><line style="stroke: #A80036; stroke-width: 1.0;" x1="271" x2="612" y1="337.4453" y2="337.4453"/><text fill="#000000" font-family="sans-serif" font-size="13" lengthAdjust="spacingAndGlyphs" textLength="199" x="278" y="332.3794">validateCustomerName(String)</text><polygon fill="#A80036" points="282,362.5781,272,366.5781,282,370.5781,278,366.5781" style="stroke: #A80036; stroke-width: 1.0;"/><line style="stroke: #A80036; stroke-width: 1.0; stroke-dasharray: 2.0,2.0;" x1="276" x2="617" y1="366.5781" y2="366.5781"/><text fill="#000000" font-family="sans-serif" font-size="13" lengthAdjust="spacingAndGlyphs" textLength="37" x="288" y="361.5122">String</text><polygon fill="#A80036" points="45,391.7109,35,395.7109,45,399.7109,41,395.7109" style="stroke: #A80036; stroke-width: 1.0;"/><line style="stroke: #A80036; stroke-width: 1.0;" x1="39" x2="270" y1="395.7109" y2="395.7109"/><text fill="#000000" font-family="sans-serif" font-size="13" lengthAdjust="spacingAndGlyphs" textLength="76" x="51" y="390.645">inputState()</text><polygon fill="#A80036" points="259,420.8438,269,424.8438,259,428.8438,263,424.8438" style="stroke: #A80036; stroke-width: 1.0;"/><line style="stroke: #A80036; stroke-width: 1.0; stroke-dasharray: 2.0,2.0;" x1="34" x2="265" y1="424.8438" y2="424.8438"/><text fill="#000000" font-family="sans-serif" font-size="13" lengthAdjust="spacingAndGlyphs" textLength="37" x="41" y="419.7778">String</text><polygon fill="#A80036" points="606,449.9766,616,453.9766,606,457.9766,610,453.9766" style="stroke: #A80036; stroke-width: 1.0;"/><line style="stroke: #A80036; stroke-width: 1.0;" x1="271" x2="612" y1="453.9766" y2="453.9766"/><text fill="#000000" font-family="sans-serif" font-size="13" lengthAdjust="spacingAndGlyphs" textLength="132" x="278" y="448.9106">validateState(String)</text><polygon fill="#A80036" points="282,479.1094,272,483.1094,282,487.1094,278,483.1094" style="stroke: #A80036; stroke-width: 1.0;"/><line style="stroke: #A80036; stroke-width: 1.0; stroke-dasharray: 2.0,2.0;" x1="276" x2="617" y1="483.1094" y2="483.1094"/><text fill="#000000" font-family="sans-serif" font-size="13" lengthAdjust="spacingAndGlyphs" textLength="34" x="288" y="478.0435">State</text><polygon fill="#A80036" points="45,508.2422,35,512.2422,45,516.2422,41,512.2422" style="stroke: #A80036; stroke-width: 1.0;"/><line style="stroke: #A80036; stroke-width: 1.0;" x1="39" x2="270" y1="512.2422" y2="512.2422"/><text fill="#000000" font-family="sans-serif" font-size="13" lengthAdjust="spacingAndGlyphs" textLength="123" x="51" y="507.1763">inputProductType()</text><polygon fill="#A80036" points="259,537.375,269,541.375,259,545.375,263,541.375" style="stroke: #A80036; stroke-width: 1.0;"/><line style="stroke: #A80036; stroke-width: 1.0; stroke-dasharray: 2.0,2.0;" x1="34" x2="265" y1="541.375" y2="541.375"/><text fill="#000000" font-family="sans-serif" font-size="13" lengthAdjust="spacingAndGlyphs" textLength="37" x="41" y="536.3091">String</text><polygon fill="#A80036" points="606,566.5078,616,570.5078,606,574.5078,610,570.5078" style="stroke: #A80036; stroke-width: 1.0;"/><line style="stroke: #A80036; stroke-width: 1.0;" x1="271" x2="612" y1="570.5078" y2="570.5078"/><text fill="#000000" font-family="sans-serif" font-size="13" lengthAdjust="spacingAndGlyphs" textLength="179" x="278" y="565.4419">validateProductType(String)</text><polygon fill="#A80036" points="282,595.6406,272,599.6406,282,603.6406,278,599.6406" style="stroke: #A80036; stroke-width: 1.0;"/><line style="stroke: #A80036; stroke-width: 1.0; stroke-dasharray: 2.0,2.0;" x1="276" x2="617" y1="599.6406" y2="599.6406"/><text fill="#000000" font-family="sans-serif" font-size="13" lengthAdjust="spacingAndGlyphs" textLength="49" x="288" y="594.5747">Product</text><polygon fill="#A80036" points="45,624.7734,35,628.7734,45,632.7734,41,628.7734" style="stroke: #A80036; stroke-width: 1.0;"/><line style="stroke: #A80036; stroke-width: 1.0;" x1="39" x2="270" y1="628.7734" y2="628.7734"/><text fill="#000000" font-family="sans-serif" font-size="13" lengthAdjust="spacingAndGlyphs" textLength="72" x="51" y="623.7075">inputArea()</text><polygon fill="#A80036" points="259,653.9063,269,657.9063,259,661.9063,263,657.9063" style="stroke: #A80036; stroke-width: 1.0;"/><line style="stroke: #A80036; stroke-width: 1.0; stroke-dasharray: 2.0,2.0;" x1="34" x2="265" y1="657.9063" y2="657.9063"/><text fill="#000000" font-family="sans-serif" font-size="13" lengthAdjust="spacingAndGlyphs" textLength="71" x="41" y="652.8403">BigDecimal</text><line style="stroke: #A80036; stroke-width: 1.0; stroke-dasharray: 2.0,2.0;" x1="271" x2="313" y1="687.0391" y2="687.0391"/><line style="stroke: #A80036; stroke-width: 1.0; stroke-dasharray: 2.0,2.0;" x1="313" x2="313" y1="687.0391" y2="700.0391"/><line style="stroke: #A80036; stroke-width: 1.0; stroke-dasharray: 2.0,2.0;" x1="272" x2="313" y1="700.0391" y2="700.0391"/><polygon fill="#A80036" points="282,696.0391,272,700.0391,282,704.0391,278,700.0391" style="stroke: #A80036; stroke-width: 1.0;"/><text fill="#000000" font-family="sans-serif" font-size="13" lengthAdjust="spacingAndGlyphs" textLength="333" x="278" y="681.9731">Order(LocalDate, String, State, Product, BigDecimal)</text><polygon fill="#A80036" points="606,725.1719,616,729.1719,606,733.1719,610,729.1719" style="stroke: #A80036; stroke-width: 1.0;"/><line style="stroke: #A80036; stroke-width: 1.0;" x1="271" x2="612" y1="729.1719" y2="729.1719"/><text fill="#000000" font-family="sans-serif" font-size="13" lengthAdjust="spacingAndGlyphs" textLength="106" x="278" y="724.106">addOrder(Order)</text><polygon fill="#A80036" points="1372,754.3047,1382,758.3047,1372,762.3047,1376,758.3047" style="stroke: #A80036; stroke-width: 1.0;"/><line style="stroke: #A80036; stroke-width: 1.0; stroke-dasharray: 2.0,2.0;" x1="618" x2="1378" y1="758.3047" y2="758.3047"/><text fill="#000000" font-family="sans-serif" font-size="13" lengthAdjust="spacingAndGlyphs" textLength="136" x="625" y="753.2388">readStateByID(State)</text><line style="stroke: #A80036; stroke-width: 1.0; stroke-dasharray: 2.0,2.0;" x1="1384" x2="1426" y1="787.4375" y2="787.4375"/><line style="stroke: #A80036; stroke-width: 1.0; stroke-dasharray: 2.0,2.0;" x1="1426" x2="1426" y1="787.4375" y2="800.4375"/><line style="stroke: #A80036; stroke-width: 1.0; stroke-dasharray: 2.0,2.0;" x1="1385" x2="1426" y1="800.4375" y2="800.4375"/><polygon fill="#A80036" points="1395,796.4375,1385,800.4375,1395,804.4375,1391,800.4375" style="stroke: #A80036; stroke-width: 1.0;"/><text fill="#000000" font-family="sans-serif" font-size="13" lengthAdjust="spacingAndGlyphs" textLength="78" x="1391" y="782.3716">loadStates()</text><polygon fill="#A80036" points="629,825.5703,619,829.5703,629,833.5703,625,829.5703" style="stroke: #A80036; stroke-width: 1.0;"/><line style="stroke: #A80036; stroke-width: 1.0; stroke-dasharray: 2.0,2.0;" x1="623" x2="1383" y1="829.5703" y2="829.5703"/><text fill="#000000" font-family="sans-serif" font-size="13" lengthAdjust="spacingAndGlyphs" textLength="34" x="635" y="824.5044">State</text><polygon fill="#A80036" points="1372,854.7031,1382,858.7031,1372,862.7031,1376,858.7031" style="stroke: #A80036; stroke-width: 1.0;"/><line style="stroke: #A80036; stroke-width: 1.0; stroke-dasharray: 2.0,2.0;" x1="618" x2="1378" y1="858.7031" y2="858.7031"/><text fill="#000000" font-family="sans-serif" font-size="13" lengthAdjust="spacingAndGlyphs" textLength="166" x="625" y="853.6372">readProductByID(Product)</text><line style="stroke: #A80036; stroke-width: 1.0; stroke-dasharray: 2.0,2.0;" x1="1384" x2="1426" y1="887.8359" y2="887.8359"/><line style="stroke: #A80036; stroke-width: 1.0; stroke-dasharray: 2.0,2.0;" x1="1426" x2="1426" y1="887.8359" y2="900.8359"/><line style="stroke: #A80036; stroke-width: 1.0; stroke-dasharray: 2.0,2.0;" x1="1385" x2="1426" y1="900.8359" y2="900.8359"/><polygon fill="#A80036" points="1395,896.8359,1385,900.8359,1395,904.8359,1391,900.8359" style="stroke: #A80036; stroke-width: 1.0;"/><text fill="#000000" font-family="sans-serif" font-size="13" lengthAdjust="spacingAndGlyphs" textLength="93" x="1391" y="882.77">loadProducts()</text><polygon fill="#A80036" points="629,925.9688,619,929.9688,629,933.9688,625,929.9688" style="stroke: #A80036; stroke-width: 1.0;"/><line style="stroke: #A80036; stroke-width: 1.0; stroke-dasharray: 2.0,2.0;" x1="623" x2="1383" y1="929.9688" y2="929.9688"/><text fill="#000000" font-family="sans-serif" font-size="13" lengthAdjust="spacingAndGlyphs" textLength="49" x="635" y="924.9028">Product</text><line style="stroke: #A80036; stroke-width: 1.0; stroke-dasharray: 2.0,2.0;" x1="618" x2="660" y1="959.1016" y2="959.1016"/><line style="stroke: #A80036; stroke-width: 1.0; stroke-dasharray: 2.0,2.0;" x1="660" x2="660" y1="959.1016" y2="972.1016"/><line style="stroke: #A80036; stroke-width: 1.0; stroke-dasharray: 2.0,2.0;" x1="619" x2="660" y1="972.1016" y2="972.1016"/><polygon fill="#A80036" points="629,968.1016,619,972.1016,629,976.1016,625,972.1016" style="stroke: #A80036; stroke-width: 1.0;"/><text fill="#000000" font-family="sans-serif" font-size="13" lengthAdjust="spacingAndGlyphs" textLength="114" x="625" y="954.0356">calcMaterialCost()</text><line style="stroke: #A80036; stroke-width: 1.0; stroke-dasharray: 2.0,2.0;" x1="618" x2="660" y1="1001.2344" y2="1001.2344"/><line style="stroke: #A80036; stroke-width: 1.0; stroke-dasharray: 2.0,2.0;" x1="660" x2="660" y1="1001.2344" y2="1014.2344"/><line style="stroke: #A80036; stroke-width: 1.0; stroke-dasharray: 2.0,2.0;" x1="619" x2="660" y1="1014.2344" y2="1014.2344"/><polygon fill="#A80036" points="629,1010.2344,619,1014.2344,629,1018.2344,625,1014.2344" style="stroke: #A80036; stroke-width: 1.0;"/><text fill="#000000" font-family="sans-serif" font-size="13" lengthAdjust="spacingAndGlyphs" textLength="100" x="625" y="996.1685">calcLaborCost()</text><line style="stroke: #A80036; stroke-width: 1.0; stroke-dasharray: 2.0,2.0;" x1="618" x2="660" y1="1043.3672" y2="1043.3672"/><line style="stroke: #A80036; stroke-width: 1.0; stroke-dasharray: 2.0,2.0;" x1="660" x2="660" y1="1043.3672" y2="1056.3672"/><line style="stroke: #A80036; stroke-width: 1.0; stroke-dasharray: 2.0,2.0;" x1="619" x2="660" y1="1056.3672" y2="1056.3672"/><polygon fill="#A80036" points="629,1052.3672,619,1056.3672,629,1060.3672,625,1056.3672" style="stroke: #A80036; stroke-width: 1.0;"/><text fill="#000000" font-family="sans-serif" font-size="13" lengthAdjust="spacingAndGlyphs" textLength="59" x="625" y="1038.3013">calcTax()</text><line style="stroke: #A80036; stroke-width: 1.0; stroke-dasharray: 2.0,2.0;" x1="618" x2="660" y1="1085.5" y2="1085.5"/><line style="stroke: #A80036; stroke-width: 1.0; stroke-dasharray: 2.0,2.0;" x1="660" x2="660" y1="1085.5" y2="1098.5"/><line style="stroke: #A80036; stroke-width: 1.0; stroke-dasharray: 2.0,2.0;" x1="619" x2="660" y1="1098.5" y2="1098.5"/><polygon fill="#A80036" points="629,1094.5,619,1098.5,629,1102.5,625,1098.5" style="stroke: #A80036; stroke-width: 1.0;"/><text fill="#000000" font-family="sans-serif" font-size="13" lengthAdjust="spacingAndGlyphs" textLength="67" x="625" y="1080.4341">calcTotal()</text><line style="stroke: #A80036; stroke-width: 1.0; stroke-dasharray: 2.0,2.0;" x1="618" x2="660" y1="1127.6328" y2="1127.6328"/><line style="stroke: #A80036; stroke-width: 1.0; stroke-dasharray: 2.0,2.0;" x1="660" x2="660" y1="1127.6328" y2="1140.6328"/><line style="stroke: #A80036; stroke-width: 1.0; stroke-dasharray: 2.0,2.0;" x1="619" x2="660" y1="1140.6328" y2="1140.6328"/><polygon fill="#A80036" points="629,1136.6328,619,1140.6328,629,1144.6328,625,1140.6328" style="stroke: #A80036; stroke-width: 1.0;"/><text fill="#000000" font-family="sans-serif" font-size="13" lengthAdjust="spacingAndGlyphs" textLength="166" x="625" y="1122.5669">getHighestOrderNumber()</text><line style="stroke: #A80036; stroke-width: 1.0; stroke-dasharray: 2.0,2.0;" x1="618" x2="660" y1="1169.7656" y2="1169.7656"/><line style="stroke: #A80036; stroke-width: 1.0; stroke-dasharray: 2.0,2.0;" x1="660" x2="660" y1="1169.7656" y2="1182.7656"/><line style="stroke: #A80036; stroke-width: 1.0; stroke-dasharray: 2.0,2.0;" x1="619" x2="660" y1="1182.7656" y2="1182.7656"/><polygon fill="#A80036" points="629,1178.7656,619,1182.7656,629,1186.7656,625,1182.7656" style="stroke: #A80036; stroke-width: 1.0;"/><text fill="#000000" font-family="sans-serif" font-size="13" lengthAdjust="spacingAndGlyphs" textLength="752" x="625" y="1164.6997">Order(LocalDate, int, String, State, Product, BigDecimal, BigDecimal, BigDecimal, BigDecimal, BigDecimal, BigDecimal)</text><line style="stroke: #A80036; stroke-width: 1.0; stroke-dasharray: 2.0,2.0;" x1="1491" x2="1533" y1="1211.8984" y2="1211.8984"/><line style="stroke: #A80036; stroke-width: 1.0; stroke-dasharray: 2.0,2.0;" x1="1533" x2="1533" y1="1211.8984" y2="1224.8984"/><line style="stroke: #A80036; stroke-width: 1.0; stroke-dasharray: 2.0,2.0;" x1="1492" x2="1533" y1="1224.8984" y2="1224.8984"/><polygon fill="#A80036" points="1502,1220.8984,1492,1224.8984,1502,1228.8984,1498,1224.8984" style="stroke: #A80036; stroke-width: 1.0;"/><text fill="#000000" font-family="sans-serif" font-size="13" lengthAdjust="spacingAndGlyphs" textLength="95" x="1498" y="1206.8325">loadAllOrders()</text><polygon fill="#A80036" points="1479,1250.0313,1489,1254.0313,1479,1258.0313,1483,1254.0313" style="stroke: #A80036; stroke-width: 1.0;"/><line style="stroke: #A80036; stroke-width: 1.0;" x1="618" x2="1485" y1="1254.0313" y2="1254.0313"/><text fill="#000000" font-family="sans-serif" font-size="13" lengthAdjust="spacingAndGlyphs" textLength="106" x="625" y="1248.9653">addOrder(Order)</text><polygon fill="#A80036" points="629,1279.1641,619,1283.1641,629,1287.1641,625,1283.1641" style="stroke: #A80036; stroke-width: 1.0;"/><line style="stroke: #A80036; stroke-width: 1.0; stroke-dasharray: 2.0,2.0;" x1="623" x2="1490" y1="1283.1641" y2="1283.1641"/><text fill="#000000" font-family="sans-serif" font-size="13" lengthAdjust="spacingAndGlyphs" textLength="36" x="635" y="1278.0981">Order</text><line style="stroke: #A80036; stroke-width: 1.0; stroke-dasharray: 2.0,2.0;" x1="1491" x2="1533" y1="1312.2969" y2="1312.2969"/><line style="stroke: #A80036; stroke-width: 1.0; stroke-dasharray: 2.0,2.0;" x1="1533" x2="1533" y1="1312.2969" y2="1325.2969"/><line style="stroke: #A80036; stroke-width: 1.0; stroke-dasharray: 2.0,2.0;" x1="1492" x2="1533" y1="1325.2969" y2="1325.2969"/><polygon fill="#A80036" points="1502,1321.2969,1492,1325.2969,1502,1329.2969,1498,1325.2969" style="stroke: #A80036; stroke-width: 1.0;"/><text fill="#000000" font-family="sans-serif" font-size="13" lengthAdjust="spacingAndGlyphs" textLength="100" x="1498" y="1307.231">writeAllOrders()</text><polygon fill="#A80036" points="282,1350.4297,272,1354.4297,282,1358.4297,278,1354.4297" style="stroke: #A80036; stroke-width: 1.0;"/><line style="stroke: #A80036; stroke-width: 1.0; stroke-dasharray: 2.0,2.0;" x1="276" x2="617" y1="1354.4297" y2="1354.4297"/><text fill="#000000" font-family="sans-serif" font-size="13" lengthAdjust="spacingAndGlyphs" textLength="36" x="288" y="1349.3638">Order</text><polygon fill="#0000FF" points="1612,1379.5625,1622,1383.5625,1612,1387.5625,1616,1383.5625" style="stroke: #0000FF; stroke-width: 1.0;"/><line style="stroke: #0000FF; stroke-width: 1.0; stroke-dasharray: 2.0,2.0;" x1="1491" x2="1618" y1="1383.5625" y2="1383.5625"/><text fill="#000000" font-family="sans-serif" font-size="13" lengthAdjust="spacingAndGlyphs" textLength="109" x="1498" y="1378.4966">writeAuditEntry()</text><polygon fill="#A80036" points="45,1408.6953,35,1412.6953,45,1416.6953,41,1412.6953" style="stroke: #A80036; stroke-width: 1.0;"/><line style="stroke: #A80036; stroke-width: 1.0;" x1="39" x2="270" y1="1412.6953" y2="1412.6953"/><text fill="#000000" font-family="sans-serif" font-size="13" lengthAdjust="spacingAndGlyphs" textLength="151" x="51" y="1407.6294">displayOrderInfo(Order)</text><polygon fill="#A80036" points="259,1437.8281,269,1441.8281,259,1445.8281,263,1441.8281" style="stroke: #A80036; stroke-width: 1.0;"/><line style="stroke: #A80036; stroke-width: 1.0; stroke-dasharray: 2.0,2.0;" x1="34" x2="265" y1="1441.8281" y2="1441.8281"/><text fill="#000000" font-family="sans-serif" font-size="13" lengthAdjust="spacingAndGlyphs" textLength="27" x="41" y="1436.7622">void</text><polygon fill="#A80036" points="45,1466.9609,35,1470.9609,45,1474.9609,41,1470.9609" style="stroke: #A80036; stroke-width: 1.0;"/><line style="stroke: #A80036; stroke-width: 1.0;" x1="39" x2="270" y1="1470.9609" y2="1470.9609"/><text fill="#000000" font-family="sans-serif" font-size="13" lengthAdjust="spacingAndGlyphs" textLength="213" x="51" y="1465.895">displayAddOrderSuccessBanner()</text><polygon fill="#A80036" points="259,1496.0938,269,1500.0938,259,1504.0938,263,1500.0938" style="stroke: #A80036; stroke-width: 1.0;"/><line style="stroke: #A80036; stroke-width: 1.0; stroke-dasharray: 2.0,2.0;" x1="34" x2="265" y1="1500.0938" y2="1500.0938"/><text fill="#000000" font-family="sans-serif" font-size="13" lengthAdjust="spacingAndGlyphs" textLength="27" x="41" y="1495.0278">void</text><!--MD5=[58cf879f7431c6b0a2c7ead028ba223e]
@startuml
title TSG Flooring Corp - addOrder() Sequence

View <- Controller : displayAddOrderBanner()
View - -> Controller : void 

View <- Controller : inputOrderDate()
View - -> Controller : LocalDate
Controller -> Service : validateOrderDate(LocalDate)
Service - -> Controller : LocalDate
View <- Controller : inputCustomerName()
View - -> Controller : String
Controller -> Service : validateCustomerName(String)
Service - -> Controller : String
View <- Controller : inputState()
View - -> Controller : String
Controller -> Service : validateState(String)
Service - -> Controller : State
View <- Controller : inputProductType()
View - -> Controller : String
Controller -> Service : validateProductType(String)
Service - -> Controller : Product
View <- Controller : inputArea()
View - -> Controller : BigDecimal
Controller - -> Controller : Order(LocalDate, String, State, Product, BigDecimal)

Controller -> Service: addOrder(Order)
Service - -> StateDao : readStateByID(State)
StateDao - -> StateDao : loadStates()
StateDao - -> Service : State
Service - -> StateDao : readProductByID(Product)
StateDao - -> StateDao : loadProducts()
StateDao - -> Service : Product
Service - -> Service : calcMaterialCost()
Service - -> Service : calcLaborCost()
Service - -> Service : calcTax()
Service - -> Service : calcTotal()
Service - -> Service : getHighestOrderNumber()
Service - -> Service : Order(LocalDate, int, String, State, Product, BigDecimal, BigDecimal, BigDecimal, BigDecimal, BigDecimal, BigDecimal)
OrderDao - -> OrderDao : loadAllOrders()
Service -> OrderDao : addOrder(Order)
OrderDao - -> Service : Order
OrderDao - -> OrderDao : writeAllOrders()
Service - -> Controller : Order

OrderDao -[#blue]-> AuditDao : writeAuditEntry()

Controller -> View : displayOrderInfo(Order)
View - -> Controller : void

Controller -> View : displayAddOrderSuccessBanner()
View - -> Controller : void
@enduml

PlantUML version 1.2020.15beta1(Unknown compile time)
(GPL source distribution)
Java Runtime: Java(TM) SE Runtime Environment
JVM: Java HotSpot(TM) 64-Bit Server VM
Default Encoding: UTF-8
Language: en
Country: US
--></g></svg>