<?xml version="1.0" encoding="UTF-8" standalone="no"?><svg xmlns="http://www.w3.org/2000/svg" xmlns:xlink="http://www.w3.org/1999/xlink" contentScriptType="application/ecmascript" contentStyleType="text/css" height="520px" preserveAspectRatio="none" style="width:906px;height:520px;" version="1.1" viewBox="0 0 906 520" width="906px" zoomAndPan="magnify"><defs><filter height="300%" id="f61p5f9tzw21s" width="300%" x="-1" y="-1"><feGaussianBlur result="blurOut" stdDeviation="2.0"/><feColorMatrix in="blurOut" result="blurOut2" type="matrix" values="0 0 0 0 0 0 0 0 0 0 0 0 0 0 0 0 0 0 .4 0"/><feOffset dx="4.0" dy="4.0" in="blurOut2" result="blurOut3"/><feBlend in="SourceGraphic" in2="blurOut3" mode="normal"/></filter></defs><g><text fill="#000000" font-family="sans-serif" font-size="18" lengthAdjust="spacingAndGlyphs" textLength="420" x="239.5" y="26.708">TSG Flooring Corp - removeOrder() Sequence</text><line style="stroke: #A80036; stroke-width: 1.0; stroke-dasharray: 5.0,5.0;" x1="34" x2="34" y1="73.25" y2="471.9766"/><line style="stroke: #A80036; stroke-width: 1.0; stroke-dasharray: 5.0,5.0;" x1="299.5" x2="299.5" y1="73.25" y2="471.9766"/><line style="stroke: #A80036; stroke-width: 1.0; stroke-dasharray: 5.0,5.0;" x1="507.5" x2="507.5" y1="73.25" y2="471.9766"/><line style="stroke: #A80036; stroke-width: 1.0; stroke-dasharray: 5.0,5.0;" x1="716" x2="716" y1="73.25" y2="471.9766"/><line style="stroke: #A80036; stroke-width: 1.0; stroke-dasharray: 5.0,5.0;" x1="849" x2="849" y1="73.25" y2="471.9766"/><rect fill="#FEFECE" filter="url(#f61p5f9tzw21s)" height="30.2969" style="stroke: #A80036; stroke-width: 1.5;" width="48" x="8" y="37.9531"/><text fill="#000000" font-family="sans-serif" font-size="14" lengthAdjust="spacingAndGlyphs" textLength="34" x="15" y="57.9482">View</text><rect fill="#FEFECE" filter="url(#f61p5f9tzw21s)" height="30.2969" style="stroke: #A80036; stroke-width: 1.5;" width="48" x="8" y="470.9766"/><text fill="#000000" font-family="sans-serif" font-size="14" lengthAdjust="spacingAndGlyphs" textLength="34" x="15" y="490.9717">View</text><rect fill="#FEFECE" filter="url(#f61p5f9tzw21s)" height="30.2969" style="stroke: #A80036; stroke-width: 1.5;" width="87" x="254.5" y="37.9531"/><text fill="#000000" font-family="sans-serif" font-size="14" lengthAdjust="spacingAndGlyphs" textLength="73" x="261.5" y="57.9482">Controller</text><rect fill="#FEFECE" filter="url(#f61p5f9tzw21s)" height="30.2969" style="stroke: #A80036; stroke-width: 1.5;" width="87" x="254.5" y="470.9766"/><text fill="#000000" font-family="sans-serif" font-size="14" lengthAdjust="spacingAndGlyphs" textLength="73" x="261.5" y="490.9717">Controller</text><rect fill="#FEFECE" filter="url(#f61p5f9tzw21s)" height="30.2969" style="stroke: #A80036; stroke-width: 1.5;" width="67" x="472.5" y="37.9531"/><text fill="#000000" font-family="sans-serif" font-size="14" lengthAdjust="spacingAndGlyphs" textLength="53" x="479.5" y="57.9482">Service</text><rect fill="#FEFECE" filter="url(#f61p5f9tzw21s)" height="30.2969" style="stroke: #A80036; stroke-width: 1.5;" width="67" x="472.5" y="470.9766"/><text fill="#000000" font-family="sans-serif" font-size="14" lengthAdjust="spacingAndGlyphs" textLength="53" x="479.5" y="490.9717">Service</text><rect fill="#FEFECE" filter="url(#f61p5f9tzw21s)" height="30.2969" style="stroke: #A80036; stroke-width: 1.5;" width="42" x="693" y="37.9531"/><text fill="#000000" font-family="sans-serif" font-size="14" lengthAdjust="spacingAndGlyphs" textLength="28" x="700" y="57.9482">Dao</text><rect fill="#FEFECE" filter="url(#f61p5f9tzw21s)" height="30.2969" style="stroke: #A80036; stroke-width: 1.5;" width="42" x="693" y="470.9766"/><text fill="#000000" font-family="sans-serif" font-size="14" lengthAdjust="spacingAndGlyphs" textLength="28" x="700" y="490.9717">Dao</text><rect fill="#FEFECE" filter="url(#f61p5f9tzw21s)" height="30.2969" style="stroke: #A80036; stroke-width: 1.5;" width="80" x="807" y="37.9531"/><text fill="#000000" font-family="sans-serif" font-size="14" lengthAdjust="spacingAndGlyphs" textLength="66" x="814" y="57.9482">AuditDao</text><rect fill="#FEFECE" filter="url(#f61p5f9tzw21s)" height="30.2969" style="stroke: #A80036; stroke-width: 1.5;" width="80" x="807" y="470.9766"/><text fill="#000000" font-family="sans-serif" font-size="14" lengthAdjust="spacingAndGlyphs" textLength="66" x="814" y="490.9717">AuditDao</text><polygon fill="#A80036" points="45,100.3828,35,104.3828,45,108.3828,41,104.3828" style="stroke: #A80036; stroke-width: 1.0;"/><line style="stroke: #A80036; stroke-width: 1.0;" x1="39" x2="299" y1="104.3828" y2="104.3828"/><text fill="#000000" font-family="sans-serif" font-size="13" lengthAdjust="spacingAndGlyphs" textLength="190" x="51" y="99.3169">displayRemoveOrderBanner()</text><polygon fill="#A80036" points="288,129.5156,298,133.5156,288,137.5156,292,133.5156" style="stroke: #A80036; stroke-width: 1.0;"/><line style="stroke: #A80036; stroke-width: 1.0; stroke-dasharray: 2.0,2.0;" x1="34" x2="294" y1="133.5156" y2="133.5156"/><text fill="#000000" font-family="sans-serif" font-size="13" lengthAdjust="spacingAndGlyphs" textLength="27" x="41" y="128.4497">void</text><polygon fill="#A80036" points="45,158.6484,35,162.6484,45,166.6484,41,162.6484" style="stroke: #A80036; stroke-width: 1.0;"/><line style="stroke: #A80036; stroke-width: 1.0;" x1="39" x2="299" y1="162.6484" y2="162.6484"/><text fill="#000000" font-family="sans-serif" font-size="13" lengthAdjust="spacingAndGlyphs" textLength="155" x="51" y="157.5825">getOrderRemovalDate()</text><polygon fill="#A80036" points="288,187.7813,298,191.7813,288,195.7813,292,191.7813" style="stroke: #A80036; stroke-width: 1.0;"/><line style="stroke: #A80036; stroke-width: 1.0; stroke-dasharray: 2.0,2.0;" x1="34" x2="294" y1="191.7813" y2="191.7813"/><text fill="#000000" font-family="sans-serif" font-size="13" lengthAdjust="spacingAndGlyphs" textLength="64" x="41" y="186.7153">LocalDate</text><polygon fill="#A80036" points="45,216.9141,35,220.9141,45,224.9141,41,220.9141" style="stroke: #A80036; stroke-width: 1.0;"/><line style="stroke: #A80036; stroke-width: 1.0;" x1="39" x2="299" y1="220.9141" y2="220.9141"/><text fill="#000000" font-family="sans-serif" font-size="13" lengthAdjust="spacingAndGlyphs" textLength="154" x="51" y="215.8481">getOrderRemovalNum()</text><polygon fill="#A80036" points="288,246.0469,298,250.0469,288,254.0469,292,250.0469" style="stroke: #A80036; stroke-width: 1.0;"/><line style="stroke: #A80036; stroke-width: 1.0; stroke-dasharray: 2.0,2.0;" x1="34" x2="294" y1="250.0469" y2="250.0469"/><text fill="#000000" font-family="sans-serif" font-size="13" lengthAdjust="spacingAndGlyphs" textLength="16" x="41" y="244.981">int</text><polygon fill="#A80036" points="496,275.1797,506,279.1797,496,283.1797,500,279.1797" style="stroke: #A80036; stroke-width: 1.0;"/><line style="stroke: #A80036; stroke-width: 1.0;" x1="300" x2="502" y1="279.1797" y2="279.1797"/><text fill="#000000" font-family="sans-serif" font-size="13" lengthAdjust="spacingAndGlyphs" textLength="184" x="307" y="274.1138">removeOrder(LocalDate, int)</text><polygon fill="#A80036" points="704,304.3125,714,308.3125,704,312.3125,708,308.3125" style="stroke: #A80036; stroke-width: 1.0;"/><line style="stroke: #A80036; stroke-width: 1.0;" x1="508" x2="710" y1="308.3125" y2="308.3125"/><text fill="#000000" font-family="sans-serif" font-size="13" lengthAdjust="spacingAndGlyphs" textLength="184" x="515" y="303.2466">removeOrder(LocalDate, int)</text><polygon fill="#A80036" points="519,333.4453,509,337.4453,519,341.4453,515,337.4453" style="stroke: #A80036; stroke-width: 1.0;"/><line style="stroke: #A80036; stroke-width: 1.0; stroke-dasharray: 2.0,2.0;" x1="513" x2="715" y1="337.4453" y2="337.4453"/><text fill="#000000" font-family="sans-serif" font-size="13" lengthAdjust="spacingAndGlyphs" textLength="36" x="525" y="332.3794">Order</text><polygon fill="#0000FF" points="837,362.5781,847,366.5781,837,370.5781,841,366.5781" style="stroke: #0000FF; stroke-width: 1.0;"/><line style="stroke: #0000FF; stroke-width: 1.0; stroke-dasharray: 2.0,2.0;" x1="716" x2="843" y1="366.5781" y2="366.5781"/><text fill="#000000" font-family="sans-serif" font-size="13" lengthAdjust="spacingAndGlyphs" textLength="109" x="723" y="361.5122">writeAuditEntry()</text><polygon fill="#A80036" points="311,391.7109,301,395.7109,311,399.7109,307,395.7109" style="stroke: #A80036; stroke-width: 1.0;"/><line style="stroke: #A80036; stroke-width: 1.0; stroke-dasharray: 2.0,2.0;" x1="305" x2="507" y1="395.7109" y2="395.7109"/><text fill="#000000" font-family="sans-serif" font-size="13" lengthAdjust="spacingAndGlyphs" textLength="36" x="317" y="390.645">Order</text><polygon fill="#A80036" points="45,420.8438,35,424.8438,45,428.8438,41,424.8438" style="stroke: #A80036; stroke-width: 1.0;"/><line style="stroke: #A80036; stroke-width: 1.0;" x1="39" x2="299" y1="424.8438" y2="424.8438"/><text fill="#000000" font-family="sans-serif" font-size="13" lengthAdjust="spacingAndGlyphs" textLength="242" x="51" y="419.7778">displayRemoveOrderSuccessBanner()</text><polygon fill="#A80036" points="288,449.9766,298,453.9766,288,457.9766,292,453.9766" style="stroke: #A80036; stroke-width: 1.0;"/><line style="stroke: #A80036; stroke-width: 1.0; stroke-dasharray: 2.0,2.0;" x1="34" x2="294" y1="453.9766" y2="453.9766"/><text fill="#000000" font-family="sans-serif" font-size="13" lengthAdjust="spacingAndGlyphs" textLength="27" x="41" y="448.9106">void</text><!--MD5=[c9f2d5b3edeb0173db4f992cf6de3037]
@startuml
title TSG Flooring Corp - removeOrder() Sequence

View <- Controller : displayRemoveOrderBanner()
View - -> Controller : void 
View <- Controller : getOrderRemovalDate()
View - -> Controller : LocalDate
View <- Controller : getOrderRemovalNum()
View - -> Controller : int

Controller -> Service : removeOrder(LocalDate, int)
Service -> Dao : removeOrder(LocalDate, int)
Dao - -> Service : Order
Dao -[#blue]-> AuditDao : writeAuditEntry()
Service - -> Controller : Order

Controller -> View : displayRemoveOrderSuccessBanner()
View - -> Controller : void
@enduml

PlantUML version 1.2020.15beta1(Unknown compile time)
(GPL source distribution)
Java Runtime: Java(TM) SE Runtime Environment
JVM: Java HotSpot(TM) 64-Bit Server VM
Default Encoding: UTF-8
Language: en
Country: US
--></g></svg>