<?xml version="1.0" encoding="UTF-8" standalone="no"?><svg xmlns="http://www.w3.org/2000/svg" xmlns:xlink="http://www.w3.org/1999/xlink" contentScriptType="application/ecmascript" contentStyleType="text/css" height="973px" preserveAspectRatio="none" style="width:902px;height:973px;" version="1.1" viewBox="0 0 902 973" width="902px" zoomAndPan="magnify"><defs><filter height="300%" id="f13oy00r9epetf" width="300%" x="-1" y="-1"><feGaussianBlur result="blurOut" stdDeviation="2.0"/><feColorMatrix in="blurOut" result="blurOut2" type="matrix" values="0 0 0 0 0 0 0 0 0 0 0 0 0 0 0 0 0 0 .4 0"/><feOffset dx="4.0" dy="4.0" in="blurOut2" result="blurOut3"/><feBlend in="SourceGraphic" in2="blurOut3" mode="normal"/></filter></defs><g><text fill="#000000" font-family="sans-serif" font-size="18" lengthAdjust="spacingAndGlyphs" textLength="382" x="256.5" y="26.708">TSG Flooring Corp - addOrder() Sequence</text><line style="stroke: #A80036; stroke-width: 1.0; stroke-dasharray: 5.0,5.0;" x1="34" x2="34" y1="73.25" y2="925.5703"/><line style="stroke: #A80036; stroke-width: 1.0; stroke-dasharray: 5.0,5.0;" x1="270.5" x2="270.5" y1="73.25" y2="925.5703"/><line style="stroke: #A80036; stroke-width: 1.0; stroke-dasharray: 5.0,5.0;" x1="411.5" x2="411.5" y1="73.25" y2="925.5703"/><line style="stroke: #A80036; stroke-width: 1.0; stroke-dasharray: 5.0,5.0;" x1="605" x2="605" y1="73.25" y2="925.5703"/><line style="stroke: #A80036; stroke-width: 1.0; stroke-dasharray: 5.0,5.0;" x1="712" x2="712" y1="73.25" y2="925.5703"/><line style="stroke: #A80036; stroke-width: 1.0; stroke-dasharray: 5.0,5.0;" x1="845" x2="845" y1="73.25" y2="925.5703"/><rect fill="#FEFECE" filter="url(#f13oy00r9epetf)" height="30.2969" style="stroke: #A80036; stroke-width: 1.5;" width="48" x="8" y="37.9531"/><text fill="#000000" font-family="sans-serif" font-size="14" lengthAdjust="spacingAndGlyphs" textLength="34" x="15" y="57.9482">View</text><rect fill="#FEFECE" filter="url(#f13oy00r9epetf)" height="30.2969" style="stroke: #A80036; stroke-width: 1.5;" width="48" x="8" y="924.5703"/><text fill="#000000" font-family="sans-serif" font-size="14" lengthAdjust="spacingAndGlyphs" textLength="34" x="15" y="944.5654">View</text><rect fill="#FEFECE" filter="url(#f13oy00r9epetf)" height="30.2969" style="stroke: #A80036; stroke-width: 1.5;" width="87" x="225.5" y="37.9531"/><text fill="#000000" font-family="sans-serif" font-size="14" lengthAdjust="spacingAndGlyphs" textLength="73" x="232.5" y="57.9482">Controller</text><rect fill="#FEFECE" filter="url(#f13oy00r9epetf)" height="30.2969" style="stroke: #A80036; stroke-width: 1.5;" width="87" x="225.5" y="924.5703"/><text fill="#000000" font-family="sans-serif" font-size="14" lengthAdjust="spacingAndGlyphs" textLength="73" x="232.5" y="944.5654">Controller</text><rect fill="#FEFECE" filter="url(#f13oy00r9epetf)" height="30.2969" style="stroke: #A80036; stroke-width: 1.5;" width="67" x="376.5" y="37.9531"/><text fill="#000000" font-family="sans-serif" font-size="14" lengthAdjust="spacingAndGlyphs" textLength="53" x="383.5" y="57.9482">Service</text><rect fill="#FEFECE" filter="url(#f13oy00r9epetf)" height="30.2969" style="stroke: #A80036; stroke-width: 1.5;" width="67" x="376.5" y="924.5703"/><text fill="#000000" font-family="sans-serif" font-size="14" lengthAdjust="spacingAndGlyphs" textLength="53" x="383.5" y="944.5654">Service</text><rect fill="#FEFECE" filter="url(#f13oy00r9epetf)" height="30.2969" style="stroke: #A80036; stroke-width: 1.5;" width="82" x="562" y="37.9531"/><text fill="#000000" font-family="sans-serif" font-size="14" lengthAdjust="spacingAndGlyphs" textLength="68" x="569" y="57.9482">StateDao</text><rect fill="#FEFECE" filter="url(#f13oy00r9epetf)" height="30.2969" style="stroke: #A80036; stroke-width: 1.5;" width="82" x="562" y="924.5703"/><text fill="#000000" font-family="sans-serif" font-size="14" lengthAdjust="spacingAndGlyphs" textLength="68" x="569" y="944.5654">StateDao</text><rect fill="#FEFECE" filter="url(#f13oy00r9epetf)" height="30.2969" style="stroke: #A80036; stroke-width: 1.5;" width="42" x="689" y="37.9531"/><text fill="#000000" font-family="sans-serif" font-size="14" lengthAdjust="spacingAndGlyphs" textLength="28" x="696" y="57.9482">Dao</text><rect fill="#FEFECE" filter="url(#f13oy00r9epetf)" height="30.2969" style="stroke: #A80036; stroke-width: 1.5;" width="42" x="689" y="924.5703"/><text fill="#000000" font-family="sans-serif" font-size="14" lengthAdjust="spacingAndGlyphs" textLength="28" x="696" y="944.5654">Dao</text><rect fill="#FEFECE" filter="url(#f13oy00r9epetf)" height="30.2969" style="stroke: #A80036; stroke-width: 1.5;" width="80" x="803" y="37.9531"/><text fill="#000000" font-family="sans-serif" font-size="14" lengthAdjust="spacingAndGlyphs" textLength="66" x="810" y="57.9482">AuditDao</text><rect fill="#FEFECE" filter="url(#f13oy00r9epetf)" height="30.2969" style="stroke: #A80036; stroke-width: 1.5;" width="80" x="803" y="924.5703"/><text fill="#000000" font-family="sans-serif" font-size="14" lengthAdjust="spacingAndGlyphs" textLength="66" x="810" y="944.5654">AuditDao</text><polygon fill="#A80036" points="45,100.3828,35,104.3828,45,108.3828,41,104.3828" style="stroke: #A80036; stroke-width: 1.0;"/><line style="stroke: #A80036; stroke-width: 1.0;" x1="39" x2="270" y1="104.3828" y2="104.3828"/><text fill="#000000" font-family="sans-serif" font-size="13" lengthAdjust="spacingAndGlyphs" textLength="161" x="51" y="99.3169">displayAddOrderBanner()</text><polygon fill="#A80036" points="259,129.5156,269,133.5156,259,137.5156,263,133.5156" style="stroke: #A80036; stroke-width: 1.0;"/><line style="stroke: #A80036; stroke-width: 1.0; stroke-dasharray: 2.0,2.0;" x1="34" x2="265" y1="133.5156" y2="133.5156"/><text fill="#000000" font-family="sans-serif" font-size="13" lengthAdjust="spacingAndGlyphs" textLength="27" x="41" y="128.4497">void</text><polygon fill="#A80036" points="45,158.6484,35,162.6484,45,166.6484,41,162.6484" style="stroke: #A80036; stroke-width: 1.0;"/><line style="stroke: #A80036; stroke-width: 1.0;" x1="39" x2="270" y1="162.6484" y2="162.6484"/><text fill="#000000" font-family="sans-serif" font-size="13" lengthAdjust="spacingAndGlyphs" textLength="122" x="51" y="157.5825">addNewOrderInfo()</text><polygon fill="#A80036" points="259,187.7813,269,191.7813,259,195.7813,263,191.7813" style="stroke: #A80036; stroke-width: 1.0;"/><line style="stroke: #A80036; stroke-width: 1.0; stroke-dasharray: 2.0,2.0;" x1="34" x2="265" y1="191.7813" y2="191.7813"/><text fill="#000000" font-family="sans-serif" font-size="13" lengthAdjust="spacingAndGlyphs" textLength="47" x="41" y="186.7153">String[]</text><polygon fill="#A80036" points="400,216.9141,410,220.9141,400,224.9141,404,220.9141" style="stroke: #A80036; stroke-width: 1.0;"/><line style="stroke: #A80036; stroke-width: 1.0;" x1="271" x2="406" y1="220.9141" y2="220.9141"/><text fill="#000000" font-family="sans-serif" font-size="13" lengthAdjust="spacingAndGlyphs" textLength="117" x="278" y="215.8481">addOrder(String[])</text><line style="stroke: #A80036; stroke-width: 1.0; stroke-dasharray: 2.0,2.0;" x1="412" x2="454" y1="250.0469" y2="250.0469"/><line style="stroke: #A80036; stroke-width: 1.0; stroke-dasharray: 2.0,2.0;" x1="454" x2="454" y1="250.0469" y2="263.0469"/><line style="stroke: #A80036; stroke-width: 1.0; stroke-dasharray: 2.0,2.0;" x1="413" x2="454" y1="263.0469" y2="263.0469"/><polygon fill="#A80036" points="423,259.0469,413,263.0469,423,267.0469,419,263.0469" style="stroke: #A80036; stroke-width: 1.0;"/><text fill="#000000" font-family="sans-serif" font-size="13" lengthAdjust="spacingAndGlyphs" textLength="144" x="419" y="244.981">validateOrder(String[])</text><polygon fill="#A80036" points="593,288.1797,603,292.1797,593,296.1797,597,292.1797" style="stroke: #A80036; stroke-width: 1.0;"/><line style="stroke: #A80036; stroke-width: 1.0; stroke-dasharray: 2.0,2.0;" x1="412" x2="599" y1="292.1797" y2="292.1797"/><text fill="#000000" font-family="sans-serif" font-size="13" lengthAdjust="spacingAndGlyphs" textLength="154" x="419" y="287.1138">verifyOrderState(String)</text><line style="stroke: #A80036; stroke-width: 1.0; stroke-dasharray: 2.0,2.0;" x1="605" x2="647" y1="321.3125" y2="321.3125"/><line style="stroke: #A80036; stroke-width: 1.0; stroke-dasharray: 2.0,2.0;" x1="647" x2="647" y1="321.3125" y2="334.3125"/><line style="stroke: #A80036; stroke-width: 1.0; stroke-dasharray: 2.0,2.0;" x1="606" x2="647" y1="334.3125" y2="334.3125"/><polygon fill="#A80036" points="616,330.3125,606,334.3125,616,338.3125,612,334.3125" style="stroke: #A80036; stroke-width: 1.0;"/><text fill="#000000" font-family="sans-serif" font-size="13" lengthAdjust="spacingAndGlyphs" textLength="78" x="612" y="316.2466">loadStates()</text><polygon fill="#A80036" points="423,359.4453,413,363.4453,423,367.4453,419,363.4453" style="stroke: #A80036; stroke-width: 1.0;"/><line style="stroke: #A80036; stroke-width: 1.0; stroke-dasharray: 2.0,2.0;" x1="417" x2="604" y1="363.4453" y2="363.4453"/><text fill="#000000" font-family="sans-serif" font-size="13" lengthAdjust="spacingAndGlyphs" textLength="34" x="429" y="358.3794">State</text><polygon fill="#A80036" points="593,388.5781,603,392.5781,593,396.5781,597,392.5781" style="stroke: #A80036; stroke-width: 1.0;"/><line style="stroke: #A80036; stroke-width: 1.0; stroke-dasharray: 2.0,2.0;" x1="412" x2="599" y1="392.5781" y2="392.5781"/><text fill="#000000" font-family="sans-serif" font-size="13" lengthAdjust="spacingAndGlyphs" textLength="169" x="419" y="387.5122">verifyOrderProduct(String)</text><line style="stroke: #A80036; stroke-width: 1.0; stroke-dasharray: 2.0,2.0;" x1="605" x2="647" y1="421.7109" y2="421.7109"/><line style="stroke: #A80036; stroke-width: 1.0; stroke-dasharray: 2.0,2.0;" x1="647" x2="647" y1="421.7109" y2="434.7109"/><line style="stroke: #A80036; stroke-width: 1.0; stroke-dasharray: 2.0,2.0;" x1="606" x2="647" y1="434.7109" y2="434.7109"/><polygon fill="#A80036" points="616,430.7109,606,434.7109,616,438.7109,612,434.7109" style="stroke: #A80036; stroke-width: 1.0;"/><text fill="#000000" font-family="sans-serif" font-size="13" lengthAdjust="spacingAndGlyphs" textLength="93" x="612" y="416.645">loadProducts()</text><polygon fill="#A80036" points="423,459.8438,413,463.8438,423,467.8438,419,463.8438" style="stroke: #A80036; stroke-width: 1.0;"/><line style="stroke: #A80036; stroke-width: 1.0; stroke-dasharray: 2.0,2.0;" x1="417" x2="604" y1="463.8438" y2="463.8438"/><text fill="#000000" font-family="sans-serif" font-size="13" lengthAdjust="spacingAndGlyphs" textLength="49" x="429" y="458.7778">Product</text><line style="stroke: #A80036; stroke-width: 1.0; stroke-dasharray: 2.0,2.0;" x1="412" x2="454" y1="492.9766" y2="492.9766"/><line style="stroke: #A80036; stroke-width: 1.0; stroke-dasharray: 2.0,2.0;" x1="454" x2="454" y1="492.9766" y2="505.9766"/><line style="stroke: #A80036; stroke-width: 1.0; stroke-dasharray: 2.0,2.0;" x1="413" x2="454" y1="505.9766" y2="505.9766"/><polygon fill="#A80036" points="423,501.9766,413,505.9766,423,509.9766,419,505.9766" style="stroke: #A80036; stroke-width: 1.0;"/><text fill="#000000" font-family="sans-serif" font-size="13" lengthAdjust="spacingAndGlyphs" textLength="114" x="419" y="487.9106">calcMaterialCost()</text><line style="stroke: #A80036; stroke-width: 1.0; stroke-dasharray: 2.0,2.0;" x1="412" x2="454" y1="535.1094" y2="535.1094"/><line style="stroke: #A80036; stroke-width: 1.0; stroke-dasharray: 2.0,2.0;" x1="454" x2="454" y1="535.1094" y2="548.1094"/><line style="stroke: #A80036; stroke-width: 1.0; stroke-dasharray: 2.0,2.0;" x1="413" x2="454" y1="548.1094" y2="548.1094"/><polygon fill="#A80036" points="423,544.1094,413,548.1094,423,552.1094,419,548.1094" style="stroke: #A80036; stroke-width: 1.0;"/><text fill="#000000" font-family="sans-serif" font-size="13" lengthAdjust="spacingAndGlyphs" textLength="100" x="419" y="530.0435">calcLaborCost()</text><line style="stroke: #A80036; stroke-width: 1.0; stroke-dasharray: 2.0,2.0;" x1="412" x2="454" y1="577.2422" y2="577.2422"/><line style="stroke: #A80036; stroke-width: 1.0; stroke-dasharray: 2.0,2.0;" x1="454" x2="454" y1="577.2422" y2="590.2422"/><line style="stroke: #A80036; stroke-width: 1.0; stroke-dasharray: 2.0,2.0;" x1="413" x2="454" y1="590.2422" y2="590.2422"/><polygon fill="#A80036" points="423,586.2422,413,590.2422,423,594.2422,419,590.2422" style="stroke: #A80036; stroke-width: 1.0;"/><text fill="#000000" font-family="sans-serif" font-size="13" lengthAdjust="spacingAndGlyphs" textLength="59" x="419" y="572.1763">calcTax()</text><line style="stroke: #A80036; stroke-width: 1.0; stroke-dasharray: 2.0,2.0;" x1="412" x2="454" y1="619.375" y2="619.375"/><line style="stroke: #A80036; stroke-width: 1.0; stroke-dasharray: 2.0,2.0;" x1="454" x2="454" y1="619.375" y2="632.375"/><line style="stroke: #A80036; stroke-width: 1.0; stroke-dasharray: 2.0,2.0;" x1="413" x2="454" y1="632.375" y2="632.375"/><polygon fill="#A80036" points="423,628.375,413,632.375,423,636.375,419,632.375" style="stroke: #A80036; stroke-width: 1.0;"/><text fill="#000000" font-family="sans-serif" font-size="13" lengthAdjust="spacingAndGlyphs" textLength="67" x="419" y="614.3091">calcTotal()</text><line style="stroke: #A80036; stroke-width: 1.0; stroke-dasharray: 2.0,2.0;" x1="412" x2="454" y1="661.5078" y2="661.5078"/><line style="stroke: #A80036; stroke-width: 1.0; stroke-dasharray: 2.0,2.0;" x1="454" x2="454" y1="661.5078" y2="674.5078"/><line style="stroke: #A80036; stroke-width: 1.0; stroke-dasharray: 2.0,2.0;" x1="413" x2="454" y1="674.5078" y2="674.5078"/><polygon fill="#A80036" points="423,670.5078,413,674.5078,423,678.5078,419,674.5078" style="stroke: #A80036; stroke-width: 1.0;"/><text fill="#000000" font-family="sans-serif" font-size="13" lengthAdjust="spacingAndGlyphs" textLength="36" x="419" y="656.4419">Order</text><polygon fill="#A80036" points="700,699.6406,710,703.6406,700,707.6406,704,703.6406" style="stroke: #A80036; stroke-width: 1.0;"/><line style="stroke: #A80036; stroke-width: 1.0;" x1="412" x2="706" y1="703.6406" y2="703.6406"/><text fill="#000000" font-family="sans-serif" font-size="13" lengthAdjust="spacingAndGlyphs" textLength="106" x="419" y="698.5747">addOrder(Order)</text><polygon fill="#A80036" points="423,728.7734,413,732.7734,423,736.7734,419,732.7734" style="stroke: #A80036; stroke-width: 1.0;"/><line style="stroke: #A80036; stroke-width: 1.0; stroke-dasharray: 2.0,2.0;" x1="417" x2="711" y1="732.7734" y2="732.7734"/><text fill="#000000" font-family="sans-serif" font-size="13" lengthAdjust="spacingAndGlyphs" textLength="36" x="429" y="727.7075">Order</text><polygon fill="#0000FF" points="833,757.9063,843,761.9063,833,765.9063,837,761.9063" style="stroke: #0000FF; stroke-width: 1.0;"/><line style="stroke: #0000FF; stroke-width: 1.0; stroke-dasharray: 2.0,2.0;" x1="712" x2="839" y1="761.9063" y2="761.9063"/><text fill="#000000" font-family="sans-serif" font-size="13" lengthAdjust="spacingAndGlyphs" textLength="109" x="719" y="756.8403">writeAuditEntry()</text><polygon fill="#A80036" points="282,787.0391,272,791.0391,282,795.0391,278,791.0391" style="stroke: #A80036; stroke-width: 1.0;"/><line style="stroke: #A80036; stroke-width: 1.0; stroke-dasharray: 2.0,2.0;" x1="276" x2="411" y1="791.0391" y2="791.0391"/><text fill="#000000" font-family="sans-serif" font-size="13" lengthAdjust="spacingAndGlyphs" textLength="36" x="288" y="785.9731">Order</text><polygon fill="#A80036" points="45,816.1719,35,820.1719,45,824.1719,41,820.1719" style="stroke: #A80036; stroke-width: 1.0;"/><line style="stroke: #A80036; stroke-width: 1.0;" x1="39" x2="270" y1="820.1719" y2="820.1719"/><text fill="#000000" font-family="sans-serif" font-size="13" lengthAdjust="spacingAndGlyphs" textLength="151" x="51" y="815.106">displayOrderInfo(Order)</text><polygon fill="#A80036" points="259,845.3047,269,849.3047,259,853.3047,263,849.3047" style="stroke: #A80036; stroke-width: 1.0;"/><line style="stroke: #A80036; stroke-width: 1.0; stroke-dasharray: 2.0,2.0;" x1="34" x2="265" y1="849.3047" y2="849.3047"/><text fill="#000000" font-family="sans-serif" font-size="13" lengthAdjust="spacingAndGlyphs" textLength="27" x="41" y="844.2388">void</text><polygon fill="#A80036" points="45,874.4375,35,878.4375,45,882.4375,41,878.4375" style="stroke: #A80036; stroke-width: 1.0;"/><line style="stroke: #A80036; stroke-width: 1.0;" x1="39" x2="270" y1="878.4375" y2="878.4375"/><text fill="#000000" font-family="sans-serif" font-size="13" lengthAdjust="spacingAndGlyphs" textLength="213" x="51" y="873.3716">displayAddOrderSuccessBanner()</text><polygon fill="#A80036" points="259,903.5703,269,907.5703,259,911.5703,263,907.5703" style="stroke: #A80036; stroke-width: 1.0;"/><line style="stroke: #A80036; stroke-width: 1.0; stroke-dasharray: 2.0,2.0;" x1="34" x2="265" y1="907.5703" y2="907.5703"/><text fill="#000000" font-family="sans-serif" font-size="13" lengthAdjust="spacingAndGlyphs" textLength="27" x="41" y="902.5044">void</text><!--MD5=[ee79b6a3ffb1097e199fa51f303a4524]
@startuml
title TSG Flooring Corp - addOrder() Sequence

View <- Controller : displayAddOrderBanner()
View - -> Controller : void 
View <- Controller : addNewOrderInfo()
View - -> Controller : String[]

Controller -> Service: addOrder(String[])
Service - -> Service : validateOrder(String[])
Service - -> StateDao : verifyOrderState(String)
StateDao - -> StateDao : loadStates()
StateDao - -> Service : State
Service - -> StateDao : verifyOrderProduct(String)
StateDao - -> StateDao : loadProducts()
StateDao - -> Service : Product
Service - -> Service : calcMaterialCost()
Service - -> Service : calcLaborCost()
Service - -> Service : calcTax()
Service - -> Service : calcTotal()
Service - -> Service : Order
Service -> Dao : addOrder(Order)
Dao - -> Service : Order
Dao -[#blue]-> AuditDao : writeAuditEntry()
Service - -> Controller : Order

Controller -> View : displayOrderInfo(Order)
View - -> Controller : void

Controller -> View : displayAddOrderSuccessBanner()
View - -> Controller : void
@enduml

PlantUML version 1.2020.15beta1(Unknown compile time)
(GPL source distribution)
Java Runtime: Java(TM) SE Runtime Environment
JVM: Java HotSpot(TM) 64-Bit Server VM
Default Encoding: UTF-8
Language: en
Country: US
--></g></svg>