<?xml version="1.0" encoding="UTF-8" standalone="no"?><svg xmlns="http://www.w3.org/2000/svg" xmlns:xlink="http://www.w3.org/1999/xlink" contentScriptType="application/ecmascript" contentStyleType="text/css" height="517px" preserveAspectRatio="none" style="width:953px;height:517px;" version="1.1" viewBox="0 0 953 517" width="953px" zoomAndPan="magnify"><defs><filter height="300%" id="fcrt3mc5rt5kq" width="300%" x="-1" y="-1"><feGaussianBlur result="blurOut" stdDeviation="2.0"/><feColorMatrix in="blurOut" result="blurOut2" type="matrix" values="0 0 0 0 0 0 0 0 0 0 0 0 0 0 0 0 0 0 .4 0"/><feOffset dx="4.0" dy="4.0" in="blurOut2" result="blurOut3"/><feBlend in="SourceGraphic" in2="blurOut3" mode="normal"/></filter></defs><g><text fill="#000000" font-family="sans-serif" font-size="18" lengthAdjust="spacingAndGlyphs" textLength="424" x="263.5" y="26.708">TSG Flooring Corp - displayOrders() Sequence</text><line style="stroke: #A80036; stroke-width: 1.0; stroke-dasharray: 5.0,5.0;" x1="34" x2="34" y1="73.25" y2="468.8438"/><line style="stroke: #A80036; stroke-width: 1.0; stroke-dasharray: 5.0,5.0;" x1="361.5" x2="361.5" y1="73.25" y2="468.8438"/><line style="stroke: #A80036; stroke-width: 1.0; stroke-dasharray: 5.0,5.0;" x1="570.5" x2="570.5" y1="73.25" y2="468.8438"/><line style="stroke: #A80036; stroke-width: 1.0; stroke-dasharray: 5.0,5.0;" x1="779.5" x2="779.5" y1="73.25" y2="468.8438"/><rect fill="#FEFECE" filter="url(#fcrt3mc5rt5kq)" height="30.2969" style="stroke: #A80036; stroke-width: 1.5;" width="48" x="8" y="37.9531"/><text fill="#000000" font-family="sans-serif" font-size="14" lengthAdjust="spacingAndGlyphs" textLength="34" x="15" y="57.9482">View</text><rect fill="#FEFECE" filter="url(#fcrt3mc5rt5kq)" height="30.2969" style="stroke: #A80036; stroke-width: 1.5;" width="48" x="8" y="467.8438"/><text fill="#000000" font-family="sans-serif" font-size="14" lengthAdjust="spacingAndGlyphs" textLength="34" x="15" y="487.8389">View</text><rect fill="#FEFECE" filter="url(#fcrt3mc5rt5kq)" height="30.2969" style="stroke: #A80036; stroke-width: 1.5;" width="87" x="316.5" y="37.9531"/><text fill="#000000" font-family="sans-serif" font-size="14" lengthAdjust="spacingAndGlyphs" textLength="73" x="323.5" y="57.9482">Controller</text><rect fill="#FEFECE" filter="url(#fcrt3mc5rt5kq)" height="30.2969" style="stroke: #A80036; stroke-width: 1.5;" width="87" x="316.5" y="467.8438"/><text fill="#000000" font-family="sans-serif" font-size="14" lengthAdjust="spacingAndGlyphs" textLength="73" x="323.5" y="487.8389">Controller</text><rect fill="#FEFECE" filter="url(#fcrt3mc5rt5kq)" height="30.2969" style="stroke: #A80036; stroke-width: 1.5;" width="67" x="535.5" y="37.9531"/><text fill="#000000" font-family="sans-serif" font-size="14" lengthAdjust="spacingAndGlyphs" textLength="53" x="542.5" y="57.9482">Service</text><rect fill="#FEFECE" filter="url(#fcrt3mc5rt5kq)" height="30.2969" style="stroke: #A80036; stroke-width: 1.5;" width="67" x="535.5" y="467.8438"/><text fill="#000000" font-family="sans-serif" font-size="14" lengthAdjust="spacingAndGlyphs" textLength="53" x="542.5" y="487.8389">Service</text><rect fill="#FEFECE" filter="url(#fcrt3mc5rt5kq)" height="30.2969" style="stroke: #A80036; stroke-width: 1.5;" width="83" x="736.5" y="37.9531"/><text fill="#000000" font-family="sans-serif" font-size="14" lengthAdjust="spacingAndGlyphs" textLength="69" x="743.5" y="57.9482">OrderDao</text><rect fill="#FEFECE" filter="url(#fcrt3mc5rt5kq)" height="30.2969" style="stroke: #A80036; stroke-width: 1.5;" width="83" x="736.5" y="467.8438"/><text fill="#000000" font-family="sans-serif" font-size="14" lengthAdjust="spacingAndGlyphs" textLength="69" x="743.5" y="487.8389">OrderDao</text><polygon fill="#A80036" points="45,100.3828,35,104.3828,45,108.3828,41,104.3828" style="stroke: #A80036; stroke-width: 1.0;"/><line style="stroke: #A80036; stroke-width: 1.0; stroke-dasharray: 2.0,2.0;" x1="39" x2="361" y1="104.3828" y2="104.3828"/><text fill="#000000" font-family="sans-serif" font-size="13" lengthAdjust="spacingAndGlyphs" textLength="190" x="51" y="99.3169">displayDisplayOrdersBanner()</text><polygon fill="#A80036" points="350,129.5156,360,133.5156,350,137.5156,354,133.5156" style="stroke: #A80036; stroke-width: 1.0;"/><line style="stroke: #A80036; stroke-width: 1.0; stroke-dasharray: 2.0,2.0;" x1="34" x2="356" y1="133.5156" y2="133.5156"/><text fill="#000000" font-family="sans-serif" font-size="13" lengthAdjust="spacingAndGlyphs" textLength="27" x="41" y="128.4497">void</text><polygon fill="#A80036" points="45,158.6484,35,162.6484,45,166.6484,41,162.6484" style="stroke: #A80036; stroke-width: 1.0;"/><line style="stroke: #A80036; stroke-width: 1.0;" x1="39" x2="361" y1="162.6484" y2="162.6484"/><text fill="#000000" font-family="sans-serif" font-size="13" lengthAdjust="spacingAndGlyphs" textLength="105" x="51" y="157.5825">getOrdersDate()</text><polygon fill="#A80036" points="350,187.7813,360,191.7813,350,195.7813,354,191.7813" style="stroke: #A80036; stroke-width: 1.0;"/><line style="stroke: #A80036; stroke-width: 1.0; stroke-dasharray: 2.0,2.0;" x1="34" x2="356" y1="191.7813" y2="191.7813"/><text fill="#000000" font-family="sans-serif" font-size="13" lengthAdjust="spacingAndGlyphs" textLength="64" x="41" y="186.7153">LocalDate</text><polygon fill="#A80036" points="559,216.9141,569,220.9141,559,224.9141,563,220.9141" style="stroke: #A80036; stroke-width: 1.0;"/><line style="stroke: #A80036; stroke-width: 1.0;" x1="362" x2="565" y1="220.9141" y2="220.9141"/><text fill="#000000" font-family="sans-serif" font-size="13" lengthAdjust="spacingAndGlyphs" textLength="185" x="369" y="215.8481">getOrdersByDate(LocalDate)</text><polygon fill="#A80036" points="768,246.0469,778,250.0469,768,254.0469,772,250.0469" style="stroke: #A80036; stroke-width: 1.0;"/><line style="stroke: #A80036; stroke-width: 1.0;" x1="571" x2="774" y1="250.0469" y2="250.0469"/><text fill="#000000" font-family="sans-serif" font-size="13" lengthAdjust="spacingAndGlyphs" textLength="185" x="578" y="244.981">getOrdersByDate(LocalDate)</text><line style="stroke: #A80036; stroke-width: 1.0; stroke-dasharray: 2.0,2.0;" x1="780" x2="822" y1="279.1797" y2="279.1797"/><line style="stroke: #A80036; stroke-width: 1.0; stroke-dasharray: 2.0,2.0;" x1="822" x2="822" y1="279.1797" y2="292.1797"/><line style="stroke: #A80036; stroke-width: 1.0; stroke-dasharray: 2.0,2.0;" x1="781" x2="822" y1="292.1797" y2="292.1797"/><polygon fill="#A80036" points="791,288.1797,781,292.1797,791,296.1797,787,292.1797" style="stroke: #A80036; stroke-width: 1.0;"/><text fill="#000000" font-family="sans-serif" font-size="13" lengthAdjust="spacingAndGlyphs" textLength="95" x="787" y="274.1138">loadAllOrders()</text><line style="stroke: #A80036; stroke-width: 1.0; stroke-dasharray: 2.0,2.0;" x1="780" x2="822" y1="321.3125" y2="321.3125"/><line style="stroke: #A80036; stroke-width: 1.0; stroke-dasharray: 2.0,2.0;" x1="822" x2="822" y1="321.3125" y2="334.3125"/><line style="stroke: #A80036; stroke-width: 1.0; stroke-dasharray: 2.0,2.0;" x1="781" x2="822" y1="334.3125" y2="334.3125"/><polygon fill="#A80036" points="791,330.3125,781,334.3125,791,338.3125,787,334.3125" style="stroke: #A80036; stroke-width: 1.0;"/><text fill="#000000" font-family="sans-serif" font-size="13" lengthAdjust="spacingAndGlyphs" textLength="154" x="787" y="316.2466">unmarshallOrder(String)</text><polygon fill="#A80036" points="582,359.4453,572,363.4453,582,367.4453,578,363.4453" style="stroke: #A80036; stroke-width: 1.0;"/><line style="stroke: #A80036; stroke-width: 1.0; stroke-dasharray: 2.0,2.0;" x1="576" x2="779" y1="363.4453" y2="363.4453"/><text fill="#000000" font-family="sans-serif" font-size="13" lengthAdjust="spacingAndGlyphs" textLength="135" x="588" y="358.3794">Map&lt;Integer, Order&gt;</text><polygon fill="#A80036" points="373,388.5781,363,392.5781,373,396.5781,369,392.5781" style="stroke: #A80036; stroke-width: 1.0;"/><line style="stroke: #A80036; stroke-width: 1.0; stroke-dasharray: 2.0,2.0;" x1="367" x2="570" y1="392.5781" y2="392.5781"/><text fill="#000000" font-family="sans-serif" font-size="13" lengthAdjust="spacingAndGlyphs" textLength="135" x="379" y="387.5122">Map&lt;Integer, Order&gt;</text><polygon fill="#A80036" points="45,417.7109,35,421.7109,45,425.7109,41,421.7109" style="stroke: #A80036; stroke-width: 1.0;"/><line style="stroke: #A80036; stroke-width: 1.0;" x1="39" x2="361" y1="421.7109" y2="421.7109"/><text fill="#000000" font-family="sans-serif" font-size="13" lengthAdjust="spacingAndGlyphs" textLength="304" x="51" y="416.645">displayOrdersByDateInfo(Map&lt;Integer, Order&gt;)</text><polygon fill="#A80036" points="350,446.8438,360,450.8438,350,454.8438,354,450.8438" style="stroke: #A80036; stroke-width: 1.0;"/><line style="stroke: #A80036; stroke-width: 1.0; stroke-dasharray: 2.0,2.0;" x1="34" x2="356" y1="450.8438" y2="450.8438"/><text fill="#000000" font-family="sans-serif" font-size="13" lengthAdjust="spacingAndGlyphs" textLength="27" x="41" y="445.7778">void</text><!--MD5=[2aa2f0228a91a8d230bd86fb6cc5108f]
@startuml
title TSG Flooring Corp - displayOrders() Sequence

View <- - Controller : displayDisplayOrdersBanner()
View - -> Controller : void
View <- Controller : getOrdersDate()
View - -> Controller : LocalDate

Controller -> Service : getOrdersByDate(LocalDate)
Service -> OrderDao : getOrdersByDate(LocalDate)
OrderDao - -> OrderDao : loadAllOrders()
OrderDao - -> OrderDao : unmarshallOrder(String)
OrderDao - -> Service : Map<Integer, Order>
Service - -> Controller : Map<Integer, Order>

Controller -> View : displayOrdersByDateInfo(Map<Integer, Order>)
View - -> Controller : void
@enduml

PlantUML version 1.2020.15beta1(Unknown compile time)
(GPL source distribution)
Java Runtime: Java(TM) SE Runtime Environment
JVM: Java HotSpot(TM) 64-Bit Server VM
Default Encoding: UTF-8
Language: en
Country: US
--></g></svg>