<?xml version="1.0" encoding="UTF-8" standalone="no"?><svg xmlns="http://www.w3.org/2000/svg" xmlns:xlink="http://www.w3.org/1999/xlink" contentScriptType="application/ecmascript" contentStyleType="text/css" height="604px" preserveAspectRatio="none" style="width:906px;height:604px;" version="1.1" viewBox="0 0 906 604" width="906px" zoomAndPan="magnify"><defs><filter height="300%" id="fj5rbt02xappb" width="300%" x="-1" y="-1"><feGaussianBlur result="blurOut" stdDeviation="2.0"/><feColorMatrix in="blurOut" result="blurOut2" type="matrix" values="0 0 0 0 0 0 0 0 0 0 0 0 0 0 0 0 0 0 .4 0"/><feOffset dx="4.0" dy="4.0" in="blurOut2" result="blurOut3"/><feBlend in="SourceGraphic" in2="blurOut3" mode="normal"/></filter></defs><g><text fill="#000000" font-family="sans-serif" font-size="18" lengthAdjust="spacingAndGlyphs" textLength="420" x="239.5" y="26.708">TSG Flooring Corp - removeOrder() Sequence</text><line style="stroke: #A80036; stroke-width: 1.0; stroke-dasharray: 5.0,5.0;" x1="34" x2="34" y1="73.25" y2="556.2422"/><line style="stroke: #A80036; stroke-width: 1.0; stroke-dasharray: 5.0,5.0;" x1="299.5" x2="299.5" y1="73.25" y2="556.2422"/><line style="stroke: #A80036; stroke-width: 1.0; stroke-dasharray: 5.0,5.0;" x1="507.5" x2="507.5" y1="73.25" y2="556.2422"/><line style="stroke: #A80036; stroke-width: 1.0; stroke-dasharray: 5.0,5.0;" x1="715.5" x2="715.5" y1="73.25" y2="556.2422"/><line style="stroke: #A80036; stroke-width: 1.0; stroke-dasharray: 5.0,5.0;" x1="849" x2="849" y1="73.25" y2="556.2422"/><rect fill="#FEFECE" filter="url(#fj5rbt02xappb)" height="30.2969" style="stroke: #A80036; stroke-width: 1.5;" width="48" x="8" y="37.9531"/><text fill="#000000" font-family="sans-serif" font-size="14" lengthAdjust="spacingAndGlyphs" textLength="34" x="15" y="57.9482">View</text><rect fill="#FEFECE" filter="url(#fj5rbt02xappb)" height="30.2969" style="stroke: #A80036; stroke-width: 1.5;" width="48" x="8" y="555.2422"/><text fill="#000000" font-family="sans-serif" font-size="14" lengthAdjust="spacingAndGlyphs" textLength="34" x="15" y="575.2373">View</text><rect fill="#FEFECE" filter="url(#fj5rbt02xappb)" height="30.2969" style="stroke: #A80036; stroke-width: 1.5;" width="87" x="254.5" y="37.9531"/><text fill="#000000" font-family="sans-serif" font-size="14" lengthAdjust="spacingAndGlyphs" textLength="73" x="261.5" y="57.9482">Controller</text><rect fill="#FEFECE" filter="url(#fj5rbt02xappb)" height="30.2969" style="stroke: #A80036; stroke-width: 1.5;" width="87" x="254.5" y="555.2422"/><text fill="#000000" font-family="sans-serif" font-size="14" lengthAdjust="spacingAndGlyphs" textLength="73" x="261.5" y="575.2373">Controller</text><rect fill="#FEFECE" filter="url(#fj5rbt02xappb)" height="30.2969" style="stroke: #A80036; stroke-width: 1.5;" width="67" x="472.5" y="37.9531"/><text fill="#000000" font-family="sans-serif" font-size="14" lengthAdjust="spacingAndGlyphs" textLength="53" x="479.5" y="57.9482">Service</text><rect fill="#FEFECE" filter="url(#fj5rbt02xappb)" height="30.2969" style="stroke: #A80036; stroke-width: 1.5;" width="67" x="472.5" y="555.2422"/><text fill="#000000" font-family="sans-serif" font-size="14" lengthAdjust="spacingAndGlyphs" textLength="53" x="479.5" y="575.2373">Service</text><rect fill="#FEFECE" filter="url(#fj5rbt02xappb)" height="30.2969" style="stroke: #A80036; stroke-width: 1.5;" width="83" x="672.5" y="37.9531"/><text fill="#000000" font-family="sans-serif" font-size="14" lengthAdjust="spacingAndGlyphs" textLength="69" x="679.5" y="57.9482">OrderDao</text><rect fill="#FEFECE" filter="url(#fj5rbt02xappb)" height="30.2969" style="stroke: #A80036; stroke-width: 1.5;" width="83" x="672.5" y="555.2422"/><text fill="#000000" font-family="sans-serif" font-size="14" lengthAdjust="spacingAndGlyphs" textLength="69" x="679.5" y="575.2373">OrderDao</text><rect fill="#FEFECE" filter="url(#fj5rbt02xappb)" height="30.2969" style="stroke: #A80036; stroke-width: 1.5;" width="80" x="807" y="37.9531"/><text fill="#000000" font-family="sans-serif" font-size="14" lengthAdjust="spacingAndGlyphs" textLength="66" x="814" y="57.9482">AuditDao</text><rect fill="#FEFECE" filter="url(#fj5rbt02xappb)" height="30.2969" style="stroke: #A80036; stroke-width: 1.5;" width="80" x="807" y="555.2422"/><text fill="#000000" font-family="sans-serif" font-size="14" lengthAdjust="spacingAndGlyphs" textLength="66" x="814" y="575.2373">AuditDao</text><polygon fill="#A80036" points="45,100.3828,35,104.3828,45,108.3828,41,104.3828" style="stroke: #A80036; stroke-width: 1.0;"/><line style="stroke: #A80036; stroke-width: 1.0;" x1="39" x2="299" y1="104.3828" y2="104.3828"/><text fill="#000000" font-family="sans-serif" font-size="13" lengthAdjust="spacingAndGlyphs" textLength="190" x="51" y="99.3169">displayRemoveOrderBanner()</text><polygon fill="#A80036" points="288,129.5156,298,133.5156,288,137.5156,292,133.5156" style="stroke: #A80036; stroke-width: 1.0;"/><line style="stroke: #A80036; stroke-width: 1.0; stroke-dasharray: 2.0,2.0;" x1="34" x2="294" y1="133.5156" y2="133.5156"/><text fill="#000000" font-family="sans-serif" font-size="13" lengthAdjust="spacingAndGlyphs" textLength="27" x="41" y="128.4497">void</text><polygon fill="#A80036" points="45,158.6484,35,162.6484,45,166.6484,41,162.6484" style="stroke: #A80036; stroke-width: 1.0;"/><line style="stroke: #A80036; stroke-width: 1.0;" x1="39" x2="299" y1="162.6484" y2="162.6484"/><text fill="#000000" font-family="sans-serif" font-size="13" lengthAdjust="spacingAndGlyphs" textLength="155" x="51" y="157.5825">getOrderRemovalDate()</text><polygon fill="#A80036" points="288,187.7813,298,191.7813,288,195.7813,292,191.7813" style="stroke: #A80036; stroke-width: 1.0;"/><line style="stroke: #A80036; stroke-width: 1.0; stroke-dasharray: 2.0,2.0;" x1="34" x2="294" y1="191.7813" y2="191.7813"/><text fill="#000000" font-family="sans-serif" font-size="13" lengthAdjust="spacingAndGlyphs" textLength="64" x="41" y="186.7153">LocalDate</text><polygon fill="#A80036" points="45,216.9141,35,220.9141,45,224.9141,41,220.9141" style="stroke: #A80036; stroke-width: 1.0;"/><line style="stroke: #A80036; stroke-width: 1.0;" x1="39" x2="299" y1="220.9141" y2="220.9141"/><text fill="#000000" font-family="sans-serif" font-size="13" lengthAdjust="spacingAndGlyphs" textLength="154" x="51" y="215.8481">getOrderRemovalNum()</text><polygon fill="#A80036" points="288,246.0469,298,250.0469,288,254.0469,292,250.0469" style="stroke: #A80036; stroke-width: 1.0;"/><line style="stroke: #A80036; stroke-width: 1.0; stroke-dasharray: 2.0,2.0;" x1="34" x2="294" y1="250.0469" y2="250.0469"/><text fill="#000000" font-family="sans-serif" font-size="13" lengthAdjust="spacingAndGlyphs" textLength="16" x="41" y="244.981">int</text><polygon fill="#A80036" points="496,275.1797,506,279.1797,496,283.1797,500,279.1797" style="stroke: #A80036; stroke-width: 1.0;"/><line style="stroke: #A80036; stroke-width: 1.0;" x1="300" x2="502" y1="279.1797" y2="279.1797"/><text fill="#000000" font-family="sans-serif" font-size="13" lengthAdjust="spacingAndGlyphs" textLength="184" x="307" y="274.1138">removeOrder(LocalDate, int)</text><line style="stroke: #A80036; stroke-width: 1.0; stroke-dasharray: 2.0,2.0;" x1="716" x2="758" y1="308.3125" y2="308.3125"/><line style="stroke: #A80036; stroke-width: 1.0; stroke-dasharray: 2.0,2.0;" x1="758" x2="758" y1="308.3125" y2="321.3125"/><line style="stroke: #A80036; stroke-width: 1.0; stroke-dasharray: 2.0,2.0;" x1="717" x2="758" y1="321.3125" y2="321.3125"/><polygon fill="#A80036" points="727,317.3125,717,321.3125,727,325.3125,723,321.3125" style="stroke: #A80036; stroke-width: 1.0;"/><text fill="#000000" font-family="sans-serif" font-size="13" lengthAdjust="spacingAndGlyphs" textLength="95" x="723" y="303.2466">loadAllOrders()</text><polygon fill="#A80036" points="704,346.4453,714,350.4453,704,354.4453,708,350.4453" style="stroke: #A80036; stroke-width: 1.0;"/><line style="stroke: #A80036; stroke-width: 1.0;" x1="508" x2="710" y1="350.4453" y2="350.4453"/><text fill="#000000" font-family="sans-serif" font-size="13" lengthAdjust="spacingAndGlyphs" textLength="184" x="515" y="345.3794">removeOrder(LocalDate, int)</text><line style="stroke: #A80036; stroke-width: 1.0; stroke-dasharray: 2.0,2.0;" x1="716" x2="758" y1="379.5781" y2="379.5781"/><line style="stroke: #A80036; stroke-width: 1.0; stroke-dasharray: 2.0,2.0;" x1="758" x2="758" y1="379.5781" y2="392.5781"/><line style="stroke: #A80036; stroke-width: 1.0; stroke-dasharray: 2.0,2.0;" x1="717" x2="758" y1="392.5781" y2="392.5781"/><polygon fill="#A80036" points="727,388.5781,717,392.5781,727,396.5781,723,392.5781" style="stroke: #A80036; stroke-width: 1.0;"/><text fill="#000000" font-family="sans-serif" font-size="13" lengthAdjust="spacingAndGlyphs" textLength="100" x="723" y="374.5122">writeAllOrders()</text><polygon fill="#A80036" points="519,417.7109,509,421.7109,519,425.7109,515,421.7109" style="stroke: #A80036; stroke-width: 1.0;"/><line style="stroke: #A80036; stroke-width: 1.0; stroke-dasharray: 2.0,2.0;" x1="513" x2="715" y1="421.7109" y2="421.7109"/><text fill="#000000" font-family="sans-serif" font-size="13" lengthAdjust="spacingAndGlyphs" textLength="36" x="525" y="416.645">Order</text><polygon fill="#A80036" points="311,446.8438,301,450.8438,311,454.8438,307,450.8438" style="stroke: #A80036; stroke-width: 1.0;"/><line style="stroke: #A80036; stroke-width: 1.0; stroke-dasharray: 2.0,2.0;" x1="305" x2="507" y1="450.8438" y2="450.8438"/><text fill="#000000" font-family="sans-serif" font-size="13" lengthAdjust="spacingAndGlyphs" textLength="36" x="317" y="445.7778">Order</text><polygon fill="#0000FF" points="837,475.9766,847,479.9766,837,483.9766,841,479.9766" style="stroke: #0000FF; stroke-width: 1.0;"/><line style="stroke: #0000FF; stroke-width: 1.0; stroke-dasharray: 2.0,2.0;" x1="716" x2="843" y1="479.9766" y2="479.9766"/><text fill="#000000" font-family="sans-serif" font-size="13" lengthAdjust="spacingAndGlyphs" textLength="109" x="723" y="474.9106">writeAuditEntry()</text><polygon fill="#A80036" points="45,505.1094,35,509.1094,45,513.1094,41,509.1094" style="stroke: #A80036; stroke-width: 1.0;"/><line style="stroke: #A80036; stroke-width: 1.0;" x1="39" x2="299" y1="509.1094" y2="509.1094"/><text fill="#000000" font-family="sans-serif" font-size="13" lengthAdjust="spacingAndGlyphs" textLength="242" x="51" y="504.0435">displayRemoveOrderSuccessBanner()</text><polygon fill="#A80036" points="288,534.2422,298,538.2422,288,542.2422,292,538.2422" style="stroke: #A80036; stroke-width: 1.0;"/><line style="stroke: #A80036; stroke-width: 1.0; stroke-dasharray: 2.0,2.0;" x1="34" x2="294" y1="538.2422" y2="538.2422"/><text fill="#000000" font-family="sans-serif" font-size="13" lengthAdjust="spacingAndGlyphs" textLength="27" x="41" y="533.1763">void</text><!--MD5=[ab78f7405c945d991396b0b925f4331a]
@startuml
title TSG Flooring Corp - removeOrder() Sequence

View <- Controller : displayRemoveOrderBanner()
View - -> Controller : void 
View <- Controller : getOrderRemovalDate()
View - -> Controller : LocalDate
View <- Controller : getOrderRemovalNum()
View - -> Controller : int


Controller -> Service : removeOrder(LocalDate, int)
OrderDao - -> OrderDao : loadAllOrders()
Service -> OrderDao : removeOrder(LocalDate, int)
OrderDao - -> OrderDao : writeAllOrders()
OrderDao - -> Service : Order
Service - -> Controller : Order

OrderDao -[#blue]-> AuditDao : writeAuditEntry()

Controller -> View : displayRemoveOrderSuccessBanner()
View - -> Controller : void
@enduml

PlantUML version 1.2020.15beta1(Unknown compile time)
(GPL source distribution)
Java Runtime: Java(TM) SE Runtime Environment
JVM: Java HotSpot(TM) 64-Bit Server VM
Default Encoding: UTF-8
Language: en
Country: US
--></g></svg>