<?xml version="1.0" encoding="UTF-8" standalone="no"?><svg xmlns="http://www.w3.org/2000/svg" xmlns:xlink="http://www.w3.org/1999/xlink" contentScriptType="application/ecmascript" contentStyleType="text/css" height="1702px" preserveAspectRatio="none" style="width:1715px;height:1702px;" version="1.1" viewBox="0 0 1715 1702" width="1715px" zoomAndPan="magnify"><defs><filter height="300%" id="fyrb2juwitkom" width="300%" x="-1" y="-1"><feGaussianBlur result="blurOut" stdDeviation="2.0"/><feColorMatrix in="blurOut" result="blurOut2" type="matrix" values="0 0 0 0 0 0 0 0 0 0 0 0 0 0 0 0 0 0 .4 0"/><feOffset dx="4.0" dy="4.0" in="blurOut2" result="blurOut3"/><feBlend in="SourceGraphic" in2="blurOut3" mode="normal"/></filter></defs><g><text fill="#000000" font-family="sans-serif" font-size="18" lengthAdjust="spacingAndGlyphs" textLength="382" x="665.5" y="26.708">TSG Flooring Corp - addOrder() Sequence</text><line style="stroke: #A80036; stroke-width: 1.0; stroke-dasharray: 5.0,5.0;" x1="34" x2="34" y1="73.25" y2="1653.8906"/><line style="stroke: #A80036; stroke-width: 1.0; stroke-dasharray: 5.0,5.0;" x1="271.5" x2="271.5" y1="73.25" y2="1653.8906"/><line style="stroke: #A80036; stroke-width: 1.0; stroke-dasharray: 5.0,5.0;" x1="618.5" x2="618.5" y1="73.25" y2="1653.8906"/><line style="stroke: #A80036; stroke-width: 1.0; stroke-dasharray: 5.0,5.0;" x1="1385" x2="1385" y1="73.25" y2="1653.8906"/><line style="stroke: #A80036; stroke-width: 1.0; stroke-dasharray: 5.0,5.0;" x1="1489" x2="1489" y1="73.25" y2="1653.8906"/><line style="stroke: #A80036; stroke-width: 1.0; stroke-dasharray: 5.0,5.0;" x1="1595.5" x2="1595.5" y1="73.25" y2="1653.8906"/><rect fill="#FEFECE" filter="url(#fyrb2juwitkom)" height="30.2969" style="stroke: #A80036; stroke-width: 1.5;" width="48" x="8" y="37.9531"/><text fill="#000000" font-family="sans-serif" font-size="14" lengthAdjust="spacingAndGlyphs" textLength="34" x="15" y="57.9482">View</text><rect fill="#FEFECE" filter="url(#fyrb2juwitkom)" height="30.2969" style="stroke: #A80036; stroke-width: 1.5;" width="48" x="8" y="1652.8906"/><text fill="#000000" font-family="sans-serif" font-size="14" lengthAdjust="spacingAndGlyphs" textLength="34" x="15" y="1672.8857">View</text><rect fill="#FEFECE" filter="url(#fyrb2juwitkom)" height="30.2969" style="stroke: #A80036; stroke-width: 1.5;" width="87" x="226.5" y="37.9531"/><text fill="#000000" font-family="sans-serif" font-size="14" lengthAdjust="spacingAndGlyphs" textLength="73" x="233.5" y="57.9482">Controller</text><rect fill="#FEFECE" filter="url(#fyrb2juwitkom)" height="30.2969" style="stroke: #A80036; stroke-width: 1.5;" width="87" x="226.5" y="1652.8906"/><text fill="#000000" font-family="sans-serif" font-size="14" lengthAdjust="spacingAndGlyphs" textLength="73" x="233.5" y="1672.8857">Controller</text><rect fill="#FEFECE" filter="url(#fyrb2juwitkom)" height="30.2969" style="stroke: #A80036; stroke-width: 1.5;" width="67" x="583.5" y="37.9531"/><text fill="#000000" font-family="sans-serif" font-size="14" lengthAdjust="spacingAndGlyphs" textLength="53" x="590.5" y="57.9482">Service</text><rect fill="#FEFECE" filter="url(#fyrb2juwitkom)" height="30.2969" style="stroke: #A80036; stroke-width: 1.5;" width="67" x="583.5" y="1652.8906"/><text fill="#000000" font-family="sans-serif" font-size="14" lengthAdjust="spacingAndGlyphs" textLength="53" x="590.5" y="1672.8857">Service</text><rect fill="#FEFECE" filter="url(#fyrb2juwitkom)" height="30.2969" style="stroke: #A80036; stroke-width: 1.5;" width="82" x="1342" y="37.9531"/><text fill="#000000" font-family="sans-serif" font-size="14" lengthAdjust="spacingAndGlyphs" textLength="68" x="1349" y="57.9482">StateDao</text><rect fill="#FEFECE" filter="url(#fyrb2juwitkom)" height="30.2969" style="stroke: #A80036; stroke-width: 1.5;" width="82" x="1342" y="1652.8906"/><text fill="#000000" font-family="sans-serif" font-size="14" lengthAdjust="spacingAndGlyphs" textLength="68" x="1349" y="1672.8857">StateDao</text><rect fill="#FEFECE" filter="url(#fyrb2juwitkom)" height="30.2969" style="stroke: #A80036; stroke-width: 1.5;" width="98" x="1438" y="37.9531"/><text fill="#000000" font-family="sans-serif" font-size="14" lengthAdjust="spacingAndGlyphs" textLength="84" x="1445" y="57.9482">ProductDao</text><rect fill="#FEFECE" filter="url(#fyrb2juwitkom)" height="30.2969" style="stroke: #A80036; stroke-width: 1.5;" width="98" x="1438" y="1652.8906"/><text fill="#000000" font-family="sans-serif" font-size="14" lengthAdjust="spacingAndGlyphs" textLength="84" x="1445" y="1672.8857">ProductDao</text><rect fill="#FEFECE" filter="url(#fyrb2juwitkom)" height="30.2969" style="stroke: #A80036; stroke-width: 1.5;" width="83" x="1552.5" y="37.9531"/><text fill="#000000" font-family="sans-serif" font-size="14" lengthAdjust="spacingAndGlyphs" textLength="69" x="1559.5" y="57.9482">OrderDao</text><rect fill="#FEFECE" filter="url(#fyrb2juwitkom)" height="30.2969" style="stroke: #A80036; stroke-width: 1.5;" width="83" x="1552.5" y="1652.8906"/><text fill="#000000" font-family="sans-serif" font-size="14" lengthAdjust="spacingAndGlyphs" textLength="69" x="1559.5" y="1672.8857">OrderDao</text><polygon fill="#A80036" points="45,100.3828,35,104.3828,45,108.3828,41,104.3828" style="stroke: #A80036; stroke-width: 1.0;"/><line style="stroke: #A80036; stroke-width: 1.0;" x1="39" x2="271" y1="104.3828" y2="104.3828"/><text fill="#000000" font-family="sans-serif" font-size="13" lengthAdjust="spacingAndGlyphs" textLength="161" x="51" y="99.3169">displayAddOrderBanner()</text><polygon fill="#A80036" points="260,129.5156,270,133.5156,260,137.5156,264,133.5156" style="stroke: #A80036; stroke-width: 1.0;"/><line style="stroke: #A80036; stroke-width: 1.0; stroke-dasharray: 2.0,2.0;" x1="34" x2="266" y1="133.5156" y2="133.5156"/><text fill="#000000" font-family="sans-serif" font-size="13" lengthAdjust="spacingAndGlyphs" textLength="27" x="41" y="128.4497">void</text><polygon fill="#A80036" points="45,158.6484,35,162.6484,45,166.6484,41,162.6484" style="stroke: #A80036; stroke-width: 1.0;"/><line style="stroke: #A80036; stroke-width: 1.0;" x1="39" x2="271" y1="162.6484" y2="162.6484"/><text fill="#000000" font-family="sans-serif" font-size="13" lengthAdjust="spacingAndGlyphs" textLength="109" x="51" y="157.5825">inputOrderDate()</text><polygon fill="#A80036" points="260,187.7813,270,191.7813,260,195.7813,264,191.7813" style="stroke: #A80036; stroke-width: 1.0;"/><line style="stroke: #A80036; stroke-width: 1.0; stroke-dasharray: 2.0,2.0;" x1="34" x2="266" y1="191.7813" y2="191.7813"/><text fill="#000000" font-family="sans-serif" font-size="13" lengthAdjust="spacingAndGlyphs" textLength="64" x="41" y="186.7153">LocalDate</text><polygon fill="#A80036" points="607,216.9141,617,220.9141,607,224.9141,611,220.9141" style="stroke: #A80036; stroke-width: 1.0;"/><line style="stroke: #A80036; stroke-width: 1.0;" x1="272" x2="613" y1="220.9141" y2="220.9141"/><text fill="#000000" font-family="sans-serif" font-size="13" lengthAdjust="spacingAndGlyphs" textLength="192" x="279" y="215.8481">validateOrderDate(LocalDate)</text><polygon fill="#A80036" points="283,246.0469,273,250.0469,283,254.0469,279,250.0469" style="stroke: #A80036; stroke-width: 1.0;"/><line style="stroke: #A80036; stroke-width: 1.0; stroke-dasharray: 2.0,2.0;" x1="277" x2="618" y1="250.0469" y2="250.0469"/><text fill="#000000" font-family="sans-serif" font-size="13" lengthAdjust="spacingAndGlyphs" textLength="64" x="289" y="244.981">LocalDate</text><polygon fill="#A80036" points="45,275.1797,35,279.1797,45,283.1797,41,279.1797" style="stroke: #A80036; stroke-width: 1.0;"/><line style="stroke: #A80036; stroke-width: 1.0;" x1="39" x2="271" y1="279.1797" y2="279.1797"/><text fill="#000000" font-family="sans-serif" font-size="13" lengthAdjust="spacingAndGlyphs" textLength="143" x="51" y="274.1138">inputCustomerName()</text><polygon fill="#A80036" points="260,304.3125,270,308.3125,260,312.3125,264,308.3125" style="stroke: #A80036; stroke-width: 1.0;"/><line style="stroke: #A80036; stroke-width: 1.0; stroke-dasharray: 2.0,2.0;" x1="34" x2="266" y1="308.3125" y2="308.3125"/><text fill="#000000" font-family="sans-serif" font-size="13" lengthAdjust="spacingAndGlyphs" textLength="37" x="41" y="303.2466">String</text><polygon fill="#A80036" points="607,333.4453,617,337.4453,607,341.4453,611,337.4453" style="stroke: #A80036; stroke-width: 1.0;"/><line style="stroke: #A80036; stroke-width: 1.0;" x1="272" x2="613" y1="337.4453" y2="337.4453"/><text fill="#000000" font-family="sans-serif" font-size="13" lengthAdjust="spacingAndGlyphs" textLength="125" x="279" y="332.3794">getValidStatesList()</text><polygon fill="#A80036" points="1373,362.5781,1383,366.5781,1373,370.5781,1377,366.5781" style="stroke: #A80036; stroke-width: 1.0;"/><line style="stroke: #A80036; stroke-width: 1.0;" x1="619" x2="1379" y1="366.5781" y2="366.5781"/><text fill="#000000" font-family="sans-serif" font-size="13" lengthAdjust="spacingAndGlyphs" textLength="103" x="626" y="361.5122">getValidStates()</text><line style="stroke: #A80036; stroke-width: 1.0; stroke-dasharray: 2.0,2.0;" x1="1385" x2="1427" y1="395.7109" y2="395.7109"/><line style="stroke: #A80036; stroke-width: 1.0; stroke-dasharray: 2.0,2.0;" x1="1427" x2="1427" y1="395.7109" y2="408.7109"/><line style="stroke: #A80036; stroke-width: 1.0; stroke-dasharray: 2.0,2.0;" x1="1386" x2="1427" y1="408.7109" y2="408.7109"/><polygon fill="#A80036" points="1396,404.7109,1386,408.7109,1396,412.7109,1392,408.7109" style="stroke: #A80036; stroke-width: 1.0;"/><text fill="#000000" font-family="sans-serif" font-size="13" lengthAdjust="spacingAndGlyphs" textLength="78" x="1392" y="390.645">loadStates()</text><polygon fill="#A80036" points="630,433.8438,620,437.8438,630,441.8438,626,437.8438" style="stroke: #A80036; stroke-width: 1.0;"/><line style="stroke: #A80036; stroke-width: 1.0; stroke-dasharray: 2.0,2.0;" x1="624" x2="1384" y1="437.8438" y2="437.8438"/><text fill="#000000" font-family="sans-serif" font-size="13" lengthAdjust="spacingAndGlyphs" textLength="76" x="636" y="432.7778">List&lt;State&gt;</text><polygon fill="#A80036" points="283,462.9766,273,466.9766,283,470.9766,279,466.9766" style="stroke: #A80036; stroke-width: 1.0;"/><line style="stroke: #A80036; stroke-width: 1.0; stroke-dasharray: 2.0,2.0;" x1="277" x2="618" y1="466.9766" y2="466.9766"/><text fill="#000000" font-family="sans-serif" font-size="13" lengthAdjust="spacingAndGlyphs" textLength="76" x="289" y="461.9106">List&lt;State&gt;</text><polygon fill="#A80036" points="45,492.1094,35,496.1094,45,500.1094,41,496.1094" style="stroke: #A80036; stroke-width: 1.0;"/><line style="stroke: #A80036; stroke-width: 1.0;" x1="39" x2="271" y1="496.1094" y2="496.1094"/><text fill="#000000" font-family="sans-serif" font-size="13" lengthAdjust="spacingAndGlyphs" textLength="152" x="51" y="491.0435">inputState(List&lt;State&gt;)</text><polygon fill="#A80036" points="260,521.2422,270,525.2422,260,529.2422,264,525.2422" style="stroke: #A80036; stroke-width: 1.0;"/><line style="stroke: #A80036; stroke-width: 1.0; stroke-dasharray: 2.0,2.0;" x1="34" x2="266" y1="525.2422" y2="525.2422"/><text fill="#000000" font-family="sans-serif" font-size="13" lengthAdjust="spacingAndGlyphs" textLength="37" x="41" y="520.1763">String</text><polygon fill="#A80036" points="607,550.375,617,554.375,607,558.375,611,554.375" style="stroke: #A80036; stroke-width: 1.0;"/><line style="stroke: #A80036; stroke-width: 1.0;" x1="272" x2="613" y1="554.375" y2="554.375"/><text fill="#000000" font-family="sans-serif" font-size="13" lengthAdjust="spacingAndGlyphs" textLength="132" x="279" y="549.3091">validateState(String)</text><polygon fill="#A80036" points="1373,579.5078,1383,583.5078,1373,587.5078,1377,583.5078" style="stroke: #A80036; stroke-width: 1.0;"/><line style="stroke: #A80036; stroke-width: 1.0;" x1="619" x2="1379" y1="583.5078" y2="583.5078"/><text fill="#000000" font-family="sans-serif" font-size="13" lengthAdjust="spacingAndGlyphs" textLength="139" x="626" y="578.4419">readStateByID(String)</text><polygon fill="#A80036" points="630,608.6406,620,612.6406,630,616.6406,626,612.6406" style="stroke: #A80036; stroke-width: 1.0;"/><line style="stroke: #A80036; stroke-width: 1.0; stroke-dasharray: 2.0,2.0;" x1="624" x2="1384" y1="612.6406" y2="612.6406"/><text fill="#000000" font-family="sans-serif" font-size="13" lengthAdjust="spacingAndGlyphs" textLength="34" x="636" y="607.5747">State</text><polygon fill="#A80036" points="283,637.7734,273,641.7734,283,645.7734,279,641.7734" style="stroke: #A80036; stroke-width: 1.0;"/><line style="stroke: #A80036; stroke-width: 1.0; stroke-dasharray: 2.0,2.0;" x1="277" x2="618" y1="641.7734" y2="641.7734"/><text fill="#000000" font-family="sans-serif" font-size="13" lengthAdjust="spacingAndGlyphs" textLength="34" x="289" y="636.7075">State</text><polygon fill="#A80036" points="607,666.9063,617,670.9063,607,674.9063,611,670.9063" style="stroke: #A80036; stroke-width: 1.0;"/><line style="stroke: #A80036; stroke-width: 1.0;" x1="272" x2="613" y1="670.9063" y2="670.9063"/><text fill="#000000" font-family="sans-serif" font-size="13" lengthAdjust="spacingAndGlyphs" textLength="140" x="279" y="665.8403">getValidProductsList()</text><polygon fill="#A80036" points="1477,696.0391,1487,700.0391,1477,704.0391,1481,700.0391" style="stroke: #A80036; stroke-width: 1.0;"/><line style="stroke: #A80036; stroke-width: 1.0;" x1="619" x2="1483" y1="700.0391" y2="700.0391"/><text fill="#000000" font-family="sans-serif" font-size="13" lengthAdjust="spacingAndGlyphs" textLength="118" x="626" y="694.9731">getValidProducts()</text><line style="stroke: #A80036; stroke-width: 1.0; stroke-dasharray: 2.0,2.0;" x1="1489" x2="1531" y1="729.1719" y2="729.1719"/><line style="stroke: #A80036; stroke-width: 1.0; stroke-dasharray: 2.0,2.0;" x1="1531" x2="1531" y1="729.1719" y2="742.1719"/><line style="stroke: #A80036; stroke-width: 1.0; stroke-dasharray: 2.0,2.0;" x1="1490" x2="1531" y1="742.1719" y2="742.1719"/><polygon fill="#A80036" points="1500,738.1719,1490,742.1719,1500,746.1719,1496,742.1719" style="stroke: #A80036; stroke-width: 1.0;"/><text fill="#000000" font-family="sans-serif" font-size="13" lengthAdjust="spacingAndGlyphs" textLength="93" x="1496" y="724.106">loadProducts()</text><polygon fill="#A80036" points="630,767.3047,620,771.3047,630,775.3047,626,771.3047" style="stroke: #A80036; stroke-width: 1.0;"/><line style="stroke: #A80036; stroke-width: 1.0; stroke-dasharray: 2.0,2.0;" x1="624" x2="1488" y1="771.3047" y2="771.3047"/><text fill="#000000" font-family="sans-serif" font-size="13" lengthAdjust="spacingAndGlyphs" textLength="91" x="636" y="766.2388">List&lt;Product&gt;</text><polygon fill="#A80036" points="283,796.4375,273,800.4375,283,804.4375,279,800.4375" style="stroke: #A80036; stroke-width: 1.0;"/><line style="stroke: #A80036; stroke-width: 1.0; stroke-dasharray: 2.0,2.0;" x1="277" x2="618" y1="800.4375" y2="800.4375"/><text fill="#000000" font-family="sans-serif" font-size="13" lengthAdjust="spacingAndGlyphs" textLength="91" x="289" y="795.3716">List&lt;Product&gt;</text><polygon fill="#A80036" points="45,825.5703,35,829.5703,45,833.5703,41,829.5703" style="stroke: #A80036; stroke-width: 1.0;"/><line style="stroke: #A80036; stroke-width: 1.0;" x1="39" x2="271" y1="829.5703" y2="829.5703"/><text fill="#000000" font-family="sans-serif" font-size="13" lengthAdjust="spacingAndGlyphs" textLength="214" x="51" y="824.5044">inputProductType(List&lt;Product&gt;)</text><polygon fill="#A80036" points="260,854.7031,270,858.7031,260,862.7031,264,858.7031" style="stroke: #A80036; stroke-width: 1.0;"/><line style="stroke: #A80036; stroke-width: 1.0; stroke-dasharray: 2.0,2.0;" x1="34" x2="266" y1="858.7031" y2="858.7031"/><text fill="#000000" font-family="sans-serif" font-size="13" lengthAdjust="spacingAndGlyphs" textLength="37" x="41" y="853.6372">String</text><polygon fill="#A80036" points="607,883.8359,617,887.8359,607,891.8359,611,887.8359" style="stroke: #A80036; stroke-width: 1.0;"/><line style="stroke: #A80036; stroke-width: 1.0;" x1="272" x2="613" y1="887.8359" y2="887.8359"/><text fill="#000000" font-family="sans-serif" font-size="13" lengthAdjust="spacingAndGlyphs" textLength="179" x="279" y="882.77">validateProductType(String)</text><polygon fill="#A80036" points="1477,912.9688,1487,916.9688,1477,920.9688,1481,916.9688" style="stroke: #A80036; stroke-width: 1.0;"/><line style="stroke: #A80036; stroke-width: 1.0;" x1="619" x2="1483" y1="916.9688" y2="916.9688"/><text fill="#000000" font-family="sans-serif" font-size="13" lengthAdjust="spacingAndGlyphs" textLength="154" x="626" y="911.9028">readProductByID(String)</text><polygon fill="#A80036" points="630,942.1016,620,946.1016,630,950.1016,626,946.1016" style="stroke: #A80036; stroke-width: 1.0;"/><line style="stroke: #A80036; stroke-width: 1.0; stroke-dasharray: 2.0,2.0;" x1="624" x2="1488" y1="946.1016" y2="946.1016"/><text fill="#000000" font-family="sans-serif" font-size="13" lengthAdjust="spacingAndGlyphs" textLength="49" x="636" y="941.0356">Product</text><polygon fill="#A80036" points="283,971.2344,273,975.2344,283,979.2344,279,975.2344" style="stroke: #A80036; stroke-width: 1.0;"/><line style="stroke: #A80036; stroke-width: 1.0; stroke-dasharray: 2.0,2.0;" x1="277" x2="618" y1="975.2344" y2="975.2344"/><text fill="#000000" font-family="sans-serif" font-size="13" lengthAdjust="spacingAndGlyphs" textLength="49" x="289" y="970.1685">Product</text><polygon fill="#A80036" points="45,1000.3672,35,1004.3672,45,1008.3672,41,1004.3672" style="stroke: #A80036; stroke-width: 1.0;"/><line style="stroke: #A80036; stroke-width: 1.0;" x1="39" x2="271" y1="1004.3672" y2="1004.3672"/><text fill="#000000" font-family="sans-serif" font-size="13" lengthAdjust="spacingAndGlyphs" textLength="72" x="51" y="999.3013">inputArea()</text><polygon fill="#A80036" points="260,1029.5,270,1033.5,260,1037.5,264,1033.5" style="stroke: #A80036; stroke-width: 1.0;"/><line style="stroke: #A80036; stroke-width: 1.0; stroke-dasharray: 2.0,2.0;" x1="34" x2="266" y1="1033.5" y2="1033.5"/><text fill="#000000" font-family="sans-serif" font-size="13" lengthAdjust="spacingAndGlyphs" textLength="71" x="41" y="1028.4341">BigDecimal</text><line style="stroke: #A80036; stroke-width: 1.0; stroke-dasharray: 2.0,2.0;" x1="272" x2="314" y1="1062.6328" y2="1062.6328"/><line style="stroke: #A80036; stroke-width: 1.0; stroke-dasharray: 2.0,2.0;" x1="314" x2="314" y1="1062.6328" y2="1075.6328"/><line style="stroke: #A80036; stroke-width: 1.0; stroke-dasharray: 2.0,2.0;" x1="273" x2="314" y1="1075.6328" y2="1075.6328"/><polygon fill="#A80036" points="283,1071.6328,273,1075.6328,283,1079.6328,279,1075.6328" style="stroke: #A80036; stroke-width: 1.0;"/><text fill="#000000" font-family="sans-serif" font-size="13" lengthAdjust="spacingAndGlyphs" textLength="333" x="279" y="1057.5669">Order(LocalDate, String, State, Product, BigDecimal)</text><polygon fill="#A80036" points="607,1100.7656,617,1104.7656,607,1108.7656,611,1104.7656" style="stroke: #A80036; stroke-width: 1.0;"/><line style="stroke: #A80036; stroke-width: 1.0;" x1="272" x2="613" y1="1104.7656" y2="1104.7656"/><text fill="#000000" font-family="sans-serif" font-size="13" lengthAdjust="spacingAndGlyphs" textLength="133" x="279" y="1099.6997">validateOrder(Order)</text><line style="stroke: #A80036; stroke-width: 1.0; stroke-dasharray: 2.0,2.0;" x1="619" x2="661" y1="1133.8984" y2="1133.8984"/><line style="stroke: #A80036; stroke-width: 1.0; stroke-dasharray: 2.0,2.0;" x1="661" x2="661" y1="1133.8984" y2="1146.8984"/><line style="stroke: #A80036; stroke-width: 1.0; stroke-dasharray: 2.0,2.0;" x1="620" x2="661" y1="1146.8984" y2="1146.8984"/><polygon fill="#A80036" points="630,1142.8984,620,1146.8984,630,1150.8984,626,1146.8984" style="stroke: #A80036; stroke-width: 1.0;"/><text fill="#000000" font-family="sans-serif" font-size="13" lengthAdjust="spacingAndGlyphs" textLength="143" x="626" y="1128.8325">calcOrderCosts(Order)</text><line style="stroke: #A80036; stroke-width: 1.0; stroke-dasharray: 2.0,2.0;" x1="619" x2="661" y1="1176.0313" y2="1176.0313"/><line style="stroke: #A80036; stroke-width: 1.0; stroke-dasharray: 2.0,2.0;" x1="661" x2="661" y1="1176.0313" y2="1189.0313"/><line style="stroke: #A80036; stroke-width: 1.0; stroke-dasharray: 2.0,2.0;" x1="620" x2="661" y1="1189.0313" y2="1189.0313"/><polygon fill="#A80036" points="630,1185.0313,620,1189.0313,630,1193.0313,626,1189.0313" style="stroke: #A80036; stroke-width: 1.0;"/><text fill="#000000" font-family="sans-serif" font-size="13" lengthAdjust="spacingAndGlyphs" textLength="166" x="626" y="1170.9653">getHighestOrderNumber()</text><line style="stroke: #A80036; stroke-width: 1.0; stroke-dasharray: 2.0,2.0;" x1="619" x2="661" y1="1218.1641" y2="1218.1641"/><line style="stroke: #A80036; stroke-width: 1.0; stroke-dasharray: 2.0,2.0;" x1="661" x2="661" y1="1218.1641" y2="1231.1641"/><line style="stroke: #A80036; stroke-width: 1.0; stroke-dasharray: 2.0,2.0;" x1="620" x2="661" y1="1231.1641" y2="1231.1641"/><polygon fill="#A80036" points="630,1227.1641,620,1231.1641,630,1235.1641,626,1231.1641" style="stroke: #A80036; stroke-width: 1.0;"/><text fill="#000000" font-family="sans-serif" font-size="13" lengthAdjust="spacingAndGlyphs" textLength="752" x="626" y="1213.0981">Order(LocalDate, int, String, State, Product, BigDecimal, BigDecimal, BigDecimal, BigDecimal, BigDecimal, BigDecimal)</text><polygon fill="#A80036" points="283,1256.2969,273,1260.2969,283,1264.2969,279,1260.2969" style="stroke: #A80036; stroke-width: 1.0;"/><line style="stroke: #A80036; stroke-width: 1.0; stroke-dasharray: 2.0,2.0;" x1="277" x2="618" y1="1260.2969" y2="1260.2969"/><text fill="#000000" font-family="sans-serif" font-size="13" lengthAdjust="spacingAndGlyphs" textLength="36" x="289" y="1255.231">Order</text><polygon fill="#A80036" points="45,1285.4297,35,1289.4297,45,1293.4297,41,1289.4297" style="stroke: #A80036; stroke-width: 1.0;"/><line style="stroke: #A80036; stroke-width: 1.0;" x1="39" x2="271" y1="1289.4297" y2="1289.4297"/><text fill="#000000" font-family="sans-serif" font-size="13" lengthAdjust="spacingAndGlyphs" textLength="159" x="51" y="1284.3638">confirmNewOrder(Order)</text><polygon fill="#A80036" points="260,1314.5625,270,1318.5625,260,1322.5625,264,1318.5625" style="stroke: #A80036; stroke-width: 1.0;"/><line style="stroke: #A80036; stroke-width: 1.0; stroke-dasharray: 2.0,2.0;" x1="34" x2="266" y1="1318.5625" y2="1318.5625"/><text fill="#000000" font-family="sans-serif" font-size="13" lengthAdjust="spacingAndGlyphs" textLength="51" x="41" y="1313.4966">boolean</text><polygon fill="#A80036" points="607,1343.6953,617,1347.6953,607,1351.6953,611,1347.6953" style="stroke: #A80036; stroke-width: 1.0;"/><line style="stroke: #A80036; stroke-width: 1.0; stroke-dasharray: 2.0,2.0;" x1="272" x2="613" y1="1347.6953" y2="1347.6953"/><text fill="#000000" font-family="sans-serif" font-size="13" lengthAdjust="spacingAndGlyphs" textLength="36" x="279" y="1342.6294">Order</text><polygon fill="#A80036" points="1584,1372.8281,1594,1376.8281,1584,1380.8281,1588,1376.8281" style="stroke: #A80036; stroke-width: 1.0;"/><line style="stroke: #A80036; stroke-width: 1.0;" x1="619" x2="1590" y1="1376.8281" y2="1376.8281"/><text fill="#000000" font-family="sans-serif" font-size="13" lengthAdjust="spacingAndGlyphs" textLength="106" x="626" y="1371.7622">addOrder(Order)</text><line style="stroke: #A80036; stroke-width: 1.0; stroke-dasharray: 2.0,2.0;" x1="1596" x2="1638" y1="1405.9609" y2="1405.9609"/><line style="stroke: #A80036; stroke-width: 1.0; stroke-dasharray: 2.0,2.0;" x1="1638" x2="1638" y1="1405.9609" y2="1418.9609"/><line style="stroke: #A80036; stroke-width: 1.0; stroke-dasharray: 2.0,2.0;" x1="1597" x2="1638" y1="1418.9609" y2="1418.9609"/><polygon fill="#A80036" points="1607,1414.9609,1597,1418.9609,1607,1422.9609,1603,1418.9609" style="stroke: #A80036; stroke-width: 1.0;"/><text fill="#000000" font-family="sans-serif" font-size="13" lengthAdjust="spacingAndGlyphs" textLength="95" x="1603" y="1400.895">loadAllOrders()</text><line style="stroke: #A80036; stroke-width: 1.0; stroke-dasharray: 2.0,2.0;" x1="1596" x2="1638" y1="1448.0938" y2="1448.0938"/><line style="stroke: #A80036; stroke-width: 1.0; stroke-dasharray: 2.0,2.0;" x1="1638" x2="1638" y1="1448.0938" y2="1461.0938"/><line style="stroke: #A80036; stroke-width: 1.0; stroke-dasharray: 2.0,2.0;" x1="1597" x2="1638" y1="1461.0938" y2="1461.0938"/><polygon fill="#A80036" points="1607,1457.0938,1597,1461.0938,1607,1465.0938,1603,1461.0938" style="stroke: #A80036; stroke-width: 1.0;"/><text fill="#000000" font-family="sans-serif" font-size="13" lengthAdjust="spacingAndGlyphs" textLength="100" x="1603" y="1443.0278">writeAllOrders()</text><polygon fill="#A80036" points="630,1486.2266,620,1490.2266,630,1494.2266,626,1490.2266" style="stroke: #A80036; stroke-width: 1.0;"/><line style="stroke: #A80036; stroke-width: 1.0; stroke-dasharray: 2.0,2.0;" x1="624" x2="1595" y1="1490.2266" y2="1490.2266"/><text fill="#000000" font-family="sans-serif" font-size="13" lengthAdjust="spacingAndGlyphs" textLength="36" x="636" y="1485.1606">Order</text><polygon fill="#A80036" points="283,1515.3594,273,1519.3594,283,1523.3594,279,1519.3594" style="stroke: #A80036; stroke-width: 1.0;"/><line style="stroke: #A80036; stroke-width: 1.0; stroke-dasharray: 2.0,2.0;" x1="277" x2="618" y1="1519.3594" y2="1519.3594"/><text fill="#000000" font-family="sans-serif" font-size="13" lengthAdjust="spacingAndGlyphs" textLength="36" x="289" y="1514.2935">Order</text><polygon fill="#A80036" points="45,1544.4922,35,1548.4922,45,1552.4922,41,1548.4922" style="stroke: #A80036; stroke-width: 1.0;"/><line style="stroke: #A80036; stroke-width: 1.0;" x1="39" x2="271" y1="1548.4922" y2="1548.4922"/><text fill="#000000" font-family="sans-serif" font-size="13" lengthAdjust="spacingAndGlyphs" textLength="151" x="51" y="1543.4263">displayOrderInfo(Order)</text><polygon fill="#A80036" points="260,1573.625,270,1577.625,260,1581.625,264,1577.625" style="stroke: #A80036; stroke-width: 1.0;"/><line style="stroke: #A80036; stroke-width: 1.0; stroke-dasharray: 2.0,2.0;" x1="34" x2="266" y1="1577.625" y2="1577.625"/><text fill="#000000" font-family="sans-serif" font-size="13" lengthAdjust="spacingAndGlyphs" textLength="27" x="41" y="1572.5591">void</text><polygon fill="#A80036" points="45,1602.7578,35,1606.7578,45,1610.7578,41,1606.7578" style="stroke: #A80036; stroke-width: 1.0;"/><line style="stroke: #A80036; stroke-width: 1.0;" x1="39" x2="271" y1="1606.7578" y2="1606.7578"/><text fill="#000000" font-family="sans-serif" font-size="13" lengthAdjust="spacingAndGlyphs" textLength="213" x="51" y="1601.6919">displayAddOrderSuccessBanner()</text><polygon fill="#A80036" points="260,1631.8906,270,1635.8906,260,1639.8906,264,1635.8906" style="stroke: #A80036; stroke-width: 1.0;"/><line style="stroke: #A80036; stroke-width: 1.0; stroke-dasharray: 2.0,2.0;" x1="34" x2="266" y1="1635.8906" y2="1635.8906"/><text fill="#000000" font-family="sans-serif" font-size="13" lengthAdjust="spacingAndGlyphs" textLength="27" x="41" y="1630.8247">void</text><!--MD5=[afacf3e560583b78612817dfcbbb7e99]
@startuml
title TSG Flooring Corp - addOrder() Sequence

View <- Controller : displayAddOrderBanner()
View - -> Controller : void 

View <- Controller : inputOrderDate()
View - -> Controller : LocalDate
Controller -> Service : validateOrderDate(LocalDate)
'to ensure this is a future date
Service - -> Controller : LocalDate

View <- Controller : inputCustomerName()
'validation done w regex
View - -> Controller : String

Controller -> Service : getValidStatesList()
Service -> StateDao : getValidStates()
StateDao - -> StateDao : loadStates()
StateDao - -> Service : List<State>
Service - -> Controller : List<State>
View <- Controller : inputState(List<State>)
View - -> Controller : String
Controller -> Service : validateState(String)
Service -> StateDao : readStateByID(String)
StateDao - -> Service : State
Service - -> Controller : State

Controller -> Service : getValidProductsList()
Service -> ProductDao : getValidProducts()
ProductDao - -> ProductDao : loadProducts()
ProductDao - -> Service : List<Product>
Service - -> Controller : List<Product>
View <- Controller : inputProductType(List<Product>)
View - -> Controller : String
Controller -> Service : validateProductType(String)
Service -> ProductDao : readProductByID(String)
ProductDao - -> Service : Product
Service - -> Controller : Product

View <- Controller : inputArea()
View - -> Controller : BigDecimal

Controller - -> Controller : Order(LocalDate, String, State, Product, BigDecimal)

Controller -> Service: validateOrder(Order)
Service - -> Service : calcOrderCosts(Order)
Service - -> Service : getHighestOrderNumber()
Service - -> Service : Order(LocalDate, int, String, State, Product, BigDecimal, BigDecimal, BigDecimal, BigDecimal, BigDecimal, BigDecimal)
Service - -> Controller : Order

Controller -> View : confirmNewOrder(Order)
View - -> Controller : boolean

Controller - -> Service : Order
Service -> OrderDao : addOrder(Order)
OrderDao - -> OrderDao : loadAllOrders()
OrderDao - -> OrderDao : writeAllOrders()
OrderDao - -> Service : Order
'write to backup file
Service - -> Controller : Order

'OrderDao -[#blue]-> AuditDao : writeAuditEntry()

Controller -> View : displayOrderInfo(Order)
View - -> Controller : void

Controller -> View : displayAddOrderSuccessBanner()
View - -> Controller : void
@enduml

@startuml
title TSG Flooring Corp - addOrder() Sequence

View <- Controller : displayAddOrderBanner()
View - -> Controller : void 

View <- Controller : inputOrderDate()
View - -> Controller : LocalDate
Controller -> Service : validateOrderDate(LocalDate)
Service - -> Controller : LocalDate

View <- Controller : inputCustomerName()
View - -> Controller : String

Controller -> Service : getValidStatesList()
Service -> StateDao : getValidStates()
StateDao - -> StateDao : loadStates()
StateDao - -> Service : List<State>
Service - -> Controller : List<State>
View <- Controller : inputState(List<State>)
View - -> Controller : String
Controller -> Service : validateState(String)
Service -> StateDao : readStateByID(String)
StateDao - -> Service : State
Service - -> Controller : State

Controller -> Service : getValidProductsList()
Service -> ProductDao : getValidProducts()
ProductDao - -> ProductDao : loadProducts()
ProductDao - -> Service : List<Product>
Service - -> Controller : List<Product>
View <- Controller : inputProductType(List<Product>)
View - -> Controller : String
Controller -> Service : validateProductType(String)
Service -> ProductDao : readProductByID(String)
ProductDao - -> Service : Product
Service - -> Controller : Product

View <- Controller : inputArea()
View - -> Controller : BigDecimal

Controller - -> Controller : Order(LocalDate, String, State, Product, BigDecimal)

Controller -> Service: validateOrder(Order)
Service - -> Service : calcOrderCosts(Order)
Service - -> Service : getHighestOrderNumber()
Service - -> Service : Order(LocalDate, int, String, State, Product, BigDecimal, BigDecimal, BigDecimal, BigDecimal, BigDecimal, BigDecimal)
Service - -> Controller : Order

Controller -> View : confirmNewOrder(Order)
View - -> Controller : boolean

Controller - -> Service : Order
Service -> OrderDao : addOrder(Order)
OrderDao - -> OrderDao : loadAllOrders()
OrderDao - -> OrderDao : writeAllOrders()
OrderDao - -> Service : Order
Service - -> Controller : Order


Controller -> View : displayOrderInfo(Order)
View - -> Controller : void

Controller -> View : displayAddOrderSuccessBanner()
View - -> Controller : void
@enduml

PlantUML version 1.2020.16beta3(Unknown compile time)
(GPL source distribution)
Java Runtime: Java(TM) SE Runtime Environment
JVM: Java HotSpot(TM) 64-Bit Server VM
Default Encoding: UTF-8
Language: en
Country: US
--></g></svg>