<?xml version="1.0" encoding="UTF-8" standalone="no"?><svg xmlns="http://www.w3.org/2000/svg" xmlns:xlink="http://www.w3.org/1999/xlink" contentScriptType="application/ecmascript" contentStyleType="text/css" height="1828px" preserveAspectRatio="none" style="width:1714px;height:1828px;" version="1.1" viewBox="0 0 1714 1828" width="1714px" zoomAndPan="magnify"><defs><filter height="300%" id="f1r3ved3mpj47r" width="300%" x="-1" y="-1"><feGaussianBlur result="blurOut" stdDeviation="2.0"/><feColorMatrix in="blurOut" result="blurOut2" type="matrix" values="0 0 0 0 0 0 0 0 0 0 0 0 0 0 0 0 0 0 .4 0"/><feOffset dx="4.0" dy="4.0" in="blurOut2" result="blurOut3"/><feBlend in="SourceGraphic" in2="blurOut3" mode="normal"/></filter></defs><g><text fill="#000000" font-family="sans-serif" font-size="18" lengthAdjust="spacingAndGlyphs" textLength="382" x="665" y="26.708">TSG Flooring Corp - addOrder() Sequence</text><line style="stroke: #A80036; stroke-width: 1.0; stroke-dasharray: 5.0,5.0;" x1="34" x2="34" y1="73.25" y2="1780.2891"/><line style="stroke: #A80036; stroke-width: 1.0; stroke-dasharray: 5.0,5.0;" x1="270.5" x2="270.5" y1="73.25" y2="1780.2891"/><line style="stroke: #A80036; stroke-width: 1.0; stroke-dasharray: 5.0,5.0;" x1="617.5" x2="617.5" y1="73.25" y2="1780.2891"/><line style="stroke: #A80036; stroke-width: 1.0; stroke-dasharray: 5.0,5.0;" x1="1384" x2="1384" y1="73.25" y2="1780.2891"/><line style="stroke: #A80036; stroke-width: 1.0; stroke-dasharray: 5.0,5.0;" x1="1488" x2="1488" y1="73.25" y2="1780.2891"/><line style="stroke: #A80036; stroke-width: 1.0; stroke-dasharray: 5.0,5.0;" x1="1594.5" x2="1594.5" y1="73.25" y2="1780.2891"/><rect fill="#FEFECE" filter="url(#f1r3ved3mpj47r)" height="30.2969" style="stroke: #A80036; stroke-width: 1.5;" width="48" x="8" y="37.9531"/><text fill="#000000" font-family="sans-serif" font-size="14" lengthAdjust="spacingAndGlyphs" textLength="34" x="15" y="57.9482">View</text><rect fill="#FEFECE" filter="url(#f1r3ved3mpj47r)" height="30.2969" style="stroke: #A80036; stroke-width: 1.5;" width="48" x="8" y="1779.2891"/><text fill="#000000" font-family="sans-serif" font-size="14" lengthAdjust="spacingAndGlyphs" textLength="34" x="15" y="1799.2842">View</text><rect fill="#FEFECE" filter="url(#f1r3ved3mpj47r)" height="30.2969" style="stroke: #A80036; stroke-width: 1.5;" width="87" x="225.5" y="37.9531"/><text fill="#000000" font-family="sans-serif" font-size="14" lengthAdjust="spacingAndGlyphs" textLength="73" x="232.5" y="57.9482">Controller</text><rect fill="#FEFECE" filter="url(#f1r3ved3mpj47r)" height="30.2969" style="stroke: #A80036; stroke-width: 1.5;" width="87" x="225.5" y="1779.2891"/><text fill="#000000" font-family="sans-serif" font-size="14" lengthAdjust="spacingAndGlyphs" textLength="73" x="232.5" y="1799.2842">Controller</text><rect fill="#FEFECE" filter="url(#f1r3ved3mpj47r)" height="30.2969" style="stroke: #A80036; stroke-width: 1.5;" width="67" x="582.5" y="37.9531"/><text fill="#000000" font-family="sans-serif" font-size="14" lengthAdjust="spacingAndGlyphs" textLength="53" x="589.5" y="57.9482">Service</text><rect fill="#FEFECE" filter="url(#f1r3ved3mpj47r)" height="30.2969" style="stroke: #A80036; stroke-width: 1.5;" width="67" x="582.5" y="1779.2891"/><text fill="#000000" font-family="sans-serif" font-size="14" lengthAdjust="spacingAndGlyphs" textLength="53" x="589.5" y="1799.2842">Service</text><rect fill="#FEFECE" filter="url(#f1r3ved3mpj47r)" height="30.2969" style="stroke: #A80036; stroke-width: 1.5;" width="82" x="1341" y="37.9531"/><text fill="#000000" font-family="sans-serif" font-size="14" lengthAdjust="spacingAndGlyphs" textLength="68" x="1348" y="57.9482">StateDao</text><rect fill="#FEFECE" filter="url(#f1r3ved3mpj47r)" height="30.2969" style="stroke: #A80036; stroke-width: 1.5;" width="82" x="1341" y="1779.2891"/><text fill="#000000" font-family="sans-serif" font-size="14" lengthAdjust="spacingAndGlyphs" textLength="68" x="1348" y="1799.2842">StateDao</text><rect fill="#FEFECE" filter="url(#f1r3ved3mpj47r)" height="30.2969" style="stroke: #A80036; stroke-width: 1.5;" width="98" x="1437" y="37.9531"/><text fill="#000000" font-family="sans-serif" font-size="14" lengthAdjust="spacingAndGlyphs" textLength="84" x="1444" y="57.9482">ProductDao</text><rect fill="#FEFECE" filter="url(#f1r3ved3mpj47r)" height="30.2969" style="stroke: #A80036; stroke-width: 1.5;" width="98" x="1437" y="1779.2891"/><text fill="#000000" font-family="sans-serif" font-size="14" lengthAdjust="spacingAndGlyphs" textLength="84" x="1444" y="1799.2842">ProductDao</text><rect fill="#FEFECE" filter="url(#f1r3ved3mpj47r)" height="30.2969" style="stroke: #A80036; stroke-width: 1.5;" width="83" x="1551.5" y="37.9531"/><text fill="#000000" font-family="sans-serif" font-size="14" lengthAdjust="spacingAndGlyphs" textLength="69" x="1558.5" y="57.9482">OrderDao</text><rect fill="#FEFECE" filter="url(#f1r3ved3mpj47r)" height="30.2969" style="stroke: #A80036; stroke-width: 1.5;" width="83" x="1551.5" y="1779.2891"/><text fill="#000000" font-family="sans-serif" font-size="14" lengthAdjust="spacingAndGlyphs" textLength="69" x="1558.5" y="1799.2842">OrderDao</text><polygon fill="#A80036" points="45,100.3828,35,104.3828,45,108.3828,41,104.3828" style="stroke: #A80036; stroke-width: 1.0;"/><line style="stroke: #A80036; stroke-width: 1.0;" x1="39" x2="270" y1="104.3828" y2="104.3828"/><text fill="#000000" font-family="sans-serif" font-size="13" lengthAdjust="spacingAndGlyphs" textLength="161" x="51" y="99.3169">displayAddOrderBanner()</text><polygon fill="#A80036" points="259,129.5156,269,133.5156,259,137.5156,263,133.5156" style="stroke: #A80036; stroke-width: 1.0;"/><line style="stroke: #A80036; stroke-width: 1.0; stroke-dasharray: 2.0,2.0;" x1="34" x2="265" y1="133.5156" y2="133.5156"/><text fill="#000000" font-family="sans-serif" font-size="13" lengthAdjust="spacingAndGlyphs" textLength="27" x="41" y="128.4497">void</text><polygon fill="#A80036" points="45,158.6484,35,162.6484,45,166.6484,41,162.6484" style="stroke: #A80036; stroke-width: 1.0;"/><line style="stroke: #A80036; stroke-width: 1.0;" x1="39" x2="270" y1="162.6484" y2="162.6484"/><text fill="#000000" font-family="sans-serif" font-size="13" lengthAdjust="spacingAndGlyphs" textLength="109" x="51" y="157.5825">inputOrderDate()</text><polygon fill="#A80036" points="259,187.7813,269,191.7813,259,195.7813,263,191.7813" style="stroke: #A80036; stroke-width: 1.0;"/><line style="stroke: #A80036; stroke-width: 1.0; stroke-dasharray: 2.0,2.0;" x1="34" x2="265" y1="191.7813" y2="191.7813"/><text fill="#000000" font-family="sans-serif" font-size="13" lengthAdjust="spacingAndGlyphs" textLength="64" x="41" y="186.7153">LocalDate</text><polygon fill="#A80036" points="606,216.9141,616,220.9141,606,224.9141,610,220.9141" style="stroke: #A80036; stroke-width: 1.0;"/><line style="stroke: #A80036; stroke-width: 1.0;" x1="271" x2="612" y1="220.9141" y2="220.9141"/><text fill="#000000" font-family="sans-serif" font-size="13" lengthAdjust="spacingAndGlyphs" textLength="192" x="278" y="215.8481">validateOrderDate(LocalDate)</text><polygon fill="#A80036" points="282,246.0469,272,250.0469,282,254.0469,278,250.0469" style="stroke: #A80036; stroke-width: 1.0;"/><line style="stroke: #A80036; stroke-width: 1.0; stroke-dasharray: 2.0,2.0;" x1="276" x2="617" y1="250.0469" y2="250.0469"/><text fill="#000000" font-family="sans-serif" font-size="13" lengthAdjust="spacingAndGlyphs" textLength="64" x="288" y="244.981">LocalDate</text><polygon fill="#A80036" points="45,275.1797,35,279.1797,45,283.1797,41,279.1797" style="stroke: #A80036; stroke-width: 1.0;"/><line style="stroke: #A80036; stroke-width: 1.0;" x1="39" x2="270" y1="279.1797" y2="279.1797"/><text fill="#000000" font-family="sans-serif" font-size="13" lengthAdjust="spacingAndGlyphs" textLength="143" x="51" y="274.1138">inputCustomerName()</text><polygon fill="#A80036" points="259,304.3125,269,308.3125,259,312.3125,263,308.3125" style="stroke: #A80036; stroke-width: 1.0;"/><line style="stroke: #A80036; stroke-width: 1.0; stroke-dasharray: 2.0,2.0;" x1="34" x2="265" y1="308.3125" y2="308.3125"/><text fill="#000000" font-family="sans-serif" font-size="13" lengthAdjust="spacingAndGlyphs" textLength="37" x="41" y="303.2466">String</text><polygon fill="#A80036" points="606,333.4453,616,337.4453,606,341.4453,610,337.4453" style="stroke: #A80036; stroke-width: 1.0;"/><line style="stroke: #A80036; stroke-width: 1.0;" x1="271" x2="612" y1="337.4453" y2="337.4453"/><text fill="#000000" font-family="sans-serif" font-size="13" lengthAdjust="spacingAndGlyphs" textLength="125" x="278" y="332.3794">getValidStatesList()</text><polygon fill="#A80036" points="1372,362.5781,1382,366.5781,1372,370.5781,1376,366.5781" style="stroke: #A80036; stroke-width: 1.0;"/><line style="stroke: #A80036; stroke-width: 1.0;" x1="618" x2="1378" y1="366.5781" y2="366.5781"/><text fill="#000000" font-family="sans-serif" font-size="13" lengthAdjust="spacingAndGlyphs" textLength="103" x="625" y="361.5122">getValidStates()</text><line style="stroke: #A80036; stroke-width: 1.0; stroke-dasharray: 2.0,2.0;" x1="1384" x2="1426" y1="395.7109" y2="395.7109"/><line style="stroke: #A80036; stroke-width: 1.0; stroke-dasharray: 2.0,2.0;" x1="1426" x2="1426" y1="395.7109" y2="408.7109"/><line style="stroke: #A80036; stroke-width: 1.0; stroke-dasharray: 2.0,2.0;" x1="1385" x2="1426" y1="408.7109" y2="408.7109"/><polygon fill="#A80036" points="1395,404.7109,1385,408.7109,1395,412.7109,1391,408.7109" style="stroke: #A80036; stroke-width: 1.0;"/><text fill="#000000" font-family="sans-serif" font-size="13" lengthAdjust="spacingAndGlyphs" textLength="78" x="1391" y="390.645">loadStates()</text><polygon fill="#A80036" points="629,433.8438,619,437.8438,629,441.8438,625,437.8438" style="stroke: #A80036; stroke-width: 1.0;"/><line style="stroke: #A80036; stroke-width: 1.0; stroke-dasharray: 2.0,2.0;" x1="623" x2="1383" y1="437.8438" y2="437.8438"/><text fill="#000000" font-family="sans-serif" font-size="13" lengthAdjust="spacingAndGlyphs" textLength="76" x="635" y="432.7778">List&lt;State&gt;</text><polygon fill="#A80036" points="282,462.9766,272,466.9766,282,470.9766,278,466.9766" style="stroke: #A80036; stroke-width: 1.0;"/><line style="stroke: #A80036; stroke-width: 1.0; stroke-dasharray: 2.0,2.0;" x1="276" x2="617" y1="466.9766" y2="466.9766"/><text fill="#000000" font-family="sans-serif" font-size="13" lengthAdjust="spacingAndGlyphs" textLength="79" x="288" y="461.9106">List&lt;String&gt;</text><polygon fill="#A80036" points="45,492.1094,35,496.1094,45,500.1094,41,496.1094" style="stroke: #A80036; stroke-width: 1.0;"/><line style="stroke: #A80036; stroke-width: 1.0;" x1="39" x2="270" y1="496.1094" y2="496.1094"/><text fill="#000000" font-family="sans-serif" font-size="13" lengthAdjust="spacingAndGlyphs" textLength="155" x="51" y="491.0435">inputState(List&lt;String&gt;)</text><polygon fill="#A80036" points="259,521.2422,269,525.2422,259,529.2422,263,525.2422" style="stroke: #A80036; stroke-width: 1.0;"/><line style="stroke: #A80036; stroke-width: 1.0; stroke-dasharray: 2.0,2.0;" x1="34" x2="265" y1="525.2422" y2="525.2422"/><text fill="#000000" font-family="sans-serif" font-size="13" lengthAdjust="spacingAndGlyphs" textLength="37" x="41" y="520.1763">String</text><polygon fill="#A80036" points="606,550.375,616,554.375,606,558.375,610,554.375" style="stroke: #A80036; stroke-width: 1.0;"/><line style="stroke: #A80036; stroke-width: 1.0;" x1="271" x2="612" y1="554.375" y2="554.375"/><text fill="#000000" font-family="sans-serif" font-size="13" lengthAdjust="spacingAndGlyphs" textLength="132" x="278" y="549.3091">validateState(String)</text><polygon fill="#A80036" points="1372,579.5078,1382,583.5078,1372,587.5078,1376,583.5078" style="stroke: #A80036; stroke-width: 1.0;"/><line style="stroke: #A80036; stroke-width: 1.0;" x1="618" x2="1378" y1="583.5078" y2="583.5078"/><text fill="#000000" font-family="sans-serif" font-size="13" lengthAdjust="spacingAndGlyphs" textLength="139" x="625" y="578.4419">readStateByID(String)</text><polygon fill="#A80036" points="629,608.6406,619,612.6406,629,616.6406,625,612.6406" style="stroke: #A80036; stroke-width: 1.0;"/><line style="stroke: #A80036; stroke-width: 1.0; stroke-dasharray: 2.0,2.0;" x1="623" x2="1383" y1="612.6406" y2="612.6406"/><text fill="#000000" font-family="sans-serif" font-size="13" lengthAdjust="spacingAndGlyphs" textLength="34" x="635" y="607.5747">State</text><polygon fill="#A80036" points="282,637.7734,272,641.7734,282,645.7734,278,641.7734" style="stroke: #A80036; stroke-width: 1.0;"/><line style="stroke: #A80036; stroke-width: 1.0; stroke-dasharray: 2.0,2.0;" x1="276" x2="617" y1="641.7734" y2="641.7734"/><text fill="#000000" font-family="sans-serif" font-size="13" lengthAdjust="spacingAndGlyphs" textLength="34" x="288" y="636.7075">State</text><polygon fill="#A80036" points="606,666.9063,616,670.9063,606,674.9063,610,670.9063" style="stroke: #A80036; stroke-width: 1.0;"/><line style="stroke: #A80036; stroke-width: 1.0;" x1="271" x2="612" y1="670.9063" y2="670.9063"/><text fill="#000000" font-family="sans-serif" font-size="13" lengthAdjust="spacingAndGlyphs" textLength="140" x="278" y="665.8403">getValidProductsList()</text><polygon fill="#A80036" points="1476,696.0391,1486,700.0391,1476,704.0391,1480,700.0391" style="stroke: #A80036; stroke-width: 1.0;"/><line style="stroke: #A80036; stroke-width: 1.0;" x1="618" x2="1482" y1="700.0391" y2="700.0391"/><text fill="#000000" font-family="sans-serif" font-size="13" lengthAdjust="spacingAndGlyphs" textLength="118" x="625" y="694.9731">getValidProducts()</text><line style="stroke: #A80036; stroke-width: 1.0; stroke-dasharray: 2.0,2.0;" x1="1488" x2="1530" y1="729.1719" y2="729.1719"/><line style="stroke: #A80036; stroke-width: 1.0; stroke-dasharray: 2.0,2.0;" x1="1530" x2="1530" y1="729.1719" y2="742.1719"/><line style="stroke: #A80036; stroke-width: 1.0; stroke-dasharray: 2.0,2.0;" x1="1489" x2="1530" y1="742.1719" y2="742.1719"/><polygon fill="#A80036" points="1499,738.1719,1489,742.1719,1499,746.1719,1495,742.1719" style="stroke: #A80036; stroke-width: 1.0;"/><text fill="#000000" font-family="sans-serif" font-size="13" lengthAdjust="spacingAndGlyphs" textLength="93" x="1495" y="724.106">loadProducts()</text><polygon fill="#A80036" points="629,767.3047,619,771.3047,629,775.3047,625,771.3047" style="stroke: #A80036; stroke-width: 1.0;"/><line style="stroke: #A80036; stroke-width: 1.0; stroke-dasharray: 2.0,2.0;" x1="623" x2="1487" y1="771.3047" y2="771.3047"/><text fill="#000000" font-family="sans-serif" font-size="13" lengthAdjust="spacingAndGlyphs" textLength="91" x="635" y="766.2388">List&lt;Product&gt;</text><polygon fill="#A80036" points="282,796.4375,272,800.4375,282,804.4375,278,800.4375" style="stroke: #A80036; stroke-width: 1.0;"/><line style="stroke: #A80036; stroke-width: 1.0;" x1="276" x2="617" y1="800.4375" y2="800.4375"/><text fill="#000000" font-family="sans-serif" font-size="13" lengthAdjust="spacingAndGlyphs" textLength="79" x="288" y="795.3716">List&lt;String&gt;</text><polygon fill="#A80036" points="45,825.5703,35,829.5703,45,833.5703,41,829.5703" style="stroke: #A80036; stroke-width: 1.0;"/><line style="stroke: #A80036; stroke-width: 1.0;" x1="39" x2="270" y1="829.5703" y2="829.5703"/><text fill="#000000" font-family="sans-serif" font-size="13" lengthAdjust="spacingAndGlyphs" textLength="202" x="51" y="824.5044">inputProductType(List&lt;String&gt;)</text><polygon fill="#A80036" points="259,854.7031,269,858.7031,259,862.7031,263,858.7031" style="stroke: #A80036; stroke-width: 1.0;"/><line style="stroke: #A80036; stroke-width: 1.0; stroke-dasharray: 2.0,2.0;" x1="34" x2="265" y1="858.7031" y2="858.7031"/><text fill="#000000" font-family="sans-serif" font-size="13" lengthAdjust="spacingAndGlyphs" textLength="37" x="41" y="853.6372">String</text><polygon fill="#A80036" points="606,883.8359,616,887.8359,606,891.8359,610,887.8359" style="stroke: #A80036; stroke-width: 1.0;"/><line style="stroke: #A80036; stroke-width: 1.0;" x1="271" x2="612" y1="887.8359" y2="887.8359"/><text fill="#000000" font-family="sans-serif" font-size="13" lengthAdjust="spacingAndGlyphs" textLength="179" x="278" y="882.77">validateProductType(String)</text><polygon fill="#A80036" points="1476,912.9688,1486,916.9688,1476,920.9688,1480,916.9688" style="stroke: #A80036; stroke-width: 1.0;"/><line style="stroke: #A80036; stroke-width: 1.0;" x1="618" x2="1482" y1="916.9688" y2="916.9688"/><text fill="#000000" font-family="sans-serif" font-size="13" lengthAdjust="spacingAndGlyphs" textLength="154" x="625" y="911.9028">readProductByID(String)</text><polygon fill="#A80036" points="629,942.1016,619,946.1016,629,950.1016,625,946.1016" style="stroke: #A80036; stroke-width: 1.0;"/><line style="stroke: #A80036; stroke-width: 1.0; stroke-dasharray: 2.0,2.0;" x1="623" x2="1487" y1="946.1016" y2="946.1016"/><text fill="#000000" font-family="sans-serif" font-size="13" lengthAdjust="spacingAndGlyphs" textLength="49" x="635" y="941.0356">Product</text><polygon fill="#A80036" points="282,971.2344,272,975.2344,282,979.2344,278,975.2344" style="stroke: #A80036; stroke-width: 1.0;"/><line style="stroke: #A80036; stroke-width: 1.0; stroke-dasharray: 2.0,2.0;" x1="276" x2="617" y1="975.2344" y2="975.2344"/><text fill="#000000" font-family="sans-serif" font-size="13" lengthAdjust="spacingAndGlyphs" textLength="49" x="288" y="970.1685">Product</text><polygon fill="#A80036" points="45,1000.3672,35,1004.3672,45,1008.3672,41,1004.3672" style="stroke: #A80036; stroke-width: 1.0;"/><line style="stroke: #A80036; stroke-width: 1.0;" x1="39" x2="270" y1="1004.3672" y2="1004.3672"/><text fill="#000000" font-family="sans-serif" font-size="13" lengthAdjust="spacingAndGlyphs" textLength="72" x="51" y="999.3013">inputArea()</text><polygon fill="#A80036" points="259,1029.5,269,1033.5,259,1037.5,263,1033.5" style="stroke: #A80036; stroke-width: 1.0;"/><line style="stroke: #A80036; stroke-width: 1.0; stroke-dasharray: 2.0,2.0;" x1="34" x2="265" y1="1033.5" y2="1033.5"/><text fill="#000000" font-family="sans-serif" font-size="13" lengthAdjust="spacingAndGlyphs" textLength="71" x="41" y="1028.4341">BigDecimal</text><line style="stroke: #A80036; stroke-width: 1.0; stroke-dasharray: 2.0,2.0;" x1="271" x2="313" y1="1062.6328" y2="1062.6328"/><line style="stroke: #A80036; stroke-width: 1.0; stroke-dasharray: 2.0,2.0;" x1="313" x2="313" y1="1062.6328" y2="1075.6328"/><line style="stroke: #A80036; stroke-width: 1.0; stroke-dasharray: 2.0,2.0;" x1="272" x2="313" y1="1075.6328" y2="1075.6328"/><polygon fill="#A80036" points="282,1071.6328,272,1075.6328,282,1079.6328,278,1075.6328" style="stroke: #A80036; stroke-width: 1.0;"/><text fill="#000000" font-family="sans-serif" font-size="13" lengthAdjust="spacingAndGlyphs" textLength="333" x="278" y="1057.5669">Order(LocalDate, String, State, Product, BigDecimal)</text><polygon fill="#A80036" points="606,1100.7656,616,1104.7656,606,1108.7656,610,1104.7656" style="stroke: #A80036; stroke-width: 1.0;"/><line style="stroke: #A80036; stroke-width: 1.0; stroke-dasharray: 2.0,2.0;" x1="271" x2="612" y1="1104.7656" y2="1104.7656"/><text fill="#000000" font-family="sans-serif" font-size="13" lengthAdjust="spacingAndGlyphs" textLength="36" x="278" y="1099.6997">Order</text><polygon fill="#A80036" points="606,1129.8984,616,1133.8984,606,1137.8984,610,1133.8984" style="stroke: #A80036; stroke-width: 1.0;"/><line style="stroke: #A80036; stroke-width: 1.0;" x1="271" x2="612" y1="1133.8984" y2="1133.8984"/><text fill="#000000" font-family="sans-serif" font-size="13" lengthAdjust="spacingAndGlyphs" textLength="106" x="278" y="1128.8325">addOrder(Order)</text><line style="stroke: #A80036; stroke-width: 1.0; stroke-dasharray: 2.0,2.0;" x1="618" x2="660" y1="1163.0313" y2="1163.0313"/><line style="stroke: #A80036; stroke-width: 1.0; stroke-dasharray: 2.0,2.0;" x1="660" x2="660" y1="1163.0313" y2="1176.0313"/><line style="stroke: #A80036; stroke-width: 1.0; stroke-dasharray: 2.0,2.0;" x1="619" x2="660" y1="1176.0313" y2="1176.0313"/><polygon fill="#A80036" points="629,1172.0313,619,1176.0313,629,1180.0313,625,1176.0313" style="stroke: #A80036; stroke-width: 1.0;"/><text fill="#000000" font-family="sans-serif" font-size="13" lengthAdjust="spacingAndGlyphs" textLength="114" x="625" y="1157.9653">calcMaterialCost()</text><line style="stroke: #A80036; stroke-width: 1.0; stroke-dasharray: 2.0,2.0;" x1="618" x2="660" y1="1205.1641" y2="1205.1641"/><line style="stroke: #A80036; stroke-width: 1.0; stroke-dasharray: 2.0,2.0;" x1="660" x2="660" y1="1205.1641" y2="1218.1641"/><line style="stroke: #A80036; stroke-width: 1.0; stroke-dasharray: 2.0,2.0;" x1="619" x2="660" y1="1218.1641" y2="1218.1641"/><polygon fill="#A80036" points="629,1214.1641,619,1218.1641,629,1222.1641,625,1218.1641" style="stroke: #A80036; stroke-width: 1.0;"/><text fill="#000000" font-family="sans-serif" font-size="13" lengthAdjust="spacingAndGlyphs" textLength="100" x="625" y="1200.0981">calcLaborCost()</text><line style="stroke: #A80036; stroke-width: 1.0; stroke-dasharray: 2.0,2.0;" x1="618" x2="660" y1="1247.2969" y2="1247.2969"/><line style="stroke: #A80036; stroke-width: 1.0; stroke-dasharray: 2.0,2.0;" x1="660" x2="660" y1="1247.2969" y2="1260.2969"/><line style="stroke: #A80036; stroke-width: 1.0; stroke-dasharray: 2.0,2.0;" x1="619" x2="660" y1="1260.2969" y2="1260.2969"/><polygon fill="#A80036" points="629,1256.2969,619,1260.2969,629,1264.2969,625,1260.2969" style="stroke: #A80036; stroke-width: 1.0;"/><text fill="#000000" font-family="sans-serif" font-size="13" lengthAdjust="spacingAndGlyphs" textLength="59" x="625" y="1242.231">calcTax()</text><line style="stroke: #A80036; stroke-width: 1.0; stroke-dasharray: 2.0,2.0;" x1="618" x2="660" y1="1289.4297" y2="1289.4297"/><line style="stroke: #A80036; stroke-width: 1.0; stroke-dasharray: 2.0,2.0;" x1="660" x2="660" y1="1289.4297" y2="1302.4297"/><line style="stroke: #A80036; stroke-width: 1.0; stroke-dasharray: 2.0,2.0;" x1="619" x2="660" y1="1302.4297" y2="1302.4297"/><polygon fill="#A80036" points="629,1298.4297,619,1302.4297,629,1306.4297,625,1302.4297" style="stroke: #A80036; stroke-width: 1.0;"/><text fill="#000000" font-family="sans-serif" font-size="13" lengthAdjust="spacingAndGlyphs" textLength="67" x="625" y="1284.3638">calcTotal()</text><line style="stroke: #A80036; stroke-width: 1.0; stroke-dasharray: 2.0,2.0;" x1="618" x2="660" y1="1331.5625" y2="1331.5625"/><line style="stroke: #A80036; stroke-width: 1.0; stroke-dasharray: 2.0,2.0;" x1="660" x2="660" y1="1331.5625" y2="1344.5625"/><line style="stroke: #A80036; stroke-width: 1.0; stroke-dasharray: 2.0,2.0;" x1="619" x2="660" y1="1344.5625" y2="1344.5625"/><polygon fill="#A80036" points="629,1340.5625,619,1344.5625,629,1348.5625,625,1344.5625" style="stroke: #A80036; stroke-width: 1.0;"/><text fill="#000000" font-family="sans-serif" font-size="13" lengthAdjust="spacingAndGlyphs" textLength="166" x="625" y="1326.4966">getHighestOrderNumber()</text><line style="stroke: #A80036; stroke-width: 1.0; stroke-dasharray: 2.0,2.0;" x1="618" x2="660" y1="1373.6953" y2="1373.6953"/><line style="stroke: #A80036; stroke-width: 1.0; stroke-dasharray: 2.0,2.0;" x1="660" x2="660" y1="1373.6953" y2="1386.6953"/><line style="stroke: #A80036; stroke-width: 1.0; stroke-dasharray: 2.0,2.0;" x1="619" x2="660" y1="1386.6953" y2="1386.6953"/><polygon fill="#A80036" points="629,1382.6953,619,1386.6953,629,1390.6953,625,1386.6953" style="stroke: #A80036; stroke-width: 1.0;"/><text fill="#000000" font-family="sans-serif" font-size="13" lengthAdjust="spacingAndGlyphs" textLength="752" x="625" y="1368.6294">Order(LocalDate, int, String, State, Product, BigDecimal, BigDecimal, BigDecimal, BigDecimal, BigDecimal, BigDecimal)</text><polygon fill="#A80036" points="45,1411.8281,35,1415.8281,45,1419.8281,41,1415.8281" style="stroke: #A80036; stroke-width: 1.0;"/><line style="stroke: #A80036; stroke-width: 1.0;" x1="39" x2="270" y1="1415.8281" y2="1415.8281"/><text fill="#000000" font-family="sans-serif" font-size="13" lengthAdjust="spacingAndGlyphs" textLength="123" x="51" y="1410.7622">confirmNewOrder()</text><polygon fill="#A80036" points="259,1440.9609,269,1444.9609,259,1448.9609,263,1444.9609" style="stroke: #A80036; stroke-width: 1.0;"/><line style="stroke: #A80036; stroke-width: 1.0; stroke-dasharray: 2.0,2.0;" x1="34" x2="265" y1="1444.9609" y2="1444.9609"/><text fill="#000000" font-family="sans-serif" font-size="13" lengthAdjust="spacingAndGlyphs" textLength="51" x="41" y="1439.895">boolean</text><polygon fill="#A80036" points="606,1470.0938,616,1474.0938,606,1478.0938,610,1474.0938" style="stroke: #A80036; stroke-width: 1.0;"/><line style="stroke: #A80036; stroke-width: 1.0; stroke-dasharray: 2.0,2.0;" x1="271" x2="612" y1="1474.0938" y2="1474.0938"/><text fill="#000000" font-family="sans-serif" font-size="13" lengthAdjust="spacingAndGlyphs" textLength="27" x="278" y="1469.0278">void</text><line style="stroke: #A80036; stroke-width: 1.0; stroke-dasharray: 2.0,2.0;" x1="1595" x2="1637" y1="1503.2266" y2="1503.2266"/><line style="stroke: #A80036; stroke-width: 1.0; stroke-dasharray: 2.0,2.0;" x1="1637" x2="1637" y1="1503.2266" y2="1516.2266"/><line style="stroke: #A80036; stroke-width: 1.0; stroke-dasharray: 2.0,2.0;" x1="1596" x2="1637" y1="1516.2266" y2="1516.2266"/><polygon fill="#A80036" points="1606,1512.2266,1596,1516.2266,1606,1520.2266,1602,1516.2266" style="stroke: #A80036; stroke-width: 1.0;"/><text fill="#000000" font-family="sans-serif" font-size="13" lengthAdjust="spacingAndGlyphs" textLength="95" x="1602" y="1498.1606">loadAllOrders()</text><polygon fill="#A80036" points="1583,1541.3594,1593,1545.3594,1583,1549.3594,1587,1545.3594" style="stroke: #A80036; stroke-width: 1.0;"/><line style="stroke: #A80036; stroke-width: 1.0;" x1="618" x2="1589" y1="1545.3594" y2="1545.3594"/><text fill="#000000" font-family="sans-serif" font-size="13" lengthAdjust="spacingAndGlyphs" textLength="106" x="625" y="1540.2935">addOrder(Order)</text><polygon fill="#A80036" points="629,1570.4922,619,1574.4922,629,1578.4922,625,1574.4922" style="stroke: #A80036; stroke-width: 1.0;"/><line style="stroke: #A80036; stroke-width: 1.0; stroke-dasharray: 2.0,2.0;" x1="623" x2="1594" y1="1574.4922" y2="1574.4922"/><text fill="#000000" font-family="sans-serif" font-size="13" lengthAdjust="spacingAndGlyphs" textLength="36" x="635" y="1569.4263">Order</text><line style="stroke: #A80036; stroke-width: 1.0; stroke-dasharray: 2.0,2.0;" x1="1595" x2="1637" y1="1603.625" y2="1603.625"/><line style="stroke: #A80036; stroke-width: 1.0; stroke-dasharray: 2.0,2.0;" x1="1637" x2="1637" y1="1603.625" y2="1616.625"/><line style="stroke: #A80036; stroke-width: 1.0; stroke-dasharray: 2.0,2.0;" x1="1596" x2="1637" y1="1616.625" y2="1616.625"/><polygon fill="#A80036" points="1606,1612.625,1596,1616.625,1606,1620.625,1602,1616.625" style="stroke: #A80036; stroke-width: 1.0;"/><text fill="#000000" font-family="sans-serif" font-size="13" lengthAdjust="spacingAndGlyphs" textLength="100" x="1602" y="1598.5591">writeAllOrders()</text><polygon fill="#A80036" points="282,1641.7578,272,1645.7578,282,1649.7578,278,1645.7578" style="stroke: #A80036; stroke-width: 1.0;"/><line style="stroke: #A80036; stroke-width: 1.0; stroke-dasharray: 2.0,2.0;" x1="276" x2="617" y1="1645.7578" y2="1645.7578"/><text fill="#000000" font-family="sans-serif" font-size="13" lengthAdjust="spacingAndGlyphs" textLength="36" x="288" y="1640.6919">Order</text><polygon fill="#A80036" points="45,1670.8906,35,1674.8906,45,1678.8906,41,1674.8906" style="stroke: #A80036; stroke-width: 1.0;"/><line style="stroke: #A80036; stroke-width: 1.0;" x1="39" x2="270" y1="1674.8906" y2="1674.8906"/><text fill="#000000" font-family="sans-serif" font-size="13" lengthAdjust="spacingAndGlyphs" textLength="151" x="51" y="1669.8247">displayOrderInfo(Order)</text><polygon fill="#A80036" points="259,1700.0234,269,1704.0234,259,1708.0234,263,1704.0234" style="stroke: #A80036; stroke-width: 1.0;"/><line style="stroke: #A80036; stroke-width: 1.0; stroke-dasharray: 2.0,2.0;" x1="34" x2="265" y1="1704.0234" y2="1704.0234"/><text fill="#000000" font-family="sans-serif" font-size="13" lengthAdjust="spacingAndGlyphs" textLength="27" x="41" y="1698.9575">void</text><polygon fill="#A80036" points="45,1729.1563,35,1733.1563,45,1737.1563,41,1733.1563" style="stroke: #A80036; stroke-width: 1.0;"/><line style="stroke: #A80036; stroke-width: 1.0;" x1="39" x2="270" y1="1733.1563" y2="1733.1563"/><text fill="#000000" font-family="sans-serif" font-size="13" lengthAdjust="spacingAndGlyphs" textLength="213" x="51" y="1728.0903">displayAddOrderSuccessBanner()</text><polygon fill="#A80036" points="259,1758.2891,269,1762.2891,259,1766.2891,263,1762.2891" style="stroke: #A80036; stroke-width: 1.0;"/><line style="stroke: #A80036; stroke-width: 1.0; stroke-dasharray: 2.0,2.0;" x1="34" x2="265" y1="1762.2891" y2="1762.2891"/><text fill="#000000" font-family="sans-serif" font-size="13" lengthAdjust="spacingAndGlyphs" textLength="27" x="41" y="1757.2231">void</text><!--MD5=[0f287666316785927c927ff27097e04e]
@startuml
title TSG Flooring Corp - addOrder() Sequence

View <- Controller : displayAddOrderBanner()
View - -> Controller : void 

View <- Controller : inputOrderDate()
View - -> Controller : LocalDate
Controller -> Service : validateOrderDate(LocalDate)
'to ensure this is a future date
Service - -> Controller : LocalDate

View <- Controller : inputCustomerName()
'validation done w regex
View - -> Controller : String

Controller -> Service : getValidStatesList()
Service -> StateDao : getValidStates()
StateDao - -> StateDao : loadStates()
StateDao - -> Service : List<State>
Service - -> Controller : List<String>
View <- Controller : inputState(List<String>)
View - -> Controller : String
Controller -> Service : validateState(String)
Service -> StateDao : readStateByID(String)
StateDao - -> Service : State
Service - -> Controller : State

Controller -> Service : getValidProductsList()
Service -> ProductDao : getValidProducts()
ProductDao - -> ProductDao : loadProducts()
ProductDao - -> Service : List<Product>
Service -> Controller : List<String>
View <- Controller : inputProductType(List<String>)
View - -> Controller : String
Controller -> Service : validateProductType(String)
Service -> ProductDao : readProductByID(String)
ProductDao - -> Service : Product
Service - -> Controller : Product

View <- Controller : inputArea()
View - -> Controller : BigDecimal

Controller - -> Controller : Order(LocalDate, String, State, Product, BigDecimal)

Controller - -> Service : Order
Controller -> Service: addOrder(Order)
Service - -> Service : calcMaterialCost()
Service - -> Service : calcLaborCost()
Service - -> Service : calcTax()
Service - -> Service : calcTotal()
Service - -> Service : getHighestOrderNumber()
Service - -> Service : Order(LocalDate, int, String, State, Product, BigDecimal, BigDecimal, BigDecimal, BigDecimal, BigDecimal, BigDecimal)

Controller -> View : confirmNewOrder()
View - -> Controller : boolean

Controller - -> Service : void
OrderDao - -> OrderDao : loadAllOrders()
Service -> OrderDao : addOrder(Order)
OrderDao - -> Service : Order
OrderDao - -> OrderDao : writeAllOrders()
'write to backup file
Service - -> Controller : Order

'OrderDao -[#blue]-> AuditDao : writeAuditEntry()

Controller -> View : displayOrderInfo(Order)
View - -> Controller : void

Controller -> View : displayAddOrderSuccessBanner()
View - -> Controller : void
@enduml

@startuml
title TSG Flooring Corp - addOrder() Sequence

View <- Controller : displayAddOrderBanner()
View - -> Controller : void 

View <- Controller : inputOrderDate()
View - -> Controller : LocalDate
Controller -> Service : validateOrderDate(LocalDate)
Service - -> Controller : LocalDate

View <- Controller : inputCustomerName()
View - -> Controller : String

Controller -> Service : getValidStatesList()
Service -> StateDao : getValidStates()
StateDao - -> StateDao : loadStates()
StateDao - -> Service : List<State>
Service - -> Controller : List<String>
View <- Controller : inputState(List<String>)
View - -> Controller : String
Controller -> Service : validateState(String)
Service -> StateDao : readStateByID(String)
StateDao - -> Service : State
Service - -> Controller : State

Controller -> Service : getValidProductsList()
Service -> ProductDao : getValidProducts()
ProductDao - -> ProductDao : loadProducts()
ProductDao - -> Service : List<Product>
Service -> Controller : List<String>
View <- Controller : inputProductType(List<String>)
View - -> Controller : String
Controller -> Service : validateProductType(String)
Service -> ProductDao : readProductByID(String)
ProductDao - -> Service : Product
Service - -> Controller : Product

View <- Controller : inputArea()
View - -> Controller : BigDecimal

Controller - -> Controller : Order(LocalDate, String, State, Product, BigDecimal)

Controller - -> Service : Order
Controller -> Service: addOrder(Order)
Service - -> Service : calcMaterialCost()
Service - -> Service : calcLaborCost()
Service - -> Service : calcTax()
Service - -> Service : calcTotal()
Service - -> Service : getHighestOrderNumber()
Service - -> Service : Order(LocalDate, int, String, State, Product, BigDecimal, BigDecimal, BigDecimal, BigDecimal, BigDecimal, BigDecimal)

Controller -> View : confirmNewOrder()
View - -> Controller : boolean

Controller - -> Service : void
OrderDao - -> OrderDao : loadAllOrders()
Service -> OrderDao : addOrder(Order)
OrderDao - -> Service : Order
OrderDao - -> OrderDao : writeAllOrders()
Service - -> Controller : Order


Controller -> View : displayOrderInfo(Order)
View - -> Controller : void

Controller -> View : displayAddOrderSuccessBanner()
View - -> Controller : void
@enduml

PlantUML version 1.2020.16beta3(Unknown compile time)
(GPL source distribution)
Java Runtime: Java(TM) SE Runtime Environment
JVM: Java HotSpot(TM) 64-Bit Server VM
Default Encoding: UTF-8
Language: en
Country: US
--></g></svg>