<?xml version="1.0" encoding="UTF-8" standalone="no"?><svg xmlns="http://www.w3.org/2000/svg" xmlns:xlink="http://www.w3.org/1999/xlink" contentScriptType="application/ecmascript" contentStyleType="text/css" height="1585px" preserveAspectRatio="none" style="width:1715px;height:1585px;" version="1.1" viewBox="0 0 1715 1585" width="1715px" zoomAndPan="magnify"><defs><filter height="300%" id="f1psdj43chs3fm" width="300%" x="-1" y="-1"><feGaussianBlur result="blurOut" stdDeviation="2.0"/><feColorMatrix in="blurOut" result="blurOut2" type="matrix" values="0 0 0 0 0 0 0 0 0 0 0 0 0 0 0 0 0 0 .4 0"/><feOffset dx="4.0" dy="4.0" in="blurOut2" result="blurOut3"/><feBlend in="SourceGraphic" in2="blurOut3" mode="normal"/></filter></defs><g><text fill="#000000" font-family="sans-serif" font-size="18" lengthAdjust="spacingAndGlyphs" textLength="382" x="665.5" y="26.708">TSG Flooring Corp - addOrder() Sequence</text><line style="stroke: #A80036; stroke-width: 1.0; stroke-dasharray: 5.0,5.0;" x1="34" x2="34" y1="73.25" y2="1537.3594"/><line style="stroke: #A80036; stroke-width: 1.0; stroke-dasharray: 5.0,5.0;" x1="271.5" x2="271.5" y1="73.25" y2="1537.3594"/><line style="stroke: #A80036; stroke-width: 1.0; stroke-dasharray: 5.0,5.0;" x1="618.5" x2="618.5" y1="73.25" y2="1537.3594"/><line style="stroke: #A80036; stroke-width: 1.0; stroke-dasharray: 5.0,5.0;" x1="1385" x2="1385" y1="73.25" y2="1537.3594"/><line style="stroke: #A80036; stroke-width: 1.0; stroke-dasharray: 5.0,5.0;" x1="1489" x2="1489" y1="73.25" y2="1537.3594"/><line style="stroke: #A80036; stroke-width: 1.0; stroke-dasharray: 5.0,5.0;" x1="1595.5" x2="1595.5" y1="73.25" y2="1537.3594"/><rect fill="#FEFECE" filter="url(#f1psdj43chs3fm)" height="30.2969" style="stroke: #A80036; stroke-width: 1.5;" width="48" x="8" y="37.9531"/><text fill="#000000" font-family="sans-serif" font-size="14" lengthAdjust="spacingAndGlyphs" textLength="34" x="15" y="57.9482">View</text><rect fill="#FEFECE" filter="url(#f1psdj43chs3fm)" height="30.2969" style="stroke: #A80036; stroke-width: 1.5;" width="48" x="8" y="1536.3594"/><text fill="#000000" font-family="sans-serif" font-size="14" lengthAdjust="spacingAndGlyphs" textLength="34" x="15" y="1556.3545">View</text><rect fill="#FEFECE" filter="url(#f1psdj43chs3fm)" height="30.2969" style="stroke: #A80036; stroke-width: 1.5;" width="87" x="226.5" y="37.9531"/><text fill="#000000" font-family="sans-serif" font-size="14" lengthAdjust="spacingAndGlyphs" textLength="73" x="233.5" y="57.9482">Controller</text><rect fill="#FEFECE" filter="url(#f1psdj43chs3fm)" height="30.2969" style="stroke: #A80036; stroke-width: 1.5;" width="87" x="226.5" y="1536.3594"/><text fill="#000000" font-family="sans-serif" font-size="14" lengthAdjust="spacingAndGlyphs" textLength="73" x="233.5" y="1556.3545">Controller</text><rect fill="#FEFECE" filter="url(#f1psdj43chs3fm)" height="30.2969" style="stroke: #A80036; stroke-width: 1.5;" width="67" x="583.5" y="37.9531"/><text fill="#000000" font-family="sans-serif" font-size="14" lengthAdjust="spacingAndGlyphs" textLength="53" x="590.5" y="57.9482">Service</text><rect fill="#FEFECE" filter="url(#f1psdj43chs3fm)" height="30.2969" style="stroke: #A80036; stroke-width: 1.5;" width="67" x="583.5" y="1536.3594"/><text fill="#000000" font-family="sans-serif" font-size="14" lengthAdjust="spacingAndGlyphs" textLength="53" x="590.5" y="1556.3545">Service</text><rect fill="#FEFECE" filter="url(#f1psdj43chs3fm)" height="30.2969" style="stroke: #A80036; stroke-width: 1.5;" width="82" x="1342" y="37.9531"/><text fill="#000000" font-family="sans-serif" font-size="14" lengthAdjust="spacingAndGlyphs" textLength="68" x="1349" y="57.9482">StateDao</text><rect fill="#FEFECE" filter="url(#f1psdj43chs3fm)" height="30.2969" style="stroke: #A80036; stroke-width: 1.5;" width="82" x="1342" y="1536.3594"/><text fill="#000000" font-family="sans-serif" font-size="14" lengthAdjust="spacingAndGlyphs" textLength="68" x="1349" y="1556.3545">StateDao</text><rect fill="#FEFECE" filter="url(#f1psdj43chs3fm)" height="30.2969" style="stroke: #A80036; stroke-width: 1.5;" width="98" x="1438" y="37.9531"/><text fill="#000000" font-family="sans-serif" font-size="14" lengthAdjust="spacingAndGlyphs" textLength="84" x="1445" y="57.9482">ProductDao</text><rect fill="#FEFECE" filter="url(#f1psdj43chs3fm)" height="30.2969" style="stroke: #A80036; stroke-width: 1.5;" width="98" x="1438" y="1536.3594"/><text fill="#000000" font-family="sans-serif" font-size="14" lengthAdjust="spacingAndGlyphs" textLength="84" x="1445" y="1556.3545">ProductDao</text><rect fill="#FEFECE" filter="url(#f1psdj43chs3fm)" height="30.2969" style="stroke: #A80036; stroke-width: 1.5;" width="83" x="1552.5" y="37.9531"/><text fill="#000000" font-family="sans-serif" font-size="14" lengthAdjust="spacingAndGlyphs" textLength="69" x="1559.5" y="57.9482">OrderDao</text><rect fill="#FEFECE" filter="url(#f1psdj43chs3fm)" height="30.2969" style="stroke: #A80036; stroke-width: 1.5;" width="83" x="1552.5" y="1536.3594"/><text fill="#000000" font-family="sans-serif" font-size="14" lengthAdjust="spacingAndGlyphs" textLength="69" x="1559.5" y="1556.3545">OrderDao</text><polygon fill="#A80036" points="45,100.3828,35,104.3828,45,108.3828,41,104.3828" style="stroke: #A80036; stroke-width: 1.0;"/><line style="stroke: #A80036; stroke-width: 1.0;" x1="39" x2="271" y1="104.3828" y2="104.3828"/><text fill="#000000" font-family="sans-serif" font-size="13" lengthAdjust="spacingAndGlyphs" textLength="161" x="51" y="99.3169">displayAddOrderBanner()</text><polygon fill="#A80036" points="260,129.5156,270,133.5156,260,137.5156,264,133.5156" style="stroke: #A80036; stroke-width: 1.0;"/><line style="stroke: #A80036; stroke-width: 1.0; stroke-dasharray: 2.0,2.0;" x1="34" x2="266" y1="133.5156" y2="133.5156"/><text fill="#000000" font-family="sans-serif" font-size="13" lengthAdjust="spacingAndGlyphs" textLength="27" x="41" y="128.4497">void</text><polygon fill="#A80036" points="45,158.6484,35,162.6484,45,166.6484,41,162.6484" style="stroke: #A80036; stroke-width: 1.0;"/><line style="stroke: #A80036; stroke-width: 1.0;" x1="39" x2="271" y1="162.6484" y2="162.6484"/><text fill="#000000" font-family="sans-serif" font-size="13" lengthAdjust="spacingAndGlyphs" textLength="109" x="51" y="157.5825">inputOrderDate()</text><polygon fill="#A80036" points="260,187.7813,270,191.7813,260,195.7813,264,191.7813" style="stroke: #A80036; stroke-width: 1.0;"/><line style="stroke: #A80036; stroke-width: 1.0; stroke-dasharray: 2.0,2.0;" x1="34" x2="266" y1="191.7813" y2="191.7813"/><text fill="#000000" font-family="sans-serif" font-size="13" lengthAdjust="spacingAndGlyphs" textLength="64" x="41" y="186.7153">LocalDate</text><polygon fill="#A80036" points="607,216.9141,617,220.9141,607,224.9141,611,220.9141" style="stroke: #A80036; stroke-width: 1.0;"/><line style="stroke: #A80036; stroke-width: 1.0;" x1="272" x2="613" y1="220.9141" y2="220.9141"/><text fill="#000000" font-family="sans-serif" font-size="13" lengthAdjust="spacingAndGlyphs" textLength="192" x="279" y="215.8481">validateOrderDate(LocalDate)</text><polygon fill="#A80036" points="283,246.0469,273,250.0469,283,254.0469,279,250.0469" style="stroke: #A80036; stroke-width: 1.0;"/><line style="stroke: #A80036; stroke-width: 1.0; stroke-dasharray: 2.0,2.0;" x1="277" x2="618" y1="250.0469" y2="250.0469"/><text fill="#000000" font-family="sans-serif" font-size="13" lengthAdjust="spacingAndGlyphs" textLength="64" x="289" y="244.981">LocalDate</text><polygon fill="#A80036" points="45,275.1797,35,279.1797,45,283.1797,41,279.1797" style="stroke: #A80036; stroke-width: 1.0;"/><line style="stroke: #A80036; stroke-width: 1.0;" x1="39" x2="271" y1="279.1797" y2="279.1797"/><text fill="#000000" font-family="sans-serif" font-size="13" lengthAdjust="spacingAndGlyphs" textLength="143" x="51" y="274.1138">inputCustomerName()</text><polygon fill="#A80036" points="260,304.3125,270,308.3125,260,312.3125,264,308.3125" style="stroke: #A80036; stroke-width: 1.0;"/><line style="stroke: #A80036; stroke-width: 1.0; stroke-dasharray: 2.0,2.0;" x1="34" x2="266" y1="308.3125" y2="308.3125"/><text fill="#000000" font-family="sans-serif" font-size="13" lengthAdjust="spacingAndGlyphs" textLength="37" x="41" y="303.2466">String</text><polygon fill="#A80036" points="607,333.4453,617,337.4453,607,341.4453,611,337.4453" style="stroke: #A80036; stroke-width: 1.0;"/><line style="stroke: #A80036; stroke-width: 1.0;" x1="272" x2="613" y1="337.4453" y2="337.4453"/><text fill="#000000" font-family="sans-serif" font-size="13" lengthAdjust="spacingAndGlyphs" textLength="125" x="279" y="332.3794">getValidStatesList()</text><polygon fill="#A80036" points="1373,362.5781,1383,366.5781,1373,370.5781,1377,366.5781" style="stroke: #A80036; stroke-width: 1.0;"/><line style="stroke: #A80036; stroke-width: 1.0;" x1="619" x2="1379" y1="366.5781" y2="366.5781"/><text fill="#000000" font-family="sans-serif" font-size="13" lengthAdjust="spacingAndGlyphs" textLength="103" x="626" y="361.5122">getValidStates()</text><line style="stroke: #A80036; stroke-width: 1.0; stroke-dasharray: 2.0,2.0;" x1="1385" x2="1427" y1="395.7109" y2="395.7109"/><line style="stroke: #A80036; stroke-width: 1.0; stroke-dasharray: 2.0,2.0;" x1="1427" x2="1427" y1="395.7109" y2="408.7109"/><line style="stroke: #A80036; stroke-width: 1.0; stroke-dasharray: 2.0,2.0;" x1="1386" x2="1427" y1="408.7109" y2="408.7109"/><polygon fill="#A80036" points="1396,404.7109,1386,408.7109,1396,412.7109,1392,408.7109" style="stroke: #A80036; stroke-width: 1.0;"/><text fill="#000000" font-family="sans-serif" font-size="13" lengthAdjust="spacingAndGlyphs" textLength="78" x="1392" y="390.645">loadStates()</text><polygon fill="#A80036" points="630,433.8438,620,437.8438,630,441.8438,626,437.8438" style="stroke: #A80036; stroke-width: 1.0;"/><line style="stroke: #A80036; stroke-width: 1.0; stroke-dasharray: 2.0,2.0;" x1="624" x2="1384" y1="437.8438" y2="437.8438"/><text fill="#000000" font-family="sans-serif" font-size="13" lengthAdjust="spacingAndGlyphs" textLength="76" x="636" y="432.7778">List&lt;State&gt;</text><polygon fill="#A80036" points="283,462.9766,273,466.9766,283,470.9766,279,466.9766" style="stroke: #A80036; stroke-width: 1.0;"/><line style="stroke: #A80036; stroke-width: 1.0; stroke-dasharray: 2.0,2.0;" x1="277" x2="618" y1="466.9766" y2="466.9766"/><text fill="#000000" font-family="sans-serif" font-size="13" lengthAdjust="spacingAndGlyphs" textLength="76" x="289" y="461.9106">List&lt;State&gt;</text><polygon fill="#A80036" points="45,492.1094,35,496.1094,45,500.1094,41,496.1094" style="stroke: #A80036; stroke-width: 1.0;"/><line style="stroke: #A80036; stroke-width: 1.0;" x1="39" x2="271" y1="496.1094" y2="496.1094"/><text fill="#000000" font-family="sans-serif" font-size="13" lengthAdjust="spacingAndGlyphs" textLength="152" x="51" y="491.0435">inputState(List&lt;State&gt;)</text><polygon fill="#A80036" points="260,521.2422,270,525.2422,260,529.2422,264,525.2422" style="stroke: #A80036; stroke-width: 1.0;"/><line style="stroke: #A80036; stroke-width: 1.0; stroke-dasharray: 2.0,2.0;" x1="34" x2="266" y1="525.2422" y2="525.2422"/><text fill="#000000" font-family="sans-serif" font-size="13" lengthAdjust="spacingAndGlyphs" textLength="37" x="41" y="520.1763">String</text><polygon fill="#A80036" points="607,550.375,617,554.375,607,558.375,611,554.375" style="stroke: #A80036; stroke-width: 1.0;"/><line style="stroke: #A80036; stroke-width: 1.0;" x1="272" x2="613" y1="554.375" y2="554.375"/><text fill="#000000" font-family="sans-serif" font-size="13" lengthAdjust="spacingAndGlyphs" textLength="216" x="279" y="549.3091">validateState(String, List&lt;State&gt;)</text><polygon fill="#A80036" points="283,579.5078,273,583.5078,283,587.5078,279,583.5078" style="stroke: #A80036; stroke-width: 1.0;"/><line style="stroke: #A80036; stroke-width: 1.0; stroke-dasharray: 2.0,2.0;" x1="277" x2="618" y1="583.5078" y2="583.5078"/><text fill="#000000" font-family="sans-serif" font-size="13" lengthAdjust="spacingAndGlyphs" textLength="34" x="289" y="578.4419">State</text><polygon fill="#A80036" points="607,608.6406,617,612.6406,607,616.6406,611,612.6406" style="stroke: #A80036; stroke-width: 1.0;"/><line style="stroke: #A80036; stroke-width: 1.0;" x1="272" x2="613" y1="612.6406" y2="612.6406"/><text fill="#000000" font-family="sans-serif" font-size="13" lengthAdjust="spacingAndGlyphs" textLength="140" x="279" y="607.5747">getValidProductsList()</text><polygon fill="#A80036" points="1477,637.7734,1487,641.7734,1477,645.7734,1481,641.7734" style="stroke: #A80036; stroke-width: 1.0;"/><line style="stroke: #A80036; stroke-width: 1.0;" x1="619" x2="1483" y1="641.7734" y2="641.7734"/><text fill="#000000" font-family="sans-serif" font-size="13" lengthAdjust="spacingAndGlyphs" textLength="118" x="626" y="636.7075">getValidProducts()</text><line style="stroke: #A80036; stroke-width: 1.0; stroke-dasharray: 2.0,2.0;" x1="1489" x2="1531" y1="670.9063" y2="670.9063"/><line style="stroke: #A80036; stroke-width: 1.0; stroke-dasharray: 2.0,2.0;" x1="1531" x2="1531" y1="670.9063" y2="683.9063"/><line style="stroke: #A80036; stroke-width: 1.0; stroke-dasharray: 2.0,2.0;" x1="1490" x2="1531" y1="683.9063" y2="683.9063"/><polygon fill="#A80036" points="1500,679.9063,1490,683.9063,1500,687.9063,1496,683.9063" style="stroke: #A80036; stroke-width: 1.0;"/><text fill="#000000" font-family="sans-serif" font-size="13" lengthAdjust="spacingAndGlyphs" textLength="93" x="1496" y="665.8403">loadProducts()</text><polygon fill="#A80036" points="630,709.0391,620,713.0391,630,717.0391,626,713.0391" style="stroke: #A80036; stroke-width: 1.0;"/><line style="stroke: #A80036; stroke-width: 1.0; stroke-dasharray: 2.0,2.0;" x1="624" x2="1488" y1="713.0391" y2="713.0391"/><text fill="#000000" font-family="sans-serif" font-size="13" lengthAdjust="spacingAndGlyphs" textLength="91" x="636" y="707.9731">List&lt;Product&gt;</text><polygon fill="#A80036" points="283,738.1719,273,742.1719,283,746.1719,279,742.1719" style="stroke: #A80036; stroke-width: 1.0;"/><line style="stroke: #A80036; stroke-width: 1.0; stroke-dasharray: 2.0,2.0;" x1="277" x2="618" y1="742.1719" y2="742.1719"/><text fill="#000000" font-family="sans-serif" font-size="13" lengthAdjust="spacingAndGlyphs" textLength="91" x="289" y="737.106">List&lt;Product&gt;</text><polygon fill="#A80036" points="45,767.3047,35,771.3047,45,775.3047,41,771.3047" style="stroke: #A80036; stroke-width: 1.0;"/><line style="stroke: #A80036; stroke-width: 1.0;" x1="39" x2="271" y1="771.3047" y2="771.3047"/><text fill="#000000" font-family="sans-serif" font-size="13" lengthAdjust="spacingAndGlyphs" textLength="214" x="51" y="766.2388">inputProductType(List&lt;Product&gt;)</text><polygon fill="#A80036" points="260,796.4375,270,800.4375,260,804.4375,264,800.4375" style="stroke: #A80036; stroke-width: 1.0;"/><line style="stroke: #A80036; stroke-width: 1.0; stroke-dasharray: 2.0,2.0;" x1="34" x2="266" y1="800.4375" y2="800.4375"/><text fill="#000000" font-family="sans-serif" font-size="13" lengthAdjust="spacingAndGlyphs" textLength="37" x="41" y="795.3716">String</text><polygon fill="#A80036" points="607,825.5703,617,829.5703,607,833.5703,611,829.5703" style="stroke: #A80036; stroke-width: 1.0;"/><line style="stroke: #A80036; stroke-width: 1.0;" x1="272" x2="613" y1="829.5703" y2="829.5703"/><text fill="#000000" font-family="sans-serif" font-size="13" lengthAdjust="spacingAndGlyphs" textLength="278" x="279" y="824.5044">validateProductType(String, List&lt;Product&gt;)</text><polygon fill="#A80036" points="283,854.7031,273,858.7031,283,862.7031,279,858.7031" style="stroke: #A80036; stroke-width: 1.0;"/><line style="stroke: #A80036; stroke-width: 1.0; stroke-dasharray: 2.0,2.0;" x1="277" x2="618" y1="858.7031" y2="858.7031"/><text fill="#000000" font-family="sans-serif" font-size="13" lengthAdjust="spacingAndGlyphs" textLength="49" x="289" y="853.6372">Product</text><polygon fill="#A80036" points="45,883.8359,35,887.8359,45,891.8359,41,887.8359" style="stroke: #A80036; stroke-width: 1.0;"/><line style="stroke: #A80036; stroke-width: 1.0;" x1="39" x2="271" y1="887.8359" y2="887.8359"/><text fill="#000000" font-family="sans-serif" font-size="13" lengthAdjust="spacingAndGlyphs" textLength="72" x="51" y="882.77">inputArea()</text><polygon fill="#A80036" points="260,912.9688,270,916.9688,260,920.9688,264,916.9688" style="stroke: #A80036; stroke-width: 1.0;"/><line style="stroke: #A80036; stroke-width: 1.0; stroke-dasharray: 2.0,2.0;" x1="34" x2="266" y1="916.9688" y2="916.9688"/><text fill="#000000" font-family="sans-serif" font-size="13" lengthAdjust="spacingAndGlyphs" textLength="71" x="41" y="911.9028">BigDecimal</text><line style="stroke: #A80036; stroke-width: 1.0; stroke-dasharray: 2.0,2.0;" x1="272" x2="314" y1="946.1016" y2="946.1016"/><line style="stroke: #A80036; stroke-width: 1.0; stroke-dasharray: 2.0,2.0;" x1="314" x2="314" y1="946.1016" y2="959.1016"/><line style="stroke: #A80036; stroke-width: 1.0; stroke-dasharray: 2.0,2.0;" x1="273" x2="314" y1="959.1016" y2="959.1016"/><polygon fill="#A80036" points="283,955.1016,273,959.1016,283,963.1016,279,959.1016" style="stroke: #A80036; stroke-width: 1.0;"/><text fill="#000000" font-family="sans-serif" font-size="13" lengthAdjust="spacingAndGlyphs" textLength="333" x="279" y="941.0356">Order(LocalDate, String, State, Product, BigDecimal)</text><polygon fill="#A80036" points="607,984.2344,617,988.2344,607,992.2344,611,988.2344" style="stroke: #A80036; stroke-width: 1.0;"/><line style="stroke: #A80036; stroke-width: 1.0;" x1="272" x2="613" y1="988.2344" y2="988.2344"/><text fill="#000000" font-family="sans-serif" font-size="13" lengthAdjust="spacingAndGlyphs" textLength="133" x="279" y="983.1685">validateOrder(Order)</text><line style="stroke: #A80036; stroke-width: 1.0; stroke-dasharray: 2.0,2.0;" x1="619" x2="661" y1="1017.3672" y2="1017.3672"/><line style="stroke: #A80036; stroke-width: 1.0; stroke-dasharray: 2.0,2.0;" x1="661" x2="661" y1="1017.3672" y2="1030.3672"/><line style="stroke: #A80036; stroke-width: 1.0; stroke-dasharray: 2.0,2.0;" x1="620" x2="661" y1="1030.3672" y2="1030.3672"/><polygon fill="#A80036" points="630,1026.3672,620,1030.3672,630,1034.3672,626,1030.3672" style="stroke: #A80036; stroke-width: 1.0;"/><text fill="#000000" font-family="sans-serif" font-size="13" lengthAdjust="spacingAndGlyphs" textLength="143" x="626" y="1012.3013">calcOrderCosts(Order)</text><line style="stroke: #A80036; stroke-width: 1.0; stroke-dasharray: 2.0,2.0;" x1="619" x2="661" y1="1059.5" y2="1059.5"/><line style="stroke: #A80036; stroke-width: 1.0; stroke-dasharray: 2.0,2.0;" x1="661" x2="661" y1="1059.5" y2="1072.5"/><line style="stroke: #A80036; stroke-width: 1.0; stroke-dasharray: 2.0,2.0;" x1="620" x2="661" y1="1072.5" y2="1072.5"/><polygon fill="#A80036" points="630,1068.5,620,1072.5,630,1076.5,626,1072.5" style="stroke: #A80036; stroke-width: 1.0;"/><text fill="#000000" font-family="sans-serif" font-size="13" lengthAdjust="spacingAndGlyphs" textLength="166" x="626" y="1054.4341">getHighestOrderNumber()</text><line style="stroke: #A80036; stroke-width: 1.0; stroke-dasharray: 2.0,2.0;" x1="619" x2="661" y1="1101.6328" y2="1101.6328"/><line style="stroke: #A80036; stroke-width: 1.0; stroke-dasharray: 2.0,2.0;" x1="661" x2="661" y1="1101.6328" y2="1114.6328"/><line style="stroke: #A80036; stroke-width: 1.0; stroke-dasharray: 2.0,2.0;" x1="620" x2="661" y1="1114.6328" y2="1114.6328"/><polygon fill="#A80036" points="630,1110.6328,620,1114.6328,630,1118.6328,626,1114.6328" style="stroke: #A80036; stroke-width: 1.0;"/><text fill="#000000" font-family="sans-serif" font-size="13" lengthAdjust="spacingAndGlyphs" textLength="752" x="626" y="1096.5669">Order(LocalDate, int, String, State, Product, BigDecimal, BigDecimal, BigDecimal, BigDecimal, BigDecimal, BigDecimal)</text><polygon fill="#A80036" points="283,1139.7656,273,1143.7656,283,1147.7656,279,1143.7656" style="stroke: #A80036; stroke-width: 1.0;"/><line style="stroke: #A80036; stroke-width: 1.0; stroke-dasharray: 2.0,2.0;" x1="277" x2="618" y1="1143.7656" y2="1143.7656"/><text fill="#000000" font-family="sans-serif" font-size="13" lengthAdjust="spacingAndGlyphs" textLength="36" x="289" y="1138.6997">Order</text><polygon fill="#A80036" points="45,1168.8984,35,1172.8984,45,1176.8984,41,1172.8984" style="stroke: #A80036; stroke-width: 1.0;"/><line style="stroke: #A80036; stroke-width: 1.0;" x1="39" x2="271" y1="1172.8984" y2="1172.8984"/><text fill="#000000" font-family="sans-serif" font-size="13" lengthAdjust="spacingAndGlyphs" textLength="123" x="51" y="1167.8325">confirmNewOrder()</text><polygon fill="#A80036" points="260,1198.0313,270,1202.0313,260,1206.0313,264,1202.0313" style="stroke: #A80036; stroke-width: 1.0;"/><line style="stroke: #A80036; stroke-width: 1.0; stroke-dasharray: 2.0,2.0;" x1="34" x2="266" y1="1202.0313" y2="1202.0313"/><text fill="#000000" font-family="sans-serif" font-size="13" lengthAdjust="spacingAndGlyphs" textLength="51" x="41" y="1196.9653">boolean</text><polygon fill="#A80036" points="607,1227.1641,617,1231.1641,607,1235.1641,611,1231.1641" style="stroke: #A80036; stroke-width: 1.0;"/><line style="stroke: #A80036; stroke-width: 1.0; stroke-dasharray: 2.0,2.0;" x1="272" x2="613" y1="1231.1641" y2="1231.1641"/><text fill="#000000" font-family="sans-serif" font-size="13" lengthAdjust="spacingAndGlyphs" textLength="36" x="279" y="1226.0981">Order</text><polygon fill="#A80036" points="1584,1256.2969,1594,1260.2969,1584,1264.2969,1588,1260.2969" style="stroke: #A80036; stroke-width: 1.0;"/><line style="stroke: #A80036; stroke-width: 1.0;" x1="619" x2="1590" y1="1260.2969" y2="1260.2969"/><text fill="#000000" font-family="sans-serif" font-size="13" lengthAdjust="spacingAndGlyphs" textLength="106" x="626" y="1255.231">addOrder(Order)</text><line style="stroke: #A80036; stroke-width: 1.0; stroke-dasharray: 2.0,2.0;" x1="1596" x2="1638" y1="1289.4297" y2="1289.4297"/><line style="stroke: #A80036; stroke-width: 1.0; stroke-dasharray: 2.0,2.0;" x1="1638" x2="1638" y1="1289.4297" y2="1302.4297"/><line style="stroke: #A80036; stroke-width: 1.0; stroke-dasharray: 2.0,2.0;" x1="1597" x2="1638" y1="1302.4297" y2="1302.4297"/><polygon fill="#A80036" points="1607,1298.4297,1597,1302.4297,1607,1306.4297,1603,1302.4297" style="stroke: #A80036; stroke-width: 1.0;"/><text fill="#000000" font-family="sans-serif" font-size="13" lengthAdjust="spacingAndGlyphs" textLength="95" x="1603" y="1284.3638">loadAllOrders()</text><line style="stroke: #A80036; stroke-width: 1.0; stroke-dasharray: 2.0,2.0;" x1="1596" x2="1638" y1="1331.5625" y2="1331.5625"/><line style="stroke: #A80036; stroke-width: 1.0; stroke-dasharray: 2.0,2.0;" x1="1638" x2="1638" y1="1331.5625" y2="1344.5625"/><line style="stroke: #A80036; stroke-width: 1.0; stroke-dasharray: 2.0,2.0;" x1="1597" x2="1638" y1="1344.5625" y2="1344.5625"/><polygon fill="#A80036" points="1607,1340.5625,1597,1344.5625,1607,1348.5625,1603,1344.5625" style="stroke: #A80036; stroke-width: 1.0;"/><text fill="#000000" font-family="sans-serif" font-size="13" lengthAdjust="spacingAndGlyphs" textLength="100" x="1603" y="1326.4966">writeAllOrders()</text><polygon fill="#A80036" points="630,1369.6953,620,1373.6953,630,1377.6953,626,1373.6953" style="stroke: #A80036; stroke-width: 1.0;"/><line style="stroke: #A80036; stroke-width: 1.0; stroke-dasharray: 2.0,2.0;" x1="624" x2="1595" y1="1373.6953" y2="1373.6953"/><text fill="#000000" font-family="sans-serif" font-size="13" lengthAdjust="spacingAndGlyphs" textLength="36" x="636" y="1368.6294">Order</text><polygon fill="#A80036" points="283,1398.8281,273,1402.8281,283,1406.8281,279,1402.8281" style="stroke: #A80036; stroke-width: 1.0;"/><line style="stroke: #A80036; stroke-width: 1.0; stroke-dasharray: 2.0,2.0;" x1="277" x2="618" y1="1402.8281" y2="1402.8281"/><text fill="#000000" font-family="sans-serif" font-size="13" lengthAdjust="spacingAndGlyphs" textLength="36" x="289" y="1397.7622">Order</text><polygon fill="#A80036" points="45,1427.9609,35,1431.9609,45,1435.9609,41,1431.9609" style="stroke: #A80036; stroke-width: 1.0;"/><line style="stroke: #A80036; stroke-width: 1.0;" x1="39" x2="271" y1="1431.9609" y2="1431.9609"/><text fill="#000000" font-family="sans-serif" font-size="13" lengthAdjust="spacingAndGlyphs" textLength="151" x="51" y="1426.895">displayOrderInfo(Order)</text><polygon fill="#A80036" points="260,1457.0938,270,1461.0938,260,1465.0938,264,1461.0938" style="stroke: #A80036; stroke-width: 1.0;"/><line style="stroke: #A80036; stroke-width: 1.0; stroke-dasharray: 2.0,2.0;" x1="34" x2="266" y1="1461.0938" y2="1461.0938"/><text fill="#000000" font-family="sans-serif" font-size="13" lengthAdjust="spacingAndGlyphs" textLength="27" x="41" y="1456.0278">void</text><polygon fill="#A80036" points="45,1486.2266,35,1490.2266,45,1494.2266,41,1490.2266" style="stroke: #A80036; stroke-width: 1.0;"/><line style="stroke: #A80036; stroke-width: 1.0;" x1="39" x2="271" y1="1490.2266" y2="1490.2266"/><text fill="#000000" font-family="sans-serif" font-size="13" lengthAdjust="spacingAndGlyphs" textLength="213" x="51" y="1485.1606">displayAddOrderSuccessBanner()</text><polygon fill="#A80036" points="260,1515.3594,270,1519.3594,260,1523.3594,264,1519.3594" style="stroke: #A80036; stroke-width: 1.0;"/><line style="stroke: #A80036; stroke-width: 1.0; stroke-dasharray: 2.0,2.0;" x1="34" x2="266" y1="1519.3594" y2="1519.3594"/><text fill="#000000" font-family="sans-serif" font-size="13" lengthAdjust="spacingAndGlyphs" textLength="27" x="41" y="1514.2935">void</text><!--MD5=[4ed2009f78e4687ee3682b3cacfe6eb8]
@startuml
title TSG Flooring Corp - addOrder() Sequence

View <- Controller : displayAddOrderBanner()
View - -> Controller : void 

View <- Controller : inputOrderDate()
View - -> Controller : LocalDate
Controller -> Service : validateOrderDate(LocalDate)
'to ensure this is a future date
Service - -> Controller : LocalDate

View <- Controller : inputCustomerName()
'validation done w regex
View - -> Controller : String

Controller -> Service : getValidStatesList()
Service -> StateDao : getValidStates()
StateDao - -> StateDao : loadStates()
StateDao - -> Service : List<State>
Service - -> Controller : List<State>
View <- Controller : inputState(List<State>)
View - -> Controller : String
Controller -> Service : validateState(String, List<State>)
Service - -> Controller : State

Controller -> Service : getValidProductsList()
Service -> ProductDao : getValidProducts()
ProductDao - -> ProductDao : loadProducts()
ProductDao - -> Service : List<Product>
Service - -> Controller : List<Product>
View <- Controller : inputProductType(List<Product>)
View - -> Controller : String
Controller -> Service : validateProductType(String, List<Product>)
Service - -> Controller : Product

View <- Controller : inputArea()
View - -> Controller : BigDecimal

Controller - -> Controller : Order(LocalDate, String, State, Product, BigDecimal)

Controller -> Service: validateOrder(Order)
Service - -> Service : calcOrderCosts(Order)
Service - -> Service : getHighestOrderNumber()
Service - -> Service : Order(LocalDate, int, String, State, Product, BigDecimal, BigDecimal, BigDecimal, BigDecimal, BigDecimal, BigDecimal)
Service - -> Controller : Order

Controller -> View : confirmNewOrder()
View - -> Controller : boolean

Controller - -> Service : Order
Service -> OrderDao : addOrder(Order)
OrderDao - -> OrderDao : loadAllOrders()
OrderDao - -> OrderDao : writeAllOrders()
OrderDao - -> Service : Order
'write to backup file
Service - -> Controller : Order

'OrderDao -[#blue]-> AuditDao : writeAuditEntry()

Controller -> View : displayOrderInfo(Order)
View - -> Controller : void

Controller -> View : displayAddOrderSuccessBanner()
View - -> Controller : void
@enduml

@startuml
title TSG Flooring Corp - addOrder() Sequence

View <- Controller : displayAddOrderBanner()
View - -> Controller : void 

View <- Controller : inputOrderDate()
View - -> Controller : LocalDate
Controller -> Service : validateOrderDate(LocalDate)
Service - -> Controller : LocalDate

View <- Controller : inputCustomerName()
View - -> Controller : String

Controller -> Service : getValidStatesList()
Service -> StateDao : getValidStates()
StateDao - -> StateDao : loadStates()
StateDao - -> Service : List<State>
Service - -> Controller : List<State>
View <- Controller : inputState(List<State>)
View - -> Controller : String
Controller -> Service : validateState(String, List<State>)
Service - -> Controller : State

Controller -> Service : getValidProductsList()
Service -> ProductDao : getValidProducts()
ProductDao - -> ProductDao : loadProducts()
ProductDao - -> Service : List<Product>
Service - -> Controller : List<Product>
View <- Controller : inputProductType(List<Product>)
View - -> Controller : String
Controller -> Service : validateProductType(String, List<Product>)
Service - -> Controller : Product

View <- Controller : inputArea()
View - -> Controller : BigDecimal

Controller - -> Controller : Order(LocalDate, String, State, Product, BigDecimal)

Controller -> Service: validateOrder(Order)
Service - -> Service : calcOrderCosts(Order)
Service - -> Service : getHighestOrderNumber()
Service - -> Service : Order(LocalDate, int, String, State, Product, BigDecimal, BigDecimal, BigDecimal, BigDecimal, BigDecimal, BigDecimal)
Service - -> Controller : Order

Controller -> View : confirmNewOrder()
View - -> Controller : boolean

Controller - -> Service : Order
Service -> OrderDao : addOrder(Order)
OrderDao - -> OrderDao : loadAllOrders()
OrderDao - -> OrderDao : writeAllOrders()
OrderDao - -> Service : Order
Service - -> Controller : Order


Controller -> View : displayOrderInfo(Order)
View - -> Controller : void

Controller -> View : displayAddOrderSuccessBanner()
View - -> Controller : void
@enduml

PlantUML version 1.2020.16beta3(Unknown compile time)
(GPL source distribution)
Java Runtime: Java(TM) SE Runtime Environment
JVM: Java HotSpot(TM) 64-Bit Server VM
Default Encoding: UTF-8
Language: en
Country: US
--></g></svg>