<?xml version="1.0" encoding="UTF-8" standalone="no"?><svg xmlns="http://www.w3.org/2000/svg" xmlns:xlink="http://www.w3.org/1999/xlink" contentScriptType="application/ecmascript" contentStyleType="text/css" height="1744px" preserveAspectRatio="none" style="width:1725px;height:1744px;" version="1.1" viewBox="0 0 1725 1744" width="1725px" zoomAndPan="magnify"><defs><filter height="300%" id="fiejchsuusihq" width="300%" x="-1" y="-1"><feGaussianBlur result="blurOut" stdDeviation="2.0"/><feColorMatrix in="blurOut" result="blurOut2" type="matrix" values="0 0 0 0 0 0 0 0 0 0 0 0 0 0 0 0 0 0 .4 0"/><feOffset dx="4.0" dy="4.0" in="blurOut2" result="blurOut3"/><feBlend in="SourceGraphic" in2="blurOut3" mode="normal"/></filter></defs><g><text fill="#000000" font-family="sans-serif" font-size="18" lengthAdjust="spacingAndGlyphs" textLength="384" x="667" y="26.708">TSG Flooring Corp - editOrder() Sequence</text><line style="stroke: #A80036; stroke-width: 1.0; stroke-dasharray: 5.0,5.0;" x1="34" x2="34" y1="73.25" y2="1696.0234"/><line style="stroke: #A80036; stroke-width: 1.0; stroke-dasharray: 5.0,5.0;" x1="327.5" x2="327.5" y1="73.25" y2="1696.0234"/><line style="stroke: #A80036; stroke-width: 1.0; stroke-dasharray: 5.0,5.0;" x1="674.5" x2="674.5" y1="73.25" y2="1696.0234"/><line style="stroke: #A80036; stroke-width: 1.0; stroke-dasharray: 5.0,5.0;" x1="1440.5" x2="1440.5" y1="73.25" y2="1696.0234"/><line style="stroke: #A80036; stroke-width: 1.0; stroke-dasharray: 5.0,5.0;" x1="1555" x2="1555" y1="73.25" y2="1696.0234"/><line style="stroke: #A80036; stroke-width: 1.0; stroke-dasharray: 5.0,5.0;" x1="1659" x2="1659" y1="73.25" y2="1696.0234"/><rect fill="#FEFECE" filter="url(#fiejchsuusihq)" height="30.2969" style="stroke: #A80036; stroke-width: 1.5;" width="48" x="8" y="37.9531"/><text fill="#000000" font-family="sans-serif" font-size="14" lengthAdjust="spacingAndGlyphs" textLength="34" x="15" y="57.9482">View</text><rect fill="#FEFECE" filter="url(#fiejchsuusihq)" height="30.2969" style="stroke: #A80036; stroke-width: 1.5;" width="48" x="8" y="1695.0234"/><text fill="#000000" font-family="sans-serif" font-size="14" lengthAdjust="spacingAndGlyphs" textLength="34" x="15" y="1715.0186">View</text><rect fill="#FEFECE" filter="url(#fiejchsuusihq)" height="30.2969" style="stroke: #A80036; stroke-width: 1.5;" width="87" x="282.5" y="37.9531"/><text fill="#000000" font-family="sans-serif" font-size="14" lengthAdjust="spacingAndGlyphs" textLength="73" x="289.5" y="57.9482">Controller</text><rect fill="#FEFECE" filter="url(#fiejchsuusihq)" height="30.2969" style="stroke: #A80036; stroke-width: 1.5;" width="87" x="282.5" y="1695.0234"/><text fill="#000000" font-family="sans-serif" font-size="14" lengthAdjust="spacingAndGlyphs" textLength="73" x="289.5" y="1715.0186">Controller</text><rect fill="#FEFECE" filter="url(#fiejchsuusihq)" height="30.2969" style="stroke: #A80036; stroke-width: 1.5;" width="67" x="639.5" y="37.9531"/><text fill="#000000" font-family="sans-serif" font-size="14" lengthAdjust="spacingAndGlyphs" textLength="53" x="646.5" y="57.9482">Service</text><rect fill="#FEFECE" filter="url(#fiejchsuusihq)" height="30.2969" style="stroke: #A80036; stroke-width: 1.5;" width="67" x="639.5" y="1695.0234"/><text fill="#000000" font-family="sans-serif" font-size="14" lengthAdjust="spacingAndGlyphs" textLength="53" x="646.5" y="1715.0186">Service</text><rect fill="#FEFECE" filter="url(#fiejchsuusihq)" height="30.2969" style="stroke: #A80036; stroke-width: 1.5;" width="83" x="1397.5" y="37.9531"/><text fill="#000000" font-family="sans-serif" font-size="14" lengthAdjust="spacingAndGlyphs" textLength="69" x="1404.5" y="57.9482">OrderDao</text><rect fill="#FEFECE" filter="url(#fiejchsuusihq)" height="30.2969" style="stroke: #A80036; stroke-width: 1.5;" width="83" x="1397.5" y="1695.0234"/><text fill="#000000" font-family="sans-serif" font-size="14" lengthAdjust="spacingAndGlyphs" textLength="69" x="1404.5" y="1715.0186">OrderDao</text><rect fill="#FEFECE" filter="url(#fiejchsuusihq)" height="30.2969" style="stroke: #A80036; stroke-width: 1.5;" width="82" x="1512" y="37.9531"/><text fill="#000000" font-family="sans-serif" font-size="14" lengthAdjust="spacingAndGlyphs" textLength="68" x="1519" y="57.9482">StateDao</text><rect fill="#FEFECE" filter="url(#fiejchsuusihq)" height="30.2969" style="stroke: #A80036; stroke-width: 1.5;" width="82" x="1512" y="1695.0234"/><text fill="#000000" font-family="sans-serif" font-size="14" lengthAdjust="spacingAndGlyphs" textLength="68" x="1519" y="1715.0186">StateDao</text><rect fill="#FEFECE" filter="url(#fiejchsuusihq)" height="30.2969" style="stroke: #A80036; stroke-width: 1.5;" width="98" x="1608" y="37.9531"/><text fill="#000000" font-family="sans-serif" font-size="14" lengthAdjust="spacingAndGlyphs" textLength="84" x="1615" y="57.9482">ProductDao</text><rect fill="#FEFECE" filter="url(#fiejchsuusihq)" height="30.2969" style="stroke: #A80036; stroke-width: 1.5;" width="98" x="1608" y="1695.0234"/><text fill="#000000" font-family="sans-serif" font-size="14" lengthAdjust="spacingAndGlyphs" textLength="84" x="1615" y="1715.0186">ProductDao</text><polygon fill="#A80036" points="45,100.3828,35,104.3828,45,108.3828,41,104.3828" style="stroke: #A80036; stroke-width: 1.0;"/><line style="stroke: #A80036; stroke-width: 1.0;" x1="39" x2="327" y1="104.3828" y2="104.3828"/><text fill="#000000" font-family="sans-serif" font-size="13" lengthAdjust="spacingAndGlyphs" textLength="160" x="51" y="99.3169">displayEditOrderBanner()</text><polygon fill="#A80036" points="316,129.5156,326,133.5156,316,137.5156,320,133.5156" style="stroke: #A80036; stroke-width: 1.0;"/><line style="stroke: #A80036; stroke-width: 1.0; stroke-dasharray: 2.0,2.0;" x1="34" x2="322" y1="133.5156" y2="133.5156"/><text fill="#000000" font-family="sans-serif" font-size="13" lengthAdjust="spacingAndGlyphs" textLength="27" x="41" y="128.4497">void</text><polygon fill="#A80036" points="45,158.6484,35,162.6484,45,166.6484,41,162.6484" style="stroke: #A80036; stroke-width: 1.0;"/><line style="stroke: #A80036; stroke-width: 1.0;" x1="39" x2="327" y1="162.6484" y2="162.6484"/><text fill="#000000" font-family="sans-serif" font-size="13" lengthAdjust="spacingAndGlyphs" textLength="136" x="51" y="157.5825">getSingleOrderDate()</text><polygon fill="#A80036" points="316,187.7813,326,191.7813,316,195.7813,320,191.7813" style="stroke: #A80036; stroke-width: 1.0;"/><line style="stroke: #A80036; stroke-width: 1.0; stroke-dasharray: 2.0,2.0;" x1="34" x2="322" y1="191.7813" y2="191.7813"/><text fill="#000000" font-family="sans-serif" font-size="13" lengthAdjust="spacingAndGlyphs" textLength="64" x="41" y="186.7153">LocalDate</text><polygon fill="#A80036" points="45,216.9141,35,220.9141,45,224.9141,41,220.9141" style="stroke: #A80036; stroke-width: 1.0;"/><line style="stroke: #A80036; stroke-width: 1.0;" x1="39" x2="327" y1="220.9141" y2="220.9141"/><text fill="#000000" font-family="sans-serif" font-size="13" lengthAdjust="spacingAndGlyphs" textLength="97" x="51" y="215.8481">getOrderNum()</text><polygon fill="#A80036" points="316,246.0469,326,250.0469,316,254.0469,320,250.0469" style="stroke: #A80036; stroke-width: 1.0;"/><line style="stroke: #A80036; stroke-width: 1.0; stroke-dasharray: 2.0,2.0;" x1="34" x2="322" y1="250.0469" y2="250.0469"/><text fill="#000000" font-family="sans-serif" font-size="13" lengthAdjust="spacingAndGlyphs" textLength="16" x="41" y="244.981">int</text><polygon fill="#A80036" points="663,275.1797,673,279.1797,663,283.1797,667,279.1797" style="stroke: #A80036; stroke-width: 1.0;"/><line style="stroke: #A80036; stroke-width: 1.0;" x1="328" x2="669" y1="279.1797" y2="279.1797"/><text fill="#000000" font-family="sans-serif" font-size="13" lengthAdjust="spacingAndGlyphs" textLength="155" x="335" y="274.1138">getOrder(LocalDate, int)</text><polygon fill="#A80036" points="1429,304.3125,1439,308.3125,1429,312.3125,1433,308.3125" style="stroke: #A80036; stroke-width: 1.0;"/><line style="stroke: #A80036; stroke-width: 1.0;" x1="675" x2="1435" y1="308.3125" y2="308.3125"/><text fill="#000000" font-family="sans-serif" font-size="13" lengthAdjust="spacingAndGlyphs" textLength="155" x="682" y="303.2466">getOrder(LocalDate, int)</text><polygon fill="#A80036" points="686,333.4453,676,337.4453,686,341.4453,682,337.4453" style="stroke: #A80036; stroke-width: 1.0;"/><line style="stroke: #A80036; stroke-width: 1.0; stroke-dasharray: 2.0,2.0;" x1="680" x2="1440" y1="337.4453" y2="337.4453"/><text fill="#000000" font-family="sans-serif" font-size="13" lengthAdjust="spacingAndGlyphs" textLength="36" x="692" y="332.3794">Order</text><polygon fill="#A80036" points="339,362.5781,329,366.5781,339,370.5781,335,366.5781" style="stroke: #A80036; stroke-width: 1.0;"/><line style="stroke: #A80036; stroke-width: 1.0; stroke-dasharray: 2.0,2.0;" x1="333" x2="674" y1="366.5781" y2="366.5781"/><text fill="#000000" font-family="sans-serif" font-size="13" lengthAdjust="spacingAndGlyphs" textLength="36" x="345" y="361.5122">Order</text><polygon fill="#A80036" points="45,391.7109,35,395.7109,45,399.7109,41,395.7109" style="stroke: #A80036; stroke-width: 1.0;"/><line style="stroke: #A80036; stroke-width: 1.0;" x1="39" x2="327" y1="395.7109" y2="395.7109"/><text fill="#000000" font-family="sans-serif" font-size="13" lengthAdjust="spacingAndGlyphs" textLength="203" x="51" y="390.645">inputEditCustomerName(Order)</text><polygon fill="#A80036" points="316,420.8438,326,424.8438,316,428.8438,320,424.8438" style="stroke: #A80036; stroke-width: 1.0;"/><line style="stroke: #A80036; stroke-width: 1.0; stroke-dasharray: 2.0,2.0;" x1="34" x2="322" y1="424.8438" y2="424.8438"/><text fill="#000000" font-family="sans-serif" font-size="13" lengthAdjust="spacingAndGlyphs" textLength="37" x="41" y="419.7778">String</text><polygon fill="#A80036" points="663,449.9766,673,453.9766,663,457.9766,667,453.9766" style="stroke: #A80036; stroke-width: 1.0;"/><line style="stroke: #A80036; stroke-width: 1.0;" x1="328" x2="669" y1="453.9766" y2="453.9766"/><text fill="#000000" font-family="sans-serif" font-size="13" lengthAdjust="spacingAndGlyphs" textLength="161" x="335" y="448.9106">getValidStatesList(Order)</text><polygon fill="#A80036" points="339,479.1094,329,483.1094,339,487.1094,335,483.1094" style="stroke: #A80036; stroke-width: 1.0;"/><line style="stroke: #A80036; stroke-width: 1.0; stroke-dasharray: 2.0,2.0;" x1="333" x2="674" y1="483.1094" y2="483.1094"/><text fill="#000000" font-family="sans-serif" font-size="13" lengthAdjust="spacingAndGlyphs" textLength="79" x="345" y="478.0435">List&lt;String&gt;</text><polygon fill="#A80036" points="45,508.2422,35,512.2422,45,516.2422,41,512.2422" style="stroke: #A80036; stroke-width: 1.0;"/><line style="stroke: #A80036; stroke-width: 1.0;" x1="39" x2="327" y1="512.2422" y2="512.2422"/><text fill="#000000" font-family="sans-serif" font-size="13" lengthAdjust="spacingAndGlyphs" textLength="179" x="51" y="507.1763">inputEditState(List&lt;String&gt;)</text><polygon fill="#A80036" points="316,537.375,326,541.375,316,545.375,320,541.375" style="stroke: #A80036; stroke-width: 1.0;"/><line style="stroke: #A80036; stroke-width: 1.0; stroke-dasharray: 2.0,2.0;" x1="34" x2="322" y1="541.375" y2="541.375"/><text fill="#000000" font-family="sans-serif" font-size="13" lengthAdjust="spacingAndGlyphs" textLength="37" x="41" y="536.3091">String</text><polygon fill="#A80036" points="663,566.5078,673,570.5078,663,574.5078,667,570.5078" style="stroke: #A80036; stroke-width: 1.0;"/><line style="stroke: #A80036; stroke-width: 1.0;" x1="328" x2="669" y1="570.5078" y2="570.5078"/><text fill="#000000" font-family="sans-serif" font-size="13" lengthAdjust="spacingAndGlyphs" textLength="132" x="335" y="565.4419">validateState(String)</text><polygon fill="#A80036" points="1543,595.6406,1553,599.6406,1543,603.6406,1547,599.6406" style="stroke: #A80036; stroke-width: 1.0;"/><line style="stroke: #A80036; stroke-width: 1.0;" x1="675" x2="1549" y1="599.6406" y2="599.6406"/><text fill="#000000" font-family="sans-serif" font-size="13" lengthAdjust="spacingAndGlyphs" textLength="139" x="682" y="594.5747">readStateByID(String)</text><polygon fill="#A80036" points="686,624.7734,676,628.7734,686,632.7734,682,628.7734" style="stroke: #A80036; stroke-width: 1.0;"/><line style="stroke: #A80036; stroke-width: 1.0; stroke-dasharray: 2.0,2.0;" x1="680" x2="1554" y1="628.7734" y2="628.7734"/><text fill="#000000" font-family="sans-serif" font-size="13" lengthAdjust="spacingAndGlyphs" textLength="34" x="692" y="623.7075">State</text><polygon fill="#A80036" points="339,653.9063,329,657.9063,339,661.9063,335,657.9063" style="stroke: #A80036; stroke-width: 1.0;"/><line style="stroke: #A80036; stroke-width: 1.0; stroke-dasharray: 2.0,2.0;" x1="333" x2="674" y1="657.9063" y2="657.9063"/><text fill="#000000" font-family="sans-serif" font-size="13" lengthAdjust="spacingAndGlyphs" textLength="34" x="345" y="652.8403">State</text><polygon fill="#A80036" points="663,683.0391,673,687.0391,663,691.0391,667,687.0391" style="stroke: #A80036; stroke-width: 1.0;"/><line style="stroke: #A80036; stroke-width: 1.0;" x1="328" x2="669" y1="687.0391" y2="687.0391"/><text fill="#000000" font-family="sans-serif" font-size="13" lengthAdjust="spacingAndGlyphs" textLength="140" x="335" y="681.9731">getValidProductsList()</text><polygon fill="#A80036" points="339,712.1719,329,716.1719,339,720.1719,335,716.1719" style="stroke: #A80036; stroke-width: 1.0;"/><line style="stroke: #A80036; stroke-width: 1.0; stroke-dasharray: 2.0,2.0;" x1="333" x2="674" y1="716.1719" y2="716.1719"/><text fill="#000000" font-family="sans-serif" font-size="13" lengthAdjust="spacingAndGlyphs" textLength="79" x="345" y="711.106">List&lt;String&gt;</text><polygon fill="#A80036" points="45,741.3047,35,745.3047,45,749.3047,41,745.3047" style="stroke: #A80036; stroke-width: 1.0;"/><line style="stroke: #A80036; stroke-width: 1.0;" x1="39" x2="327" y1="745.3047" y2="745.3047"/><text fill="#000000" font-family="sans-serif" font-size="13" lengthAdjust="spacingAndGlyphs" textLength="270" x="51" y="740.2388">inputEditProductType(Order, List&lt;String&gt;)</text><polygon fill="#A80036" points="316,770.4375,326,774.4375,316,778.4375,320,774.4375" style="stroke: #A80036; stroke-width: 1.0;"/><line style="stroke: #A80036; stroke-width: 1.0; stroke-dasharray: 2.0,2.0;" x1="34" x2="322" y1="774.4375" y2="774.4375"/><text fill="#000000" font-family="sans-serif" font-size="13" lengthAdjust="spacingAndGlyphs" textLength="37" x="41" y="769.3716">String</text><polygon fill="#A80036" points="663,799.5703,673,803.5703,663,807.5703,667,803.5703" style="stroke: #A80036; stroke-width: 1.0;"/><line style="stroke: #A80036; stroke-width: 1.0;" x1="328" x2="669" y1="803.5703" y2="803.5703"/><text fill="#000000" font-family="sans-serif" font-size="13" lengthAdjust="spacingAndGlyphs" textLength="179" x="335" y="798.5044">validateProductType(String)</text><polygon fill="#A80036" points="1647,828.7031,1657,832.7031,1647,836.7031,1651,832.7031" style="stroke: #A80036; stroke-width: 1.0;"/><line style="stroke: #A80036; stroke-width: 1.0;" x1="675" x2="1653" y1="832.7031" y2="832.7031"/><text fill="#000000" font-family="sans-serif" font-size="13" lengthAdjust="spacingAndGlyphs" textLength="154" x="682" y="827.6372">readProductByID(String)</text><polygon fill="#A80036" points="686,857.8359,676,861.8359,686,865.8359,682,861.8359" style="stroke: #A80036; stroke-width: 1.0;"/><line style="stroke: #A80036; stroke-width: 1.0; stroke-dasharray: 2.0,2.0;" x1="680" x2="1658" y1="861.8359" y2="861.8359"/><text fill="#000000" font-family="sans-serif" font-size="13" lengthAdjust="spacingAndGlyphs" textLength="49" x="692" y="856.77">Product</text><polygon fill="#A80036" points="339,886.9688,329,890.9688,339,894.9688,335,890.9688" style="stroke: #A80036; stroke-width: 1.0;"/><line style="stroke: #A80036; stroke-width: 1.0; stroke-dasharray: 2.0,2.0;" x1="333" x2="674" y1="890.9688" y2="890.9688"/><text fill="#000000" font-family="sans-serif" font-size="13" lengthAdjust="spacingAndGlyphs" textLength="49" x="345" y="885.9028">Product</text><polygon fill="#A80036" points="45,916.1016,35,920.1016,45,924.1016,41,920.1016" style="stroke: #A80036; stroke-width: 1.0;"/><line style="stroke: #A80036; stroke-width: 1.0;" x1="39" x2="327" y1="920.1016" y2="920.1016"/><text fill="#000000" font-family="sans-serif" font-size="13" lengthAdjust="spacingAndGlyphs" textLength="132" x="51" y="915.0356">inputEditArea(Order)</text><polygon fill="#A80036" points="316,945.2344,326,949.2344,316,953.2344,320,949.2344" style="stroke: #A80036; stroke-width: 1.0;"/><line style="stroke: #A80036; stroke-width: 1.0; stroke-dasharray: 2.0,2.0;" x1="34" x2="322" y1="949.2344" y2="949.2344"/><text fill="#000000" font-family="sans-serif" font-size="13" lengthAdjust="spacingAndGlyphs" textLength="71" x="41" y="944.1685">BigDecimal</text><line style="stroke: #A80036; stroke-width: 1.0; stroke-dasharray: 2.0,2.0;" x1="328" x2="370" y1="978.3672" y2="978.3672"/><line style="stroke: #A80036; stroke-width: 1.0; stroke-dasharray: 2.0,2.0;" x1="370" x2="370" y1="978.3672" y2="991.3672"/><line style="stroke: #A80036; stroke-width: 1.0; stroke-dasharray: 2.0,2.0;" x1="329" x2="370" y1="991.3672" y2="991.3672"/><polygon fill="#A80036" points="339,987.3672,329,991.3672,339,995.3672,335,991.3672" style="stroke: #A80036; stroke-width: 1.0;"/><text fill="#000000" font-family="sans-serif" font-size="13" lengthAdjust="spacingAndGlyphs" textLength="333" x="335" y="973.3013">Order(LocalDate, String, State, Product, BigDecimal)</text><polygon fill="#A80036" points="663,1016.5,673,1020.5,663,1024.5,667,1020.5" style="stroke: #A80036; stroke-width: 1.0;"/><line style="stroke: #A80036; stroke-width: 1.0; stroke-dasharray: 2.0,2.0;" x1="328" x2="669" y1="1020.5" y2="1020.5"/><text fill="#000000" font-family="sans-serif" font-size="13" lengthAdjust="spacingAndGlyphs" textLength="36" x="335" y="1015.4341">Order</text><polygon fill="#A80036" points="663,1045.6328,673,1049.6328,663,1053.6328,667,1049.6328" style="stroke: #A80036; stroke-width: 1.0;"/><line style="stroke: #A80036; stroke-width: 1.0;" x1="328" x2="669" y1="1049.6328" y2="1049.6328"/><text fill="#000000" font-family="sans-serif" font-size="13" lengthAdjust="spacingAndGlyphs" textLength="150" x="335" y="1044.5669">editOrder(Order, Order)</text><line style="stroke: #A80036; stroke-width: 1.0; stroke-dasharray: 2.0,2.0;" x1="675" x2="717" y1="1078.7656" y2="1078.7656"/><line style="stroke: #A80036; stroke-width: 1.0; stroke-dasharray: 2.0,2.0;" x1="717" x2="717" y1="1078.7656" y2="1091.7656"/><line style="stroke: #A80036; stroke-width: 1.0; stroke-dasharray: 2.0,2.0;" x1="676" x2="717" y1="1091.7656" y2="1091.7656"/><polygon fill="#A80036" points="686,1087.7656,676,1091.7656,686,1095.7656,682,1091.7656" style="stroke: #A80036; stroke-width: 1.0;"/><text fill="#000000" font-family="sans-serif" font-size="13" lengthAdjust="spacingAndGlyphs" textLength="114" x="682" y="1073.6997">calcMaterialCost()</text><line style="stroke: #A80036; stroke-width: 1.0; stroke-dasharray: 2.0,2.0;" x1="675" x2="717" y1="1120.8984" y2="1120.8984"/><line style="stroke: #A80036; stroke-width: 1.0; stroke-dasharray: 2.0,2.0;" x1="717" x2="717" y1="1120.8984" y2="1133.8984"/><line style="stroke: #A80036; stroke-width: 1.0; stroke-dasharray: 2.0,2.0;" x1="676" x2="717" y1="1133.8984" y2="1133.8984"/><polygon fill="#A80036" points="686,1129.8984,676,1133.8984,686,1137.8984,682,1133.8984" style="stroke: #A80036; stroke-width: 1.0;"/><text fill="#000000" font-family="sans-serif" font-size="13" lengthAdjust="spacingAndGlyphs" textLength="100" x="682" y="1115.8325">calcLaborCost()</text><line style="stroke: #A80036; stroke-width: 1.0; stroke-dasharray: 2.0,2.0;" x1="675" x2="717" y1="1163.0313" y2="1163.0313"/><line style="stroke: #A80036; stroke-width: 1.0; stroke-dasharray: 2.0,2.0;" x1="717" x2="717" y1="1163.0313" y2="1176.0313"/><line style="stroke: #A80036; stroke-width: 1.0; stroke-dasharray: 2.0,2.0;" x1="676" x2="717" y1="1176.0313" y2="1176.0313"/><polygon fill="#A80036" points="686,1172.0313,676,1176.0313,686,1180.0313,682,1176.0313" style="stroke: #A80036; stroke-width: 1.0;"/><text fill="#000000" font-family="sans-serif" font-size="13" lengthAdjust="spacingAndGlyphs" textLength="59" x="682" y="1157.9653">calcTax()</text><line style="stroke: #A80036; stroke-width: 1.0; stroke-dasharray: 2.0,2.0;" x1="675" x2="717" y1="1205.1641" y2="1205.1641"/><line style="stroke: #A80036; stroke-width: 1.0; stroke-dasharray: 2.0,2.0;" x1="717" x2="717" y1="1205.1641" y2="1218.1641"/><line style="stroke: #A80036; stroke-width: 1.0; stroke-dasharray: 2.0,2.0;" x1="676" x2="717" y1="1218.1641" y2="1218.1641"/><polygon fill="#A80036" points="686,1214.1641,676,1218.1641,686,1222.1641,682,1218.1641" style="stroke: #A80036; stroke-width: 1.0;"/><text fill="#000000" font-family="sans-serif" font-size="13" lengthAdjust="spacingAndGlyphs" textLength="67" x="682" y="1200.0981">calcTotal()</text><line style="stroke: #A80036; stroke-width: 1.0; stroke-dasharray: 2.0,2.0;" x1="675" x2="717" y1="1247.2969" y2="1247.2969"/><line style="stroke: #A80036; stroke-width: 1.0; stroke-dasharray: 2.0,2.0;" x1="717" x2="717" y1="1247.2969" y2="1260.2969"/><line style="stroke: #A80036; stroke-width: 1.0; stroke-dasharray: 2.0,2.0;" x1="676" x2="717" y1="1260.2969" y2="1260.2969"/><polygon fill="#A80036" points="686,1256.2969,676,1260.2969,686,1264.2969,682,1260.2969" style="stroke: #A80036; stroke-width: 1.0;"/><text fill="#000000" font-family="sans-serif" font-size="13" lengthAdjust="spacingAndGlyphs" textLength="166" x="682" y="1242.231">getHighestOrderNumber()</text><line style="stroke: #A80036; stroke-width: 1.0; stroke-dasharray: 2.0,2.0;" x1="675" x2="717" y1="1289.4297" y2="1289.4297"/><line style="stroke: #A80036; stroke-width: 1.0; stroke-dasharray: 2.0,2.0;" x1="717" x2="717" y1="1289.4297" y2="1302.4297"/><line style="stroke: #A80036; stroke-width: 1.0; stroke-dasharray: 2.0,2.0;" x1="676" x2="717" y1="1302.4297" y2="1302.4297"/><polygon fill="#A80036" points="686,1298.4297,676,1302.4297,686,1306.4297,682,1302.4297" style="stroke: #A80036; stroke-width: 1.0;"/><text fill="#000000" font-family="sans-serif" font-size="13" lengthAdjust="spacingAndGlyphs" textLength="752" x="682" y="1284.3638">Order(LocalDate, int, String, State, Product, BigDecimal, BigDecimal, BigDecimal, BigDecimal, BigDecimal, BigDecimal)</text><polygon fill="#A80036" points="45,1327.5625,35,1331.5625,45,1335.5625,41,1331.5625" style="stroke: #A80036; stroke-width: 1.0;"/><line style="stroke: #A80036; stroke-width: 1.0;" x1="39" x2="327" y1="1331.5625" y2="1331.5625"/><text fill="#000000" font-family="sans-serif" font-size="13" lengthAdjust="spacingAndGlyphs" textLength="119" x="51" y="1326.4966">confirmOrderEdit()</text><polygon fill="#A80036" points="316,1356.6953,326,1360.6953,316,1364.6953,320,1360.6953" style="stroke: #A80036; stroke-width: 1.0;"/><line style="stroke: #A80036; stroke-width: 1.0; stroke-dasharray: 2.0,2.0;" x1="34" x2="322" y1="1360.6953" y2="1360.6953"/><text fill="#000000" font-family="sans-serif" font-size="13" lengthAdjust="spacingAndGlyphs" textLength="51" x="41" y="1355.6294">boolean</text><polygon fill="#A80036" points="663,1385.8281,673,1389.8281,663,1393.8281,667,1389.8281" style="stroke: #A80036; stroke-width: 1.0;"/><line style="stroke: #A80036; stroke-width: 1.0; stroke-dasharray: 2.0,2.0;" x1="328" x2="669" y1="1389.8281" y2="1389.8281"/><text fill="#000000" font-family="sans-serif" font-size="13" lengthAdjust="spacingAndGlyphs" textLength="27" x="335" y="1384.7622">void</text><line style="stroke: #A80036; stroke-width: 1.0; stroke-dasharray: 2.0,2.0;" x1="1441" x2="1483" y1="1418.9609" y2="1418.9609"/><line style="stroke: #A80036; stroke-width: 1.0; stroke-dasharray: 2.0,2.0;" x1="1483" x2="1483" y1="1418.9609" y2="1431.9609"/><line style="stroke: #A80036; stroke-width: 1.0; stroke-dasharray: 2.0,2.0;" x1="1442" x2="1483" y1="1431.9609" y2="1431.9609"/><polygon fill="#A80036" points="1452,1427.9609,1442,1431.9609,1452,1435.9609,1448,1431.9609" style="stroke: #A80036; stroke-width: 1.0;"/><text fill="#000000" font-family="sans-serif" font-size="13" lengthAdjust="spacingAndGlyphs" textLength="95" x="1448" y="1413.895">loadAllOrders()</text><polygon fill="#A80036" points="1429,1457.0938,1439,1461.0938,1429,1465.0938,1433,1461.0938" style="stroke: #A80036; stroke-width: 1.0;"/><line style="stroke: #A80036; stroke-width: 1.0;" x1="675" x2="1435" y1="1461.0938" y2="1461.0938"/><text fill="#000000" font-family="sans-serif" font-size="13" lengthAdjust="spacingAndGlyphs" textLength="150" x="682" y="1456.0278">editOrder(Order, Order)</text><polygon fill="#A80036" points="686,1486.2266,676,1490.2266,686,1494.2266,682,1490.2266" style="stroke: #A80036; stroke-width: 1.0;"/><line style="stroke: #A80036; stroke-width: 1.0; stroke-dasharray: 2.0,2.0;" x1="680" x2="1440" y1="1490.2266" y2="1490.2266"/><text fill="#000000" font-family="sans-serif" font-size="13" lengthAdjust="spacingAndGlyphs" textLength="36" x="692" y="1485.1606">Order</text><line style="stroke: #A80036; stroke-width: 1.0; stroke-dasharray: 2.0,2.0;" x1="1441" x2="1483" y1="1519.3594" y2="1519.3594"/><line style="stroke: #A80036; stroke-width: 1.0; stroke-dasharray: 2.0,2.0;" x1="1483" x2="1483" y1="1519.3594" y2="1532.3594"/><line style="stroke: #A80036; stroke-width: 1.0; stroke-dasharray: 2.0,2.0;" x1="1442" x2="1483" y1="1532.3594" y2="1532.3594"/><polygon fill="#A80036" points="1452,1528.3594,1442,1532.3594,1452,1536.3594,1448,1532.3594" style="stroke: #A80036; stroke-width: 1.0;"/><text fill="#000000" font-family="sans-serif" font-size="13" lengthAdjust="spacingAndGlyphs" textLength="100" x="1448" y="1514.2935">writeAllOrders()</text><polygon fill="#A80036" points="339,1557.4922,329,1561.4922,339,1565.4922,335,1561.4922" style="stroke: #A80036; stroke-width: 1.0;"/><line style="stroke: #A80036; stroke-width: 1.0; stroke-dasharray: 2.0,2.0;" x1="333" x2="674" y1="1561.4922" y2="1561.4922"/><text fill="#000000" font-family="sans-serif" font-size="13" lengthAdjust="spacingAndGlyphs" textLength="36" x="345" y="1556.4263">Order</text><polygon fill="#A80036" points="45,1586.625,35,1590.625,45,1594.625,41,1590.625" style="stroke: #A80036; stroke-width: 1.0;"/><line style="stroke: #A80036; stroke-width: 1.0;" x1="39" x2="327" y1="1590.625" y2="1590.625"/><text fill="#000000" font-family="sans-serif" font-size="13" lengthAdjust="spacingAndGlyphs" textLength="151" x="51" y="1585.5591">displayOrderInfo(Order)</text><polygon fill="#A80036" points="316,1615.7578,326,1619.7578,316,1623.7578,320,1619.7578" style="stroke: #A80036; stroke-width: 1.0;"/><line style="stroke: #A80036; stroke-width: 1.0; stroke-dasharray: 2.0,2.0;" x1="34" x2="322" y1="1619.7578" y2="1619.7578"/><text fill="#000000" font-family="sans-serif" font-size="13" lengthAdjust="spacingAndGlyphs" textLength="27" x="41" y="1614.6919">void</text><polygon fill="#A80036" points="45,1644.8906,35,1648.8906,45,1652.8906,41,1648.8906" style="stroke: #A80036; stroke-width: 1.0;"/><line style="stroke: #A80036; stroke-width: 1.0;" x1="39" x2="327" y1="1648.8906" y2="1648.8906"/><text fill="#000000" font-family="sans-serif" font-size="13" lengthAdjust="spacingAndGlyphs" textLength="212" x="51" y="1643.8247">displayEditOrderSuccessBanner()</text><polygon fill="#A80036" points="316,1674.0234,326,1678.0234,316,1682.0234,320,1678.0234" style="stroke: #A80036; stroke-width: 1.0;"/><line style="stroke: #A80036; stroke-width: 1.0; stroke-dasharray: 2.0,2.0;" x1="34" x2="322" y1="1678.0234" y2="1678.0234"/><text fill="#000000" font-family="sans-serif" font-size="13" lengthAdjust="spacingAndGlyphs" textLength="27" x="41" y="1672.9575">void</text><!--MD5=[b308acb1db9c2b673f50239e276ae2a2]
@startuml
title TSG Flooring Corp - editOrder() Sequence

View <- Controller : displayEditOrderBanner()
View - -> Controller : void
'all \n user entries must  be copied over

'need to get order first
View <- Controller : getSingleOrderDate()
View - -> Controller : LocalDate
View <- Controller : getOrderNum()
View - -> Controller : int

Controller -> Service : getOrder(LocalDate, int)
Service -> OrderDao : getOrder(LocalDate, int)
OrderDao - -> Service : Order
Service - -> Controller : Order

View <- Controller : inputEditCustomerName(Order)
View - -> Controller : String

Controller -> Service : getValidStatesList(Order)
Service - -> Controller : List<String>
View <- Controller : inputEditState(List<String>)
View - -> Controller : String
Controller -> Service : validateState(String)
Service -> StateDao : readStateByID(String)
StateDao - -> Service : State
Service - -> Controller : State

Controller -> Service : getValidProductsList()
Service - -> Controller : List<String>
View <- Controller : inputEditProductType(Order, List<String>)
View - -> Controller : String
Controller -> Service : validateProductType(String)
Service -> ProductDao : readProductByID(String)
ProductDao - -> Service : Product
Service - -> Controller : Product

View <- Controller : inputEditArea(Order)
View - -> Controller : BigDecimal
Controller - -> Controller : Order(LocalDate, String, State, Product, BigDecimal)

Controller - -> Service : Order
Controller -> Service: editOrder(Order, Order)
Service - -> Service : calcMaterialCost()
Service - -> Service : calcLaborCost()
Service - -> Service : calcTax()
Service - -> Service : calcTotal()
Service - -> Service : getHighestOrderNumber()
Service - -> Service : Order(LocalDate, int, String, State, Product, BigDecimal, BigDecimal, BigDecimal, BigDecimal, BigDecimal, BigDecimal)

Controller -> View : confirmOrderEdit()
View - -> Controller : boolean

Controller - -> Service : void
OrderDao - -> OrderDao : loadAllOrders()
Service -> OrderDao : editOrder(Order, Order)
OrderDao - -> Service : Order
OrderDao - -> OrderDao : writeAllOrders()
Service - -> Controller : Order

'OrderDao -[#blue]-> AuditDao : writeAuditEntry()

Controller -> View : displayOrderInfo(Order)
View - -> Controller : void

Controller -> View : displayEditOrderSuccessBanner()
View - -> Controller : void
@enduml

@startuml
title TSG Flooring Corp - editOrder() Sequence

View <- Controller : displayEditOrderBanner()
View - -> Controller : void

View <- Controller : getSingleOrderDate()
View - -> Controller : LocalDate
View <- Controller : getOrderNum()
View - -> Controller : int

Controller -> Service : getOrder(LocalDate, int)
Service -> OrderDao : getOrder(LocalDate, int)
OrderDao - -> Service : Order
Service - -> Controller : Order

View <- Controller : inputEditCustomerName(Order)
View - -> Controller : String

Controller -> Service : getValidStatesList(Order)
Service - -> Controller : List<String>
View <- Controller : inputEditState(List<String>)
View - -> Controller : String
Controller -> Service : validateState(String)
Service -> StateDao : readStateByID(String)
StateDao - -> Service : State
Service - -> Controller : State

Controller -> Service : getValidProductsList()
Service - -> Controller : List<String>
View <- Controller : inputEditProductType(Order, List<String>)
View - -> Controller : String
Controller -> Service : validateProductType(String)
Service -> ProductDao : readProductByID(String)
ProductDao - -> Service : Product
Service - -> Controller : Product

View <- Controller : inputEditArea(Order)
View - -> Controller : BigDecimal
Controller - -> Controller : Order(LocalDate, String, State, Product, BigDecimal)

Controller - -> Service : Order
Controller -> Service: editOrder(Order, Order)
Service - -> Service : calcMaterialCost()
Service - -> Service : calcLaborCost()
Service - -> Service : calcTax()
Service - -> Service : calcTotal()
Service - -> Service : getHighestOrderNumber()
Service - -> Service : Order(LocalDate, int, String, State, Product, BigDecimal, BigDecimal, BigDecimal, BigDecimal, BigDecimal, BigDecimal)

Controller -> View : confirmOrderEdit()
View - -> Controller : boolean

Controller - -> Service : void
OrderDao - -> OrderDao : loadAllOrders()
Service -> OrderDao : editOrder(Order, Order)
OrderDao - -> Service : Order
OrderDao - -> OrderDao : writeAllOrders()
Service - -> Controller : Order


Controller -> View : displayOrderInfo(Order)
View - -> Controller : void

Controller -> View : displayEditOrderSuccessBanner()
View - -> Controller : void
@enduml

PlantUML version 1.2020.16beta3(Unknown compile time)
(GPL source distribution)
Java Runtime: Java(TM) SE Runtime Environment
JVM: Java HotSpot(TM) 64-Bit Server VM
Default Encoding: UTF-8
Language: en
Country: US
--></g></svg>