<?xml version="1.0" encoding="UTF-8" standalone="no"?><svg xmlns="http://www.w3.org/2000/svg" xmlns:xlink="http://www.w3.org/1999/xlink" contentScriptType="application/ecmascript" contentStyleType="text/css" height="931px" preserveAspectRatio="none" style="width:889px;height:931px;" version="1.1" viewBox="0 0 889 931" width="889px" zoomAndPan="magnify"><defs><filter height="300%" id="fgodqu8udk0vv" width="300%" x="-1" y="-1"><feGaussianBlur result="blurOut" stdDeviation="2.0"/><feColorMatrix in="blurOut" result="blurOut2" type="matrix" values="0 0 0 0 0 0 0 0 0 0 0 0 0 0 0 0 0 0 .4 0"/><feOffset dx="4.0" dy="4.0" in="blurOut2" result="blurOut3"/><feBlend in="SourceGraphic" in2="blurOut3" mode="normal"/></filter></defs><g><text fill="#000000" font-family="sans-serif" font-size="18" lengthAdjust="spacingAndGlyphs" textLength="384" x="249" y="26.708">TSG Flooring Corp - editOrder() Sequence</text><line style="stroke: #A80036; stroke-width: 1.0; stroke-dasharray: 5.0,5.0;" x1="34" x2="34" y1="73.25" y2="883.4375"/><line style="stroke: #A80036; stroke-width: 1.0; stroke-dasharray: 5.0,5.0;" x1="269.5" x2="269.5" y1="73.25" y2="883.4375"/><line style="stroke: #A80036; stroke-width: 1.0; stroke-dasharray: 5.0,5.0;" x1="399.5" x2="399.5" y1="73.25" y2="883.4375"/><line style="stroke: #A80036; stroke-width: 1.0; stroke-dasharray: 5.0,5.0;" x1="592" x2="592" y1="73.25" y2="883.4375"/><line style="stroke: #A80036; stroke-width: 1.0; stroke-dasharray: 5.0,5.0;" x1="699" x2="699" y1="73.25" y2="883.4375"/><line style="stroke: #A80036; stroke-width: 1.0; stroke-dasharray: 5.0,5.0;" x1="832" x2="832" y1="73.25" y2="883.4375"/><rect fill="#FEFECE" filter="url(#fgodqu8udk0vv)" height="30.2969" style="stroke: #A80036; stroke-width: 1.5;" width="48" x="8" y="37.9531"/><text fill="#000000" font-family="sans-serif" font-size="14" lengthAdjust="spacingAndGlyphs" textLength="34" x="15" y="57.9482">View</text><rect fill="#FEFECE" filter="url(#fgodqu8udk0vv)" height="30.2969" style="stroke: #A80036; stroke-width: 1.5;" width="48" x="8" y="882.4375"/><text fill="#000000" font-family="sans-serif" font-size="14" lengthAdjust="spacingAndGlyphs" textLength="34" x="15" y="902.4326">View</text><rect fill="#FEFECE" filter="url(#fgodqu8udk0vv)" height="30.2969" style="stroke: #A80036; stroke-width: 1.5;" width="87" x="224.5" y="37.9531"/><text fill="#000000" font-family="sans-serif" font-size="14" lengthAdjust="spacingAndGlyphs" textLength="73" x="231.5" y="57.9482">Controller</text><rect fill="#FEFECE" filter="url(#fgodqu8udk0vv)" height="30.2969" style="stroke: #A80036; stroke-width: 1.5;" width="87" x="224.5" y="882.4375"/><text fill="#000000" font-family="sans-serif" font-size="14" lengthAdjust="spacingAndGlyphs" textLength="73" x="231.5" y="902.4326">Controller</text><rect fill="#FEFECE" filter="url(#fgodqu8udk0vv)" height="30.2969" style="stroke: #A80036; stroke-width: 1.5;" width="67" x="364.5" y="37.9531"/><text fill="#000000" font-family="sans-serif" font-size="14" lengthAdjust="spacingAndGlyphs" textLength="53" x="371.5" y="57.9482">Service</text><rect fill="#FEFECE" filter="url(#fgodqu8udk0vv)" height="30.2969" style="stroke: #A80036; stroke-width: 1.5;" width="67" x="364.5" y="882.4375"/><text fill="#000000" font-family="sans-serif" font-size="14" lengthAdjust="spacingAndGlyphs" textLength="53" x="371.5" y="902.4326">Service</text><rect fill="#FEFECE" filter="url(#fgodqu8udk0vv)" height="30.2969" style="stroke: #A80036; stroke-width: 1.5;" width="82" x="549" y="37.9531"/><text fill="#000000" font-family="sans-serif" font-size="14" lengthAdjust="spacingAndGlyphs" textLength="68" x="556" y="57.9482">StateDao</text><rect fill="#FEFECE" filter="url(#fgodqu8udk0vv)" height="30.2969" style="stroke: #A80036; stroke-width: 1.5;" width="82" x="549" y="882.4375"/><text fill="#000000" font-family="sans-serif" font-size="14" lengthAdjust="spacingAndGlyphs" textLength="68" x="556" y="902.4326">StateDao</text><rect fill="#FEFECE" filter="url(#fgodqu8udk0vv)" height="30.2969" style="stroke: #A80036; stroke-width: 1.5;" width="42" x="676" y="37.9531"/><text fill="#000000" font-family="sans-serif" font-size="14" lengthAdjust="spacingAndGlyphs" textLength="28" x="683" y="57.9482">Dao</text><rect fill="#FEFECE" filter="url(#fgodqu8udk0vv)" height="30.2969" style="stroke: #A80036; stroke-width: 1.5;" width="42" x="676" y="882.4375"/><text fill="#000000" font-family="sans-serif" font-size="14" lengthAdjust="spacingAndGlyphs" textLength="28" x="683" y="902.4326">Dao</text><rect fill="#FEFECE" filter="url(#fgodqu8udk0vv)" height="30.2969" style="stroke: #A80036; stroke-width: 1.5;" width="80" x="790" y="37.9531"/><text fill="#000000" font-family="sans-serif" font-size="14" lengthAdjust="spacingAndGlyphs" textLength="66" x="797" y="57.9482">AuditDao</text><rect fill="#FEFECE" filter="url(#fgodqu8udk0vv)" height="30.2969" style="stroke: #A80036; stroke-width: 1.5;" width="80" x="790" y="882.4375"/><text fill="#000000" font-family="sans-serif" font-size="14" lengthAdjust="spacingAndGlyphs" textLength="66" x="797" y="902.4326">AuditDao</text><polygon fill="#A80036" points="45,100.3828,35,104.3828,45,108.3828,41,104.3828" style="stroke: #A80036; stroke-width: 1.0;"/><line style="stroke: #A80036; stroke-width: 1.0; stroke-dasharray: 2.0,2.0;" x1="39" x2="269" y1="104.3828" y2="104.3828"/><text fill="#000000" font-family="sans-serif" font-size="13" lengthAdjust="spacingAndGlyphs" textLength="160" x="51" y="99.3169">displayEditOrderBanner()</text><polygon fill="#A80036" points="258,129.5156,268,133.5156,258,137.5156,262,133.5156" style="stroke: #A80036; stroke-width: 1.0;"/><line style="stroke: #A80036; stroke-width: 1.0; stroke-dasharray: 2.0,2.0;" x1="34" x2="264" y1="133.5156" y2="133.5156"/><text fill="#000000" font-family="sans-serif" font-size="13" lengthAdjust="spacingAndGlyphs" textLength="27" x="41" y="128.4497">void</text><polygon fill="#A80036" points="45,158.6484,35,162.6484,45,166.6484,41,162.6484" style="stroke: #A80036; stroke-width: 1.0;"/><line style="stroke: #A80036; stroke-width: 1.0;" x1="39" x2="269" y1="162.6484" y2="162.6484"/><text fill="#000000" font-family="sans-serif" font-size="13" lengthAdjust="spacingAndGlyphs" textLength="131" x="51" y="157.5825">getEditedOrderInfo()</text><polygon fill="#A80036" points="258,187.7813,268,191.7813,258,195.7813,262,191.7813" style="stroke: #A80036; stroke-width: 1.0;"/><line style="stroke: #A80036; stroke-width: 1.0; stroke-dasharray: 2.0,2.0;" x1="34" x2="264" y1="191.7813" y2="191.7813"/><text fill="#000000" font-family="sans-serif" font-size="13" lengthAdjust="spacingAndGlyphs" textLength="36" x="41" y="186.7153">Order</text><polygon fill="#A80036" points="388,216.9141,398,220.9141,388,224.9141,392,220.9141" style="stroke: #A80036; stroke-width: 1.0;"/><line style="stroke: #A80036; stroke-width: 1.0;" x1="270" x2="394" y1="220.9141" y2="220.9141"/><text fill="#000000" font-family="sans-serif" font-size="13" lengthAdjust="spacingAndGlyphs" textLength="106" x="277" y="215.8481">addOrder(Order)</text><line style="stroke: #A80036; stroke-width: 1.0; stroke-dasharray: 2.0,2.0;" x1="400" x2="442" y1="250.0469" y2="250.0469"/><line style="stroke: #A80036; stroke-width: 1.0; stroke-dasharray: 2.0,2.0;" x1="442" x2="442" y1="250.0469" y2="263.0469"/><line style="stroke: #A80036; stroke-width: 1.0; stroke-dasharray: 2.0,2.0;" x1="401" x2="442" y1="263.0469" y2="263.0469"/><polygon fill="#A80036" points="411,259.0469,401,263.0469,411,267.0469,407,263.0469" style="stroke: #A80036; stroke-width: 1.0;"/><text fill="#000000" font-family="sans-serif" font-size="13" lengthAdjust="spacingAndGlyphs" textLength="133" x="407" y="244.981">validateOrder(Order)</text><polygon fill="#A80036" points="580,288.1797,590,292.1797,580,296.1797,584,292.1797" style="stroke: #A80036; stroke-width: 1.0;"/><line style="stroke: #A80036; stroke-width: 1.0; stroke-dasharray: 2.0,2.0;" x1="400" x2="586" y1="292.1797" y2="292.1797"/><text fill="#000000" font-family="sans-serif" font-size="13" lengthAdjust="spacingAndGlyphs" textLength="153" x="407" y="287.1138">verifyOrderState(Order)</text><line style="stroke: #A80036; stroke-width: 1.0; stroke-dasharray: 2.0,2.0;" x1="592" x2="634" y1="321.3125" y2="321.3125"/><line style="stroke: #A80036; stroke-width: 1.0; stroke-dasharray: 2.0,2.0;" x1="634" x2="634" y1="321.3125" y2="334.3125"/><line style="stroke: #A80036; stroke-width: 1.0; stroke-dasharray: 2.0,2.0;" x1="593" x2="634" y1="334.3125" y2="334.3125"/><polygon fill="#A80036" points="603,330.3125,593,334.3125,603,338.3125,599,334.3125" style="stroke: #A80036; stroke-width: 1.0;"/><text fill="#000000" font-family="sans-serif" font-size="13" lengthAdjust="spacingAndGlyphs" textLength="78" x="599" y="316.2466">loadStates()</text><polygon fill="#A80036" points="411,359.4453,401,363.4453,411,367.4453,407,363.4453" style="stroke: #A80036; stroke-width: 1.0;"/><line style="stroke: #A80036; stroke-width: 1.0; stroke-dasharray: 2.0,2.0;" x1="405" x2="591" y1="363.4453" y2="363.4453"/><text fill="#000000" font-family="sans-serif" font-size="13" lengthAdjust="spacingAndGlyphs" textLength="51" x="417" y="358.3794">boolean</text><polygon fill="#A80036" points="580,388.5781,590,392.5781,580,396.5781,584,392.5781" style="stroke: #A80036; stroke-width: 1.0;"/><line style="stroke: #A80036; stroke-width: 1.0; stroke-dasharray: 2.0,2.0;" x1="400" x2="586" y1="392.5781" y2="392.5781"/><text fill="#000000" font-family="sans-serif" font-size="13" lengthAdjust="spacingAndGlyphs" textLength="168" x="407" y="387.5122">verifyOrderProduct(Order)</text><line style="stroke: #A80036; stroke-width: 1.0; stroke-dasharray: 2.0,2.0;" x1="592" x2="634" y1="421.7109" y2="421.7109"/><line style="stroke: #A80036; stroke-width: 1.0; stroke-dasharray: 2.0,2.0;" x1="634" x2="634" y1="421.7109" y2="434.7109"/><line style="stroke: #A80036; stroke-width: 1.0; stroke-dasharray: 2.0,2.0;" x1="593" x2="634" y1="434.7109" y2="434.7109"/><polygon fill="#A80036" points="603,430.7109,593,434.7109,603,438.7109,599,434.7109" style="stroke: #A80036; stroke-width: 1.0;"/><text fill="#000000" font-family="sans-serif" font-size="13" lengthAdjust="spacingAndGlyphs" textLength="93" x="599" y="416.645">loadProducts()</text><polygon fill="#A80036" points="411,459.8438,401,463.8438,411,467.8438,407,463.8438" style="stroke: #A80036; stroke-width: 1.0;"/><line style="stroke: #A80036; stroke-width: 1.0; stroke-dasharray: 2.0,2.0;" x1="405" x2="591" y1="463.8438" y2="463.8438"/><text fill="#000000" font-family="sans-serif" font-size="13" lengthAdjust="spacingAndGlyphs" textLength="51" x="417" y="458.7778">boolean</text><line style="stroke: #A80036; stroke-width: 1.0; stroke-dasharray: 2.0,2.0;" x1="400" x2="442" y1="492.9766" y2="492.9766"/><line style="stroke: #A80036; stroke-width: 1.0; stroke-dasharray: 2.0,2.0;" x1="442" x2="442" y1="492.9766" y2="505.9766"/><line style="stroke: #A80036; stroke-width: 1.0; stroke-dasharray: 2.0,2.0;" x1="401" x2="442" y1="505.9766" y2="505.9766"/><polygon fill="#A80036" points="411,501.9766,401,505.9766,411,509.9766,407,505.9766" style="stroke: #A80036; stroke-width: 1.0;"/><text fill="#000000" font-family="sans-serif" font-size="13" lengthAdjust="spacingAndGlyphs" textLength="114" x="407" y="487.9106">calcMaterialCost()</text><line style="stroke: #A80036; stroke-width: 1.0; stroke-dasharray: 2.0,2.0;" x1="400" x2="442" y1="535.1094" y2="535.1094"/><line style="stroke: #A80036; stroke-width: 1.0; stroke-dasharray: 2.0,2.0;" x1="442" x2="442" y1="535.1094" y2="548.1094"/><line style="stroke: #A80036; stroke-width: 1.0; stroke-dasharray: 2.0,2.0;" x1="401" x2="442" y1="548.1094" y2="548.1094"/><polygon fill="#A80036" points="411,544.1094,401,548.1094,411,552.1094,407,548.1094" style="stroke: #A80036; stroke-width: 1.0;"/><text fill="#000000" font-family="sans-serif" font-size="13" lengthAdjust="spacingAndGlyphs" textLength="100" x="407" y="530.0435">calcLaborCost()</text><line style="stroke: #A80036; stroke-width: 1.0; stroke-dasharray: 2.0,2.0;" x1="400" x2="442" y1="577.2422" y2="577.2422"/><line style="stroke: #A80036; stroke-width: 1.0; stroke-dasharray: 2.0,2.0;" x1="442" x2="442" y1="577.2422" y2="590.2422"/><line style="stroke: #A80036; stroke-width: 1.0; stroke-dasharray: 2.0,2.0;" x1="401" x2="442" y1="590.2422" y2="590.2422"/><polygon fill="#A80036" points="411,586.2422,401,590.2422,411,594.2422,407,590.2422" style="stroke: #A80036; stroke-width: 1.0;"/><text fill="#000000" font-family="sans-serif" font-size="13" lengthAdjust="spacingAndGlyphs" textLength="59" x="407" y="572.1763">calcTax()</text><line style="stroke: #A80036; stroke-width: 1.0; stroke-dasharray: 2.0,2.0;" x1="400" x2="442" y1="619.375" y2="619.375"/><line style="stroke: #A80036; stroke-width: 1.0; stroke-dasharray: 2.0,2.0;" x1="442" x2="442" y1="619.375" y2="632.375"/><line style="stroke: #A80036; stroke-width: 1.0; stroke-dasharray: 2.0,2.0;" x1="401" x2="442" y1="632.375" y2="632.375"/><polygon fill="#A80036" points="411,628.375,401,632.375,411,636.375,407,632.375" style="stroke: #A80036; stroke-width: 1.0;"/><text fill="#000000" font-family="sans-serif" font-size="13" lengthAdjust="spacingAndGlyphs" textLength="67" x="407" y="614.3091">calcTotal()</text><polygon fill="#A80036" points="687,657.5078,697,661.5078,687,665.5078,691,661.5078" style="stroke: #A80036; stroke-width: 1.0;"/><line style="stroke: #A80036; stroke-width: 1.0;" x1="400" x2="693" y1="661.5078" y2="661.5078"/><text fill="#000000" font-family="sans-serif" font-size="13" lengthAdjust="spacingAndGlyphs" textLength="106" x="407" y="656.4419">addOrder(Order)</text><polygon fill="#A80036" points="411,686.6406,401,690.6406,411,694.6406,407,690.6406" style="stroke: #A80036; stroke-width: 1.0;"/><line style="stroke: #A80036; stroke-width: 1.0; stroke-dasharray: 2.0,2.0;" x1="405" x2="698" y1="690.6406" y2="690.6406"/><text fill="#000000" font-family="sans-serif" font-size="13" lengthAdjust="spacingAndGlyphs" textLength="36" x="417" y="685.5747">Order</text><polygon fill="#0000FF" points="820,715.7734,830,719.7734,820,723.7734,824,719.7734" style="stroke: #0000FF; stroke-width: 1.0;"/><line style="stroke: #0000FF; stroke-width: 1.0; stroke-dasharray: 2.0,2.0;" x1="699" x2="826" y1="719.7734" y2="719.7734"/><text fill="#000000" font-family="sans-serif" font-size="13" lengthAdjust="spacingAndGlyphs" textLength="109" x="706" y="714.7075">writeAuditEntry()</text><polygon fill="#A80036" points="281,744.9063,271,748.9063,281,752.9063,277,748.9063" style="stroke: #A80036; stroke-width: 1.0;"/><line style="stroke: #A80036; stroke-width: 1.0; stroke-dasharray: 2.0,2.0;" x1="275" x2="399" y1="748.9063" y2="748.9063"/><text fill="#000000" font-family="sans-serif" font-size="13" lengthAdjust="spacingAndGlyphs" textLength="36" x="287" y="743.8403">Order</text><polygon fill="#A80036" points="45,774.0391,35,778.0391,45,782.0391,41,778.0391" style="stroke: #A80036; stroke-width: 1.0;"/><line style="stroke: #A80036; stroke-width: 1.0;" x1="39" x2="269" y1="778.0391" y2="778.0391"/><text fill="#000000" font-family="sans-serif" font-size="13" lengthAdjust="spacingAndGlyphs" textLength="151" x="51" y="772.9731">displayOrderInfo(Order)</text><polygon fill="#A80036" points="258,803.1719,268,807.1719,258,811.1719,262,807.1719" style="stroke: #A80036; stroke-width: 1.0;"/><line style="stroke: #A80036; stroke-width: 1.0; stroke-dasharray: 2.0,2.0;" x1="34" x2="264" y1="807.1719" y2="807.1719"/><text fill="#000000" font-family="sans-serif" font-size="13" lengthAdjust="spacingAndGlyphs" textLength="27" x="41" y="802.106">void</text><polygon fill="#A80036" points="45,832.3047,35,836.3047,45,840.3047,41,836.3047" style="stroke: #A80036; stroke-width: 1.0;"/><line style="stroke: #A80036; stroke-width: 1.0;" x1="39" x2="269" y1="836.3047" y2="836.3047"/><text fill="#000000" font-family="sans-serif" font-size="13" lengthAdjust="spacingAndGlyphs" textLength="212" x="51" y="831.2388">displayEditOrderSuccessBanner()</text><polygon fill="#A80036" points="258,861.4375,268,865.4375,258,869.4375,262,865.4375" style="stroke: #A80036; stroke-width: 1.0;"/><line style="stroke: #A80036; stroke-width: 1.0; stroke-dasharray: 2.0,2.0;" x1="34" x2="264" y1="865.4375" y2="865.4375"/><text fill="#000000" font-family="sans-serif" font-size="13" lengthAdjust="spacingAndGlyphs" textLength="27" x="41" y="860.3716">void</text><!--MD5=[c58de7b0709dadf63682194e77763865]
@startuml
title TSG Flooring Corp - editOrder() Sequence

View <- - Controller : displayEditOrderBanner()
View - -> Controller : void
View <- Controller : getEditedOrderInfo()
View - -> Controller : Order 
'all \n user entries will be copied over

Controller -> Service : addOrder(Order)
Service - -> Service : validateOrder(Order)
Service - -> StateDao : verifyOrderState(Order)
StateDao - -> StateDao : loadStates()
StateDao - -> Service : boolean
Service - -> StateDao : verifyOrderProduct(Order)
StateDao - -> StateDao : loadProducts()
StateDao - -> Service : boolean
Service - -> Service : calcMaterialCost()
Service - -> Service : calcLaborCost()
Service - -> Service : calcTax()
Service - -> Service : calcTotal()
Service -> Dao : addOrder(Order)
Dao - -> Service : Order
Dao -[#blue]-> AuditDao : writeAuditEntry()
Service - -> Controller : Order

Controller -> View : displayOrderInfo(Order)
View - -> Controller : void

Controller -> View : displayEditOrderSuccessBanner()
View - -> Controller : void
@enduml

@startuml
title TSG Flooring Corp - editOrder() Sequence

View <- - Controller : displayEditOrderBanner()
View - -> Controller : void
View <- Controller : getEditedOrderInfo()
View - -> Controller : Order 

Controller -> Service : addOrder(Order)
Service - -> Service : validateOrder(Order)
Service - -> StateDao : verifyOrderState(Order)
StateDao - -> StateDao : loadStates()
StateDao - -> Service : boolean
Service - -> StateDao : verifyOrderProduct(Order)
StateDao - -> StateDao : loadProducts()
StateDao - -> Service : boolean
Service - -> Service : calcMaterialCost()
Service - -> Service : calcLaborCost()
Service - -> Service : calcTax()
Service - -> Service : calcTotal()
Service -> Dao : addOrder(Order)
Dao - -> Service : Order
Dao -[#blue]-> AuditDao : writeAuditEntry()
Service - -> Controller : Order

Controller -> View : displayOrderInfo(Order)
View - -> Controller : void

Controller -> View : displayEditOrderSuccessBanner()
View - -> Controller : void
@enduml

PlantUML version 1.2020.15beta1(Unknown compile time)
(GPL source distribution)
Java Runtime: Java(TM) SE Runtime Environment
JVM: Java HotSpot(TM) 64-Bit Server VM
Default Encoding: UTF-8
Language: en
Country: US
--></g></svg>